<?xml version="1.0" encoding="UTF-8" standalone="no"?>
<svg xmlns:dc="http://purl.org/dc/elements/1.1/" xmlns:cc="http://creativecommons.org/ns#" xmlns:rdf="http://www.w3.org/1999/02/22-rdf-syntax-ns#" xmlns:svg="http://www.w3.org/2000/svg" xmlns="http://www.w3.org/2000/svg" xmlns:xlink="http://www.w3.org/1999/xlink" id="svg835" version="1.1" viewBox="0 0 646 371">
    <metadata id="metadata839">
        <rdf:RDF>
            <cc:Work rdf:about="">
                <dc:format>image/svg+xml</dc:format>
                <dc:type rdf:resource="http://purl.org/dc/dcmitype/StillImage" />
                <dc:title></dc:title>
            </cc:Work>
        </rdf:RDF>
    </metadata>
    <defs id="defs831">
        <clipPath id="clipPath4555" clipPathUnits="userSpaceOnUse">
            <path style="display:inline;stroke-width:1.320807" d="m 64.5608,24.9848 c 172.5522,2.2344 345.1032,4.6001 517.6552,6.966 0.928,1.4457 1.328,2.2342 3.052,3.023 0.663,0 1.328,0 1.99,0 0,0.3942 0,0.657 0,1.0514 0.665,0.3942 1.328,0.6572 1.993,1.0514 0,0.6572 0,1.3143 0,1.9715 1.592,1.3144 3.316,2.6287 5.042,3.943 0,0.6572 0,1.3143 0,1.9715 0,0 1.727,1.7086 1.991,1.9715 0.664,0.3942 1.327,0.6571 1.992,1.0514 0,2.8915 0,5.9145 0,8.9374 2.92,3.4173 -0.399,11.6975 1.06,16.6921 0.4,0 0.665,0 1.064,0 0.398,7.2288 0.663,14.4575 1.061,21.6862 0,3.5487 0,7.2288 0,10.9098 0.4,0 0.663,0 1.063,0 0,5.518 0,11.172 0,16.823 0.397,0 0.664,0 1.062,0 0.396,7.228 0.663,14.457 1.06,21.686 0,3.548 0,7.228 0,10.909 0.4,0 0.663,0 1.062,0 0.4,7.492 0.665,15.114 1.063,22.606 0,3.549 0,7.229 0,10.909 0.399,0 0.663,0 1.062,0 0,5.258 0,10.515 0,15.772 0.398,0 0.662,0 1.06,0 0,5.52 0,11.172 0,16.824 0.399,0 0.666,0 1.063,0 0.399,7.49 0.662,15.115 1.062,22.737 0,3.549 0,7.228 0,10.91 0.398,0 0.663,0 1.06,0 0,5.257 0,10.514 0,15.771 0.4,0 0.666,0 1.065,0 0,5.519 0,11.171 0,16.824 0.397,0 0.662,0 1.06,0 0,5.519 0,11.171 0,16.824 0.797,3.021 2.391,22.343 1.063,26.68 -0.398,0 -0.664,0 -1.063,0 0,0.92 0,1.971 0,3.023 -0.398,0 -0.663,0 -1.06,0 0,0.919 0,1.971 0,3.021 -0.665,0.397 -1.327,0.657 -1.993,1.054 -0.397,0.919 -0.662,1.972 -1.061,3.022 -0.399,0 -0.664,0 -1.063,0 0,0.658 0,1.315 0,1.972 -0.397,0 -0.663,0 -1.063,0 -1.326,2.235 0.4,1.313 -1.989,3.022 -4.911,4.863 -25.75,3.024 -35.838,3.024 -32.519,0 -65.039,0 -97.558,0 -68.622,-0.394 -137.377,-0.656 -206.133,-1.052 -22.164,0 -44.464,0 -66.763,0 -10.353,0 -24.291,1.446 -32.919,-1.052 -36.101,0 -72.338,0 -108.5732,0 0,-0.393 0,-0.657 0,-1.05 -1.9908,-0.394 -3.9817,-0.657 -5.974,-1.053 0,-0.393 0,-0.657 0,-1.052 -0.9283,0 -1.9908,0 -3.052,0 -0.3984,-0.657 -0.6641,-1.313 -1.0625,-1.97 -0.6627,0 -1.3268,0 -1.9909,0 0,-0.395 0,-0.657 0,-1.052 -0.6627,0 -1.3268,0 -1.9909,0 -0.3984,-0.657 -0.6627,-1.314 -1.0611,-1.971 -1.9908,-1.578 -3.9817,-3.286 -5.9739,-4.994 0,-0.657 0,-1.315 0,-1.972 -0.3971,0 -0.6627,0 -1.0612,0 -0.9297,-1.183 -0.664,-1.972 -1.9908,-3.023 0.3984,-10.515 0.6641,-21.03 1.0611,-31.544 0.3985,0 0.6641,0 1.0626,0 0,-5.257 0,-10.515 0,-15.771 0.3984,0 0.664,0 1.0611,0 0,-3.549 0,-7.23 0,-10.91 0.3985,-7.491 0.6641,-15.114 1.0625,-22.739 0.3985,0 0.6641,0 1.0612,0 0,-5.518 0,-11.171 0,-16.821 0.3985,0 0.6641,0 1.0625,0 0.3985,-7.231 0.6641,-14.458 1.0612,-21.687 0,-3.549 0,-7.229 0,-10.909 0.3984,0 0.6641,0 1.0624,0 0,-5.52 0,-11.173 0,-16.824 0.3985,0 0.6641,0 1.0612,0 0.3984,-7.229 0.6641,-14.457 1.0625,-21.686 0,-3.548 0,-7.23 0,-10.909 0.3985,0 0.6641,0 1.0612,0 0,-5.521 0,-11.172 0,-16.824 0.3984,0 0.6641,0 1.0625,0 1.5924,-30.229 3.319,-60.4583 5.0443,-90.688 1.4596,-7.623 9.0259,-10.9088 12.742,-17.0862 z" id="path4557" />
        </clipPath>
    </defs>
    <image xlink:href="munia_device.jpg" clip-path="url(#clipPath4555)" x="0" y="0" width="646" height="371" id="image833" style="display:inline" />
</svg>
