<?xml version="1.0" encoding="UTF-8" standalone="no"?>
<!-- Generator: Adobe Illustrator 19.0.0, SVG Export Plug-In . SVG Version: 6.00 Build 0)  -->

<svg xmlns:dc="http://purl.org/dc/elements/1.1/" xmlns:cc="http://creativecommons.org/ns#" xmlns:rdf="http://www.w3.org/1999/02/22-rdf-syntax-ns#" xmlns:svg="http://www.w3.org/2000/svg" xmlns="http://www.w3.org/2000/svg" xmlns:xlink="http://www.w3.org/1999/xlink" xmlns:sodipodi="http://sodipodi.sourceforge.net/DTD/sodipodi-0.dtd" xmlns:inkscape="http://www.inkscape.org/namespaces/inkscape" version="1.1" id="Layer_1" x="0px" y="0px" width="1258.66" height="1285.33" viewBox="0 0 1258.66 1285.33" xml:space="preserve" sodipodi:docname="munia_device.svg" inkscape:version="0.92.3 (2405546, 2018-03-11)">
	<defs id="defs829">
        <clipPath id="clipPath4555" clipPathUnits="userSpaceOnUse">
            <path style="display:inline;stroke-width:1.320807" d="m -395.33,-86.009 h -2.5 c -2.1,4.026 -1.75,9.647 -1.67,15.94 1.83,2.266 -0.16,6.714 0.82,10.069 h 0.85 v 3.357 h 0.83 c 1.09,3.607 -0.41,9.397 1.67,11.746 0.9,0.922 0,0.335 1.66,0.839 0.58,2.35 0.24,1.846 2.49,2.518 0.49,0.502 9.41,1.763 10.82,0.838 v -0.838 c 4.74,-1.092 15.74,-12.418 15.82,-18.46 h 0.83 v -2.517 h 0.83 v -0.838 h -0.83 v -15.104 h -0.83 v -5.873 h 0.83 v -2.517 h 0.83 v -1.679 h 0.83 v -3.355 h 0.83 c 0.26,-2.265 0.58,-4.447 0.84,-6.712 1.41,-0.841 2.74,-1.679 4.17,-2.517 v -10.069 h 1.66 c 0.17,-1.929 0.17,-2.182 0.83,-3.356 h 0.83 v -2.518 c 0.58,-0.252 1.08,-0.587 1.66,-0.839 1.5,-2.098 -0.92,-1.594 2.5,-2.517 0.24,-1.426 0.58,-2.767 0.82,-4.195 0.86,-0.587 1.68,-1.092 2.51,-1.679 0.25,-1.427 0.58,-2.768 0.83,-4.193 0.59,-0.253 1.08,-0.588 1.66,-0.84 v -2.516 h 0.84 c 0.24,-0.842 0.58,-1.68 0.82,-2.519 h 1.68 c 0.32,-2.937 0.98,-2.517 1.65,-5.033 h 1.68 v -1.679 h 4.98 c 0.84,-1.427 1.67,-2.77 2.5,-4.195 0.83,-0.251 1.66,-0.587 2.5,-0.838 v -1.679 c 0.84,-0.587 1.67,-1.091 2.49,-1.677 v -1.681 c 1.09,-0.839 2.25,-1.676 3.33,-2.514 0.25,-0.589 0.58,-1.092 0.84,-1.68 0.84,-0.251 1.66,-0.587 2.48,-0.839 0.26,-0.838 0.6,-1.678 0.86,-2.518 h 1.65 c 0.26,-0.586 0.58,-1.089 0.84,-1.676 h 1.66 c 0.58,-0.841 1.07,-1.679 1.66,-2.518 h 1.67 c 0.24,-0.587 0.59,-1.091 0.83,-1.678 h 1.67 c 0.58,-0.839 1.08,-1.678 1.67,-2.518 h 1.65 c 0.25,-0.585 0.59,-1.09 0.85,-1.677 h 1.64 c 0.84,-1.091 1.68,-2.265 2.51,-3.358 h 1.67 c 0.25,-0.586 0.58,-1.09 0.83,-1.676 0.83,-0.254 1.66,-0.588 2.5,-0.839 v -0.839 h 1.65 c 0.26,-0.588 0.59,-1.091 0.84,-1.678 1.66,-0.587 3.33,-1.092 5,-1.678 0.23,-0.589 0.59,-1.092 0.83,-1.679 1.09,-0.252 2.24,-0.587 3.33,-0.84 v -0.839 h 1.65 v -0.838 c 1.67,-0.588 3.34,-1.091 5,-1.679 v -0.837 c 1.43,-0.252 2.75,-0.588 4.17,-0.84 v -0.839 c 0.58,-0.252 1.08,-0.586 1.65,-0.839 0.82,-1.258 -0.24,-2.519 0.82,-3.357 1.11,-0.253 2.27,-0.587 3.36,-0.839 0.24,-0.587 0.59,-1.09 0.83,-1.677 h 2.49 v -0.839 h 1.67 v -0.84 c 1.65,-0.587 3.32,-1.09 4.99,-1.677 v -0.84 h 2.49 v -0.84 h 7.49 c 0.25,-0.587 0.59,-1.091 0.85,-1.677 h 1.64 v -2.517 h 0.85 c 2.08,-2.265 3.08,-1.259 5.82,-2.517 v -0.84 h 1.67 v -0.838 h 3.32 v -0.841 h 1.67 v -0.838 h 2.49 v -0.838 c 1.09,-0.252 2.25,-0.588 3.35,-0.84 v -0.838 h 2.49 v -0.84 h 2.5 v -0.839 h 2.48 v -0.838 h 2.51 v -0.839 h 1.67 v -0.841 h 1.65 c 0.25,-0.587 0.57,-1.088 0.83,-1.677 h 2.5 v -0.838 h 2.51 v -0.841 h 2.49 v -0.839 h 2.48 v -0.838 h 1.69 c 0.24,-0.588 0.57,-1.091 0.81,-1.678 h 2.52 v -0.839 h 2.48 v -0.839 h 3.32 v -0.839 h 4.18 v -0.838 h 3.33 v -0.84 h 3.32 v -0.839 h 3.34 v -0.84 h 2.49 v -0.838 h 2.5 v -0.84 c 2.74,-0.588 5.57,-1.091 8.31,-1.677 v -0.84 h 3.34 v -0.839 h 4.99 v -0.838 h 3.33 v -0.838 h 2.48 v -0.84 h 2.49 c 0.26,-0.588 0.6,-1.09 0.86,-1.68 3.32,-0.251 6.65,-0.587 9.98,-0.838 v -0.839 h 3.32 v -0.839 h 4.17 v -0.841 h 5.83 v -0.838 h 6.64 v -0.838 h 2.52 v -0.838 h 7.48 v -0.84 h 5 v -0.839 h 7.49 v -0.84 h 4.99 v -0.839 h 4.16 v -0.839 h 8.32 v -0.839 h 9.17 v -0.838 h 2.49 v -0.84 h 4.15 v -0.839 h 18.32 c 16.98,0 33.86,-0.587 46.61,3.356 h 9.97 v 0.839 h 3.34 v 0.839 h 4.18 v 0.84 h 9.13 v 0.839 h 2.52 v 0.84 h 2.49 v 0.838 c 4.16,0.588 8.3,1.09 12.48,1.676 v 0.841 h 2.5 v 0.839 h 2.49 v 0.839 c 3.08,0.587 6.08,1.091 9.16,1.677 v 0.841 h 1.66 v 0.84 h 2.48 c 0.26,0.586 0.6,1.088 0.86,1.676 h 2.47 v 0.839 h 1.68 v 0.84 c 2.5,0.586 4.98,1.089 7.5,1.677 v 0.84 c 1.07,0.252 2.24,0.586 3.33,0.838 v 0.84 c 1.39,0.251 2.74,0.588 4.14,0.839 v 0.84 h 3.34 v 0.838 c 1.09,0.251 2.25,0.587 3.32,0.839 0.25,0.587 0.59,1.091 0.84,1.678 h 1.66 v 0.839 h 1.66 v 0.839 h 2.51 v 0.838 c 1.08,0.253 2.26,0.587 3.32,0.839 v 0.841 h 2.51 c 0.56,0.838 1.07,1.676 1.64,2.515 1.68,0.589 3.35,1.092 5.03,1.68 0.23,0.586 0.55,1.09 0.81,1.677 h 3.33 v 0.84 h 1.67 v 0.838 h 1.67 c 0.83,1.929 1.65,3.945 2.49,5.874 1.66,0.588 3.32,1.09 4.99,1.678 0.59,0.838 1.09,1.678 1.66,2.517 h 1.67 v 0.838 c 0.84,0.252 1.66,0.589 2.5,0.839 0.25,0.588 0.58,1.092 0.84,1.68 h 1.64 c 0.58,0.838 1.1,1.677 1.68,2.517 h 1.67 c 0.58,0.839 1.08,1.677 1.66,2.516 h 1.65 c 0.59,0.839 1.1,1.677 1.69,2.517 h 1.65 c 0.83,1.091 1.66,2.266 2.5,3.357 1.08,0.252 2.25,0.588 3.34,0.84 0.24,0.586 0.56,1.089 0.81,1.677 1.08,0.839 2.26,1.677 3.33,2.516 v 0.84 h 1.68 v 0.84 c 1.25,1.005 1.49,1.175 3.32,1.678 v 1.676 c 2.91,1.764 3.83,4.868 7.49,5.875 0.58,1.678 1.09,3.355 1.68,5.034 2.33,0.587 1.83,0.251 2.48,2.517 1.17,1.006 1.25,1.509 1.67,3.357 0.85,0.251 1.67,0.586 2.49,0.837 v 0.84 c 2.16,1.51 1.57,-0.922 2.5,2.517 3.75,1.091 3.09,2.434 5,5.034 1.07,0.841 2.25,1.679 3.32,2.518 v 1.679 c 0.82,0.587 1.67,1.09 2.51,1.677 v 0.838 h 3.32 c 0.26,0.588 0.59,1.091 0.83,1.678 h 0.84 c 0.24,1.091 0.57,2.266 0.84,3.358 0.82,0.588 1.65,1.091 2.47,1.677 v 2.517 c 0.83,0.587 1.68,1.092 2.53,1.677 v 1.681 h 0.81 c 0.25,2.264 0.58,4.445 0.84,6.71 0.59,0.253 1.09,0.587 1.66,0.839 0.26,1.427 0.58,2.771 0.82,4.196 h 0.84 c 0.25,2.266 0.59,4.446 0.86,6.713 h 0.82 v 1.677 h 0.81 v 1.679 c 0.58,0.252 1.09,0.586 1.68,0.839 l 2.5,7.551 h 0.83 c 0.26,0.839 0.58,1.679 0.83,2.517 0.59,0.253 1.08,0.588 1.66,0.838 0.26,1.68 0.57,3.356 0.84,5.035 h 0.83 c 0.24,1.091 0.59,2.266 0.84,3.356 h 0.81 l 2.52,7.553 c 0.57,0.252 1.07,0.587 1.66,0.839 0.23,1.425 0.6,2.767 0.83,4.194 0.82,0.587 1.65,1.091 2.49,1.679 v 3.356 h 0.84 c 0.24,1.93 0.57,3.943 0.83,5.874 h 0.81 c 0.27,1.09 0.6,2.266 0.85,3.355 h 0.84 v 3.356 h 0.83 v 1.678 h 0.84 v 2.518 h 0.83 c 1.16,1.594 1.91,1.929 2.48,4.195 2.01,0.503 1.59,0.251 2.51,1.678 h 0.83 v 2.516 h 0.82 v 3.357 h 0.83 v 14.262 h 0.86 v 2.52 h 0.83 v 6.711 h 0.82 c 0.25,3.945 0.59,7.804 0.84,11.748 h 0.82 c 0.26,4.194 0.59,8.39 0.83,12.584 -3.73,2.014 -6.4,5.707 -10.82,6.712 -0.74,3.274 -6.07,12.252 -4.15,16.782 0.57,0.251 1.09,0.587 1.67,0.839 v 3.356 h 0.83 v 1.679 h 0.83 c 1.08,2.936 -0.34,5.453 1.65,7.552 1.1,1.342 3,2.851 4.99,3.355 -0.33,3.187 -1.74,4.448 -2.48,6.712 0.24,8.391 0.58,16.782 0.83,25.172 -2.59,1.51 -1.75,2.434 -3.34,4.193 -2.48,2.686 -5.23,1.596 -5.82,6.714 2.01,1.343 0.49,0.756 1.67,2.517 0.58,0.252 1.08,0.588 1.67,0.84 v 2.515 h 0.83 v 13.427 h 0.82 v 2.515 h 0.83 c 1.1,3.357 -0.1,20.977 -0.83,23.493 -1.16,3.861 -2.15,9.482 -3.32,13.428 v 5.872 h -0.83 v 2.517 h -0.84 c -0.25,3.104 -0.58,6.124 -0.85,9.23 -0.57,0.251 -1.07,0.587 -1.64,0.839 v 10.906 c 0,7.217 0.16,13.175 1.64,18.459 v 10.07 h 0.85 v 16.781 h 0.84 v 5.035 h 0.83 v 2.517 h 0.84 v 19.29 c -0.58,16.21 -1.1,32.477 -1.67,48.673 1.41,0.85 2.74,1.68 4.15,2.52 v 22.66 c 2.15,2.51 -0.49,8.13 0.83,11.73 h 0.84 c 1.17,2.52 2.09,2.69 2.5,5.88 -28.05,0.24 -56.01,0.59 -84.04,0.85 h -32.48 c -5.83,0.24 -11.65,0.58 -17.49,0.83 -9.48,2.93 -16.97,6.53 -24.12,11.74 -1.41,1.68 -2.75,3.37 -4.18,5.04 -0.58,0.26 -1.08,0.58 -1.66,0.83 v 1.68 c -0.82,0.59 -1.66,1.1 -2.49,1.68 v 1.68 c -0.58,0.25 -1.07,0.58 -1.65,0.84 -0.26,1.09 -0.6,2.27 -0.86,3.36 -0.58,0.24 -1.07,0.57 -1.65,0.83 v 2.53 h -0.82 c -0.26,1.08 -0.6,2.27 -0.86,3.33 h -0.82 c -0.58,3.63 -1.07,7.32 -1.66,10.93 h -0.85 v 53.69 c -1.64,6.05 -0.81,16.04 -0.81,23.49 v 44.49 c -0.59,42.79 -1.09,85.57 -1.67,128.36 -5,0.26 -9.98,0.6 -14.99,0.84 -0.57,-3.86 -1.67,-6.29 -5.81,-6.72 v 0.85 h -6.65 c -5.59,0.24 -11.08,0.59 -16.66,0.84 -0.83,1.09 -1.67,2.26 -2.51,3.36 h -0.83 v 2.51 c -2.73,6.63 -5.31,20.9 -2.49,30.2 v 4.2 h 0.83 v 3.37 h 0.84 v 2.51 c 0.59,0.24 1.07,0.58 1.65,0.83 1.5,2.19 -0.91,1.5 2.51,2.52 1.43,1.26 4.81,0.84 7.49,0.84 6.49,0 12.91,0.67 18.31,0.84 0.74,-2.95 2.07,-3.09 2.5,-6.72 h 14.97 c -1.07,85 -2.25,170.07 -3.32,255.07 v 50.34 c 0,6.22 -0.59,14.43 0.84,19.3 v 5.052 h 0.82 v 2.5 h 0.85 v 1.68 h 0.81 c 0.26,1.69 0.59,3.36 0.84,5.03 h 0.84 v 1.69 h 0.83 v 1.68 c 0.58,0.26 1.08,0.57 1.66,0.83 v 1.68 c 0.59,0.26 1.08,0.59 1.66,0.83 v 1.69 c 0.82,0.59 1.68,1.09 2.5,1.68 v 1.68 c 1.65,1.43 3.33,2.76 4.99,4.2 0.84,1.08 1.66,2.25 2.49,3.35 h 1.68 c 0.26,0.59 0.58,1.09 0.83,1.67 h 1.65 c 0.26,0.6 0.58,1.09 0.85,1.69 1.08,0.25 2.23,0.57 3.31,0.83 v 0.84 h 1.68 v 0.85 c 1.65,0.58 3.33,1.08 4.99,1.67 v 0.83 c 3.58,0.6 7.24,1.09 10.82,1.69 v 0.83 h 36.62 v 0.85 h 42.47 42.43 c 11.55,-3.44 30.54,-1.68 44.93,-1.68 12.91,0 28.46,-1.26 39.95,0.83 v 1.69 c 2.92,0.32 2.5,1 4.99,1.67 v 1.68 h 1.68 c 0.25,1.58 0.83,1.68 0.83,1.68 v 11.76 h 0.83 v 3.34 h 0.83 c 0.67,1.18 0.59,1.43 0.83,3.35 h 1.66 c 0.58,3.94 1.08,7.81 1.67,11.75 h 0.85 v 1.68 h 0.81 c 0.58,3.93 1.09,7.79 1.67,11.75 h 1.66 c 0.58,3.95 1.09,7.81 1.67,11.76 h 1.65 c 0.59,3.34 1.09,6.7 1.68,10.04 0.58,0.27 1.09,0.6 1.67,0.86 v 2.52 h 0.83 v 6.7 h 0.83 v 3.35 h 0.84 v 1.68 h 0.82 v 3.35 c 0.58,0.27 1.09,0.61 1.67,0.85 0.58,2.53 1.08,5.04 1.68,7.56 0.55,0.25 1.06,0.57 1.64,0.84 v 2.52 c 0.59,0.24 1.1,0.58 1.68,0.83 0.58,3.11 1.08,6.14 1.66,9.22 h 1.66 c 0.59,2.77 1.08,5.63 1.67,8.4 0.58,0.25 1.08,0.57 1.66,0.83 0.58,2.51 1.08,5.05 1.66,7.57 h 1.67 c 0.27,1.08 0.59,2.25 0.84,3.34 h 0.83 v 3.36 h 0.82 v 3.36 h 0.84 v 3.36 h 0.83 c 0.25,2.26 0.58,4.42 0.83,6.7 0.58,0.25 1.07,0.59 1.67,0.84 v 2.51 c 0.58,0.27 1.08,0.6 1.66,0.85 v 2.51 h 0.82 v 1.68 h 0.85 v 3.35 c 0.58,0.26 1.08,0.6 1.66,0.85 0.59,2.51 1.08,5.04 1.67,7.55 h 1.66 v 1.68 h 1.65 c 0.27,2.76 0.59,5.63 0.85,8.38 h 0.84 v 3.36 h 0.81 c 0.66,1.17 0.59,1.44 0.84,3.37 h 1.67 v 1.66 h 1.66 c 0.59,2.79 1.09,5.63 1.67,8.4 h 1.66 c 0.59,2.77 1.08,5.62 1.67,8.39 h 1.65 c 1.03,4.45 4.34,8.4 5,13.42 h 1.66 c 0.58,2.78 1.5,3.2 1.68,6.71 h 1.64 v 3.36 h 1.7 c 0.57,2.76 1.48,3.19 1.65,6.73 h 1.67 v 3.35 h 1.65 c 0.99,4.95 4.33,7.03 5.01,11.74 h 1.66 v 3.34 h 1.67 v 3.38 h 1.65 v 3.34 h 1.66 v 3.36 h 1.68 c 0.5,4.45 2.66,3.95 3.32,8.39 h 1.68 c 0.1,2.18 0.1,2.94 0.82,4.2 h 0.83 c 0.25,1.43 0.6,2.78 0.83,4.19 0.83,0.6 1.66,1.1 2.5,1.69 v 1.67 c 0.58,0.26 1.09,0.58 1.67,0.85 v 3.35 h 0.82 c 0.27,0.83 0.6,1.68 0.84,2.52 h 1.67 v 3.35 h 1.66 c 1.24,6.88 6.33,10.74 9.16,15.94 0.23,1.43 0.57,2.77 0.83,4.2 0.58,0.26 1.07,0.6 1.65,0.84 v 1.69 c 0.59,0.23 1.09,0.56 1.67,0.84 v 1.65 c 0.59,0.26 1.08,0.6 1.67,0.86 v 1.66 h 0.83 v 1.68 h 0.83 v 1.7 c 0.6,0.23 1.11,0.57 1.66,0.82 0.26,1.11 0.58,2.26 0.84,3.36 0.58,0.25 1.08,0.58 1.68,0.83 0.24,1.1 0.58,2.27 0.8,3.36 0.6,0.26 1.1,0.6 1.67,0.84 0.26,0.83 0.59,1.69 0.85,2.52 h 0.83 c 0.58,1.68 1.08,3.36 1.65,5.02 0.6,0.27 1.11,0.61 1.68,0.85 v 1.69 h 0.83 v 1.66 h 0.84 c 0.23,0.85 0.56,1.69 0.83,2.53 0.59,0.26 1.07,0.58 1.65,0.85 0.26,1.08 0.59,2.25 0.83,3.34 0.58,0.26 1.1,0.61 1.68,0.84 v 1.68 h 0.83 v 1.68 c 0.84,0.58 1.66,1.08 2.49,1.68 0.59,1.68 1.09,3.34 1.67,5.04 0.58,0.23 1.07,0.57 1.67,0.82 0.58,1.69 1.07,3.36 1.65,5.04 0.83,0.59 1.67,1.09 2.51,1.68 0.57,1.68 1.07,3.36 1.65,5.03 h 0.84 c 0.25,0.85 0.6,1.68 0.83,2.52 0.58,0.26 1.1,0.59 1.67,0.84 0.57,1.68 1.08,3.37 1.66,5.04 0.58,0.25 1.09,0.59 1.65,0.84 v 1.67 c 0.58,0.26 1.11,0.59 1.69,0.84 v 1.69 c 0.57,0.24 1.08,0.58 1.66,0.84 v 1.67 c 0.57,0.26 1.08,0.59 1.66,0.84 v 1.68 h 0.84 v 1.68 c 0.57,0.25 1.06,0.58 1.65,0.82 0.25,1.09 0.59,2.28 0.85,3.36 h 0.82 c 0.26,0.86 0.59,1.68 0.83,2.52 0.57,0.25 1.08,0.59 1.68,0.85 v 1.68 c 0.57,0.25 1.08,0.57 1.67,0.84 0.22,1.07 0.57,2.26 0.81,3.35 0.59,0.24 1.1,0.58 1.67,0.84 v 1.68 c 0.58,0.24 1.08,0.59 1.65,0.83 0.26,1.09 0.58,2.28 0.85,3.35 0.59,0.26 1.09,0.6 1.65,0.86 0.25,1.07 0.6,2.26 0.83,3.35 h 0.84 c 0.27,0.84 0.59,1.67 0.85,2.51 0.58,0.25 1.06,0.59 1.65,0.85 v 1.67 h 0.83 v 1.67 c 0.6,0.26 1.09,0.6 1.67,0.85 0.26,1.09 0.57,2.26 0.83,3.35 0.57,0.25 1.08,0.59 1.67,0.85 0.24,1.08 0.58,2.27 0.83,3.34 h 0.81 c 0.27,0.85 0.59,1.69 0.84,2.53 0.61,0.25 1.11,0.57 1.68,0.83 0.25,1.09 0.58,2.27 0.83,3.36 0.84,0.59 1.67,1.1 2.49,1.68 0.59,1.67 1.08,3.35 1.67,5.02 0.57,0.27 1.07,0.6 1.66,0.85 0.26,1.09 0.59,2.26 0.83,3.36 0.83,0.6 1.68,1.09 2.51,1.66 v 1.7 H 531 v 1.68 h 0.82 v 1.67 c 0.58,0.26 1.07,0.58 1.66,0.84 0.59,1.67 1.09,3.37 1.67,5.03 0.57,0.26 1.06,0.59 1.66,0.85 v 1.66 c 0.58,0.27 1.08,0.6 1.65,0.85 v 1.69 c 0.6,0.24 1.1,0.57 1.69,0.83 v 1.68 c 0.57,0.25 1.07,0.59 1.66,0.83 0.58,1.68 1.07,3.36 1.64,5.04 0.85,0.58 1.69,1.1 2.52,1.66 0.58,1.7 1.07,3.38 1.66,5.04 h 0.83 c 0.26,0.85 0.58,1.69 0.83,2.53 0.6,0.25 1.08,0.6 1.68,0.84 0.26,1.09 0.57,2.27 0.83,3.35 0.58,0.26 1.08,0.59 1.65,0.86 0.25,1.08 0.59,2.25 0.84,3.34 0.59,0.24 1.09,0.58 1.67,0.84 0.24,1.09 0.56,2.27 0.83,3.34 0.57,0.27 1.09,0.6 1.67,0.86 0.24,1.08 0.58,2.25 0.82,3.35 0.59,0.24 1.09,0.59 1.68,0.84 0.25,1.09 0.57,2.27 0.83,3.36 0.58,0.25 1.07,0.58 1.66,0.84 v 1.67 h 0.82 v 1.68 c 0.6,0.24 1.09,0.59 1.68,0.83 0.57,1.69 1.07,3.36 1.65,5.04 0.59,0.25 1.09,0.59 1.66,0.84 0.26,1.09 0.59,2.27 0.84,3.35 0.6,0.26 1.08,0.6 1.68,0.85 v 1.69 c 0.58,0.24 1.07,0.57 1.65,0.82 0.24,1.1 0.59,2.28 0.83,3.37 0.58,0.25 1.09,0.57 1.66,0.83 v 1.68 c 0.59,0.25 1.09,0.58 1.67,0.85 v 1.66 c 1.17,2.2 2.67,3.77 3.33,6.72 h 72.42 c -0.1,-4.37 -2.34,-8.98 -4.17,-11.74 -0.59,-0.26 -1.08,-0.59 -1.66,-0.85 -0.58,-1.68 -1.09,-3.34 -1.68,-5.03 -0.57,-0.25 -1.06,-0.59 -1.66,-0.85 v -1.68 h -0.82 v -1.67 h -0.84 v -2.52 c -0.57,-0.25 -1.07,-0.58 -1.67,-0.84 v -1.68 c -0.58,-0.25 -1.08,-0.57 -1.67,-0.84 -0.24,-1.09 -0.57,-2.25 -0.8,-3.35 -0.59,-0.25 -1.1,-0.59 -1.69,-0.83 -0.25,-1.09 -0.57,-2.27 -0.83,-3.36 -0.58,-0.26 -1.06,-0.59 -1.66,-0.84 -0.25,-1.09 -0.59,-2.26 -0.83,-3.35 -0.58,-0.26 -1.08,-0.6 -1.66,-0.84 -0.58,-1.68 -1.09,-3.35 -1.68,-5.04 -0.58,-0.24 -1.08,-0.58 -1.65,-0.83 v -1.69 h -0.83 v -1.68 h -0.84 v -1.67 h -0.84 v -1.68 c -0.58,-0.24 -1.07,-0.59 -1.65,-0.84 v -1.68 c -0.58,-0.24 -1.09,-0.6 -1.67,-0.85 -0.26,-0.83 -0.59,-1.66 -0.82,-2.51 h -0.84 c -0.25,-1.08 -0.59,-2.26 -0.85,-3.34 -0.58,-0.27 -1.08,-0.61 -1.65,-0.85 v -1.68 c -0.58,-0.26 -1.09,-0.6 -1.66,-0.85 v -1.67 c -0.59,-0.26 -1.1,-0.58 -1.67,-0.84 -0.58,-1.67 -1.08,-3.34 -1.67,-5.03 -0.58,-0.25 -1.09,-0.58 -1.65,-0.85 v -1.66 c -0.59,-0.26 -1.09,-0.59 -1.68,-0.85 v -1.66 c -0.58,-0.27 -1.08,-0.6 -1.67,-0.85 -0.57,-1.69 -1.08,-3.36 -1.66,-5.03 -0.83,-0.58 -1.66,-1.1 -2.49,-1.68 v -1.7 c -0.58,-0.23 -1.08,-0.57 -1.68,-0.83 -0.24,-1.09 -0.57,-2.26 -0.82,-3.35 -0.58,-0.24 -1.08,-0.59 -1.67,-0.84 -0.24,-1.08 -0.59,-2.27 -0.83,-3.35 -0.59,-0.26 -1.08,-0.6 -1.66,-0.85 v -1.67 c -0.59,-0.26 -1.08,-0.58 -1.66,-0.86 -0.26,-1.07 -0.59,-2.25 -0.84,-3.34 h -0.82 c -0.25,-0.84 -0.59,-1.67 -0.84,-2.51 -0.58,-0.26 -1.07,-0.59 -1.66,-0.84 -0.26,-1.09 -0.59,-2.26 -0.85,-3.36 -0.56,-0.26 -1.08,-0.59 -1.65,-0.83 v -1.68 h -0.84 c -0.25,-0.85 -0.59,-1.68 -0.83,-2.52 -0.58,-0.25 -1.09,-0.59 -1.66,-0.85 v -1.67 c -0.58,-0.26 -1.09,-0.58 -1.67,-0.84 -0.25,-0.83 -0.58,-1.68 -0.83,-2.52 h -0.83 c -0.23,-1.08 -0.57,-2.25 -0.83,-3.34 -0.84,-0.61 -1.66,-1.11 -2.51,-1.68 v -2.52 c -0.56,-0.26 -1.08,-0.6 -1.66,-0.86 v -1.66 c -0.58,-0.26 -1.08,-0.59 -1.67,-0.86 v -1.66 c -0.57,-0.27 -1.08,-0.59 -1.66,-0.85 v -1.68 c -0.59,-0.26 -1.08,-0.57 -1.66,-0.82 -0.24,-1.1 -0.57,-2.28 -0.82,-3.37 -0.84,-0.58 -1.68,-1.08 -2.52,-1.66 v -1.69 c -0.57,-0.25 -1.07,-0.58 -1.66,-0.83 v -1.7 h -0.83 v -1.66 c -0.58,-0.26 -1.07,-0.59 -1.66,-0.84 -0.24,-1.09 -0.57,-2.26 -0.84,-3.36 -0.58,-0.26 -1.08,-0.59 -1.65,-0.83 -0.25,-1.1 -0.59,-2.26 -0.83,-3.37 -0.58,-0.25 -1.1,-0.58 -1.67,-0.83 v -1.68 c -0.59,-0.25 -1.08,-0.58 -1.66,-0.84 v -1.67 c -0.58,-0.26 -1.1,-0.6 -1.67,-0.85 -0.27,-1.09 -0.59,-2.26 -0.83,-3.36 h -0.83 c -0.25,-0.83 -0.58,-1.68 -0.84,-2.52 -0.59,-0.25 -1.09,-0.58 -1.66,-0.83 -0.25,-1.09 -0.59,-2.27 -0.83,-3.36 -0.83,-0.59 -1.68,-1.09 -2.51,-1.68 v -1.68 h -0.83 v -1.67 c -0.58,-0.26 -1.08,-0.58 -1.67,-0.85 -0.24,-1.09 -0.57,-2.26 -0.82,-3.36 -0.58,-0.23 -1.07,-0.57 -1.67,-0.83 v -1.68 c -0.57,-0.25 -1.07,-0.58 -1.65,-0.83 -0.26,-1.1 -0.6,-2.26 -0.84,-3.36 h -0.83 c -0.26,-0.84 -0.58,-1.68 -0.83,-2.52 -0.59,-0.25 -1.09,-0.59 -1.69,-0.82 -0.23,-1.11 -0.57,-2.28 -0.81,-3.37 -0.59,-0.25 -1.07,-0.59 -1.67,-0.84 v -1.69 c -0.58,-0.24 -1.08,-0.58 -1.66,-0.82 -0.25,-0.84 -0.58,-1.68 -0.84,-2.53 h -0.82 v -2.51 c -0.84,-0.6 -1.66,-1.1 -2.5,-1.68 -0.26,-1.1 -0.59,-2.27 -0.83,-3.37 -0.85,-0.58 -1.68,-1.07 -2.51,-1.67 -0.24,-1.09 -0.59,-2.26 -0.82,-3.36 -0.58,-0.25 -1.1,-0.58 -1.67,-0.83 v -2.52 c -0.84,-0.59 -1.66,-1.09 -2.49,-1.66 -0.25,-1.1 -0.6,-2.28 -0.84,-3.38 -0.58,-0.24 -1.08,-0.58 -1.65,-0.83 v -1.69 c -0.59,-0.24 -1.11,-0.56 -1.7,-0.83 v -1.66 c -0.56,-0.28 -1.06,-0.6 -1.64,-0.86 v -1.67 h -0.84 v -1.68 h -0.83 v -1.67 h -0.83 v -1.68 c -0.58,-0.26 -1.07,-0.59 -1.67,-0.84 v -1.69 c -0.58,-0.24 -1.07,-0.59 -1.65,-0.85 -0.25,-1.07 -0.59,-2.25 -0.83,-3.34 -0.58,-0.25 -1.1,-0.59 -1.69,-0.84 -0.23,-0.84 -0.58,-1.69 -0.83,-2.51 h -0.82 c -0.59,-1.68 -1.1,-3.37 -1.68,-5.04 -0.57,-0.26 -1.07,-0.59 -1.65,-0.83 v -1.69 c -0.57,-0.26 -1.08,-0.58 -1.67,-0.83 v -1.69 c -0.59,-0.25 -1.07,-0.59 -1.65,-0.83 v -2.52 c -0.59,-0.25 -1.09,-0.59 -1.69,-0.83 v -1.69 c -0.57,-0.25 -1.06,-0.6 -1.65,-0.83 -1.51,-2.27 -2.91,-5.13 -3.32,-8.39 h -1.68 c -0.58,-1.69 -1.06,-3.35 -1.65,-5.05 -0.59,-0.23 -1.09,-0.58 -1.68,-0.83 v -2.52 c -0.59,-0.25 -1.07,-0.59 -1.66,-0.84 v -1.67 h -0.83 c -0.82,-1.26 -0.66,-2.11 -0.82,-4.2 h -1.67 c -0.5,-2.44 -1.33,-3.43 -2.51,-5.05 h -0.81 v -2.5 c -0.59,-0.25 -1.09,-0.59 -1.68,-0.84 v -2.51 h -0.84 c -0.75,-1.19 -0.57,-1.43 -0.83,-3.36 h -1.65 c -0.42,-3.61 -1.17,-2.18 -1.67,-5.87 h -1.67 v -3.35 h -1.65 v -3.38 h -1.67 v -3.35 h -1.68 v -3.36 h -1.66 c -0.66,-2.66 -1.25,-1.83 -1.65,-5.02 h -1.67 v -3.36 h -1.68 v -3.35 h -1.65 v -3.36 h -1.68 c -0.25,-0.83 -0.57,-1.68 -0.82,-2.53 h -0.85 v -2.51 h -0.8 c -0.76,-1.16 -0.6,-1.43 -0.85,-3.35 h -1.67 v -3.37 h -1.66 c -0.59,-2.75 -1.49,-3.18 -1.66,-6.71 h -1.67 v -3.36 h -1.67 c -0.92,-3.77 -2.98,-5.11 -3.31,-10.05 h -1.67 c -0.24,-0.84 -0.59,-1.69 -0.84,-2.52 h -0.82 v -2.51 c -0.6,-0.26 -1.1,-0.6 -1.67,-0.86 v -2.51 c -0.59,-0.26 -1.09,-0.58 -1.68,-0.83 v -2.52 c -0.56,-0.25 -1.06,-0.59 -1.65,-0.84 v -2.51 h -0.83 c -0.26,-1.7 -0.59,-3.37 -0.83,-5.05 h -0.83 c -0.67,-1.17 -0.58,-1.42 -0.84,-3.34 h -1.66 c -0.25,-0.85 -0.58,-1.7 -0.84,-2.53 h -0.83 c -0.25,-1.42 -0.59,-2.77 -0.84,-4.2 h -0.83 v -3.36 c -0.58,-0.24 -1.06,-0.58 -1.66,-0.83 v -2.51 c -0.58,-0.25 -1.08,-0.6 -1.65,-0.84 v -2.53 c -0.6,-0.25 -1.1,-0.57 -1.68,-0.84 -0.57,-2.49 -1.06,-5.01 -1.65,-7.53 -0.59,-0.26 -1.1,-0.61 -1.67,-0.85 v -2.53 h -0.84 v -1.68 h -0.84 v -3.34 c -0.57,-0.26 -1.07,-0.6 -1.66,-0.85 v -2.52 c -0.58,-0.24 -1.06,-0.58 -1.65,-0.83 v -2.52 c -0.59,-0.25 -1.09,-0.59 -1.67,-0.83 v -2.53 c -0.58,-0.25 -1.08,-0.58 -1.66,-0.84 -0.59,-2.49 -1.09,-5.02 -1.67,-7.53 -0.59,-0.26 -1.09,-0.6 -1.66,-0.85 -0.58,-2.51 -1.1,-5.03 -1.68,-7.54 -0.58,-0.28 -1.07,-0.59 -1.65,-0.84 v -2.54 c -0.6,-0.24 -1.09,-0.57 -1.67,-0.83 -0.58,-3.1 -1.08,-6.11 -1.65,-9.22 -0.6,-0.27 -1.1,-0.6 -1.7,-0.85 -0.57,-2.52 -1.07,-5.03 -1.64,-7.56 h -0.85 v -1.66 h -0.83 v -3.36 h -0.83 v -1.68 h -0.83 v -3.34 h -0.82 v -1.7 h -0.84 v -3.34 c -0.59,-0.25 -1.08,-0.61 -1.66,-0.85 -0.57,-3.11 -1.08,-6.12 -1.68,-9.23 -0.59,-0.26 -1.08,-0.6 -1.65,-0.84 -0.59,-3.1 -1.08,-6.12 -1.67,-9.23 -0.58,-0.24 -1.07,-0.59 -1.66,-0.85 -1.08,-5.27 -2.26,-10.63 -3.33,-15.93 h -1.67 c -1.08,-6.37 -3.15,-11.41 -3.34,-18.45 h 1.69 v -1.69 c 9.73,-1.76 23.07,-0.83 34.11,-0.83 h 62.42 33.28 v -0.85 h 3.33 v -0.84 c 2.52,-0.66 5.26,1.26 6.67,1.69 h 14.99 54.92 23.31 v -0.85 h 3.33 v -0.84 c 4.4,-1.34 9.14,0.94 11.65,1.69 h 5.83 16.64 c 1.74,0.51 7.74,3.11 9.99,2.52 v -0.84 h 4.17 v -0.85 h 7.48 v -0.83 h 2.5 v -0.85 h 21.64 c 3.66,1.09 11.73,3.28 17.47,1.68 7.42,-2.09 19.38,-0.83 28.31,-0.83 h 28.3 c 1.4,-0.43 5.15,-2.26 7.47,-1.69 v 0.84 c 5.01,0.59 10,1.09 14.98,1.68 0.26,1.1 0.6,2.28 0.85,3.36 H 789 v 7.55 h 1.65 v 3.36 h 0.83 v 5.04 h -0.83 c -0.25,1.75 0.83,1.68 0.83,1.68 v 4.18 h 0.84 v 4.2 h 0.82 c -0.23,6.96 -0.58,14.01 -0.82,20.98 h 0.82 c 0.25,3.36 0.58,6.72 0.85,10.06 h 0.84 v 3.36 h 0.83 c 0.24,3.36 0.58,6.72 0.82,10.07 h 0.83 v 10.07 h 0.84 v 2.51 h 0.83 c 0.25,4.46 0.58,8.99 0.83,13.44 h 2.5 c -0.25,14.09 1.99,26.85 4.98,37.74 -0.24,1.44 -0.57,2.77 -0.81,4.2 h 0.81 v 5.03 h 0.85 v 5.04 h 0.84 v 5.04 h 0.82 V 1212 c 1.41,5.11 1.92,11.66 3.31,16.76 v 15.96 h 0.85 v 5.03 h 0.84 v 9.23 h 0.84 v 4.2 h 0.82 v 9.23 h 0.83 v 9.23 h 0.83 v 1.66 h 0.84 c -0.24,1.44 -0.59,2.79 -0.84,4.21 h 0.84 v 1.67 h 0.83 c 0.25,2.78 0.57,5.62 0.83,8.4 0,0.16 -1.08,0.32 -0.83,1.68 h 0.83 v 2.51 h 0.83 v 12.6 c 0.1,4.01 1.08,5.02 1.66,7.55 -0.25,1.66 -0.58,3.35 -0.83,5.02 h 1.66 c -0.1,5.96 0.51,10.07 1.68,14.27 v 9.22 h 0.83 v 10.09 h 0.83 v 3.34 h 0.83 v 9.22 h 0.82 v 10.08 c 2.84,9.81 1.34,24.59 4.17,34.4 0.58,12.84 1.08,25.75 1.68,38.59 h 0.82 c 0.43,1.69 -0.82,2.51 -0.82,2.51 v 0.84 h 0.82 v 10.91 h 0.83 c 0.26,7.56 0.59,15.11 0.85,22.66 v 18.45 h 0.82 v 20.15 h 0.82 v 23.49 h 0.85 c 0.24,10.06 0.58,20.14 0.83,30.21 h 56.58 c -0.24,-8.14 -0.57,-16.2 -0.81,-24.34 h -0.85 v -14.27 h -0.84 v -15.09 h -0.83 v -10.91 -2.52 h -0.82 v -20.15 h -0.84 v -19.29 h -0.82 v -13.42 h -0.84 v -7.54 h -0.83 v -6.73 h -0.83 c -0.83,-2.84 0.83,-6.79 0.83,-8.38 h -0.83 v -6.71 h -0.83 v -9.23 h -0.84 v -13.43 h -0.81 v -1.67 h -0.87 c -0.32,-1.43 0.77,-1.43 0.87,-1.68 v -14.27 h -0.87 v -3.34 h -0.81 v -10.09 h -0.84 v -7.53 h -0.84 v -16.79 h -0.83 v -2.52 h -0.81 v -1.67 h -0.84 v -10.08 h -0.84 v -5.88 h -0.83 v -7.54 h -0.82 v -0.85 h 0.82 v -2.51 h -0.82 v -2.51 h -0.85 c -0.25,-2.77 -0.58,-5.62 -0.82,-8.4 h 1.67 v -3.36 h -1.67 c 0,-4.93 -0.67,-7.55 -1.66,-10.9 v -16.78 h -0.86 c -0.25,-5.03 -0.56,-10.08 -0.82,-15.11 h -0.83 v -5.87 h 0.83 v -0.83 h -0.83 v -5.88 h -0.83 c -0.83,-11.16 -1.66,-22.4 -2.5,-33.57 h -1.66 c -0.25,-7.53 -0.58,-15.09 -0.84,-22.65 h -0.83 c -0.24,-4.44 -0.59,-8.98 -0.83,-13.43 h -0.83 v -2.51 h -0.84 c 0.58,-3.1 1.1,-6.12 1.67,-9.23 h -0.83 v -7.55 h -0.84 v -2.5 h -0.84 c -0.23,-2.54 -0.57,-5.06 -0.82,-7.57 h -0.82 v -13.42 h -0.85 c -0.25,-3.09 -0.58,-6.12 -0.83,-9.23 v -10.91 c -1.9,-6.46 -5.4,-14.52 -5.83,-21.81 h -2.48 v -16.79 h -0.85 v -2.52 h -0.82 c -0.25,-1.09 -0.59,-2.26 -0.84,-3.35 h -0.82 v -12.58 c -2.93,-9.99 -4,-19.72 -4.17,-32.71 h 0.84 c 2,1.74 14.23,0.83 18.29,0.83 h 52.43 c 15.84,0 36.14,-1.77 49.13,1.67 2.74,-0.58 5.56,-1.1 8.31,-1.67 h 30.8 44.1 v 0.83 h 3.33 v 0.84 h 16.65 c 9.07,2.78 24.06,1.69 35.79,1.69 v 27.69 h -0.83 v 3.35 h -0.82 v 3.35 h -0.84 v 3.36 h -0.85 v 20.14 h -0.82 v 3.36 h -0.83 v 10.06 h -0.84 v 3.36 h -0.84 v 8.38 h -0.82 v 3.36 h -0.82 v 8.38 h -0.84 c -0.26,3.1 -0.59,6.13 -0.84,9.25 v 7.56 h -0.82 v 3.33 h -0.84 c -0.25,2.77 -0.58,5.63 -0.82,8.4 h -0.84 v 8.39 h -0.84 v 3.36 c -1.33,3.94 -2.83,9.47 -4.16,13.41 -0.25,2.28 -0.57,4.45 -0.83,6.72 h -0.83 v 1.67 h -0.86 v 3.36 h -0.8 c -1.93,13.17 -3.92,26.27 -5.83,39.44 h -0.83 v 3.35 h -0.84 v 3.37 h -0.82 v 3.35 h -0.84 v 5.05 h -0.83 v 2.51 h -0.84 c -0.24,2.76 -0.58,5.61 -0.82,8.38 h -0.84 v 2.53 h -0.84 c -0.25,2.26 -0.58,4.43 -0.83,6.69 h -0.83 v 4.22 h -0.84 v 2.5 h -0.82 c -0.59,3.61 -1.1,7.32 -1.66,10.9 h -0.84 v 1.69 h -0.83 c -0.25,2.26 -0.57,4.45 -0.83,6.72 h -0.83 v 1.67 h -0.85 v 3.35 h -0.82 v 3.36 h -0.83 v 3.35 h -0.85 v 3.36 h -0.82 c -1.67,9.49 -3.31,19.04 -5,28.53 -2.41,7.21 -4.32,16.11 -6.65,23.5 v 5.03 h -0.83 v 1.69 h -0.83 v 2.5 c -0.58,0.26 -1.08,0.6 -1.67,0.84 v 4.2 h -0.84 v 2.5 h -0.81 v 5.04 h -0.84 v 2.53 h -0.84 c -0.26,2.52 -0.59,5.03 -0.84,7.55 h -0.83 v 3.35 h -0.83 v 3.38 h -0.82 v 3.34 h -0.85 v 4.19 h -0.81 v 2.52 h -0.83 v 1.68 h -0.86 v 5.03 h -0.83 v 2.53 h -0.8 v 2.51 h -0.85 v 2.51 h -0.84 v 2.53 h -0.83 v 5.03 h -0.82 v 2.5 h -0.85 v 3.36 h -0.83 v 3.37 h -0.82 v 5.87 h -0.83 v 2.52 h -0.84 v 5.04 h -0.84 v 2.5 h -0.83 v 5.88 h -0.84 v 5.04 h -0.82 v 3.34 h -0.83 c -0.27,3.11 -0.59,6.13 -0.84,9.22 h -0.83 v 2.53 h -0.83 v 9.22 h -0.84 v 3.38 h -0.82 v 1.67 h -0.83 c -0.26,1.67 -0.59,3.36 -0.83,5.04 h -0.83 v 5.03 h -0.85 v 2.52 h -0.83 v 5.03 h -0.82 v 1.68 h -0.85 c -0.23,2.26 -0.6,4.44 -0.82,6.7 h -0.83 v 2.53 h -0.84 v 1.68 h -0.84 c -0.57,2.51 -1.07,5.02 -1.65,7.55 h -0.83 v 4.2 h -0.83 v 3.35 h -0.82 v 5.04 h -0.85 v 5.02 h -0.84 v 1.68 h -0.83 c -0.24,3.11 -0.59,6.14 -0.81,9.25 h -0.86 v 6.7 h -0.82 c -0.58,3.1 -1.08,6.13 -1.67,9.23 h 64.09 c 0.1,-3.02 0.98,-5.45 1.65,-7.55 v -5.87 h 0.85 c 0.24,-2.78 0.58,-5.62 0.83,-8.4 h 0.83 v -3.36 h 0.83 v -3.35 h 0.84 v -3.35 h 0.83 v -2.52 h 0.83 c 0.24,-2.52 0.58,-5.03 0.82,-7.55 h 0.84 v -2.52 h 0.83 c 0.25,-2.53 0.58,-5.04 0.83,-7.55 h 0.84 v -2.52 h 0.84 v -3.35 h 0.82 c 0.59,-3.94 1.08,-7.81 1.67,-11.75 h 0.84 v -2.52 h 0.82 c 0.25,-2.77 0.59,-5.63 0.84,-8.4 2.9,-9.05 4.66,-20.12 7.46,-29.35 0.27,-3.11 0.6,-6.13 0.86,-9.24 h 0.83 v -6.72 h 0.83 c 0.26,-3.35 0.58,-6.7 0.82,-10.05 h 0.84 v -3.37 h 0.85 c 0.24,-2.52 0.56,-5.03 0.82,-7.54 h 0.83 v -4.2 h 0.84 v -3.36 h 0.84 v -3.35 h 0.82 v -2.51 h 0.84 v -4.21 h 0.82 v -3.35 h 0.84 v -1.68 h 0.84 c 0.25,-2.27 0.58,-4.46 0.82,-6.71 h 0.82 v -2.51 h 0.84 v -4.21 h 0.84 v -2.51 h 0.83 v -3.36 h 0.82 v -1.66 h 0.85 v -3.37 h 0.84 c 0.25,-2.53 0.58,-5.03 0.82,-7.57 h 0.83 v -1.67 h 0.84 v -4.2 h 0.83 c 0.25,-2.52 0.58,-5.03 0.82,-7.55 h 0.84 v -5.02 c 2.49,-8.24 4.17,-17.87 6.66,-26.02 0.83,-6.46 1.65,-12.82 2.5,-19.29 h 0.82 c 0.26,-2.51 0.58,-5.04 0.83,-7.56 h 0.85 c 0.24,-1.92 0.58,-3.94 0.83,-5.87 h 0.82 v -2.51 h 0.84 v -3.37 h 0.84 v -2.5 h 0.82 c 0.26,-2.78 0.58,-5.63 0.84,-8.39 h 0.84 v -1.69 h 0.83 v -3.35 h 0.82 v -2.52 h 0.83 v -2.51 h 0.84 v -3.36 h 0.83 v -4.19 h 0.82 v -5.88 h 0.85 v -4.2 h 0.83 v -5.03 h 0.83 v -9.23 c 2.01,-6.63 3.99,-13.17 4.15,-21.82 h 1.67 c -0.23,-1.5 -0.99,-7.22 0,-10.05 h 0.84 v -1.69 h 0.82 v -6.72 h 0.85 v -3.36 h 0.81 v -5.03 h 0.86 v -2.51 h 0.81 c 0.59,-5.29 1.11,-10.66 1.68,-15.95 h 0.84 v -1.67 h 0.8 v -5.88 c 0.59,-0.23 1.1,-0.58 1.68,-0.82 v -6.71 h 0.84 v -1.69 h 0.82 v -5.88 c 2.5,-8.63 0,-22.81 2.5,-31.88 v -14.26 h 0.83 v -3.36 h 0.84 v -8.38 h 0.84 v -6.72 h 0.81 V 1092 h 0.86 v -17.61 c 1.24,-4.53 -0.6,-12.57 0.81,-17.63 1.17,-4.19 0.75,-11.24 0.84,-16.77 10.08,-3.62 27.24,-1.67 39.96,-1.67 h 13.29 v -0.85 h 7.5 v -0.84 h 3.32 v -0.83 h 2.52 v -0.83 h 1.66 v -0.86 h 2.5 v -0.84 h 1.65 v -0.83 c 1.66,-0.59 3.34,-1.1 5.01,-1.67 0.24,-0.6 0.57,-1.1 0.82,-1.68 h 1.67 c 0.58,-0.84 1.08,-1.69 1.66,-2.51 0.84,-0.26 1.66,-0.6 2.48,-0.85 1.1,-1.44 2.26,-2.78 3.36,-4.2 1.08,-0.84 2.23,-1.69 3.32,-2.52 v -1.68 c 0.57,-0.26 1.08,-0.57 1.67,-0.83 0.22,-0.84 0.57,-1.68 0.81,-2.54 h 0.85 c 0.25,-1.07 0.59,-2.25 0.82,-3.34 0.6,-0.24 1.09,-0.59 1.68,-0.83 v -1.69 h 0.84 v -2.52 h 0.82 v -1.66 h 0.83 c 0.24,-1.94 0.6,-3.952 0.82,-5.882 h 0.84 v -3.36 h 0.84 v -10.07 c 0,-7.97 0.98,-18.64 -0.84,-25.18 -0.57,-29.36 -1.06,-58.72 -1.66,-88.1 -0.58,-11.15 -1.08,-22.39 -1.65,-33.56 0,-7.72 0.91,-18.03 -0.84,-24.33 v -7.56 c 0,-7.44 0.84,-17.44 -0.84,-23.48 v -25.16 h -0.84 v -15.11 c -0.23,-7.56 -0.57,-15.1 -0.82,-22.65 0,-6.47 0.59,-15.03 -0.85,-20.14 v -21.82 -2.52 h -0.81 v -8.39 c 0,-6.37 0,-14.18 -0.83,-19.3 -1.42,-8.38 1.14,-18.87 -0.84,-26 v -29.36 c -1.76,-6.15 -0.66,-15.95 -0.84,-23.52 v -3.34 h -0.82 v -15.95 -10.9 h -0.83 v -26.86 h -0.83 v -26.84 h -0.84 v -26.86 h -0.82 v -27.68 h -0.85 v -25.17 h -0.85 v -23.49 h -0.82 v -7.55 h -0.82 v -3.36 h -0.84 v -3.36 h -0.83 v -1.67 h -0.83 v -2.52 h -0.84 c -0.24,-1.09 -0.57,-2.27 -0.83,-3.37 h -0.82 v -1.65 c -0.58,-0.28 -1.08,-0.6 -1.67,-0.86 v -1.67 c -0.58,-0.26 -1.09,-0.58 -1.68,-0.83 v -1.69 c -0.82,-0.58 -1.66,-1.09 -2.48,-1.68 v -1.67 c -1.42,-1.1 -2.74,-2.27 -4.17,-3.36 -0.24,-0.57 -0.59,-1.08 -0.82,-1.68 h -1.66 c -0.6,-0.82 -1.1,-1.66 -1.69,-2.52 -0.82,-0.25 -1.65,-0.59 -2.49,-0.83 -0.26,-0.58 -0.59,-1.09 -0.81,-1.68 -1.09,-0.25 -2.26,-0.59 -3.32,-0.83 -0.27,-0.61 -0.6,-1.1 -0.85,-1.69 -4.75,-1.69 -9.4,-3.36 -14.16,-5.04 -5.81,-0.25 -11.65,-0.58 -17.46,-0.84 h -31.63 c -33.05,0.26 -66,0.59 -99.06,0.84 h -61.58 c -6.25,1.78 -16.46,0.83 -24.14,0.83 H 918 c -7.92,0 -18.47,-1 -24.97,0.85 H 774.85 762.36 v 0.84 h -59.09 c -10.65,0 -28.7,-1.58 -37.45,0.83 -108.46,0.6 -216.99,1.1 -325.43,1.69 0.26,-1.94 0.11,-2.18 0.84,-3.36 h 0.83 v -1.68 h 0.85 v -10.91 c 0,-9.55 -1.27,-21.39 0,-28.51 h 2.48 c 0.1,-7.399 -0.92,-13.857 -2.48,-19.3 v -18.464 h -0.85 v -2.511 h -0.83 c -0.26,-3.956 -0.58,-7.81 -0.84,-11.76 h -0.83 c 0.25,-4.44 0.58,-8.966 0.83,-13.418 h -0.83 v -2.517 h -0.82 v -26.852 c -0.92,-2.936 -1.67,-3.86 -1.67,-8.389 V 169.9 h -0.83 c -0.25,-2.267 -0.58,-4.45 -0.83,-6.713 h -0.84 v -1.679 h -0.84 v -5.034 h -0.84 v -1.678 h -0.81 v -3.357 h -0.84 v -1.678 h -0.84 c -0.25,-1.93 -0.58,-3.943 -0.83,-5.873 -0.56,-0.251 -1.07,-0.587 -1.66,-0.839 v -2.518 h -0.84 v -5.033 h -0.83 v -1.678 h -0.81 v -2.519 h -0.85 v -2.516 h -0.84 v -3.356 h -0.83 v -12.585 h -0.82 v -3.357 h -0.84 v -4.194 h -0.83 v -4.196 h 0.83 v -3.355 h 0.84 v -1.679 c 0.59,-0.252 1.07,-0.587 1.65,-0.839 0.25,-1.091 0.59,-2.266 0.84,-3.358 h 0.85 v -7.548 h -0.85 v -2.52 c -1.09,-0.837 -2.25,-1.676 -3.33,-2.518 v -1.676 c -0.59,-0.252 -1.09,-0.588 -1.66,-0.839 v -0.839 h -1.66 c -0.25,-0.839 -0.58,-1.68 -0.84,-2.518 -0.59,-0.251 -1.07,-0.586 -1.65,-0.838 -1.6,-1.678 -3.01,-3.776 -3.34,-6.713 0.92,-1.006 1.66,-15.691 1.66,-18.459 -2.24,-1.427 -2.17,-3.357 -4.98,-4.195 -1.25,-1.511 -2.26,-1.594 -5,-1.679 v -1.676 c -1.42,-0.252 -2.76,-0.588 -4.16,-0.841 V 35.65 c 3.74,-1.592 6.64,-3.692 6.64,-9.228 3.67,-3.274 1.02,-9.231 0,-12.587 V 7.963 h 0.85 c 0.17,-1.174 -0.51,0.336 -0.85,-0.839 V 4.606 C 304.6,3.18 302.94,1.837 301.27,0.412 v -0.839 h -2.49 v -0.839 h -2.49 v -0.84 c -3.76,-1.426 -4.51,1.007 -5.84,-3.356 -1.66,-1.929 -0.73,-4.866 -1.66,-7.552 h -0.82 v -2.517 h -0.84 v -4.194 h -0.82 c -0.25,-3.106 -0.59,-6.126 -0.85,-9.228 h -0.82 c -0.26,-3.946 -0.59,-7.807 -0.85,-11.749 h -0.81 v -2.516 c -0.59,-0.252 -1.1,-0.588 -1.68,-0.84 -0.58,-2.516 -1.08,-5.033 -1.66,-7.552 -1.08,-0.838 -2.25,-1.677 -3.31,-2.516 v -1.679 c -0.59,-0.25 -1.11,-0.586 -1.69,-0.838 -0.24,-1.427 -0.58,-2.77 -0.83,-4.196 h -0.82 v -1.678 h -0.84 c -0.27,-1.426 -0.59,-2.767 -0.84,-4.194 h -0.82 c -0.25,-1.679 -0.59,-3.358 -0.85,-5.035 h -0.81 v -1.678 h -0.85 c -1.07,-6.714 -2.22,-13.425 -3.33,-20.136 h -0.84 c -0.24,-1.093 -0.56,-2.267 -0.82,-3.358 -0.59,-0.251 -1.08,-0.587 -1.67,-0.838 v -1.68 h -0.83 v -1.676 h -0.83 v -2.518 h -0.82 v -2.518 h -0.85 c -0.59,-1.676 -1.07,-3.356 -1.65,-5.033 h -0.83 v -1.679 c -0.84,-0.587 -1.69,-1.089 -2.5,-1.677 -0.24,-1.091 -0.6,-2.267 -0.83,-3.357 h -0.84 v -5.872 h -0.83 v -1.68 h -0.83 v -1.677 c -0.84,-0.589 -1.67,-1.092 -2.49,-1.679 v -1.676 c -0.84,-0.588 -1.66,-1.092 -2.49,-1.679 v -1.677 c -0.86,-0.59 -1.69,-1.092 -2.51,-1.68 v -1.678 c -0.59,-0.251 -1.09,-0.588 -1.67,-0.838 -1.41,-4.195 -2.75,-8.391 -4.15,-12.586 -0.83,-0.588 -1.67,-1.091 -2.5,-1.679 v -1.679 c -0.84,-0.587 -1.69,-1.09 -2.5,-1.675 v -1.68 c -1.08,-0.839 -2.25,-1.677 -3.34,-2.517 v -1.677 c -0.57,-0.252 -1.05,-0.589 -1.65,-0.839 v -1.679 c -1.92,-1.678 -3.92,-3.356 -5.83,-5.035 -0.25,-1.09 -0.59,-2.266 -0.83,-3.355 -0.58,-0.252 -1.1,-0.587 -1.67,-0.84 v -1.678 c -0.58,-0.252 -1.08,-0.587 -1.66,-0.838 v -1.678 h -0.83 c -0.26,-0.841 -0.6,-1.678 -0.83,-2.517 h -1.67 v -0.839 c -1.91,-1.679 -3.92,-3.358 -5.83,-5.035 v -1.677 c -0.57,-0.252 -1.07,-0.588 -1.66,-0.84 v -1.678 h -0.84 c -1.15,-1.427 -1.92,-2.014 -2.51,-4.196 h -1.65 c -0.58,-2.348 -0.25,-1.846 -2.49,-2.516 v -1.679 c -1.67,-0.755 -3.93,-1.93 -4.99,-3.357 v -1.677 c -1.09,-0.586 -2.25,-1.091 -3.33,-1.678 -2.25,-2.517 -4.41,-5.036 -6.66,-7.552 h -1.69 c -0.82,-1.091 -1.65,-2.265 -2.47,-3.355 h -1.67 c -0.26,-0.588 -0.57,-1.091 -0.84,-1.68 h -1.65 c -0.85,-1.088 -1.66,-2.265 -2.5,-3.356 h -1.68 c -0.24,-0.586 -0.57,-1.09 -0.83,-1.677 h -0.83 c -0.24,-0.588 -0.59,-1.091 -0.81,-1.678 -1.1,-0.253 -2.26,-0.587 -3.34,-0.839 -0.24,-0.588 -0.58,-1.091 -0.84,-1.678 h -0.82 c -0.26,-0.587 -0.59,-1.09 -0.84,-1.678 h -1.66 c -0.59,-0.839 -1.09,-1.679 -1.68,-2.517 h -1.65 c -0.26,-0.588 -0.6,-1.091 -0.84,-1.679 h -1.65 c -0.84,-1.091 -1.68,-2.264 -2.5,-3.355 h -1.68 c -0.25,-0.588 -0.58,-1.091 -0.83,-1.678 -0.83,-0.252 -1.66,-0.588 -2.48,-0.841 v -0.839 c -1.69,-0.587 -3.34,-1.09 -5,-1.677 -0.26,-0.587 -0.6,-1.091 -0.84,-1.68 h -1.67 v -0.838 h -1.66 c -0.24,-0.586 -0.58,-1.09 -0.82,-1.676 h -1.68 c -0.25,-0.588 -0.58,-1.092 -0.82,-1.679 h -1.67 c -0.24,-0.587 -0.59,-1.091 -0.84,-1.679 h -1.66 c -0.26,-0.587 -0.58,-1.091 -0.84,-1.678 h -2.49 v -0.838 h -1.66 v -0.84 h -1.66 c -0.26,-0.587 -0.58,-1.089 -0.83,-1.677 h -1.67 c -0.27,-0.587 -0.59,-1.092 -0.82,-1.678 h -1.68 v -0.84 h -1.66 v -0.84 h -2.5 v -0.839 c -1.08,-0.251 -2.25,-0.587 -3.32,-0.839 v -0.838 h -2.5 v -0.838 h -1.68 c -0.24,-0.588 -0.57,-1.092 -0.83,-1.68 h -1.66 v -0.838 h -1.66 v -0.838 h -2.51 v -0.841 h -1.66 v -0.838 h -3.32 v -0.839 h -1.67 v -0.84 c -1.66,-0.251 -3.34,-0.587 -4.99,-0.839 v -0.838 h -1.68 c -0.25,-0.587 -0.58,-1.091 -0.82,-1.678 h -1.66 v -0.838 H 82.4 v -0.841 h -2.52 v -0.839 h -4.15 v -0.839 h -1.65 v -0.838 h -3.33 v -0.84 h -2.51 v -0.839 h -3.32 c -0.26,-0.588 -0.59,-1.091 -0.84,-1.678 -2.75,-0.251 -5.58,-0.586 -8.32,-0.84 -0.26,-0.586 -0.58,-1.09 -0.84,-1.677 h -4.15 v -0.838 h -2.5 v -0.841 h -3.33 v -0.839 h -5.82 v -0.838 h -5.83 v -0.838 h -3.32 v -0.84 h -4.99 v -0.841 h -1.67 v -0.838 h -5.85 v -0.839 h -4.14 v -0.838 H 0.82 v -0.84 c -3.9,-0.252 -7.74,-0.588 -11.66,-0.839 -2.48,-0.42 -11.47,0 -16.63,0 -11.81,0 -26.55,-1.006 -35.8,1.679 -2.83,0.838 -6.72,-0.84 -8.32,-0.84 v 0.84 c -2.5,0.252 -4.99,0.587 -7.48,0.838 v 0.839 h -12.48 v 0.838 h -3.34 v 0.841 h -12.48 v 0.84 h -3.32 v 0.838 h -6.66 v 0.838 h -2.5 v 0.839 h -6.67 v 0.841 h -3.33 v 0.838 h -3.32 v 0.839 h -4.99 v 0.838 h -3.33 v 0.84 h -2.52 v 0.84 h -2.49 v 0.838 c -2.48,0.25 -4.97,0.588 -7.48,0.839 v 0.84 c -3.91,0.586 -7.73,1.091 -11.65,1.677 v 0.839 c -1.92,0.252 -3.91,0.587 -5.82,0.841 v 0.838 h -2.49 v 0.838 c -1.94,0.253 -3.93,0.587 -5.84,0.84 v 0.838 h -2.49 v 0.839 h -6.66 v 0.84 h -2.5 v 0.839 h -1.67 v 0.838 h -2.5 v 0.841 h -1.64 v 0.838 h -5.02 v 0.838 c -1.64,0.254 -3.34,0.588 -4.99,0.84 v 0.84 h -1.66 v 0.838 h -2.48 v 0.838 h -4.18 v 0.839 h -1.66 v 0.839 h -4.16 v 0.84 c -1.65,0.588 -3.32,1.091 -5,1.679 v 0.839 c -1.66,0.251 -3.32,0.588 -5,0.838 v 0.839 c -1.41,0.252 -2.73,0.588 -4.15,0.84 v 0.838 c -1.09,0.251 -2.24,0.587 -3.33,0.839 v 0.839 h -2.49 c -0.25,0.588 -0.59,1.092 -0.85,1.679 -1.06,0.25 -2.24,0.587 -3.32,0.839 -0.25,0.587 -0.58,1.091 -0.82,1.678 -2.5,0.588 -5.01,1.09 -7.5,1.676 v 0.841 h -1.66 v 0.839 h -1.68 v 0.839 h -1.65 v 0.838 c -1.66,0.59 -3.34,1.092 -4.99,1.68 v 0.84 c -6.91,1.929 -13.91,3.941 -20.81,5.872 -0.24,0.586 -0.6,1.09 -0.83,1.678 -1.67,0.588 -3.34,1.09 -5,1.679 -0.25,0.587 -0.58,1.089 -0.84,1.677 h -1.65 c -0.26,0.587 -0.59,1.091 -0.84,1.678 h -1.66 c -0.25,0.587 -0.58,1.09 -0.83,1.678 h -1.67 c -0.25,0.587 -0.58,1.091 -0.83,1.677 -1.1,0.253 -2.24,0.588 -3.32,0.841 -0.85,1.089 -1.68,2.264 -2.5,3.356 h -1.67 c -0.25,0.586 -0.59,1.09 -0.84,1.677 -1.07,0.252 -2.25,0.588 -3.33,0.839 -0.24,0.587 -0.59,1.092 -0.83,1.678 h -1.67 c -1.4,1.678 -2.73,3.357 -4.17,5.035 -1.07,0.839 -2.23,1.679 -3.32,2.517 v 0.838 h -1.66 c -0.82,1.091 -1.67,2.265 -2.49,3.356 h -1.67 c -1.42,1.68 -2.75,3.357 -4.16,5.036 h -1.66 c -0.58,0.838 -1.08,1.677 -1.68,2.516 h -1.65 c -0.25,0.587 -0.58,1.089 -0.83,1.678 h -1.68 v 0.84 c -0.57,0.251 -1.07,0.586 -1.65,0.839 -1.08,2.013 0.24,4.195 -0.84,5.872 -3.32,3.106 -6.64,6.126 -9.99,9.23 v 1.678 c -1.09,0.84 -2.25,1.68 -3.32,2.518 v 1.677 c -1.43,1.091 -2.75,2.266 -4.17,3.357 -0.26,0.839 -0.59,1.678 -0.83,2.516 -0.58,0.252 -1.08,0.59 -1.66,0.841 -0.26,1.09 -0.58,2.264 -0.84,3.356 -0.58,0.251 -1.08,0.586 -1.66,0.838 v 1.678 c -0.58,0.252 -1.08,0.587 -1.66,0.841 -0.24,0.838 -0.59,1.675 -0.84,2.514 -0.83,0.588 -1.66,1.094 -2.49,1.681 v 1.677 c -0.58,0.252 -1.09,0.587 -1.67,0.838 -0.25,0.841 -0.58,1.679 -0.83,2.518 h -0.83 c -0.25,1.09 -0.58,2.266 -0.84,3.356 -0.58,0.251 -1.08,0.587 -1.66,0.84 -0.58,1.678 -1.08,3.355 -1.66,5.033 -0.59,0.251 -1.08,0.588 -1.66,0.839 v 1.677 h -0.85 c -0.24,1.092 -0.58,2.266 -0.82,3.358 h -0.84 v 2.516 h -0.83 v 1.679 h -0.83 v 2.517 h -0.83 c -0.25,1.091 -0.59,2.266 -0.84,3.356 h -0.83 v 2.517 h -0.82 v 1.678 h -0.84 v 2.518 h -0.83 v 1.677 h -0.84 c -0.24,1.931 -0.57,3.944 -0.82,5.875 h -0.84 c -0.25,1.426 -0.58,2.769 -0.84,4.194 h -0.83 v 1.679 h -0.83 v 2.517 h -0.83 v 1.677 h -0.83 c -0.25,2.517 -0.59,5.035 -0.83,7.553 h -0.84 c -0.66,1.174 -0.58,1.424 -0.82,3.356 z" id="path4557" />
        </clipPath>
	</defs>
	
	<image y="714.742" x="1409.11" id="image841" xlink:href="munia_device.jpg" 
		preserveAspectRatio="none" height="1285.33" width="1333.33" clip-path="none" transform="translate(-1409.11,-714.742)" />

	 style="stroke:black;stroke-width:3.342616px" />
</svg>