<?xml version="1.0" encoding="iso-8859-1"?>
<!-- Generator: Adobe Illustrator 19.0.0, SVG Export Plug-In . SVG Version: 6.00 Build 0)  -->
<svg version="1.1" id="Layer_1" xmlns="http://www.w3.org/2000/svg" xmlns:xlink="http://www.w3.org/1999/xlink" x="0px" y="0px"
	 width="3024px" height="4032px" viewBox="0 0 3024 4032" style="enable-background:new 0 0 3024 4032;" xml:space="preserve">
<path style="fill-rule:evenodd;clip-rule:evenodd;fill:none;" d="M0,0c1007.9,0,2016.1,0,3024,0c0,1343.9,0,2688.1,0,4032
	c-1007.9,0-2016.1,0-3024,0c0-382,0-764,0-1146c1.6-0.6,2.4-0.9,5-1c0.7,1,1.3,2,2,3c0.3,0,0.7,0,1,0c0,0.7,0,1.3,0,2
	c0.7,0.3,1.3,0.7,2,1c0.3,1.3,0.7,2.7,1,4c0.7,0.3,1.3,0.7,2,1c2.2,2.4,4.1,4.3,5,8c4.7,1.3,3.7,3.6,6,7c0.7,0.3,1.3,0.7,2,1
	c0,0.7,0,1.3,0,2c1,0.7,2,1.3,3,2c2.4,2.5,7.1,8.4,8,12c0.7,0,1.3,0,2,0c0,0.7,0,1.3,0,2c2.3,2,4.7,4,7,6c0,0.7,0,1.3,0,2
	c0.7,0.3,1.3,0.7,2,1c0,0.7,0,1.3,0,2c0.3,0,0.7,0,1,0c1.9,2.3,4.1,3.7,5,7c0.7,0,1.3,0,2,0c0,0.7,0,1.3,0,2c4.8,2.7,7.8,7.5,11,12
	c1,0.7,2,1.3,3,2c0,0.7,0,1.3,0,2c0.7,0.3,1.3,0.7,2,1c0.7,1,1.3,2,2,3c0.3,0,0.7,0,1,0c0,0.7,0,1.3,0,2c0.3,0,0.7,0,1,0
	c1.4,1.7,2.3,2.4,3,5c3.2,0.8,6.2,3.8,7,7c0.7,0,1.3,0,2,0c0,0.7,0,1.3,0,2c0.7,0,1.3,0,2,0c0,0.7,0,1.3,0,2c2.3,2,4.7,4,7,6
	c0,0.7,0,1.3,0,2c2,1.7,4,3.3,6,5c0,0.7,0,1.3,0,2c1,0.7,2,1.3,3,2c2,2.3,4,4.7,6,7c0.7,0,1.3,0,2,0c0.3,0.7,0.7,1.3,1,2
	c1,0.7,2,1.3,3,2c0,0.7,0,1.3,0,2c1.3,1,2.7,2,4,3c0.3,1,0.7,2,1,3c0.7,0,1.3,0,2,0c0,0.3,0,0.7,0,1c1,0.7,2,1.3,3,2
	c0,0.7,0,1.3,0,2c0.7,0.3,1.3,0.7,2,1c3,3.3,6,6.7,9,10c0.7,0,1.3,0,2,0c0,0.7,0,1.3,0,2c3.2,1.9,4,4.9,8,6c0,0.7,0,1.3,0,2
	c2.5,1.4,2.8,3.1,6,4c0,0.7,0,1.3,0,2c5.2,1.4,3.3,4.6,8,6c0,0.7,0,1.3,0,2c3,1.3,5.1,2.5,6,6c2.5,0.6,6.6,3.2,8,5
	c1.8,2.3-1.1,1.8,3,3c0.7,2.9,1.1,3.3,4,4c0,0.7,0,1.3,0,2c4.6,2.2,6.7,5.7,10,9c1.3,1,2.7,2,4,3c2.2,2.1,2.5,4,6,5c0,0.7,0,1.3,0,2
	c4.4,1.2,3.5,3.8,8,5c0,0.7,0,1.3,0,2c3.2,0.8,4.9,3.1,7,5c0.3,0.7,0.7,1.3,1,2c0.7,0,1.3,0,2,0c0,0.7,0,1.3,0,2
	c7,4,13.4,14.9,21,17c0,0.7,0,1.3,0,2c3.7,1.9,8.9,5.5,10,10c2.6,0.7,3.3,1.6,5,3c0,0.3,0,0.7,0,1c1,0.3,2,0.7,3,1c0,0.7,0,1.3,0,2
	c1,0.3,2,0.7,3,1c0.3,0.7,0.7,1.3,1,2c1,0.7,2,1.3,3,2c0,0.3,0,0.7,0,1c0.7,0,1.3,0,2,0c0,0.3,0,0.7,0,1c1.5,1.2,1.8,1.4,4,2
	c0,0.7,0,1.3,0,2c1,0.3,2,0.7,3,1c0,0.3,0,0.7,0,1c1,0,2,0,3,0c0.7,1,1.3,2,2,3c0.7,0,1.3,0,2,0c1,1.3,2,2.7,3,4
	c0.7,0.3,1.3,0.7,2,1c0,0.7,0,1.3,0,2c1,0.3,2,0.7,3,1c0.7,1,1.3,2,2,3c3.8,2.7,7.6,2.6,9,8c2.6,0.7,3.3,1.6,5,3c0,0.3,0,0.7,0,1
	c0.7,0,1.3,0,2,0c0.7,1,1.3,2,2,3c0.7,0,1.3,0,2,0c0.3,0.7,0.7,1.3,1,2c0.7,0,1.3,0,2,0c0.3,1,0.7,2,1,3c1,0.3,2,0.7,3,1
	c1,1.3,2,2.7,3,4c1,0,2,0,3,0c0,0.3,0,0.7,0,1c1,0.3,2,0.7,3,1c0,0.7,0,1.3,0,2c1,0.3,2,0.7,3,1c0,0.3,0,0.7,0,1
	c2.6,1.8,1.9-1.1,3,3c0.7,0,1.3,0,2,0c0,0.3,0,0.7,0,1c1.4,1,2.9,1.7,4,3c0.3,0,0.7,0,1,0c0,0.7,0,1.3,0,2c2.6,0.7,3.3,1.6,5,3
	c0,0.3,0,0.7,0,1c0.7,0,1.3,0,2,0c1,1.3,2,2.7,3,4c2,0.7,4,1.3,6,2c0.3,0.7,0.7,1.3,1,2c1,0.3,2,0.7,3,1c0,0.3,0,0.7,0,1
	c1.8,1.4,2.4,2.3,5,3c0,0.7,0,1.3,0,2c2.8,1.7,3.4,4,7,5c0,0.7,0,1.3,0,2c2.3,0.6,2.5,0.8,4,2c0,0.3,0,0.7,0,1c1.3,0.3,2.7,0.7,4,1
	c0.3,0.7,0.7,1.3,1,2c0.7,0,1.3,0,2,0c1,1.3,2,2.7,3,4c0.7,0.3,1.3,0.7,2,1c0.3,1,0.7,2,1,3c0.7,0,1.3,0,2,0c0.3,0.7,0.7,1.3,1,2
	c1,0.3,2,0.7,3,1c0,0.3,0,0.7,0,1c1,0,2,0,3,0c0,0.3,0,0.7,0,1c2,1.7,4,3.3,6,5c0,0.7,0,1.3,0,2c2.9,0.7,3.3,1.1,4,4c1,0,2,0,3,0
	c0,0.7,0,1.3,0,2c5.6,0.7,3.2,2.5,6,4c0.7,0,1.3,0,2,0c0,0.7,0,1.3,0,2c2.7,1.3,5.3,2.7,8,4c0,0.7,0,1.3,0,2c0.7,0,1.3,0,2,0
	c0,0.7,0,1.3,0,2c0.7,0,1.3,0,2,0c0.3,1,0.7,2,1,3c1,0,2,0,3,0c0.3,1.3,0.7,2.7,1,4c2.3,0.6,2.5,0.8,4,2c0,0.3,0,0.7,0,1
	c0.7,0,1.3,0,2,0c2.7,2,5.3,4,8,6c0.7,1.3,1.3,2.7,2,4c1,0,2,0,3,0c1.3,1.7,2.7,3.3,4,5c1,0,2,0,3,0c0,0.3,0,0.7,0,1
	c0.7,0,1.3,0,2,0c1.3,1.7,2.7,3.3,4,5c1.3,0.3,2.7,0.7,4,1c0.3,1,0.7,2,1,3c0.3,0,0.7,0,1,0c0.3,0.7,0.7,1.3,1,2c0.7,0,1.3,0,2,0
	c0.3,0.7,0.7,1.3,1,2c1.3,0.3,2.7,0.7,4,1c0,0.7,0,1.3,0,2c1.3,0.7,1.4,1.6,2,2c0.7,0,1.3,0,2,0c0.7,1,1.3,2,2,3c0.7,0,1.3,0,2,0
	c0.7,1,1.3,2,2,3c0.7,0,1.3,0,2,0c0.3,0.7,0.7,1.3,1,2c0.7,0,1.3,0,2,0c0.7,1,1.3,2,2,3c0.7,0,1.3,0,2,0c0.7,1,1.3,2,2,3
	c0.7,0,1.3,0,2,0c0.3,0.7,0.7,1.3,1,2c0.7,0,1.3,0,2,0c1,1.3,2,2.7,3,4c2.9,2.8,10.7,9,15,10c0,0.7,0,1.3,0,2c3.3,0.9,4.7,3.1,7,5
	c0,0.3,0,0.7,0,1c0.7,0,1.3,0,2,0c0.3,0.7,0.7,1.3,1,2c0.7,0,1.3,0,2,0c1.3,1.7,2.7,3.3,4,5c0.7,0,1.3,0,2,0c0.7,1,1.3,2,2,3
	c1,0.3,2,0.7,3,1c0.3,0.7,0.7,1.3,1,2c1,0.3,2,0.7,3,1c0,0.3,0,0.7,0,1c1,0.3,2,0.7,3,1c1.3,4,0.3,1.3,3,3c0,0.3,0,0.7,0,1
	c0.7,0,1.3,0,2,0c0.7,1,1.3,2,2,3c0.7,0,1.3,0,2,0c0.7,1,1.3,2,2,3c0.7,0,1.3,0,2,0c0.3,0.7,0.7,1.3,1,2c0.7,0,1.3,0,2,0
	c0.7,1,1.3,2,2,3c0.7,0,1.3,0,2,0c0.3,0.7,0.7,1.3,1,2c0.7,0,1.3,0,2,0c0,0.3,0,0.7,0,1c1,0.3,2,0.7,3,1c0.3,0.7,0.7,1.3,1,2
	c0.7,0,1.3,0,2,0c0.7,1,1.3,2,2,3c1.3,0.3,2.7,0.7,4,1c0,0.3,0,0.7,0,1c1,0.3,2,0.7,3,1c0.3,0.7,0.7,1.3,1,2c0.7,0,1.3,0,2,0
	c0.7,1,1.3,2,2,3c1,0,2,0,3,0c1,1.3,2,2.7,3,4c0.7,0,1.3,0,2,0c0,0.3,0,0.7,0,1c0.7,0,1.3,0,2,0c0.3,0.7,0.7,1.3,1,2
	c1.3,0.3,2.7,0.7,4,1c0.3,0.7,0.7,1.3,1,2c0.7,0,1.3,0,2,0c0.3,0.7,0.7,1.3,1,2c0.7,0,1.3,0,2,0c0.3,0.7,0.7,1.3,1,2
	c0.7,0,1.3,0,2,0c0.3,0.7,0.7,1.3,1,2c1.3,0.3,2.7,0.7,4,1c0.3,0.7,0.7,1.3,1,2c2,0.7,4,1.3,6,2c0.7,1,1.3,2,2,3
	c1.3,0.3,2.7,0.7,4,1c0.3,0.7,0.7,1.3,1,2c0.7,0,1.3,0,2,0c0.7,1,1.3,2,2,3c0.7,0,1.3,0,2,0c0.3,0.7,0.7,1.3,1,2c1,0,2,0,3,0
	c0,0.3,0,0.7,0,1c1,0.3,2,0.7,3,1c0.3,0.7,0.7,1.3,1,2c0.7,0,1.3,0,2,0c0,0.3,0,0.7,0,1c0.7,0,1.3,0,2,0c0,0.3,0,0.7,0,1
	c0.7,0,1.3,0,2,0c0,0.3,0,0.7,0,1c0.7,0,1.3,0,2,0c0,0.3,0,0.7,0,1c0.7,0,1.3,0,2,0c0.3,0.7,0.7,1.3,1,2c0.7,0,1.3,0,2,0
	c0.3,0.7,0.7,1.3,1,2c0.7,0,1.3,0,2,0c0.3,0.7,0.7,1.3,1,2c0.7,0,1.3,0,2,0c0,0.3,0,0.7,0,1c0.7,0,1.3,0,2,0c0,0.3,0,0.7,0,1
	c0.7,0,1.3,0,2,0c0.3,0.7,0.7,1.3,1,2c1.3,0.3,2.7,0.7,4,1c0.3,0.7,0.7,1.3,1,2c1,0,2,0,3,0c0.3,0.7,0.7,1.3,1,2c0.7,0,1.3,0,2,0
	c0,0.3,0,0.7,0,1c0.7,0,1.3,0,2,0c0,0.3,0,0.7,0,1c0.7,0,1.3,0,2,0c0,0.3,0,0.7,0,1c0.7,0,1.3,0,2,0c0,0.3,0,0.7,0,1
	c0.7,0,1.3,0,2,0c0,0.3,0,0.7,0,1c0.7,0,1.3,0,2,0c0,0.3,0,0.7,0,1c0.7,0,1.3,0,2,0c0,0.3,0,0.7,0,1c1.3,0.3,2.7,0.7,4,1
	c0.3,0.7,0.7,1.3,1,2c1,0,2,0,3,0c0.3,0.7,0.7,1.3,1,2c0.7,0,1.3,0,2,0c0,0.3,0,0.7,0,1c0.7,0,1.3,0,2,0c0,0.3,0,0.7,0,1
	c0.7,0,1.3,0,2,0c0,0.3,0,0.7,0,1c0.7,0,1.3,0,2,0c0,0.3,0,0.7,0,1c0.7,0,1.3,0,2,0c0.3,0.7,0.7,1.3,1,2c0.7,0,1.3,0,2,0
	c0,0.3,0,0.7,0,1c0.7,0,1.3,0,2,0c0,0.3,0,0.7,0,1c2,0.3,4,0.7,6,1c0,0.3,0,0.7,0,1c2,0.7,4,1.3,6,2c0,0.3,0,0.7,0,1
	c0.7,0,1.3,0,2,0c0,0.3,0,0.7,0,1c0.7,0,1.3,0,2,0c0,0.3,0,0.7,0,1c0.7,0,1.3,0,2,0c0,0.3,0,0.7,0,1c1,0,2,0,3,0c0,0.3,0,0.7,0,1
	c1.3,0.3,2.7,0.7,4,1c0,0.3,0,0.7,0,1c1,0,2,0,3,0c0.3,0.7,0.7,1.3,1,2c2.3,0.7,4.7,1.3,7,2c0.4,2.5,0.9,3.7,1,7c-0.7,0-1.3,0-2,0
	c0,3.7,0,7.3,0,11c0,0,0.9,0,1,2c-0.3,2.7-0.7,5.3-1,8c0.3,0,0.7,0,1,0c0.3,2.7,0.7,5.3,1,8c0.3,0,0.7,0,1,0c0.3,5,0.7,10,1,15
	c0.3,0,0.7,0,1,0c0.3,2,0.7,4,1,6c0.7,0.3,1.3,0.7,2,1c0.3,3.7,0.7,7.3,1,11c1,0,2,0,3,0c0.6,7.2,4.3,12,7,17c0,0.7,0,1.3,0,2
	c0.3,0,0.7,0,1,0c0,0.7,0,1.3,0,2c0.3,0,0.7,0,1,0c0,0.7,0,1.3,0,2c0.3,0,0.7,0,1,0c0,0.7,0,1.3,0,2c1,0.7,2,1.3,3,2
	c0,0.7,0,1.3,0,2c1,0.7,2,1.3,3,2c0,0.7,0,1.3,0,2c1,0.7,2,1.3,3,2c0,0.7,0,1.3,0,2c3,2.7,6,5.3,9,8c0.7,1,1.3,2,2,3
	c0.7,0,1.3,0,2,0c0,0.3,0,0.7,0,1c0.7,0,1.3,0,2,0c0.7,1,1.3,2,2,3c1.3,0.3,2.7,0.7,4,1c0.3,0.7,0.7,1.3,1,2c0.7,0,1.3,0,2,0
	c0.3,0.7,0.7,1.3,1,2c0.7,0,1.3,0,2,0c0.7,1,1.3,2,2,3c1.3,0.3,2.7,0.7,4,1c0,0.3,0,0.7,0,1c1.5,1.2,1.8,1.4,4,2c0,0.7,0,1.3,0,2
	c4,0.4,6.7,1.9,9,4c0.3,0.7,0.7,1.3,1,2c0.7,0,1.3,0,2,0c0.3,0.7,0.7,1.3,1,2c1,0,2,0,3,0c0,0.3,0,0.7,0,1c0.7,0,1.3,0,2,0
	c0,0.3,0,0.7,0,1c0.7,0,1.3,0,2,0c0,0.3,0,0.7,0,1c0.7,0,1.3,0,2,0c0,0.3,0,0.7,0,1c1.4,0.9,1.8,0.7,4,1c0,1,0,2,0,3
	c2.7,0.6,2.3,1.3,5,2c0-0.7,0-1.3,0-2c3.6,0.9,5.5,3.9,8,6c0,0.3,0,0.7,0,1c0.7,0,1.3,0,2,0c0.7,1,1.3,2,2,3c1,0.3,2,0.7,3,1
	c1.3,1.7,2.7,3.3,4,5c1.3,0.3,2.7,0.7,4,1c0.3,0.7,0.7,1.3,1,2c0.7,0,1.3,0,2,0c0,0.3,0,0.7,0,1c1.3,0.3,2.7,0.7,4,1
	c0,0.3,0,0.7,0,1c1.3,0,2.7,0,4,0c0.3,0.7,0.7,1.3,1,2c2,0.3,4,0.7,6,1c0,0.3,0,0.7,0,1c3,1,6,2,9,3c0,1,0,2,0,3c5.7,0.2,8,2.4,13,3
	c0-0.7,0-1.3,0-2c5.7,0.3,11.3,0.7,17,1c0,0.7,0,1.3,0,2c0.3,0,0.7,0,1,0c0-0.3,0-0.7,0-1c0.3,0,0.7,0,1,0c0,0.3,0,0.7,0,1
	c4,0,8,0,12,0c0,0.3,0,0.7,0,1c1,0,2,0,3,0c0,0.3,0,0.7,0,1c2,0,4,0,6,0c0,0.3,0,0.7,0,1c1,0,2,0,3,0c0,0.3,0,0.7,0,1c2,0,4,0,6,0
	c9.5,3.1,22.4,3.8,35,4c0.3,1,0.7,2,1,3c4,0.3,8,0.7,12,1c1-0.3,2-0.7,3-1c0-0.3,0-0.7,0-1c4.3,0.7,8.7,1.3,13,2c0,0.3,0,0.7,0,1
	c2,0,4,0,6,0c0.3,0.7,0.7,1.3,1,2c1,0,2,0,3,0c0,0.3,0,0.7,0,1c5.3-0.3,10.7-0.7,16-1c0.3,0.7,0.7,1.3,1,2c1.7-0.3,3.3-0.7,5-1
	c0-0.3,0-0.7,0-1c1.5-0.3,2,1,2,1c1.7-0.3,3.3-0.7,5-1c0,0.3,0,0.7,0,1c1.3,0,2.7,0,4,0c0,0.3,0,0.7,0,1c7,0.7,14,1.3,21,2
	c0,0.3,0,0.7,0,1c1.1,1.1,0.4,0,1,2c11.3,0.7,22.7,1.3,34,2c0,1,0,2,0,3c3.3,0.3,6.7,0.7,10,1c1.5-0.4,6-1.9,9-1c0,0.3,0,0.7,0,1
	c1.3,0,2.7,0,4,0c0,0.3,0,0.7,0,1c7.7,0.3,15.3,0.7,23,1c0,0.7,0,1.3,0,2c8.7,0,17.3,0,26,0c0,0.3,0,0.7,0,1c1.7,0,3.3,0,5,0
	c0.3,0.7,0.7,1.3,1,2c2.7,0,5.3,0,8,0c0,0.3,0,0.7,0,1c4.9,1.4,18.5,0,22-1c6.7-0.3,13.3-0.7,20-1c0-0.3,0-0.7,0-1
	c1.3-0.3,2.7-0.7,4-1c0-0.3,0-0.7,0-1c1,0,2,0,3,0c0-0.3,0-0.7,0-1c1.3-0.3,2.7-0.7,4-1c0-0.3,0-0.7,0-1c3-0.7,6-1.3,9-2
	c0.7-1,1.3-2,2-3c0.7,0,1.3,0,2,0c0-0.3,0-0.7,0-1c0.7,0,1.3,0,2,0c0.3-0.7,0.7-1.3,1-2c1.3-0.3,2.7-0.7,4-1c0.3-0.7,0.7-1.3,1-2
	c0.7,0,1.3,0,2,0c0-0.3,0-0.7,0-1c2.2-1.8,3.6-3.2,7-4c1-3.9,2.9-3.1,4-7c0.7,0,1.3,0,2,0c2.3-3.8,6.7-5.3,8-10c0.7,0,1.3,0,2,0
	c0.3-1,0.7-2,1-3c1-0.7,2-1.3,3-2c0-0.7,0-1.3,0-2c0.3,0,0.7,0,1,0c0-0.7,0-1.3,0-2c0.3,0,0.7,0,1,0c0-0.7,0-1.3,0-2
	c2-1.7,4-3.3,6-5c0-0.7,0-1.3,0-2c0.3,0,0.7,0,1,0c0-0.7,0-1.3,0-2c0.7-0.3,1.3-0.7,2-1c0-0.7,0-1.3,0-2c17.7-26.8,29.8-59.6,37-97
	c2.2-0.8,6.4-0.1,9-1c0-0.3,0-0.7,0-1c0.7,0,1.3,0,2,0c0-0.3,0-0.7,0-1c2.3-0.3,4.7-0.7,7-1c0-0.3,0-0.7,0-1c2,0,4,0,6,0
	c0-0.3,0-0.7,0-1c0.7,0,1.3,0,2,0c0-0.3,0-0.7,0-1c2.3,0,4.7,0,7,0c0.3-1,0.7-2,1-3c6.3-0.1,13.4-2.2,18-4c1,0,2,0,3,0
	c0-0.3,0-0.7,0-1c1,0,2,0,3,0c0-0.3,0-0.7,0-1c0.7,0,1.3,0,2,0c0-0.3,0-0.7,0-1c3-0.3,6-0.7,9-1c0-0.3,0-0.7,0-1c0.7,0,1.3,0,2,0
	c0-0.3,0-0.7,0-1c3-0.7,6-1.3,9-2c0-0.3,0-0.7,0-1c0.7,0,1.3,0,2,0c0-0.3,0-0.7,0-1c2,0,4,0,6,0c0-0.3,0-0.7,0-1c0.7,0,1.3,0,2,0
	c0-0.3,0-0.7,0-1c1.7-0.3,3.3-0.7,5-1c0.3-0.7,0.7-1.3,1-2c1.7,0,3.3,0,5,0c0-0.3,0-0.7,0-1c1.7-0.3,3.3-0.7,5-1c0-0.3,0-0.7,0-1
	c1.3-0.3,2.7-0.7,4-1c0-0.3,0-0.7,0-1c1.3,0,2.7,0,4,0c0-0.3,0-0.7,0-1c0.7,0,1.3,0,2,0c0-0.3,0-0.7,0-1c1.7-0.3,3.3-0.7,5-1
	c0.3-0.7,0.7-1.3,1-2c0.7,0,1.3,0,2,0c0-0.3,0-0.7,0-1c1.7,0,3.3,0,5,0c0.3-0.7,0.7-1.3,1-2c1.3-0.3,2.7-0.7,4-1c0-0.3,0-0.7,0-1
	c1.3-0.3,2.7-0.7,4-1c0-0.3,0-0.7,0-1c1,0,2,0,3,0c0-0.3,0-0.7,0-1c0.7,0,1.3,0,2,0c0-0.3,0-0.7,0-1c1.3-0.3,2.7-0.7,4-1
	c0-0.3,0-0.7,0-1c1,0,2,0,3,0c0-0.3,0-0.7,0-1c0.7,0,1.3,0,2,0c0-0.3,0-0.7,0-1c1,0,2,0,3,0c0-0.3,0-0.7,0-1c0.7,0,1.3,0,2,0
	c0-0.3,0-0.7,0-1c0.7,0,1.3,0,2,0c0.3-0.7,0.7-1.3,1-2c1,0,2,0,3,0c0-0.3,0-0.7,0-1c0.7,0,1.3,0,2,0c0-0.3,0-0.7,0-1
	c0.7,0,1.3,0,2,0c0.3-0.7,0.7-1.3,1-2c1.3-0.3,2.7-0.7,4-1c0.3-0.7,0.7-1.3,1-2c1-0.3,2-0.7,3-1c0-0.3,0-0.7,0-1
	c1.3-0.3,2.7-0.7,4-1c0-0.3,0-0.7,0-1c0.7,0,1.3,0,2,0c0-0.3,0-0.7,0-1c0.7,0,1.3,0,2,0c0-0.3,0-0.7,0-1c0.7,0,1.3,0,2,0
	c0-0.3,0-0.7,0-1c0.7,0,1.3,0,2,0c0-0.3,0-0.7,0-1c0.7,0,1.3,0,2,0c1-1.3,2-2.7,3-4c0.7,0,1.3,0,2,0c0.3-0.7,0.7-1.3,1-2
	c2-0.7,4-1.3,6-2c0-0.3,0-0.7,0-1c1.9-1.5,3.2-2.3,6-3c0-0.7,0-1.3,0-2c2-0.7,4-1.3,6-2c0.7-1,1.3-2,2-3c0.7,0,1.3,0,2,0
	c0.7-1,1.3-2,2-3c2-0.7,4-1.3,6-2c0-0.3,0-0.7,0-1c2.1-1.7,3-3.2,6-4c0-0.7,0-1.3,0-2c3.2-0.8,3.7-2.2,7-3c0-0.7,0-1.3,0-2
	c1-0.3,2-0.7,3-1c0.7-1,1.3-2,2-3c0.7,0,1.3,0,2,0c0-0.3,0-0.7,0-1c0.7,0,1.3,0,2,0c1-1.3,2-2.7,3-4c0.7,0,1.3,0,2,0
	c0-0.3,0-0.7,0-1c1-0.3,2-0.7,3-1c0.3-0.7,0.7-1.3,1-2c0.7,0,1.3,0,2,0c1.3-1.7,2.7-3.3,4-5c0.7,0,1.3,0,2,0c1.7-2,3.3-4,5-6
	c1,0,2,0,3,0c1-1.3,2-2.7,3-4c0.7,0,1.3,0,2,0c0.3-0.7,0.7-1.3,1-2c0.3,0,0.7,0,1,0c0-0.7,0-1.3,0-2c0.7,0,1.3,0,2,0
	c0.7-1,1.3-2,2-3c0.7,0,1.3,0,2,0c2-2.3,4-4.7,6-7c0.7,0,1.3,0,2,0c0.7-1,1.3-2,2-3c1-0.3,2-0.7,3-1c0-0.7,0-1.3,0-2
	c0.7,0,1.3,0,2,0c2.5-4.5,7.5-6.5,11-10c1.3-1.7,2.7-3.3,4-5c0.7,0,1.3,0,2,0c0.8-3.4,6.6-9.2,10-10c0-0.7,0-1.3,0-2
	c0.7,0,1.3,0,2,0c1.2-2.1,2.3-2.2,3-5c2.8-0.7,2.2-0.3,3-3c0.7,0,1.3,0,2,0c0.7-2.9,1.1-3.3,4-4c0-0.7,0-1.3,0-2c0.7,0,1.3,0,2,0
	c1.1-4.3,3.2-3.4,5-6c0-0.7,0-1.3,0-2c1.7-1.3,3.3-2.7,5-4c0-0.7,0-1.3,0-2c1.3-1,2.7-2,4-3c0.7-1,1.3-2,2-3c0.3,0,0.7,0,1,0
	c0-0.7,0-1.3,0-2c0.7-0.3,1.3-0.7,2-1c2.6-2.8,5-5.6,6-10c4-1.3,1.1-0.4,3-3c0.7-0.3,1.3-0.7,2-1c0-0.7,0-1.3,0-2
	c0.7-0.3,1.3-0.7,2-1c0-0.7,0-1.3,0-2c0.7-0.3,1.3-0.7,2-1c0-0.7,0-1.3,0-2c2.7-2.3,5.3-4.7,8-7c0-0.7,0-1.3,0-2c1-0.7,2-1.3,3-2
	c0-0.7,0-1.3,0-2c0.7-0.3,1.3-0.7,2-1c0-0.7,0-1.3,0-2c1-0.7,2-1.3,3-2c0-0.7,0-1.3,0-2c0.3,0,0.7,0,1,0c0.3-0.7,0.7-1.3,1-2
	c1.3,0,2.7,0,4,0c0-0.3,0-0.7,0-1c1-0.7,2-1.3,3-2c0-0.7,0-1.3,0-2c0.7-0.3,1.3-0.7,2-1c0.3-1,0.7-2,1-3c1.3-1,2.7-2,4-3
	c0-0.7,0-1.3,0-2c0.7-0.3,1.3-0.7,2-1c0-0.7,0-1.3,0-2c0.3,0,0.7,0,1,0c0-0.7,0-1.3,0-2c0.7-0.3,1.3-0.7,2-1c0.3-1.3,0.7-2.7,1-4
	c0.7-0.3,1.3-0.7,2-1c0-0.7,0-1.3,0-2c0.7-0.3,1.3-0.7,2-1c0-0.7,0-1.3,0-2c0.7-0.3,1.3-0.7,2-1c0-0.7,0-1.3,0-2c0.3,0,0.7,0,1,0
	c0-0.7,0-1.3,0-2c0.3,0,0.7,0,1,0c1-3,2-6,3-9c0.7-0.3,1.3-0.7,2-1c0-0.7,0-1.3,0-2c0.3,0,0.7,0,1,0c0-0.7,0-1.3,0-2
	c0.3,0,0.7,0,1,0c0-1,0-2,0-3c0.3,0,0.7,0,1,0c0.3-2.3,0.7-4.7,1-7c0.3,0,0.7,0,1,0c0-1,0-2,0-3c0.3,0,0.7,0,1,0c0-0.7,0-1.3,0-2
	c0.3,0,0.7,0,1,0c0-0.7,0-1.3,0-2c1.3-1,2.7-2,4-3c0-0.7,0-1.3,0-2c1-0.7,2-1.3,3-2c0-0.7,0-1.3,0-2c1-0.7,2-1.3,3-2
	c0.7-2,1.3-4,2-6c0.7-0.3,1.3-0.7,2-1c0-0.7,0-1.3,0-2c0.3,0,0.7,0,1,0c0-0.7,0-1.3,0-2c0.3,0,0.7,0,1,0c0-1,0-2,0-3
	c0.3,0,0.7,0,1,0c0.3-2,0.7-4,1-6c0.7-0.3,1.3-0.7,2-1c0-0.7,0-1.3,0-2c0.3,0,0.7,0,1,0c0.3-1.3,0.7-2.7,1-4c0.3,0,0.7,0,1,0
	c2.4-6.5-3.7-9.4,6-10c3.4,3.4,14.4,2,21,2c8.7-0.3,17.3-0.7,26-1c4.3,0.3,8.7,0.7,13,1c0-0.3,0-0.7,0-1c4.3-0.3,8.7-0.7,13-1
	c5.5-0.2,23.2,1.4,26-1c8.5-2.2,13.1-15.5,13-27c-2-1.7-0.8-2.3-2-4c-0.7-0.3-1.3-0.7-2-1c-2.4-2.6-5.5-4.7-6-9c7,0,14,0,21,0
	c0,0.3,0,0.7,0,1c1,0,2,0,3,0c0,0.3,0,0.7,0,1c4,0,8,0,12,0c0-0.3,0-0.7,0-1c1,0,2,0,3,0c0-0.3,0-0.7,0-1c9,0,18,0,27,0
	c17,0,34,0,51,0c17.8,0,46.1,2.3,60-2c14.3,0,28.7,0,43,0c0-0.3,0-0.7,0-1c1.3-0.3,2.7-0.7,4-1c0-0.3,0-0.7,0-1c2.7-0.3,5.3-0.7,8-1
	c0-0.3,0-0.7,0-1c2-0.7,4-1.3,6-2c0-0.3,0-0.7,0-1c1.7,0,3.3,0,5,0c0-0.3,0-0.7,0-1c0.7,0,1.3,0,2,0c0-0.3,0-0.7,0-1
	c0.7,0,1.3,0,2,0c0.3-0.7,0.7-1.3,1-2c4-1.7,9.6,3.2,12,4c7,0,14,0,21,0c0,0.3,0,0.7,0,1c1,0,2,0,3,0c0,0.3,0,0.7,0,1
	c4.7,0,9.3,0,14,0c0,0.3,0,0.7,0,1c1,0,2,0,3,0c0,0.3,0,0.7,0,1c13.3,0,26.7,0,40,0c11.3,0,22.7,0,34,0c0,0.3,0,0.7,0,1c1,0,2,0,3,0
	c0,0.3,0,0.7,0,1c11.7,0,23.3,0,35,0c0-0.3,0-0.7,0-1c0.3,0,0.7,0,1,0c0-1,0-2,0-3c5.3-0.3,10.7-0.7,16-1c3,0.3,6,0.7,9,1
	c0-0.3,0-0.7,0-1c1.3,0,2.7,0,4,0c0-0.3,0-0.7,0-1c4.3,0.3,8.7,0.7,13,1c0-0.3,0-0.7,0-1c10.7,0,21.3,0,32,0c1.7-0.5,6.7-1.9,10-1
	c0,0.3,0,0.7,0,1c2,0,4,0,6,0c0-0.3,0-0.7,0-1c5.3,0,10.7,0,16,0c0-0.7,0-1.3,0-2c39.3-0.7,78.7-1.3,118-2c21.5,0,48,2.3,65-3
	c1.7,0,3.3,0,5,0c0-0.3,0-0.7,0-1c1,0,2,0,3,0c0-0.3,0-0.7,0-1c0.7,0,1.3,0,2,0c0-0.3,0-0.7,0-1c1,0,2,0,3,0c0-0.3,0-0.7,0-1
	c1,0,2,0,3,0c0-0.3,0-0.7,0-1c2-0.7,4-1.3,6-2c0-0.3,0-0.7,0-1c1.3-0.3,2.7-0.7,4-1c0.3-0.7,0.7-1.3,1-2c0.7,0,1.3,0,2,0
	c0-0.3,0-0.7,0-1c1-0.3,2-0.7,3-1c0.3-0.7,0.7-1.3,1-2c0.7,0,1.3,0,2,0c0.7-1,1.3-2,2-3c1-0.3,2-0.7,3-1c0.3-0.7,0.7-1.3,1-2
	c2.4-2.3,5.6-6,9-7c0.7-2.6,1.6-3.2,3-5c0.3,0,0.7,0,1,0c0-0.7,0-1.3,0-2c0.3,0,0.7,0,1,0c0-0.7,0-1.3,0-2c0.7-0.3,1.3-0.7,2-1
	c0-0.7,0-1.3,0-2c0.7-0.3,1.3-0.7,2-1c0.3-1.3,0.7-2.7,1-4c0.3,0,0.7,0,1,0c0-0.7,0-1.3,0-2c0.3,0,0.7,0,1,0c0.7-2,1.3-4,2-6
	c0.3,0,0.7,0,1,0c0-1,0-2,0-3c0.3,0,0.7,0,1,0c0-1,0-2,0-3c0.3,0,0.7,0,1,0c0-1,0-2,0-3c0.3,0,0.7,0,1,0c0-1.7,0-3.3,0-5
	c0.3,0,0.7,0,1,0c0.3-5.7,0.7-11.3,1-17c0.3,0,0.7,0,1,0c0-2.3,0-4.7,0-7c0.3,0,0.7,0,1,0c0-2.7,0-5.3,0-8c0.3,0,0.7,0,1,0
	c0-2.7,0-5.3,0-8c0.3,0,0.7,0,1,0c0-3.7,0-7.3,0-11c0.3,0,0.7,0,1,0c0-3,0-6,0-9c0.3,0,0.7,0,1,0c0-3.3,0-6.7,0-10c0.3,0,0.7,0,1,0
	c0-3.3,0-6.7,0-10c0.3,0,0.7,0,1,0c0-2.7,0-5.3,0-8c0.3,0,0.7,0,1,0c0-2.7,0-5.3,0-8c0.3,0,0.7,0,1,0c0-3,0-6,0-9c0.3,0,0.7,0,1,0
	c0-2.3,0-4.7,0-7c0.3,0,0.7,0,1,0c0-2.7,0-5.3,0-8c0.3,0,0.7,0,1,0c0-3.3,0-6.7,0-10c0.3,0,0.7,0,1,0c0-3.7,0-7.3,0-11
	c0.3,0,0.7,0,1,0c0-2.7,0-5.3,0-8c0.3,0,0.7,0,1,0c0-2.3,0-4.7,0-7c0.3,0,0.7,0,1,0c0-3,0-6,0-9c0.3,0,0.7,0,1,0c0-3.3,0-6.7,0-10
	c0.3,0,0.7,0,1,0c0-3.3,0-6.7,0-10c0.3,0,0.7,0,1,0c0.3-5.7,0.7-11.3,1-17c0.3,0,0.7,0,1,0c0-3.7,0-7.3,0-11c0.3,0,0.7,0,1,0
	c0-2.3,0-4.7,0-7c0.3,0,0.7,0,1,0c0-3.7,0-7.3,0-11c3.6-12.5,2.4-29.4,6-42c1-12,2-24,3-36c0.3,0,0.7,0,1,0c0-3,0-6,0-9
	c0.3,0,0.7,0,1,0c0-2,0-4,0-6c0.3,0,0.7,0,1,0c0-2.7,0-5.3,0-8c0.3,0,0.7,0,1,0c0-3.3,0-6.7,0-10c0.3,0,0.7,0,1,0c0-3.3,0-6.7,0-10
	c0.3,0,0.7,0,1,0c0-3.3,0-6.7,0-10c0.3,0,0.7,0,1,0c0-4,0-8,0-12c0.3,0,0.7,0,1,0c0-2.7,0-5.3,0-8c0.3,0,0.7,0,1,0c0-3.7,0-7.3,0-11
	c0.3,0,0.7,0,1,0c0-2.3,0-4.7,0-7c0.3,0,0.7,0,1,0c0-3.7,0-7.3,0-11c0.3,0,0.7,0,1,0c0-2.7,0-5.3,0-8c0.3,0,0.7,0,1,0
	c0-2.7,0-5.3,0-8c0.3,0,0.7,0,1,0c0-3,0-6,0-9c0.3,0,0.7,0,1,0c0.7-9.7,1.3-19.3,2-29c0.3,0,0.7,0,1,0c0-2.3,0-4.7,0-7
	c0.3,0,0.7,0,1,0c0-3.7,0-7.3,0-11c0.3,0,0.7,0,1,0c0-3,0-6,0-9c0.3,0,0.7,0,1,0c0-2.7,0-5.3,0-8c0.3,0,0.7,0,1,0c0-3.3,0-6.7,0-10
	c0.3,0,0.7,0,1,0c0-3.3,0-6.7,0-10c0.3,0,0.7,0,1,0c0-2.7,0-5.3,0-8c0.3,0,0.7,0,1,0c0-3.3,0-6.7,0-10c4-14,2-32.9,6-47
	c0-2.7,0-5.3,0-8c0.3,0,0.7,0,1,0c0.7-10.3,1.3-20.7,2-31c0.3,0,0.7,0,1,0c0-2.7,0-5.3,0-8c0.3,0,0.7,0,1,0c0-3,0-6,0-9
	c4.7-16.3,2.4-38.7,7-55c0-3.3,0-6.7,0-10c0.3,0,0.7,0,1,0c0-3,0-6,0-9c0.3,0,0.7,0,1,0c0-3.3,0-6.7,0-10c0.3,0,0.7,0,1,0
	c0-3.7,0-7.3,0-11c0.3,0,0.7,0,1,0c0-2.7,0-5.3,0-8c0.3,0,0.7,0,1,0c0-3.7,0-7.3,0-11c0.3,0,0.7,0,1,0c0-3.3,0-6.7,0-10
	c0.3,0,0.7,0,1,0c0-2.3,0-4.7,0-7c0.3,0,0.7,0,1,0c0-3.7,0-7.3,0-11c3.1-10.9,1.9-26,5-37c0-4,0-8,0-12c3.1-11,1.9-26,5-37
	c0-3.7,0-7.3,0-11c0.3,0,0.7,0,1,0c0-2,0-4,0-6c0.3,0,0.7,0,1,0c0-3.7,0-7.3,0-11c0.3,0,0.7,0,1,0c0-3.7,0-7.3,0-11c0.3,0,0.7,0,1,0
	c0-3,0-6,0-9c0.3,0,0.7,0,1,0c0-3,0-6,0-9c0.3,0,0.7,0,1,0c0-2.3,0-4.7,0-7c0.3,0,0.7,0,1,0c0-4,0-8,0-12c0.3,0,0.7,0,1,0
	c0-2.3,0-4.7,0-7c0.3,0,0.7,0,1,0c1.3-4.7-0.1-17.7-1-21c0-2.3,0-4.7,0-7c-0.3,0-0.7,0-1,0c0-1.3,0-2.7,0-4c-0.3,0-0.7,0-1,0
	c0-1.3,0-2.7,0-4c-0.3,0-0.7,0-1,0c0-1.3,0-2.7,0-4c-0.3,0-0.7,0-1,0c-0.7-2-1.3-4-2-6c-0.3,0-0.7,0-1,0c0-1,0-2,0-3
	c-0.3,0-0.7,0-1,0c0-0.7,0-1.3,0-2c-0.3,0-0.7,0-1,0c0-0.7,0-1.3,0-2c-0.7-0.3-1.3-0.7-2-1c-0.3-1.3-0.7-2.7-1-4
	c-0.7-0.3-1.3-0.7-2-1c0-0.7,0-1.3,0-2c-0.7-0.3-1.3-0.7-2-1c0-0.3,0-0.7,0-1c-0.7-0.3-1.3-0.7-2-1c0-0.7,0-1.3,0-2
	c-1.9-2.6-3.8-1.7-5-6c-3.4-0.9-5.7-3.8-8-6c-0.3-0.7-0.7-1.3-1-2c-0.7,0-1.3,0-2,0c-0.3-0.7-0.7-1.3-1-2c-1-0.3-2-0.7-3-1
	c0-0.3,0-0.7,0-1c-0.7,0-1.3,0-2,0c-0.7-1-1.3-2-2-3c-0.7,0-1.3,0-2,0c-0.3-0.7-0.7-1.3-1-2c-0.7,0-1.3,0-2,0c-0.3-0.7-0.7-1.3-1-2
	c-2.1-1.9-4.9-4.2-8-5c0-0.7,0-1.3,0-2c-3.4-0.7-4.8-2.2-7-4c0-0.3,0-0.7,0-1c-0.7,0-1.3,0-2,0c-0.7-1-1.3-2-2-3c-0.7,0-1.3,0-2,0
	c-0.7-1-1.3-2-2-3c-0.7,0-1.3,0-2,0c-0.3-0.7-0.7-1.3-1-2c-0.7,0-1.3,0-2,0c-0.7-1-1.3-2-2-3c-1.3-0.3-2.7-0.7-4-1
	c-0.3-0.7-0.7-1.3-1-2c-0.3,0-0.7,0-1,0c-0.3-0.7-0.7-1.3-1-2c-0.7,0-1.3,0-2,0c-1-1.3-2-2.7-3-4c-1.3-0.3-2.7-0.7-4-1
	c-0.7-1-1.3-2-2-3c-0.7,0-1.3,0-2,0c-1-1.3-2-2.7-3-4c-0.7,0-1.3,0-2,0c-0.7-1-1.3-2-2-3c-0.7,0-1.3,0-2,0c-0.3-0.7-0.7-1.3-1-2
	c-1.3-0.3-2.7-0.7-4-1c-0.7-1-1.3-2-2-3c-1.3-0.3-2.7-0.7-4-1c-1-1.3-2-2.7-3-4c-0.7,0-1.3,0-2,0c-0.3-0.7-0.7-1.3-1-2
	c-0.7,0-1.3,0-2,0c-2.1-1.5-4.4-5.9-5-9c-4.1-1.1-1-0.7-3-3c-1-0.3-2-0.7-3-1c-0.7-1-1.3-2-2-3c-0.7,0-1.3,0-2,0
	c-0.3-0.7-0.7-1.3-1-2c-1.3-0.3-2.7-0.7-4-1c-0.3-0.7-0.7-1.3-1-2c-1-0.3-2-0.7-3-1c0-0.3,0-0.7,0-1c-3-1-6-2-9-3c0-0.3,0-0.7,0-1
	c-0.7,0-1.3,0-2,0c0-0.3,0-0.7,0-1c-1,0-2,0-3,0c0-0.3,0-0.7,0-1c-1,0-2,0-3,0c0-0.3,0-0.7,0-1c-1,0-2,0-3,0c0-0.3,0-0.7,0-1
	c-1.5-0.9-2.4-0.8-5-1c-0.7-2.8-0.3-2.2-3-3c0-0.7,0-1.3,0-2c-4.1-0.8-5-3.4-8-5c-1.7-0.3-3.3-0.7-5-1c-0.7-1-1.3-2-2-3
	c-1,0-2,0-3,0c-0.3-0.7-0.7-1.3-1-2c-0.7,0-1.3,0-2,0c-0.3-0.7-0.7-1.3-1-2c-2-0.7-4-1.3-6-2c-0.3-0.7-0.7-1.3-1-2c-1-0.3-2-0.7-3-1
	c0-0.3,0-0.7,0-1c-1.7-0.3-3.3-0.7-5-1c-0.3-0.7-0.7-1.3-1-2c-1-0.3-2-0.7-3-1c0-0.3,0-0.7,0-1c-1,0-2,0-3,0c-0.3-0.7-0.7-1.3-1-2
	c-2-0.7-4-1.3-6-2c-0.3-0.7-0.7-1.3-1-2c-1,0-2,0-3,0c-0.3-0.7-0.7-1.3-1-2c-0.7,0-1.3,0-2,0c0-0.3,0-0.7,0-1c-0.7,0-1.3,0-2,0
	c0-0.3,0-0.7,0-1c-0.7,0-1.3,0-2,0c0-0.3,0-0.7,0-1c-0.7,0-1.3,0-2,0c0-0.3,0-0.7,0-1c-0.7,0-1.3,0-2,0c-0.3-0.7-0.7-1.3-1-2
	c-3-1-6-2-9-3c-0.3-0.7-0.7-1.3-1-2c-1,0-2,0-3,0c0-0.3,0-0.7,0-1c-0.7,0-1.3,0-2,0c0-0.3,0-0.7,0-1c-1,0-2,0-3,0c0-0.3,0-0.7,0-1
	c-1,0-2,0-3,0c0-0.3,0-0.7,0-1c-1.7,0-3.3,0-5,0c0-0.3,0-0.7,0-1c-1.7,0-3.3,0-5,0c0-0.3,0-0.7,0-1c-12,0-24,0-36,0c0-0.7,0-1.3,0-2
	c-1.1,1.1-0.4,0-1,2c-4,0-8,0-12,0c0-0.3,0-0.7,0-1c-2.2-0.5-3,1-3,1c-3.7,0-7.3,0-11,0c0-0.7,0-1.3,0-2c-2,0-4,0-6,0
	c0,0.7,0,1.3,0,2c-40.2-1.6-91.8-1-134-1c-12.4,0-29.9-1.3-39,0c-9.7,1.4-21.8-1.3-30,1c-7-0.7-14-1.3-21-2c-3.7,1-19.6,3.7-25,2
	c0-0.3,0-0.7,0-1c-1,0-2,0-3,0c0-0.3,0-0.7,0-1c-4.3,0.3-8.7,0.7-13,1c-9.3,0-21.3-1.4-28,0c-9.7,0.3-19.3,0.7-29,1c0-0.7,0-1.3,0-2
	c-23.3,0-46.7,0-70,0c0,0.7,0,1.3,0,2c-75.3,0.3-150.7,0.7-226,1c-8.1-2.3-19.3-2-30-2c0,0.7,0,1.3,0,2c-2.7,0-5.3,0-8,0
	c0-0.7,0-1.3,0-2c-107.4,0-217.9,0-328,0c0,0.7,0,1.3,0,2c-11.3,0-22.7,0-34,0c0-0.7,0-1.3,0-2c-8.3,0-15.8,0.3-22,2
	c-4.2,1.1-7.6-1.3-10-2c-5.7,0.3-11.3,0.7-17,1c0,0.7,0,1.3,0,2c-4.7,0-9.3,0-14,0c0-0.3,0-0.7,0-1c-6.3,0.3-12.7,0.7-19,1
	c-4.9-0.4-14.7-2.8-21-1c0,0.3,0,0.7,0,1c-4.7,0-9.3,0-14,0c-10.5-2.9-29.5-1-42-1c-29.3,0-58.7,0-88,0c0.1-12.6,0-28.7,0-44
	c0-7.8,0.6-17.9-1-24c-0.8-3.1,0.8-4.7,1-7c0.6-6.7-0.7-11.6-2-16c0-8,0-16,0-24c0-5,0-10,0-15c-0.3,0-0.7,0-1,0c0-1.3,0-2.7,0-4
	c-0.3,0-0.7,0-1,0c0-8,0-16,0-24c-0.3,0-0.7,0-1,0c0-1.3,0-2.7,0-4c-0.3,0-0.7,0-1,0c0-8,0-16,0-24c0-16.8-0.3-31.9-4-45
	c0.3-4.3,0.7-8.7,1-13c0-8.5,1.1-20.1-1-27c-0.3,0-0.7,0-1,0c0-6.3,0-12.7,0-19c-0.3,0-0.7,0-1,0c0-1.3,0-2.7,0-4c-0.3,0-0.7,0-1,0
	c0-0.7,0-1.3,0-2c-0.3,0-0.7,0-1,0c0-0.7,0-1.3,0-2c-0.7-0.3-1.3-0.7-2-1c0-0.7,0-1.3,0-2c-0.3,0-0.7,0-1,0c-1.8-4.8,0.9-12.5-1-17
	c-0.3,0-0.7,0-1,0c0-0.7,0-1.3,0-2c-0.7-0.3-1.3-0.7-2-1c0-0.7,0-1.3,0-2c-1-0.7-2-1.3-3-2c0-0.7,0-1.3,0-2c-0.3,0-0.7,0-1,0
	c-0.3-3.7-0.7-7.3-1-11c-0.3,0-0.7,0-1,0c0-0.7,0-1.3,0-2c-0.3,0-0.7,0-1,0c0-0.7,0-1.3,0-2c-0.7-0.3-1.3-0.7-2-1
	c-1.4-2.3-1-5.2-2-8c-0.3,0-0.7,0-1,0c0-3.7,0-7.3,0-11c-0.3,0-0.7,0-1,0c0-1.7,0-3.3,0-5c-0.3,0-0.7,0-1,0c-0.3-1.3-0.7-2.7-1-4
	c-0.3,0-0.7,0-1,0c0-7.7,0-15.3,0-23c-2.9-10-5.1-19.8-5-33c0-7.9,3-20.5,0-28c-0.3,0-0.7,0-1,0c0-0.7,0-1.3,0-2
	c-0.7-0.3-1.3-0.7-2-1c0-0.7,0-1.3,0-2c-0.3,0-0.7,0-1,0c-0.3-1-0.7-2-1-3c-0.7-0.3-1.3-0.7-2-1c0-0.7,0-1.3,0-2c-1.3-1-2.7-2-4-3
	c-3.3-4.3-6.7-8.7-10-13c0-3,0-6,0-9c1.3-1,2.7-2,4-3c0.3-1,0.7-2,1-3c0.7,0,1.3,0,2,0c0-0.3,0-0.7,0-1c0.7-0.3,1.3-0.7,2-1
	c0-1,0-2,0-3c-4.7-5-9.3-10-14-15c-0.7,0-1.3,0-2,0c0-0.3,0-0.7,0-1c-1.8-1.5-3.2-2.4-6-3c0-1.7,0-3.3,0-5c11.1-6.2,11.3-23.8,7-37
	c-0.3-2.7-0.7-5.3-1-8c-0.3,0-0.7,0-1,0c0-0.7,0-1.3,0-2c-0.7-0.3-1.3-0.7-2-1c0-0.7,0-1.3,0-2c-0.3,0-0.7,0-1,0
	c-1.9-2.3-4.1-3.7-5-7c-0.7,0-1.3,0-2,0c0-0.7,0-1.3,0-2c-2.3-0.6-2.5-0.8-4-2c0-0.3,0-0.7,0-1c-1.3-0.3-2.7-0.7-4-1
	c0-0.3,0-0.7,0-1c-1.3,0-2.7,0-4,0c-5.2-1.8-10.7-2.9-18-3c-0.1-3.8-1.1-9-2-12c0-2.7,0-5.3,0-8c-0.3,0-0.7,0-1,0c0-2.7,0-5.3,0-8
	c-0.3,0-0.7,0-1,0c0-3,0-6,0-9c-0.3,0-0.7,0-1,0c0-2.7,0-5.3,0-8c-0.3,0-0.7,0-1,0c0-3,0-6,0-9c-0.3,0-0.7,0-1,0c0-2.7,0-5.3,0-8
	c-0.3,0-0.7,0-1,0c0-3,0-6,0-9c-0.3,0-0.7,0-1,0c0-2.7,0-5.3,0-8c-0.3,0-0.7,0-1,0c0-3,0-6,0-9c-0.3,0-0.7,0-1,0c0-2.7,0-5.3,0-8
	c-0.3,0-0.7,0-1,0c0-3,0-6,0-9c-3.7-12.8-2.3-30.2-6-43c0-3,0-6,0-9c-0.3,0-0.7,0-1,0c-0.7-9.3-1.3-18.7-2-28c-0.3,0-0.7,0-1,0
	c0-3,0-6,0-9c-0.3,0-0.7,0-1,0c0-3,0-6,0-9c-0.3,0-0.7,0-1,0c0-3,0-6,0-9c-0.3,0-0.7,0-1,0c0-3,0-6,0-9c-0.3,0-0.7,0-1,0
	c0-3,0-6,0-9c-0.3,0-0.7,0-1,0c0-2.3,0-4.7,0-7c-0.3,0-0.7,0-1,0c0-2.7,0-5.3,0-8c-2.7-9.2-3.3-21.1-6-30c-0.3-3.7-0.7-7.3-1-11
	c-0.3,0-0.7,0-1,0c-0.3-3-0.7-6-1-9c-0.3,0-0.7,0-1,0c0-1.3,0-2.7,0-4c-0.3,0-0.7,0-1,0c0-1.7,0-3.3,0-5c-0.3,0-0.7,0-1,0
	c-0.7-4-1.3-8-2-12c-0.3,0-0.7,0-1,0c-0.7-3.7-1.3-7.3-2-11c-0.3,0-0.7,0-1,0c-0.7-3.3-1.3-6.7-2-10c-0.3,0-0.7,0-1,0c0-1,0-2,0-3
	c-0.3,0-0.7,0-1,0c0-1,0-2,0-3c-0.3,0-0.7,0-1,0c0-1,0-2,0-3c-0.3,0-0.7,0-1,0c0-1,0-2,0-3c-0.3,0-0.7,0-1,0c0-1,0-2,0-3
	c-0.3,0-0.7,0-1,0c0-1,0-2,0-3c-0.3,0-0.7,0-1,0c0-1,0-2,0-3c-0.3,0-0.7,0-1,0c0-0.7,0-1.3,0-2c-0.3,0-0.7,0-1,0c-0.3-2-0.7-4-1-6
	c-0.3,0-0.7,0-1,0c-0.3-1.7-0.7-3.3-1-5c-0.3,0-0.7,0-1,0c0-0.7,0-1.3,0-2c-0.3,0-0.7,0-1,0c0-1,0-2,0-3c-0.3,0-0.7,0-1,0
	c-0.3-1.3-0.7-2.7-1-4c-0.3,0-0.7,0-1,0c0-1,0-2,0-3c-0.3,0-0.7,0-1,0c-0.3-1.3-0.7-2.7-1-4c-0.3,0-0.7,0-1,0c0-1,0-2,0-3
	c-0.3,0-0.7,0-1,0c0-0.7,0-1.3,0-2c-0.3,0-0.7,0-1,0c-0.3-1.3-0.7-2.7-1-4c-0.3,0-0.7,0-1,0c0-0.7,0-1.3,0-2c-0.3,0-0.7,0-1,0
	c0-0.7,0-1.3,0-2c-0.3,0-0.7,0-1,0c0-0.7,0-1.3,0-2c-0.3,0-0.7,0-1,0c0-0.7,0-1.3,0-2c-0.3,0-0.7,0-1,0c0-0.7,0-1.3,0-2
	c-0.3,0-0.7,0-1,0c0-0.7,0-1.3,0-2c-0.3,0-0.7,0-1,0c0-0.7,0-1.3,0-2c-0.3,0-0.7,0-1,0c0-0.7,0-1.3,0-2c-0.3,0-0.7,0-1,0
	c0-0.7,0-1.3,0-2c-0.3,0-0.7,0-1,0c0-0.7,0-1.3,0-2c-0.3,0-0.7,0-1,0c0-0.7,0-1.3,0-2c-0.7-0.3-1.3-0.7-2-1c-0.7-2-1.3-4-2-6
	c-0.7-0.3-1.3-0.7-2-1c-0.3-1.3-0.7-2.7-1-4c-0.7-0.3-1.3-0.7-2-1c0-0.7,0-1.3,0-2c-0.3,0-0.7,0-1,0c0-0.7,0-1.3,0-2
	c-0.3,0-0.7,0-1,0c-0.3-1-0.7-2-1-3c-0.7-0.3-1.3-0.7-2-1c-0.3-1.3-0.7-2.7-1-4c-0.3,0-0.7,0-1,0c-0.3-1-0.7-2-1-3
	c-0.7-0.3-1.3-0.7-2-1c0-0.7,0-1.3,0-2c-1-0.7-2-1.3-3-2c0-0.7,0-1.3,0-2c-0.7-0.3-1.3-0.7-2-1c0-0.7,0-1.3,0-2
	c-0.7-0.3-1.3-0.7-2-1c0-0.7,0-1.3,0-2c-0.7-0.3-1.3-0.7-2-1c-0.3-1-0.7-2-1-3c-1.3-1-2.7-2-4-3c0-0.7,0-1.3,0-2c-1-0.7-2-1.3-3-2
	c0-0.7,0-1.3,0-2c-1.7-1.3-3.3-2.7-5-4c0-0.7,0-1.3,0-2c-2-1.7-4-3.3-6-5c0-0.7,0-1.3,0-2c-4.3-4-8.7-8-13-12c-3-3.3-6-6.7-9-10
	c-0.7,0-1.3,0-2,0c-1.7-2-3.3-4-5-6c-0.7,0-1.3,0-2,0c-1-1.3-2-2.7-3-4c-0.7,0-1.3,0-2,0c-0.7-1-1.3-2-2-3c-0.7,0-1.3,0-2,0
	c-0.7-1-1.3-2-2-3c-0.7,0-1.3,0-2,0c-0.3-0.7-0.7-1.3-1-2c-0.7,0-1.3,0-2,0c-0.3-0.7-0.7-1.3-1-2c-0.7,0-1.3,0-2,0
	c-0.3-0.7-0.7-1.3-1-2c-0.7,0-1.3,0-2,0c-0.3-0.7-0.7-1.3-1-2c-1.3-0.3-2.7-0.7-4-1c-0.3-0.7-0.7-1.3-1-2c-0.7,0-1.3,0-2,0
	c0-0.3,0-0.7,0-1c-0.7,0-1.3,0-2,0c0-0.3,0-0.7,0-1c-0.7,0-1.3,0-2,0c0-0.3,0-0.7,0-1c-0.7,0-1.3,0-2,0c0-0.3,0-0.7,0-1
	c-0.7,0-1.3,0-2,0c0-0.3,0-0.7,0-1c-0.7,0-1.3,0-2,0c0-0.3,0-0.7,0-1c-0.7,0-1.3,0-2,0c0-0.3,0-0.7,0-1c-2-0.7-4-1.3-6-2
	c0-0.3,0-0.7,0-1c-1,0-2,0-3,0c0-0.3,0-0.7,0-1c-0.7,0-1.3,0-2,0c0-0.3,0-0.7,0-1c-1,0-2,0-3,0c-21-9.2-44.5-12.8-75-13
	c1.7,18.7,3.3,37.3,5,56c2.7,1.4,4.2,2,9,2c2.5,2.2,6.4,0.9,10,2c8.3,2.3,16.7,4.7,25,7c0,0.3,0,0.7,0,1c0.7,0,1.3,0,2,0
	c0,0.3,0,0.7,0,1c1,0,2,0,3,0c0,0.3,0,0.7,0,1c0.7,0,1.3,0,2,0c0,0.3,0,0.7,0,1c1,0,2,0,3,0c0,0.3,0,0.7,0,1c2,0.7,4,1.3,6,2
	c0,0.3,0,0.7,0,1c0.7,0,1.3,0,2,0c0,0.3,0,0.7,0,1c0.7,0,1.3,0,2,0c0,0.3,0,0.7,0,1c2,0.7,4,1.3,6,2c0.3,0.7,0.7,1.3,1,2
	c1.3,0.3,2.7,0.7,4,1c0.3,0.7,0.7,1.3,1,2c1.3,0.3,2.7,0.7,4,1c0.3,0.7,0.7,1.3,1,2c0.7,0,1.3,0,2,0c0.7,1,1.3,2,2,3
	c0.7,0,1.3,0,2,0c0.3,0.7,0.7,1.3,1,2c0.7,0,1.3,0,2,0c0.7,1,1.3,2,2,3c1,0.3,2,0.7,3,1c1.7,2,3.3,4,5,6c0.7,0,1.3,0,2,0
	c1,1.3,2,2.7,3,4c3,2.7,6,5.3,9,8c0,0.7,0,1.3,0,2c2,1.7,4,3.3,6,5c0,0.7,0,1.3,0,2c1,0.7,2,1.3,3,2c0,0.7,0,1.3,0,2
	c1.3,1,2.7,2,4,3c0,0.7,0,1.3,0,2c0.7,0.3,1.3,0.7,2,1c0,0.7,0,1.3,0,2c0.7,0.3,1.3,0.7,2,1c0,0.7,0,1.3,0,2c0.7,0.3,1.3,0.7,2,1
	c0,0.7,0,1.3,0,2c0.7,0.3,1.3,0.7,2,1c0,0.7,0,1.3,0,2c0.7,0.3,1.3,0.7,2,1c0,0.7,0,1.3,0,2c0.3,0,0.7,0,1,0c0,0.7,0,1.3,0,2
	c0.7,0.3,1.3,0.7,2,1c0.3,1.3,0.7,2.7,1,4c0.7,0.3,1.3,0.7,2,1c0,0.7,0,1.3,0,2c0.3,0,0.7,0,1,0c0,0.7,0,1.3,0,2c0.3,0,0.7,0,1,0
	c0,0.7,0,1.3,0,2c0.3,0,0.7,0,1,0c0,0.7,0,1.3,0,2c0.7,0.3,1.3,0.7,2,1c0.3,1.3,0.7,2.7,1,4c0.3,0,0.7,0,1,0c0,0.7,0,1.3,0,2
	c0.3,0,0.7,0,1,0c0.7,2,1.3,4,2,6c0.3,0,0.7,0,1,0c0,1,0,2,0,3c0.3,0,0.7,0,1,0c0,0.7,0,1.3,0,2c0.3,0,0.7,0,1,0c0.7,2,1.3,4,2,6
	c0.3,0,0.7,0,1,0c0,1,0,2,0,3c0.3,0,0.7,0,1,0c0,0.7,0,1.3,0,2c0.3,0,0.7,0,1,0c0,1,0,2,0,3c0.3,0,0.7,0,1,0c0,0.7,0,1.3,0,2
	c0.3,0,0.7,0,1,0c0.3,1.7,0.7,3.3,1,5c0.3,0,0.7,0,1,0c0,1,0,2,0,3c0.3,0,0.7,0,1,0c0,0.7,0,1.3,0,2c0.3,0,0.7,0,1,0
	c0.3,2,0.7,4,1,6c0.3,0,0.7,0,1,0c0,0.7,0,1.3,0,2c0.3,0,0.7,0,1,0c0.3,2,0.7,4,1,6c0.3,0,0.7,0,1,0c0,1,0,2,0,3c0.3,0,0.7,0,1,0
	c0,1,0,2,0,3c0.3,0,0.7,0,1,0c0,1,0,2,0,3c0.3,0,0.7,0,1,0c0,1,0,2,0,3c0.3,0,0.7,0,1,0c0,1,0,2,0,3c0.3,0,0.7,0,1,0
	c0,1.3,0,2.7,0,4c0.3,0,0.7,0,1,0c0,1,0,2,0,3c0.3,0,0.7,0,1,0c0,1,0,2,0,3c0.3,0,0.7,0,1,0c0.3,2.3,0.7,4.7,1,7c0.3,0,0.7,0,1,0
	c0.3,2.3,0.7,4.7,1,7c0.3,0,0.7,0,1,0c0.7,4,1.3,8,2,12c0.3,0,0.7,0,1,0c0,1.3,0,2.7,0,4c0.3,0,0.7,0,1,0c0,1.3,0,2.7,0,4
	c0.3,0,0.7,0,1,0c0,1.3,0,2.7,0,4c0.3,0,0.7,0,1,0c0,1.3,0,2.7,0,4c0.3,0,0.7,0,1,0c0,1.7,0,3.3,0,5c2.8,8.7,4.3,20.1,7,29
	c0.3,4,0.7,8,1,12c0.3,0,0.7,0,1,0c0,2,0,4,0,6c0.3,0,0.7,0,1,0c0,2.7,0,5.3,0,8c0.3,0,0.7,0,1,0c0,3.3,0,6.7,0,10c0.3,0,0.7,0,1,0
	c0,3.3,0,6.7,0,10c0.3,0,0.7,0,1,0c0,3.3,0,6.7,0,10c0.3,0,0.7,0,1,0c0,3.3,0,6.7,0,10c0.3,0,0.7,0,1,0c0,3.3,0,6.7,0,10
	c0.3,0,0.7,0,1,0c0,3.3,0,6.7,0,10c0.3,0,0.7,0,1,0c0.3,7,0.7,14,1,21c0.3,0,0.7,0,1,0c0,3.3,0,6.7,0,10c0.3,0,0.7,0,1,0
	c0,3.3,0,6.7,0,10c0.3,0,0.7,0,1,0c0,3.3,0,6.7,0,10c0.3,0,0.7,0,1,0c0,3.3,0,6.7,0,10c0.3,0,0.7,0,1,0c0,3.7,0,7.3,0,11
	c0.3,0,0.7,0,1,0c0,3.3,0,6.7,0,10c0.3,0,0.7,0,1,0c0,3.3,0,6.7,0,10c0.3,0,0.7,0,1,0c0,3.3,0,6.7,0,10c0.3,0,0.7,0,1,0
	c0.7,10,1.3,20,2,30c-1.7,1.3-3.3,2.7-5,4c-1.6,2.9-1,10.5-1,15c-4.2,2.5-5.3,5.6-12,6c0,0.7,0,1.3,0,2c-0.3,0-0.7,0-1,0
	c-1.7,2-3.3,4-5,6c-0.7,0-1.3,0-2,0c-0.9,3.5-2.4,2.9-3,7c-0.3,0-0.7,0-1,0c0,0.3,0,0.7,0,1c0.3,0,0.7,0,1,0c0.5,2.7,0.9,5.6,2,8
	c0.3,0,0.7,0,1,0c0,0.7,0,1.3,0,2c0.3,0,0.7,0,1,0c0.3,1.7,0.7,3.3,1,5c0.3,0,0.7,0,1,0c0,0.7,0,1.3,0,2c0.3,0,0.7,0,1,0
	c0,3.7,0,7.3,0,11c-0.3,0-0.7,0-1,0c0,0.7,0,1.3,0,2c-0.3,0-0.7,0-1,0c-3.4,9.9,9,19.8,15,21c0,1.3,0,2.7,0,4c-4.6,2.1-6.7,5.7-10,9
	c-1,0.7-2,1.3-3,2c-1.2,1.7,0,2.3-2,4c0.5,1.3,0.4,2.3,1,4c0.3,0,0.7,0,1,0c0,1.3,0,2.7,0,4c0.3,0,0.7,0,1,0c0.3,1.3,0.7,2.7,1,4
	c0.3,0,0.7,0,1,0c0,1,0,2,0,3c0.3,0,0.7,0,1,0c0,4.7,0,9.3,0,14c-0.3,0-0.7,0-1,0c0,1,0,2,0,3c-0.3,0-0.7,0-1,0c0,3.3,0,6.7,0,10
	c-2.7,1.8-3.1,4.4-5,7c-1.3,1-2.7,2-4,3c-0.3,0.7-0.7,1.3-1,2c-0.7,0-1.3,0-2,0c-1.3,1.7-2.7,3.3-4,5c-0.7,0.3-1.3,0.7-2,1
	c0,0.7,0,1.3,0,2c-0.3,0-0.7,0-1,0c-1,1.2-0.7,1.9-2,3c-0.3,4-1.5,7.4,1,10c1.3,5.2,7.2,8,11,11c0.9,0.7,0.8,2.1,2,3
	c0.4,8.2,1,18.3,1,28c0,2.7,0,5.3,0,8c-0.3,0-0.7,0-1,0c0,1,0,2,0,3c-0.3,0-0.7,0-1,0c0,4.3,0,8.7,0,13c0,10.7,0,21.3,0,32
	c-0.3,0-0.7,0-1,0c0,1.3,0,2.7,0,4c-0.3,0-0.7,0-1,0c-0.3,2.3-0.7,4.7-1,7c-0.3,0-0.7,0-1,0c0,0.7,0,1.3,0,2c-0.3,0-0.7,0-1,0
	c-0.3,1.3-0.7,2.7-1,4c-0.3,0-0.7,0-1,0c0,1,0,2,0,3c-0.3,0-0.7,0-1,0c0,9.7,0,19.3,0,29c-0.3,0-0.7,0-1,0c0,1.3,0,2.7,0,4
	c-0.3,0-0.7,0-1,0c0,4.3,0,8.7,0,13c-0.3,0-0.7,0-1,0c0,2,0,4,0,6c-0.3,0-0.7,0-1,0c0.7,4,1.3,8,2,12c0,13,0,26,0,39
	c1.2,4,2,7.1,2,13c0,14,0,28,0,42c0.3,0,0.7,0,1,0c0,1.7,0,3.3,0,5c0.3,0,0.7,0,1,0c0,1,0,2,0,3c0.3,0,0.7,0,1,0c0,5,0,10,0,15
	c-0.3,0-0.7,0-1,0c0.3,5,0.7,10,1,15c0.3,0,0.7,0,1,0c0,13.3,0,26.7,0,40c0,8.4,0.3,13.9,2,20c0,15,0,30,0,45c0.7,0,1.3,0,2,0
	c0,1,0,2,0,3c-23.6,4.2-55.1,2-82,2c0,0.7,0,1.3,0,2c-4.7,0-9.3,0-14,0c0,0.3,0,0.7,0,1c-1,0-2,0-3,0c-2,0-4,0-6,0c0-0.3,0-0.7,0-1
	c-0.3,0-0.7,0-1,0c0,0.3,0,0.7,0,1c-10.8,2-25.3-2-35,1c0,0.3,0,0.7,0,1c-1.3,0-2.7,0-4,0c0,0.3,0,0.7,0,1c-1,0-2,0-3,0
	c0,0.3,0,0.7,0,1c-2-0.3-4-0.7-6-1c0,0.3,0,0.7,0,1c-1.1,1.1-0.4,0-1,2c-5.7,1.4-8.5,5.5-15,6c-0.3,1.3-0.7,2.7-1,4
	c-4.2,1-5.5,4-10,5c0,0.7,0,1.3,0,2c-0.7,0-1.3,0-2,0c-1,3.9-2.9,3.1-4,7c-0.7,0-1.3,0-2,0c-1.4,1.6-3.5,2.5-5,4
	c-0.3,0.7-0.7,1.3-1,2c-0.7,0-1.3,0-2,0c-2.3,2.7-4.7,5.3-7,8c-0.7,0-1.3,0-2,0c-0.7,1-1.3,2-2,3c-0.3,0-0.7,0-1,0c0,0.7,0,1.3,0,2
	c-0.3,0-0.7,0-1,0c-0.3,0.7-0.7,1.3-1,2c-0.7,0-1.3,0-2,0c-0.3,0.7-0.7,1.3-1,2c-0.3,0-0.7,0-1,0c0,0.7,0,1.3,0,2c-0.3,0-0.7,0-1,0
	c-1,1.4-1.1,1.6,0,3c-0.7,0-1.3,0-2,0c-0.3,0.7-0.7,1.3-1,2c-1.3,0.3-2.7,0.7-4,1c-0.3,0.7-0.7,1.3-1,2c-1.3,0.3-2.7,0.7-4,1
	c-0.3,0.7-0.7,1.3-1,2c-0.7,0-1.3,0-2,0c-0.3,0.7-0.7,1.3-1,2c-0.7,0-1.3,0-2,0c-0.3,0.7-0.7,1.3-1,2c-1,0.3-2,0.7-3,1
	c0,0.3,0,0.7,0,1c-1.7,1.4-2.4,2.3-5,3c0,0.7,0,1.3,0,2c-0.7,0-1.3,0-2,0c0,0.7,0,1.3,0,2c-0.7,0-1.3,0-2,0c-0.6,3.3-2.1,5-4,7
	c-0.7,0.3-1.3,0.7-2,1c-0.3,1.3-0.7,2.7-1,4c-0.3,0-0.7,0-1,0c-0.3,1-0.7,2-1,3c-0.7,0.3-1.3,0.7-2,1c0,1.3,0,2.7,0,4
	c-0.3,0-0.7,0-1,0c-2,4-3.3,7.8-8,9c0,1,0,2,0,3c-1.3,0.3-2.7,0.7-4,1c-0.8,3.2-1.5,2.2-2,6c-0.7,0-1.3,0-2,0c0,1,0,2,0,3
	c-0.3,0-0.7,0-1,0c-0.3,1-0.7,2-1,3c-1.3,1-2.7,2-4,3c-2.4,3.3-1.2,5.7-6,7c0,0.7,0,1.3,0,2c-1,0.7-2,1.3-3,2c0,0.7,0,1.3,0,2
	c-0.7,0.3-1.3,0.7-2,1c-0.3,1-0.7,2-1,3c-0.7,0-1.3,0-2,0c0,1,0,2,0,3c-2.6,1.6-3,4-5,6c-3.3,3-6.7,6-10,9c0,0.7,0,1.3,0,2
	c-1.7,1.3-3.3,2.7-5,4c0,0.7,0,1.3,0,2c-0.7,0.3-1.3,0.7-2,1c0,0.7,0,1.3,0,2c-0.7,0.3-1.3,0.7-2,1c-0.3,1-0.7,2-1,3
	c-0.3,0-0.7,0-1,0c-0.3,1.3-0.7,2.7-1,4c-0.3,0-0.7,0-1,0c-0.7,2-1.3,4-2,6c-0.3,0-0.7,0-1,0c-0.3,2-0.7,4-1,6c-0.3,0-0.7,0-1,0
	c0,0.7,0,1.3,0,2c-0.3,0-0.7,0-1,0c0,1.3,0,2.7,0,4c-2.9,8.8-5.1,29-2,40c0.3,11.3,0.7,22.7,1,34c0.3,0,0.7,0,1,0c0,6,0,12,0,18
	c0.3,0,0.7,0,1,0c0,6,0,12,0,18c0.3,0,0.7,0,1,0c0,6,0,12,0,18c0,0,0.8,0.1,1,2c0,3.7,0,7.3,0,11c0.3,0,0.7,0,1,0c0,6.3,0,12.7,0,19
	c0.3,0,0.7,0,1,0c0,6.3,0,12.7,0,19c0.3,0,0.7,0,1,0c0,1.7,0,3.3,0,5c0,4.3,0,8.7,0,13c0.3,0,0.7,0,1,0c0.3,8,0.7,16,1,24
	c0,3.7,0,7.3,0,11c0.3,0,0.7,0,1,0c0,5.3,0,10.7,0,16c0.3,0,0.7,0,1,0c0,8,0,16,0,24c0.3,0,0.7,0,1,0c0.3,7.7,0.7,15.3,1,23
	c-1.4,0.7-3,1.8-4,3c-13.4-0.1-28.2,0.4-40,1c-1.3,1.7-2.7,3.3-4,5c-0.3,0-0.7,0-1,0c0,0.7,0,1.3,0,2c-0.3,0-0.7,0-1,0
	c-0.3,1.3-0.7,2.7-1,4c-0.3,0-0.7,0-1,0c-0.3,2-0.7,4-1,6c-0.3,0-0.7,0-1,0c0,1,0,2,0,3c-0.3,0-0.7,0-1,0c0,1.7,0,3.3,0,5
	c-3.9,12.7-3.6,35.3,1,47c1,2.6,0.6,5.9,2,8c2,1.7,4,3.3,6,5c12.3,0.3,24.7,0.7,37,1c0,0.3,0,0.7,0,1c1.7,0.3,3.3,0.7,5,1
	c1.4-2.3,2.7-1.5,4-3c0.3-1,0.7-2,1-3c1,0,2,0,3,0c0,1,0,2,0,3c0.3,0,0.7,0,1,0c0,5.3,0,10.7,0,16c0.3,0,0.7,0,1,0
	c0,5.3,0,10.7,0,16c0.3,0,0.7,0,1,0c1.6,5.8-0.5,14.8,1,20c0,5.7,0,11.3,0,17c0.3,0,0.7,0,1,0c0,4.3,0,8.7,0,13
	c0.3,8.3,0.7,16.7,1,25c0.3,0,0.7,0,1,0c0,5.3,0,10.7,0,16c0.3,0,0.7,0,1,0c0.3,8,0.7,16,1,24c0,3.7,0,7.3,0,11c0.3,0,0.7,0,1,0
	c0,5.3,0,10.7,0,16c0.3,0,0.7,0,1,0c0.3,7,0.7,14,1,21c0,3.7,0,7.3,0,11c0.3,0,0.7,0,1,0c0,5.7,0,11.3,0,17c0.3,0,0.7,0,1,0
	c0,6,0,12,0,18c0.3,0,0.7,0,1,0c0,5.7,0,11.3,0,17c0.3,0,0.7,0,1,0c0,4.3,0,8.7,0,13c0.3,0,0.7,0,1,0c0,5.3,0,10.7,0,16
	c0.3,0,0.7,0,1,0c0.3,7.3,0.7,14.7,1,22c0,3.7,0,7.3,0,11c0.3,0,0.7,0,1,0c0,4.3,0,8.7,0,13c0.3,0,0.7,0,1,0c0.3,11,0.7,22,1,33
	c0.3,0,0.7,0,1,0c0,5,0,10,0,15c0.3,0,0.7,0,1,0c0,4.3,0,8.7,0,13c0.3,0,0.7,0,1,0c0.3,7,0.7,14,1,21c0,3.3,0,6.7,0,10
	c0.3,0,0.7,0,1,0c0,4,0,8,0,12c0.3,0,0.7,0,1,0c0,3.7,0,7.3,0,11c0.3,6.7,0.7,13.3,1,20c0.3,0,0.7,0,1,0c0.3,10.3,0.7,20.7,1,31
	c0.3,0,0.7,0,1,0c0,3.3,0,6.7,0,10c0.3,0,0.7,0,1,0c0,4.7,0,9.3,0,14c0.3,0,0.7,0,1,0c0,4.7,0,9.3,0,14c0.3,0,0.7,0,1,0
	c0,6,0,12,0,18c0.3,0,0.7,0,1,0c0,4.3,0,8.7,0,13c0.3,0,0.7,0,1,0c0,5,0,10,0,15c0.3,0,0.7,0,1,0c0.3,7.7,0.7,15.3,1,23
	c0.3,0,0.7,0,1,0c0.3,2.7,0.7,5.3,1,8c0.3,0,0.7,0,1,0c0.3,2,0.7,4,1,6c0.3,0,0.7,0,1,0c0.3,1.7,0.7,3.3,1,5c0.3,0,0.7,0,1,0
	c0.3,1.3,0.7,2.7,1,4c0.3,0,0.7,0,1,0c0,0.7,0,1.3,0,2c0.7,0.3,1.3,0.7,2,1c0.3,1.3,0.7,2.7,1,4c0.7,0.3,1.3,0.7,2,1
	c0.3,1,0.7,2,1,3c1,0.7,2,1.3,3,2c0,0.7,0,1.3,0,2c2.3,2,4.7,4,7,6c1.7,2,3.3,4,5,6c0.7,0,1.3,0,2,0c0.3,0.7,0.7,1.3,1,2
	c1,0.3,2,0.7,3,1c0,0.3,0,0.7,0,1c0.7,0,1.3,0,2,0c1,1.3,2,2.7,3,4c1,0,2,0,3,0c0.3,0.7,0.7,1.3,1,2c0.7,0,1.3,0,2,0
	c0,0.3,0,0.7,0,1c1,0,2,0,3,0c0.3,0.7,0.7,1.3,1,2c8.3,2.3,16.7,4.7,25,7c3.7,0,7.3,0,11,0c5.3,1.5,14.5-0.6,21,1c0,0.3,0,0.7,0,1
	c3.3-0.3,6.7-0.7,10-1c0.3,0.7,0.7,1.3,1,2c3.3,0,6.7,0,10,0c8.7,0,17.3,0,26,0c2.7-0.3,5.3-0.7,8-1c0,0.3,0,0.7,0,1
	c5.7,0.3,11.3,0.7,17,1c0-0.3,0-0.7,0-1c5.7,0,11.3,0,17,0c0,0.3,0,0.7,0,1c4.3,0,8.7,0,13,0c14.7,4.2,38,2,56,2
	c36.3,0,72.7,0,109,0c0,0.7,0,1.3,0,2c6.3-2.3,13.9-0.5,19,1c9.3,0,18.7,0,28,0c38.7,0,77.3,0,116,0c41,0,82,0,123,0c20,0,40,0,60,0
	c0,0.3,0,0.7,0,1c1,0,2,0,3,0c0,0.3,0,0.7,0,1c1.3,0,2.7,0,4,0c0,0.3,0,0.7,0,1c1.3,0.3,2.7,0.7,4,1c0,0.3,0,0.7,0,1
	c0.7,0,1.3,0,2,0c0,0.3,0,0.7,0,1c6.7,0,13.3,0,20,0c14.3,0,28.7,0,43,0c0-0.3,0-0.7,0-1c1,0,2,0,3,0c0-0.3,0-0.7,0-1c2,0,4,0,6,0
	c0-0.3,0-0.7,0-1c6.6-1.8,11.1,3.9,15,3c0-0.3,0-0.7,0-1c1,0,2,0,3,0c0-0.3,0-0.7,0-1c6,0,12,0,18,0c14.7,0,29.3,0,44,0
	c0,0.3,0,0.7,0,1c1,0,2,0,3,0c0,0.3,0,0.7,0,1c3.7,1.1,6.1-1.4,8-2c8,0,16,0,24,0c1,2.7,2,5.3,3,8c1.3,1,2.7,2,4,3c0,3,0,6,0,9
	c0.3,0,0.7,0,1,0c0,1,0,2,0,3c0.3,0,0.7,0,1,0c0,2.7,0,5.3,0,8c2.3,2.7,4.7,5.3,7,8c3.1,1.7,11.3,1,16,1c12.7,0,25.3,0,38,0
	c0,1.3,0,2.7,0,4c-0.7,0-1.3,0-2,0c-0.2,6.9-4.2,8.9-7,13c0,0.7,0,1.3,0,2c-0.7,0.3-1.3,0.7-2,1c0,0.7,0,1.3,0,2c-0.3,0-0.7,0-1,0
	c0,0.7,0,1.3,0,2c-0.7,0.3-1.3,0.7-2,1c-0.3,1-0.7,2-1,3c-1.3,0-2.7,0-4,0c-0.2,0.2,1.7,2.4,1,4c-1.3,1-2.7,2-4,3
	c-0.3,1.3-0.7,2.7-1,4c-0.7,0.3-1.3,0.7-2,1c0,0.7,0,1.3,0,2c-0.7,0.3-1.3,0.7-2,1c-2.5,2.6-5,4.8-6,9c-0.7,0-1.3,0-2,0c0,1,0,2,0,3
	c-2.5,1.7-2.3,3.5-4,6c-1,0.7-2,1.3-3,2c0,0.7,0,1.3,0,2c-1,0.7-2,1.3-3,2c0,0.7,0,1.3,0,2c-1,0.7-2,1.3-3,2c0,0.7,0,1.3,0,2
	c-1.3,1-2.7,2-4,3c0,0.7,0,1.3,0,2c-1.3,1-2.7,2-4,3c-0.3,1-0.7,2-1,3c-0.7,0-1.3,0-2,0c-0.8,4.3-3.3,7.5-8,8c0,1,0,2,0,3
	c-0.3,0-0.7,0-1,0c0,0.3,0,0.7,0,1c-0.7,0-1.3,0-2,0c-0.7,1.3-1.3,2.7-2,4c-1,0-2,0-3,0c0,1,0,2,0,3c-3,2-2.9,4.9-7,6
	c0,0.7,0,1.3,0,2c-0.3,0-0.7,0-1,0c-1.7,2-3.3,4-5,6c-0.7,0-1.3,0-2,0c0,0.7,0,1.3,0,2c-0.3,0-0.7,0-1,0c-1.7,2-3.3,4-5,6
	c-0.7,0-1.3,0-2,0c-1.9,8.6-7.8,12.8-13,18c-2.4,2.4-3.1,5-7,6c0,0.7,0,1.3,0,2c-0.7,0-1.3,0-2,0c-1.5,2.8-4.5,6.1-8,7
	c-1.1,4-2.9,4.1-6,6c0,0.3,0,0.7,0,1c-0.7,0-1.3,0-2,0c-2.3,2.7-4.7,5.3-7,8c-0.7,0-1.3,0-2,0c-0.3,0.7-0.7,1.3-1,2
	c-0.7,0-1.3,0-2,0c0,0.3,0,0.7,0,1c-3.4,1.7-2.6-1.6-4,3c-1,0.3-2,0.7-3,1c0,0.3,0,0.7,0,1c-0.7,0-1.3,0-2,0c-0.3,0.7-0.7,1.3-1,2
	c-0.7,0-1.3,0-2,0c-0.7,1-1.3,2-2,3c-0.7,0-1.3,0-2,0c-0.3,0.7-0.7,1.3-1,2c-0.7,0-1.3,0-2,0c-0.3,0.7-0.7,1.3-1,2c-1,0.3-2,0.7-3,1
	c0,0.3,0,0.7,0,1c-1.3,0.3-2.7,0.7-4,1c-0.3,0.7-0.7,1.3-1,2c-0.7,0-1.3,0-2,0c-0.3,0.7-0.7,1.3-1,2c-0.7,0-1.3,0-2,0
	c-0.3,0.7-0.7,1.3-1,2c-0.7,0-1.3,0-2,0c-0.3,0.7-0.7,1.3-1,2c-1.3,0.3-2.7,0.7-4,1c-0.3,0.7-0.7,1.3-1,2c-1.3,0.3-2.7,0.7-4,1
	c-0.3,0.7-0.7,1.3-1,2c-0.7,0-1.3,0-2,0c0,0.3,0,0.7,0,1c-0.7,0-1.3,0-2,0c0,0.3,0,0.7,0,1c-0.7,0-1.3,0-2,0c-0.7,1-1.3,2-2,3
	c-1,0-2,0-3,0c-0.3,0.7-0.7,1.3-1,2c-1.3,0.3-2.7,0.7-4,1c-0.3,0.7-0.7,1.3-1,2c-0.7,0-1.3,0-2,0c-1,1.3-2,2.7-3,4c-0.7,0-1.3,0-2,0
	c-0.3,0.7-0.7,1.3-1,2c-1.3,0.3-2.7,0.7-4,1c-0.3,0.7-0.7,1.3-1,2c-0.7,0-1.3,0-2,0c0,0.3,0,0.7,0,1c-0.7,0-1.3,0-2,0
	c0,0.3,0,0.7,0,1c-0.7,0-1.3,0-2,0c-1,1.3-2,2.7-3,4c-1.7,0.3-3.3,0.7-5,1c-0.3,0.7-0.7,1.3-1,2c-2,0.7-4,1.3-6,2
	c-0.3,0.7-0.7,1.3-1,2c-1,0-2,0-3,0c-0.3,0.7-0.7,1.3-1,2c-1,0-2,0-3,0c-0.3,0.7-0.7,1.3-1,2c-0.7,0-1.3,0-2,0c0,0.3,0,0.7,0,1
	c-0.7,0-1.3,0-2,0c0,0.3,0,0.7,0,1c-1.7,0.3-3.3,0.7-5,1c-0.3,0.7-0.7,1.3-1,2c-1,0-2,0-3,0c-0.3,0.7-0.7,1.3-1,2c-1,0-2,0-3,0
	c0,0.3,0,0.7,0,1c-0.7,0-1.3,0-2,0c0,0.3,0,0.7,0,1c-1,0-2,0-3,0c0,0.3,0,0.7,0,1c-0.7,0-1.3,0-2,0c-0.3,0.7-0.7,1.3-1,2
	c-1,0-2,0-3,0c0,0.3,0,0.7,0,1c-1.7,0-3.3,0-5,0c-0.3,0.7-0.7,1.3-1,2c-2,0.3-4,0.7-6,1c0,0.3,0,0.7,0,1c-0.7,0-1.3,0-2,0
	c0,0.3,0,0.7,0,1c-2.3,0.3-4.7,0.7-7,1c0,0.3,0,0.7,0,1c-0.7,0-1.3,0-2,0c0,0.3,0,0.7,0,1c-2,0.3-4,0.7-6,1c0,0.3,0,0.7,0,1
	c-1.3,0-2.7,0-4,0c0,0.3,0,0.7,0,1c-0.7,0-1.3,0-2,0c0,0.3,0,0.7,0,1c-2.3,0.3-4.7,0.7-7,1c0,0.3,0,0.7,0,1c-0.7,0-1.3,0-2,0
	c0,0.3,0,0.7,0,1c-1,0-2,0-3,0c0,0.3,0,0.7,0,1c-0.7,0-1.3,0-2,0c0,0.3,0,0.7,0,1c-3,0.3-6,0.7-9,1c0-0.3,0-0.7,0-1
	c-0.3,0-0.7,0-1,0c-1-8.3-2-16.7-3-25c-0.7-2.2-2.4-4.2-3-7c0.7,0,1.3,0,2,0c0-0.3,0-0.7,0-1c-4.4-2.9-1.3-2.1-3-7c-0.3,0-0.7,0-1,0
	c0-1,0-2,0-3c-0.3,0-0.7,0-1,0c0-1.7,0-3.3,0-5c-1-0.7-2-1.3-3-2c0-0.7,0-1.3,0-2c-0.3,0-0.7,0-1,0c0-0.7,0-1.3,0-2
	c-0.3,0-0.7,0-1,0c0-1,0-2,0-3c-0.3,0-0.7,0-1,0c0-1,0-2,0-3c-0.3,0-0.7,0-1,0c-0.3-1.3-0.7-2.7-1-4c-0.3,0-0.7,0-1,0c0-1,0-2,0-3
	c-0.3,0-0.7,0-1,0c0-0.7,0-1.3,0-2c-0.7-0.3-1.3-0.7-2-1c-0.7-2.3-1.3-4.7-2-7c-0.7-0.3-1.3-0.7-2-1c0-0.7,0-1.3,0-2
	c-1-0.7-2-1.3-3-2c0-0.7,0-1.3,0-2c-0.7-0.3-1.3-0.7-2-1c0-0.7,0-1.3,0-2c-0.3,0-0.7,0-1,0c-0.3-1-0.7-2-1-3c-0.7-0.3-1.3-0.7-2-1
	c0-0.7,0-1.3,0-2c-1-0.7-2-1.3-3-2c0-0.7,0-1.3,0-2c-1-0.7-2-1.3-3-2c-2.3-2.6-0.6-3.8-5-5c0-0.7,0-1.3,0-2c-2.3-2-4.7-4-7-6
	c0-0.3,0-0.7,0-1c-0.7,0-1.3,0-2,0c-0.3-0.7-0.7-1.3-1-2c-0.7,0-1.3,0-2,0c-0.7-1-1.3-2-2-3c-0.7,0-1.3,0-2,0c-0.3-0.7-0.7-1.3-1-2
	c-2.6-1.9-1.8,1.1-3-3c-0.7,0-1.3,0-2,0c0-0.7,0-1.3,0-2c-4-0.4-4.1-2-7-3c-1.7,0-3.3,0-5,0c-0.3-0.7-0.7-1.3-1-2c-0.3,0-0.7,0-1,0
	c0,0.3,0,0.7,0,1c-2,0-4,0-6,0c0-0.3,0-0.7,0-1c-1.3,0-2.7,0-4,0c0-0.3,0-0.7,0-1c-2,0-4,0-6,0c0-0.3,0-0.7,0-1
	c-1.3-0.3-2.7-0.7-4-1c0-0.3,0-0.7,0-1c-5.3,0-10.7,0-16,0c-8.9,0-15.1-1-22-3c-3.7,0.3-7.3,0.7-11,1c-4.3,0-8.7,0-13,0
	c0-0.3,0-0.7,0-1c-0.7,0-1.3,0-2,0c0-0.3,0-0.7,0-1c-2.1-0.6-3,1-3,1c-5,0-10,0-15,0c0-0.3,0-0.7,0-1c-10,0-20,0-30,0
	c-32.3-0.7-64.7-1.3-97-2c0-0.3,0-0.7,0-1c-11.7-0.3-23.3-0.7-35-1c-4.7,0-9.3,0-14,0c0-0.3,0-0.7,0-1c-6,0-12,0-18,0
	c-7.2-2-19.1-1-28-1c-6.3,0-12.7,0-19,0c0,0.3,0,0.7,0,1c-1.7,0-3.3,0-5,0c0,0.3,0,0.7,0,1c-1.7,0-3.3,0-5,0c0,0.3,0,0.7,0,1
	c-1,0-2,0-3,0c0,0.3,0,0.7,0,1c-1,0-2,0-3,0c0,0.3,0,0.7,0,1c-1,0-2,0-3,0c0,0.3,0,0.7,0,1c-1,0-2,0-3,0c0,0.3,0,0.7,0,1
	c-1.3,0.3-2.7,0.7-4,1c0,0.3,0,0.7,0,1c-1,0-2,0-3,0c0,0.3,0,0.7,0,1c-1,0-2,0-3,0c0,0.3,0,0.7,0,1c-0.7,0-1.3,0-2,0
	c0,0.3,0,0.7,0,1c-2,0.3-4,0.7-6,1c0,0.3,0,0.7,0,1c-2,0.3-4,0.7-6,1c0,0.3,0,0.7,0,1c-1.3,0.3-2.7,0.7-4,1c0,0.3,0,0.7,0,1
	c-2,0.3-4,0.7-6,1c0,0.3,0,0.7,0,1c-1.3,0.3-2.7,0.7-4,1c0,0.3,0,0.7,0,1c-2,0.3-4,0.7-6,1c0,0.3,0,0.7,0,1c-1.7,0.3-3.3,0.7-5,1
	c0,0.3,0,0.7,0,1c-0.7,0-1.3,0-2,0c0,0.3,0,0.7,0,1c-3,0.7-6,1.3-9,2c0,0.3,0,0.7,0,1c-1.3,0.3-2.7,0.7-4,1c0,0.3,0,0.7,0,1
	c-1,0-2,0-3,0c0,0.3,0,0.7,0,1c-0.7,0-1.3,0-2,0c0,0.3,0,0.7,0,1c-1,0-2,0-3,0c0,0.3,0,0.7,0,1c-0.7,0-1.3,0-2,0c0,0.3,0,0.7,0,1
	c-1.3,0-2.7,0-4,0c0,0.3,0,0.7,0,1c-2,0.7-4,1.3-6,2c0,0.3,0,0.7,0,1c-0.7,0-1.3,0-2,0c0,0.3,0,0.7,0,1c-2,0.7-4,1.3-6,2
	c-0.3,0.7-0.7,1.3-1,2c-1.3,0.3-2.7,0.7-4,1c-0.3,0.7-0.7,1.3-1,2c-0.7,0-1.3,0-2,0c-0.7,1-1.3,2-2,3c-0.7,0-1.3,0-2,0
	c-0.3,0.7-0.7,1.3-1,2c-2.6,2.5-7.5,8-11,9c-0.9,3.6-3.9,5.5-6,8c-0.3,0-0.7,0-1,0c0,0.7,0,1.3,0,2c-1.3,1-2.7,2-4,3
	c0,0.7,0,1.3,0,2c-0.7,0.3-1.3,0.7-2,1c0,0.7,0,1.3,0,2c-1,0.7-2,1.3-3,2c-0.3,1.3-0.7,2.7-1,4c-0.3,0-0.7,0-1,0c-0.3,1-0.7,2-1,3
	c-0.7,0.3-1.3,0.7-2,1c0,0.7,0,1.3,0,2c-0.3,0-0.7,0-1,0c0,0.7,0,1.3,0,2c-0.7,0.3-1.3,0.7-2,1c-2.2,3.5,0.7,4.2-5,5
	c0-0.3,0-0.7,0-1c-1.7-0.3-3.3-0.7-5-1c0-0.3,0-0.7,0-1c-1,0-2,0-3,0c0-0.3,0-0.7,0-1c-0.7,0-1.3,0-2,0c0-0.3,0-0.7,0-1
	c-1-0.3-2-0.7-3-1c-0.3-0.7-0.7-1.3-1-2c-0.7,0-1.3,0-2,0c0-0.3,0-0.7,0-1c-0.7,0-1.3,0-2,0c0-0.3,0-0.7,0-1c-0.7,0-1.3,0-2,0
	c0-0.3,0-0.7,0-1c-0.7,0-1.3,0-2,0c0-0.3,0-0.7,0-1c-0.7,0-1.3,0-2,0c0-0.3,0-0.7,0-1c-1.3-0.3-2.7-0.7-4-1c-0.3-0.7-0.7-1.3-1-2
	c-2-0.7-4-1.3-6-2c0-0.3,0-0.7,0-1c-1.3-0.3-2.7-0.7-4-1c0-0.3,0-0.7,0-1c-1.3-0.3-2.7-0.7-4-1c0-0.3,0-0.7,0-1c-0.7,0-1.3,0-2,0
	c0-0.3,0-0.7,0-1c-0.7,0-1.3,0-2,0c0-0.3,0-0.7,0-1c-0.7,0-1.3,0-2,0c0-0.3,0-0.7,0-1c-0.7,0-1.3,0-2,0c0-0.3,0-0.7,0-1
	c-1.3-0.3-2.7-0.7-4-1c0-0.3,0-0.7,0-1c-1.3-0.3-2.7-0.7-4-1c0-0.3,0-0.7,0-1c-0.7,0-1.3,0-2,0c0-0.3,0-0.7,0-1c-0.7,0-1.3,0-2,0
	c0-0.3,0-0.7,0-1c-0.7,0-1.3,0-2,0c0-0.3,0-0.7,0-1c-0.7,0-1.3,0-2,0c0-0.3,0-0.7,0-1c-1.3-0.3-2.7-0.7-4-1c-0.3-0.7-0.7-1.3-1-2
	c-0.7,0-1.3,0-2,0c-0.3-0.7-0.7-1.3-1-2c-0.7,0-1.3,0-2,0c-0.3-0.7-0.7-1.3-1-2c-0.7,0-1.3,0-2,0c-0.3-0.7-0.7-1.3-1-2
	c-2-0.7-4-1.3-6-2c-0.7-1-1.3-2-2-3c-0.7,0-1.3,0-2,0c-0.3-0.7-0.7-1.3-1-2c-2-0.7-4-1.3-6-2c-0.3-0.7-0.7-1.3-1-2
	c-1.3-0.3-2.7-0.7-4-1c-0.3-0.7-0.7-1.3-1-2c-0.7,0-1.3,0-2,0c-0.3-0.7-0.7-1.3-1-2c-0.7,0-1.3,0-2,0c0-0.3,0-0.7,0-1
	c-2-0.7-4-1.3-6-2c-0.7-1-1.3-2-2-3c-1.3-0.3-2.7-0.7-4-1c0-0.3,0-0.7,0-1c-1-0.3-2-0.7-3-1c-0.3-0.7-0.7-1.3-1-2c-0.7,0-1.3,0-2,0
	c0-0.3,0-0.7,0-1c-1-0.3-2-0.7-3-1c-0.3-0.7-0.7-1.3-1-2c-0.7,0-1.3,0-2,0c-0.7-1-1.3-2-2-3c-1.3-0.3-2.7-0.7-4-1c0-0.3,0-0.7,0-1
	c-1-0.3-2-0.7-3-1c-0.3-0.7-0.7-1.3-1-2c-0.7,0-1.3,0-2,0c-0.7-1-1.3-2-2-3c-0.7,0-1.3,0-2,0c-0.3-0.7-0.7-1.3-1-2c-0.7,0-1.3,0-2,0
	c-0.7-1-1.3-2-2-3c-0.7,0-1.3,0-2,0c-0.3-0.7-0.7-1.3-1-2c-1.3-0.3-2.7-0.7-4-1c-0.7-1-1.3-2-2-3c-1.3-0.3-2.7-0.7-4-1
	c-0.7-1-1.3-2-2-3c-1.3-0.3-2.7-0.7-4-1c-0.7-1-1.3-2-2-3c-0.7,0-1.3,0-2,0c-0.3-0.7-0.7-1.3-1-2c-0.7,0-1.3,0-2,0c-1-1.3-2-2.7-3-4
	c-1-0.3-2-0.7-3-1c-0.3-0.7-0.7-1.3-1-2c-1.3-0.3-2.7-0.7-4-1c-0.7-1-1.3-2-2-3c-1.3-0.3-2.7-0.7-4-1c-0.7-1-1.3-2-2-3
	c-0.7,0-1.3,0-2,0c-0.3-0.7-0.7-1.3-1-2c-1.3-0.3-2.7-0.7-4-1c-0.3-0.7-0.7-1.3-1-2c-0.7,0-1.3,0-2,0c-1-1.3-2-2.7-3-4
	c-1.3-0.3-2.7-0.7-4-1c-0.7-1-1.3-2-2-3c-0.7,0-1.3,0-2,0c-0.3-0.7-0.7-1.3-1-2c-1-0.3-2-0.7-3-1c0-0.3,0-0.7,0-1c-1-0.3-2-0.7-3-1
	c0-0.7,0-1.3,0-2c-2.7-0.6-2.3-1.3-5-2c0-0.7,0-1.3,0-2c-3.2-0.8-8.9-4.9-11-7c-0.7-1-1.3-2-2-3c-1-0.3-2-0.7-3-1c-1-1.3-2-2.7-3-4
	c-0.7,0-1.3,0-2,0c-1-1.3-2-2.7-3-4c-0.7,0-1.3,0-2,0c-1.7-2-3.3-4-5-6c-0.7,0-1.3,0-2,0c-1.3-1.7-2.7-3.3-4-5c-0.7,0-1.3,0-2,0
	c-1.3-1.7-2.7-3.3-4-5c-0.7,0-1.3,0-2,0c-1.3-1.7-2.7-3.3-4-5c-0.7,0-1.3,0-2,0c-0.3-0.7-0.7-1.3-1-2c-0.7,0-1.3,0-2,0
	c-1-1.3-2-2.7-3-4c-0.7,0-1.3,0-2,0c-0.7-1-1.3-2-2-3c-1-0.3-2-0.7-3-1c-0.3-0.7-0.7-1.3-1-2c-0.7,0-1.3,0-2,0c-0.3-0.7-0.7-1.3-1-2
	c-0.7,0-1.3,0-2,0c-1-1.3-2-2.7-3-4c-0.7,0-1.3,0-2,0c-0.7-1-1.3-2-2-3c-0.7,0-1.3,0-2,0c-0.7-1-1.3-2-2-3c-0.7,0-1.3,0-2,0
	c-1.3-1.7-2.7-3.3-4-5c-1-0.3-2-0.7-3-1c-0.7-1-1.3-2-2-3c-0.3,0-0.7,0-1,0c-0.3-0.7-0.7-1.3-1-2c-0.7,0-1.3,0-2,0
	c-0.3-0.7-0.7-1.3-1-2c-1-0.3-2-0.7-3-1c0-0.3,0-0.7,0-1c-1-0.3-2-0.7-3-1c-1.2-4.1-0.6-1.2-3-3c-0.3-0.7-0.7-1.3-1-2
	c-0.7,0-1.3,0-2,0c-1-1.3-2-2.7-3-4c-0.7,0-1.3,0-2,0c-0.7-1-1.3-2-2-3c-0.7,0-1.3,0-2,0c-0.3-0.7-0.7-1.3-1-2c-0.7,0-1.3,0-2,0
	c-0.7-1-1.3-2-2-3c-0.7,0-1.3,0-2,0c-0.7-1-1.3-2-2-3c-1.3-0.3-2.7-0.7-4-1c-1-1.3-2-2.7-3-4c-0.7,0-1.3,0-2,0c-0.3-0.7-0.7-1.3-1-2
	c-0.7,0-1.3,0-2,0c-1-1.3-2-2.7-3-4c-0.7,0-1.3,0-2,0c-0.3-0.7-0.7-1.3-1-2c-0.7,0-1.3,0-2,0c-0.3-0.7-0.7-1.3-1-2c-1-0.3-2-0.7-3-1
	c0-0.3,0-0.7,0-1c-1.5-1.2-1.8-1.4-4-2c0-0.7,0-1.3,0-2c-4.3-1.1-3.4-3.2-6-5c-0.7,0-1.3,0-2,0c-0.3-0.7-0.7-1.3-1-2
	c-1-0.3-2-0.7-3-1c0-0.3,0-0.7,0-1c-1.5-1.2-1.8-1.4-4-2c0-0.7,0-1.3,0-2c-2.6-0.7-3.3-1.6-5-3c0-0.3,0-0.7,0-1c-0.7,0-1.3,0-2,0
	c-0.3-0.7-0.7-1.3-1-2c-0.3,0-0.7,0-1,0c-0.3-0.7-0.7-1.3-1-2c-0.7,0-1.3,0-2,0c-0.3-0.7-0.7-1.3-1-2c-0.7,0-1.3,0-2,0
	c-0.7-1-1.3-2-2-3c-0.7,0-1.3,0-2,0c-1-1.3-2-2.7-3-4c-0.7,0-1.3,0-2,0c-0.7-1-1.3-2-2-3c-0.7,0-1.3,0-2,0c-0.3-0.7-0.7-1.3-1-2
	c-0.7,0-1.3,0-2,0c-1.3-1.7-2.7-3.3-4-5c-0.7,0-1.3,0-2,0c-0.3-0.7-0.7-1.3-1-2c-0.7,0-1.3,0-2,0c-0.7-1-1.3-2-2-3c-0.7,0-1.3,0-2,0
	c-0.7-1.3-1.3-2.7-2-4c-0.7,0-1.3,0-2,0c-0.3-0.7-0.7-1.3-1-2c-0.7,0-1.3,0-2,0c-2.7-3-5.3-6-8-9c-0.7,0-1.3,0-2,0
	c-0.3-0.7-0.7-1.3-1-2c-0.7,0-1.3,0-2,0c-0.7-1-1.3-2-2-3c-1.3-1-2.7-2-4-3c0-0.3,0-0.7,0-1c-0.7,0-1.3,0-2,0c-2-2.3-4-4.7-6-7
	c-0.7,0-1.3,0-2,0c-3.3-3.7-6.7-7.3-10-11c-0.7,0-1.3,0-2,0c-2-2.3-4-4.7-6-7c-1-0.3-2-0.7-3-1c0-0.7,0-1.3,0-2
	c-4.3-1.1-3.4-3.2-6-5c-0.7,0-1.3,0-2,0c-0.7-1-1.3-2-2-3c-0.7,0-1.3,0-2,0c-3-3.3-6-6.7-9-10c-0.7,0-1.3,0-2,0c-4-4.3-8-8.7-12-13
	c-0.7,0-1.3,0-2,0c-2.7-3-5.3-6-8-9c-2.7-2.3-5.3-4.7-8-7c-0.7-1-1.3-2-2-3c-0.7,0-1.3,0-2,0c-1.7-2-3.3-4-5-6c-3-2.7-6-5.3-9-8
	c-1-1.3-2-2.7-3-4c-3-2.2-4.9-1.9-6-6c-0.7,0-1.3,0-2,0c-0.7-1-1.3-2-2-3c-3.3-3-6.7-6-10-9c0-0.7,0-1.3,0-2c-1-0.7-2-1.3-3-2
	c0-0.3,0-0.7,0-1c-2.7-2.6-5.8-2.6-7-7c-2.8-0.7-2.2-0.3-3-3c-3.1-0.7-4.3-1.9-5-5c-3.4-0.8-10.1-7.6-11-11c-4.8-1.3-6.9-5.9-10-9
	c-3.3-3-6.7-6-10-9c0-0.7,0-1.3,0-2c-0.3,0-0.7,0-1,0c-0.7-1-1.3-2-2-3c-2.3-2-4.7-4-7-6c0-0.7,0-1.3,0-2c-2-1.7-4-3.3-6-5
	c0-0.7,0-1.3,0-2c-1.3-1-2.7-2-4-3c0-0.7,0-1.3,0-2c-0.7-0.3-1.3-0.7-2-1c0-0.3,0-0.7,0-1c-1.7-1.3-3.3-2.7-5-4c0-0.7,0-1.3,0-2
	c-1-0.7-2-1.3-3-2c0-0.7,0-1.3,0-2c-4.7-4.3-9.3-8.7-14-13c0-0.7,0-1.3,0-2c-1-0.7-2-1.3-3-2c0-0.7,0-1.3,0-2c-2.3-2-4.7-4-7-6
	c0-0.7,0-1.3,0-2c-2.3-2-4.7-4-7-6c0-0.7,0-1.3,0-2c-1.7-1.3-3.3-2.7-5-4c0-0.7,0-1.3,0-2c-1-0.7-2-1.3-3-2c0-0.7,0-1.3,0-2
	c-2-1.7-4-3.3-6-5c0-0.7,0-1.3,0-2c-0.7-0.3-1.3-0.7-2-1c0-0.7,0-1.3,0-2c-2-1.7-4-3.3-6-5c-0.3-1.3-0.7-2.7-1-4
	c-0.7-0.3-1.3-0.7-2-1c-1.9-2-3.3-3.7-4-7c-0.7,0-1.3,0-2,0c-0.3-1-0.7-2-1-3c-1.3-1-2.7-2-4-3c0-0.7,0-1.3,0-2c-1-0.7-2-1.3-3-2
	c0-0.7,0-1.3,0-2c-1-0.7-2-1.3-3-2c0-0.7,0-1.3,0-2c-1.3-1-2.7-2-4-3c0-0.7,0-1.3,0-2c-0.7-0.3-1.3-0.7-2-1c0-0.7,0-1.3,0-2
	c-1-0.7-2-1.3-3-2c0-0.7,0-1.3,0-2c-1.7-1.3-3.3-2.7-5-4c-0.3-1.3-0.7-2.7-1-4c-0.7-0.3-1.3-0.7-2-1c-0.3-1-0.7-2-1-3
	c-1.7-1.3-3.3-2.7-5-4c0-0.7,0-1.3,0-2c-1.7-1.3-3.3-2.7-5-4c0-0.7,0-1.3,0-2c-1.3-1-2.7-2-4-3c-0.3-0.7-0.7-1.3-1-2
	c-0.7,0-1.3,0-2,0c-0.9-0.7-0.8-2.1-2-3C0,1841.4,0,920.6,0,0z"/>
</svg>
