<?xml version="1.0" encoding="UTF-8" standalone="no"?>
<svg xmlns:munia="http://www.munia.io/namespaces/munia" xmlns:osb="http://www.openswatchbook.org/uri/2009/osb" xmlns:dc="http://purl.org/dc/elements/1.1/" xmlns:cc="http://creativecommons.org/ns#" xmlns:rdf="http://www.w3.org/1999/02/22-rdf-syntax-ns#" xmlns:svg="http://www.w3.org/2000/svg" xmlns="http://www.w3.org/2000/svg" xmlns:xlink="http://www.w3.org/1999/xlink" style="overflow:visible" id="svg3336" xml:space="preserve" enable-background="new 0 0 6200 3000" overflow="visible" viewBox="0 0 1280.0016 900" height="900" width="1280" version="1.1">
  <munia:info munia:device-type="NGC" munia:skin-name="Gamecube"/>
  <defs id="Definitions">
    <linearGradient id="linearGradient4352">
      <stop style="stop-color:#ffffff;stop-opacity:1;" offset="0" id="stop4354"/>
      <stop id="stop4356" offset="0.56493509" style="stop-color:#ff0000;stop-opacity:1"/>
      <stop style="stop-color:#ffffff;stop-opacity:0;" offset="1" id="stop4358"/>
    </linearGradient>
    <linearGradient id="linearGradient4332">
      <stop id="stop4334" offset="0" style="stop-color:#ffffff;stop-opacity:1;"/>
      <stop style="stop-color:#ffffff;stop-opacity:1;" offset="0.56493509" id="stop4342"/>
      <stop id="stop4336" offset="1" style="stop-color:#ffffff;stop-opacity:0;"/>
    </linearGradient>
    <linearGradient osb:paint="solid" id="linearGradient5389">
      <stop id="stop5391" offset="0" style="stop-color:#adadad;stop-opacity:1;"/>
    </linearGradient>
    <linearGradient id="linearGradient5053">
      <stop style="stop-color:#f4e000;stop-opacity:1;" offset="0" id="stop5067"/>
      <stop id="stop5071" offset="0.78400195" style="stop-color:#f3ce00;stop-opacity:1;"/>
      <stop id="stop5057" offset="1" style="stop-color:#9f8a00;stop-opacity:1;"/>
    </linearGradient>
    <linearGradient id="linearGradient4983">
      <stop id="stop4985" offset="0" style="stop-color:#bebebe;stop-opacity:1;"/>
      <stop style="stop-color:#bebebe;stop-opacity:1;" offset="0.84963471" id="stop5073"/>
      <stop id="stop4987" offset="1" style="stop-color:#8c8c8c;stop-opacity:1;"/>
    </linearGradient>
    <clipPath id="clipPath4932" clipPathUnits="userSpaceOnUse">
      <rect y="1865.5074" x="3675.9626" height="210.62466" width="174.79187" id="rect4934" style="fill:#b80707;fill-opacity:1;stroke:none;stroke-width:24;stroke-miterlimit:4;stroke-dasharray:none;stroke-opacity:1"/>
    </clipPath>
    <radialGradient gradientTransform="matrix(0.3030687,-0.00106781,0.00107464,0.30500669,2264.6688,1028.169)" gradientUnits="userSpaceOnUse" r="312.34573" fy="1978.5247" fx="3826.7214" cy="1978.5247" cx="3826.7214" id="radialGradient5069" xlink:href="#linearGradient5053"/>
    <radialGradient gradientTransform="matrix(0.29978381,0,0,0.29547152,2218.4188,1000.1088)" gradientUnits="userSpaceOnUse" r="335.72256" fy="1138.9347" fx="2055.9646" cy="1138.9347" cx="2055.9646" id="radialGradient5081" xlink:href="#linearGradient4983"/>
    <clipPath id="clipPath4342" clipPathUnits="userSpaceOnUse">
      <rect y="1729.7528" x="2544.6255" height="185.42426" width="161.34784" id="rect4344" style="fill:#e0e0e0;fill-opacity:1;stroke:#7d7d7d;stroke-width:0;stroke-miterlimit:4;stroke-dasharray:none;stroke-opacity:1"/>
    </clipPath>
    <radialGradient gradientUnits="userSpaceOnUse" gradientTransform="matrix(1,0,0,0.95203092,0,35.377591)" r="545.48181" fy="737.50824" fx="3130.4919" cy="737.50824" cx="3130.4919" id="radialGradient4340" xlink:href="#linearGradient4332"/>
    <radialGradient gradientUnits="userSpaceOnUse" gradientTransform="matrix(0.87185404,0,0,0.85369767,-956.74193,32.68609)" r="545.48181" fy="737.50824" fx="3130.4919" cy="737.50824" cx="3130.4919" id="radialGradient4340-6" xlink:href="#linearGradient4352"/>
    <radialGradient r="545.48181" fy="737.50824" fx="3130.4919" cy="737.50824" cx="3130.4919" gradientTransform="matrix(1,0,0,0.95203092,0,35.377591)" gradientUnits="userSpaceOnUse" id="radialGradient4371" xlink:href="#linearGradient4352"/>
  </defs>
  <g transform="translate(-2584.32,-1003.28)" style="display:inline;opacity:0.93" id="Shoulder Buttons">
    <g transform="matrix(0.335723,0,0,0.333411,2141.84,944.656)" munia:offset-scale="0.4" munia:z-index="-2" munia:trigger-axis="2" munia:trigger-id="0" id="L">
      <ellipse style="fill:#c8c8c8;fill-opacity:1;stroke:#969696;stroke-width:16;stroke-miterlimit:4;stroke-dasharray:none;stroke-opacity:1" id="ellipse3348" ry="410.274" rx="381.555" cy="646" cx="2016"/>
      <text transform="scale(0.738376,1.35432)" id="text4368" y="312.344" x="2550.94" style="font-style:normal;font-weight:normal;font-size:64.930603px;line-height:125%;font-family:sans-serif;letter-spacing:0px;word-spacing:0px;fill:#969696;fill-opacity:1;stroke:none;stroke-width:1px;stroke-linecap:butt;stroke-linejoin:miter;stroke-opacity:1" xml:space="preserve">
        <tspan id="tspan4370" y="312.344" x="2550.94">
          <tspan id="tspan4372" style="font-style:normal;font-variant:normal;font-weight:bold;font-stretch:normal;font-size:129.861206px;font-family:'arial black';-inkscape-font-specification:'arial black, Bold';fill:#969696;fill-opacity:1" y="312.344" x="2550.94">L</tspan>
          <tspan id="tspan4374" style="font-style:normal;font-variant:normal;font-weight:bold;font-stretch:normal;font-size:129.861206px;font-family:'arial black';-inkscape-font-specification:'arial black, Bold';fill:#969696;fill-opacity:1" y="312.344" x="2637.68" dx="0"/>
        </tspan>
      </text>
    </g>
    <g transform="matrix(0.335723,0,0,0.333411,2141.84,944.656)" munia:offset-scale="0.4" munia:z-index="-2" munia:trigger-axis="3" munia:trigger-id="1" id="R">
      <ellipse style="fill:#c8c8c8;fill-opacity:1;stroke:#969696;stroke-width:16;stroke-miterlimit:4;stroke-dasharray:none;stroke-opacity:1" id="ellipse3363" ry="410.274" rx="381.555" cy="647" cx="4444"/>
      <text transform="scale(0.738376,1.35432)" id="text4360" y="299.053" x="6059.75" style="font-style:normal;font-weight:normal;font-size:64.930603px;line-height:125%;font-family:sans-serif;letter-spacing:0px;word-spacing:0px;fill:#969696;fill-opacity:1;stroke:none;stroke-width:1px;stroke-linecap:butt;stroke-linejoin:miter;stroke-opacity:1" xml:space="preserve">
        <tspan id="tspan4362" y="299.053" x="6059.75">
          <tspan id="tspan4364" style="font-style:normal;font-variant:normal;font-weight:bold;font-stretch:normal;font-size:129.861206px;font-family:'arial black';-inkscape-font-specification:'arial black, Bold';fill:#969696;fill-opacity:1" y="299.053" x="6059.75">R</tspan>
          <tspan id="tspan4366" style="font-style:normal;font-variant:normal;font-weight:bold;font-stretch:normal;font-size:129.861206px;font-family:'arial black';-inkscape-font-specification:'arial black, Bold';fill:#969696;fill-opacity:1" y="299.053" x="6160.7" dx="0"/>
        </tspan>
      </text>
    </g>
    <g transform="matrix(0.335723,0,0,0.333411,1770.28,927.418)" style="fill:url(#radialGradient4340);fill-opacity:1;stroke:none" munia:z-index="-3" munia:button-state="pressed" munia:button-id="7" id="L Pressed">
      <ellipse style="display:inline;opacity:0.93;fill:url(#radialGradient4371);fill-opacity:1;stroke:none;stroke-width:21.523369;stroke-miterlimit:4;stroke-dasharray:none;stroke-opacity:1" id="ellipse3348-1" ry="519.316" rx="545.482" cy="737.508" cx="3130.49"/>
    </g>
    <g transform="matrix(0.335723,0,0,0.333411,3039.95,939.682)" munia:z-index="-3" munia:button-state="pressed" munia:button-id="6" id="R Pressed">
      <ellipse style="opacity:0.93;fill:url(#radialGradient4340-6);fill-opacity:1;stroke:none;stroke-width:21.523369;stroke-miterlimit:4;stroke-dasharray:none;stroke-opacity:1" id="ellipse3348-1-1" ry="465.677" rx="475.581" cy="662.295" cx="1772.59"/>
    </g>
  </g>
  <g transform="translate(-2584.3154,-1003.2778)" style="display:inline" id="Z Button">
    <path style="fill:#5600ae;stroke:#490094;stroke-width:5.35303688;stroke-miterlimit:4;stroke-dasharray:none;stroke-opacity:1" d="m 3774.3828,1147.8008 c -2.9729,-6.5468 -45.8967,-35.4082 -101.6573,-50.3699 -55.7606,-14.9619 -144.888,-24.4877 -152.8221,-21.4777 -7.9342,3.0101 -6.7172,30.9905 -6.7172,30.9905 l 245.2619,76.2474 c 0,0 18.9075,-28.8434 15.9347,-35.3903 z" munia:z-index="-1" munia:button-state="released" munia:button-id="5" id="Z"/>
    <path d="m 3774.3828,1147.8008 c -2.9729,-6.5468 -45.8967,-35.4082 -101.6573,-50.3699 -55.7606,-14.9619 -144.888,-24.4877 -152.8221,-21.4777 -7.9342,3.0101 -6.7172,30.9905 -6.7172,30.9905 l 245.2619,76.2474 c 0,0 18.9075,-28.8434 15.9347,-35.3903 z" style="fill:#b299fb;fill-opacity:1;stroke:#b299fb;stroke-width:5.35303688;stroke-miterlimit:4;stroke-dasharray:none;stroke-opacity:1" munia:z-index="-1" munia:button-state="pressed" munia:button-id="5" id="Z Pressed"/>
  </g>
  <g transform="translate(-2584.3154,-1003.2778)" style="display:inline" id="Controller">
    <path style="fill:#62499d;fill-opacity:1;stroke:#000000;stroke-width:5.35303688;stroke-miterlimit:4;stroke-dasharray:none;stroke-opacity:1" id="Center" d="m 3225.5528,1012.005 c -257.8323,0 -504.9275,129.3634 -504.9275,129.3634 l 154.4326,463.4406 c 0,0 65.463,-152.493 350.4949,-152.493 261.82,0 347.8091,145.8248 347.8091,145.8248 l 146.3752,-459.4397 c 0,0 -241.7132,-126.6961 -494.1843,-126.6961 z"/>
    <path style="fill:#60499d;fill-opacity:1;stroke:#000000;stroke-width:5.35303688;stroke-miterlimit:4;stroke-dasharray:none;stroke-opacity:1" id="Left Handle" d="m 2607.7777,1288.9799 c -9.7158,40.3563 -25.5045,256.5517 -19.4319,370.4144 6.0725,113.8627 17.0029,229.1671 89.873,236.3737 72.8703,7.2064 77.7283,-86.4784 86.2301,-121.0693 8.5011,-34.5913 52.2238,-232.0497 52.2238,-232.0497 0,0 -199.1788,-294.0258 -208.895,-253.6691 z"/>
    <path style="fill:#60499d;fill-opacity:1;stroke:#000000;stroke-width:5.35303688;stroke-miterlimit:4;stroke-dasharray:none;stroke-opacity:1" id="Right Handle" d="m 3840.3456,1290.3136 c -9.9535,-40.3567 -214.006,253.669 -214.006,253.669 0,0 44.7919,197.4583 53.5015,232.0494 8.7093,34.5913 13.6868,128.276 88.3399,121.0697 74.653,-7.2067 85.8514,-122.5107 92.072,-236.3737 6.2213,-113.8627 -9.9538,-330.0582 -19.9074,-370.4144 z"/>
    <path style="fill:#60499d;fill-opacity:1;stroke:#000000;stroke-width:5.35303688;stroke-miterlimit:4;stroke-dasharray:none;stroke-opacity:1" id="Left Platform" d="m 3163.7797,1557.4647 c -37.291,-62.4051 -62.2957,-65.0244 -87.2879,-105.3578 -32.2295,-52.012 -0.5037,-167.573 -64.4589,-253.3919 -57.6634,-77.3763 -191.716,-124.3981 -308.8652,-46.6775 -121.6328,80.695 -122.2031,222.7182 -57.7444,318.7405 63.2244,94.1834 145.917,85.8542 190.6908,133.3641 36.399,38.6237 37.5492,88.0678 65.8016,118.6942 51.9697,56.3364 134.3729,80.721 216.2057,22.672 75.202,-53.3458 70.001,-147.3068 45.6583,-188.0436 z"/>
    <path style="fill:#60499d;fill-opacity:1;stroke:#000000;stroke-width:5.35303688;stroke-miterlimit:4;stroke-dasharray:none;stroke-opacity:1" id="Right Platform" d="m 3744.2449,1152.0375 c -117.1493,-77.7206 -251.2017,-30.6988 -308.8652,46.6775 -63.9553,85.8189 -32.2294,201.3799 -64.4589,253.3919 -24.9925,40.3334 -49.9972,42.9527 -87.2879,105.3578 -24.3426,40.7368 -29.5437,134.6978 45.6583,188.0436 81.8328,58.049 164.2361,33.6644 216.2057,-22.672 28.2524,-30.6264 29.4026,-80.0705 65.8017,-118.6942 44.7737,-47.5099 127.466,-39.1807 190.6907,-133.3641 64.4588,-96.0223 63.8884,-238.0455 -57.7444,-318.7405 z"/>
    <ellipse cx="2834.7581" cy="1337.4073" rx="155.49484" ry="152.84772" id="Control Stick Housing" style="fill:#674da5;fill-opacity:1;stroke:#543f88;stroke-width:5.35303688;stroke-miterlimit:4;stroke-dasharray:none;stroke-opacity:1"/>
    <ellipse cx="3023.6013" cy="1625.7736" rx="104.82884" ry="103.04419" id="D-Pad Housing" style="fill:#56418c;fill-opacity:1;stroke:#46346f;stroke-width:5.35303688;stroke-miterlimit:4;stroke-dasharray:none;stroke-opacity:1"/>
    <ellipse cx="3620.1711" cy="1337.4073" rx="155.49484" ry="152.84772" id="Button Housing" style="fill:#674da5;fill-opacity:1;stroke:#543f88;stroke-width:5.35303688;stroke-miterlimit:4;stroke-dasharray:none;stroke-opacity:1"/>
    <path id="Logo" d="m 3052.0206,1159.4885 c -1.7467,-0.86 -4.5901,-3.5403 -5.3062,-5.002 -0.4374,-0.8926 -0.4598,-1.5273 -0.4598,-13.0196 v -12.0813 l 0.6566,-1.3279 c 0.3612,-0.7302 1.0723,-1.7008 1.5804,-2.1567 1.7721,-1.5899 1.3454,-1.559 21.5455,-1.559 h 18.1456 v 3.8707 3.8707 h -15.9445 -15.9444 v 9.7354 9.7354 h 11.5744 11.5746 v -2.6978 -2.6978 h -6.614 -6.614 v -4.1053 -4.1053 h 11.2202 11.2201 v 7.7847 c 0,7.5218 -0.017,7.8203 -0.5154,8.8421 -0.6758,1.3863 -3.2797,3.9909 -4.9174,4.9187 l -1.2993,0.736 h -14.1942 -14.1942 l -1.514,-0.7454 z m 223.7166,0.1914 c -2.3526,-0.5318 -3.7064,-1.4658 -4.6376,-3.1994 -0.416,-0.7747 -0.4447,-1.7187 -0.5064,-16.7143 l -0.065,-15.8933 h 4.9668 4.9669 v 13.7233 13.7234 h 10.2754 10.2753 v -13.7234 -13.7233 h 4.9653 4.9654 l -0.064,15.9318 -0.064,15.9319 -0.7162,1.0171 c -0.8774,1.2463 -2.5627,2.4049 -4.0643,2.7944 -1.6439,0.4264 -28.4778,0.5432 -30.2974,0.1318 z m 38.8967,0.163 c -0.087,-0.086 -0.1575,-8.2144 -0.1575,-18.0632 v -17.9068 h 17.556 c 19.6209,0 19.1148,-0.04 20.4653,1.5877 1.0064,1.2125 1.1904,2.5019 1.1904,8.3415 0,4.2008 -0.067,5.31 -0.3462,5.7053 -0.428,0.607 -1.7627,1.2558 -2.5832,1.2558 -0.897,0 -0.7666,0.6173 0.1973,0.9332 1.041,0.3411 2.4266,1.8626 2.6176,2.8743 0.082,0.4323 0.1143,3.1041 0.072,5.9374 -0.072,4.8792 -0.1048,5.2009 -0.6207,6.0898 -1.0464,1.8023 -3.0397,2.7572 -6.602,3.1625 -2.2793,0.2594 -31.5349,0.3353 -31.7894,0.082 z m 29.6265,-9.0313 c 0.3961,-0.7352 0.1682,-5.3285 -0.2784,-5.6093 -0.1832,-0.1152 -4.6115,-0.211 -9.8407,-0.213 h -9.5076 v 3.1669 3.167 h 9.6764 9.6765 l 0.2738,-0.508 z m 0,-14.0753 c 0.2934,-0.5445 0.2024,-5.0426 -0.1123,-5.5483 -0.1285,-0.2063 -2.6529,-0.2775 -9.8436,-0.2775 h -9.6708 v 3.1669 3.1669 h 9.6764 9.6765 z m 12.9709,5.1997 v -18.0631 h 18.0704 18.0705 v 3.8707 3.8706 h -13.4643 -13.4642 v 2.8151 2.815 h 7.7951 7.7951 v 3.988 3.988 h -7.7951 -7.7951 v 3.0496 3.0497 h 13.8186 13.8185 v 4.3399 4.3398 h -18.4248 -18.4247 z m -259.9915,-0.1199 10.6669,-17.9487 4.2224,0.062 4.2224,0.062 8.0607,13.5008 8.0608,13.5009 0.061,-13.5595 0.061,-13.5594 h 4.6633 4.6634 l 7.2045,12.122 c 3.9626,6.667 7.3028,12.1126 7.4228,12.1013 0.12,-0.011 3.4335,-5.4416 7.3632,-12.0673 l 7.1451,-12.0466 4.6247,-0.064 4.6246,-0.063 v 17.9509 17.9509 h -4.6034 -4.6035 l -0.062,-9.0185 -0.062,-9.0186 -5.2798,9.0186 -5.2797,9.0185 h -3.9326 -3.9326 l -5.1968,-8.9493 -5.1967,-8.9493 -0.062,8.9537 -0.062,8.9538 -7.9339,-0.062 -7.9338,-0.062 -7.122,-12.1292 c -3.9172,-6.6709 -7.1752,-12.1314 -7.2402,-12.1343 -0.1124,-0.01 -9.2445,15.2442 -9.4092,15.712 -0.048,0.1373 1.9335,0.2236 5.1377,0.2236 h 5.2164 v 4.2226 4.2226 h -13.0881 -13.0881 l 10.6669,-17.9487 z m 86.4313,0.062 0.061,-17.8873 18.4838,-0.061 18.4838,-0.061 v 3.8721 3.8721 h -13.4642 -13.4642 v 2.8151 2.815 h 7.795 7.7951 v 3.988 3.988 h -7.7951 -7.795 v 3.0496 3.0497 h 13.4642 13.4642 v 4.2226 4.2225 h -18.5443 -18.5444 z m 48.4044,17.4907 c -1.1032,-0.5399 -2.7336,-2.2198 -3.3181,-3.419 -0.2708,-0.5554 -0.6001,-1.5748 -0.732,-2.2652 -0.2903,-1.5195 -0.3098,-25.4751 -0.022,-26.9533 0.2475,-1.272 1.1754,-2.2562 2.4598,-2.6092 0.7098,-0.1951 5.4238,-0.251 16.9282,-0.2008 l 15.9446,0.069 1.0538,0.5865 c 1.1615,0.6464 2.0037,1.7214 2.3674,3.0221 0.1306,0.4666 0.238,2.9863 0.2387,5.599 v 4.7503 h -4.9606 -4.9604 v -2.815 -2.815 h -9.9211 -9.921 v 9.5007 9.5009 h 10.2753 10.2754 v -3.5189 -3.5188 h 4.6062 4.6062 v 5.8061 c 0,3.2698 -0.1079,6.1871 -0.2453,6.6785 -0.3127,1.1183 -1.2909,2.2703 -2.274,2.6783 -0.625,0.2593 -3.6928,0.3189 -16.1918,0.3146 -13.8284,0 -15.502,-0.045 -16.2093,-0.3913 z m 137.7537,-45.0708 c -2.1411,-0.7483 -3.7439,-2.2819 -4.4439,-4.2521 -0.2965,-0.8346 -0.3581,-2.5057 -0.3538,-9.602 0.01,-9.706 0,-9.697 1.8336,-11.3347 1.9648,-1.7593 1.7076,-1.7141 9.7358,-1.7141 h 7.2045 l 1.1066,0.6461 c 1.2998,0.7587 2.0146,1.6757 2.465,3.1616 0.491,1.6206 0.4686,17.0951 -0.027,18.7532 -0.4682,1.5656 -1.9157,3.1659 -3.6118,3.9931 l -1.3498,0.6582 -5.6692,0.059 c -4.974,0.052 -5.8189,0.01 -6.8898,-0.368 z m 10.7425,-4.9749 c 1.3755,-0.8329 1.4622,-1.348 1.4622,-8.6971 0,-6.2518 -0.026,-6.6489 -0.4844,-7.3853 -0.2663,-0.4281 -0.8494,-1.0024 -1.2956,-1.2762 -0.75,-0.4604 -1.0807,-0.4923 -4.3769,-0.4224 l -3.5655,0.075 -0.808,0.8763 -0.808,0.8763 v 7.5283 7.5283 l 0.6905,0.6856 0.6905,0.6858 3.8566,-10e-4 c 3.4516,-7e-4 3.9389,-0.051 4.6386,-0.4743 z m -326.6401,-8.6799 v -13.3776 l 3.5581,0.065 3.558,0.064 4.178,7.9006 4.178,7.9004 0.062,-7.9591 0.062,-7.9591 h 2.8315 2.8314 v 13.3787 13.3787 l -2.8612,-0.066 -2.8612,-0.066 -5.2291,-9.6448 -5.2292,-9.6448 -0.062,9.7034 -0.062,9.7035 h -2.4776 -2.4777 z m 50.3138,0.01 v -13.3715 h 2.8345 2.8345 v 13.3715 13.3715 h -2.8345 -2.8345 z m 34.9598,0 v -13.3715 h 3.5027 3.5029 l 4.2332,8.0117 4.2332,8.0115 0.062,-8.0115 0.062,-8.0117 h 2.8314 2.8316 v 13.3787 13.3787 l -2.8914,-0.066 -2.8912,-0.066 -5.1991,-9.5968 -5.1991,-9.597 -0.062,9.6556 -0.062,9.6555 h -2.4776 -2.4776 v -13.3714 z m 53.1482,2.1113 v -11.2602 h -4.2518 -4.2519 v -2.1113 -2.1113 h 11.3383 11.3383 v 2.1113 2.1113 h -4.2518 -4.2519 v 11.2602 11.2602 h -2.8346 -2.8346 z m 38.3003,10.7537 c -1.2894,-0.6338 -2.2895,-1.9822 -2.6386,-3.5574 -0.1837,-0.8291 -0.244,-4.0792 -0.1902,-10.2459 0.076,-8.7068 0.097,-9.0654 0.5852,-9.97 0.6215,-1.1518 1.1429,-1.6345 2.2702,-2.1024 0.728,-0.302 2.2558,-0.3608 9.3809,-0.3608 h 8.5114 v 2.1113 2.1113 h -6.6374 c -8.8659,0 -8.9529,0.04 -8.9529,4.0402 v 2.2937 h 7.7951 7.7952 v 2.1112 2.1113 h -7.7952 -7.7951 v 3.0806 3.0806 l 0.8436,0.7901 0.8436,0.7902 h 6.9515 6.9516 v 2.1112 2.1113 l -8.4448,-2e-4 c -8.174,-2e-4 -8.4776,-0.017 -9.4741,-0.5062 z m 43.43,-12.8649 v -13.3716 h 3.248 3.2479 l 4.4881,7.9126 4.488,7.9125 0.062,-7.9174 0.062,-7.9173 h 2.4772 2.4771 v 13.3794 13.3795 l -2.537,-0.067 -2.5371,-0.066 -5.1989,-9.5969 -5.1991,-9.5969 -0.062,9.6555 -0.062,9.6556 h -2.4776 -2.4777 v -13.3715 z m 46.0619,-0.011 v -13.3827 l 8.3265,0.07 c 8.1127,0.069 8.3569,0.083 9.5077,0.6092 1.4051,0.6417 2.881,1.9831 3.3345,3.0305 0.4821,1.1136 0.478,18.0971 0,19.024 -0.4689,0.9006 -2.7109,2.9498 -3.8693,3.5368 -0.9383,0.4754 -1.301,0.495 -9.1359,0.495 h -8.1588 z m 14.4086,9.5121 c 0.3766,-0.1933 0.9559,-0.7047 1.2874,-1.1364 l 0.6028,-0.7848 v -7.4994 -7.4994 l -0.6496,-0.6017 c -1.1555,-1.0703 -1.4671,-1.1282 -6.067,-1.1282 h -4.3855 v 9.5008 9.5008 h 4.2636 c 3.3266,0 4.4141,-0.077 4.9483,-0.3517 z" style="fill:#cccccc;stroke-width:0.33456481"/>
    <text transform="scale(0.8009806,1.2484697)" id="text4298" y="1058.4963" x="4110.917" style="font-style:normal;font-variant:normal;font-weight:bold;font-stretch:normal;font-size:26.49464226px;line-height:125%;font-family:Arial;-inkscape-font-specification:'Arial Bold';text-align:center;letter-spacing:0px;word-spacing:0px;text-anchor:middle;fill:#3a2b5c;fill-opacity:1;stroke:none;stroke-width:0.33456481px;stroke-linecap:butt;stroke-linejoin:miter;stroke-opacity:1" xml:space="preserve">
      <tspan style="stroke-width:0.33456481px" id="tspan4300" y="1058.4963" x="4020.4758">
        <tspan id="tspan4302" style="font-style:normal;font-variant:normal;font-weight:bold;font-stretch:normal;font-family:Arial;-inkscape-font-specification:'Arial Bold';text-align:center;text-anchor:middle;fill-opacity:1;stroke-width:0.33456481px" y="1058.4963" x="4020.4758">START/PAUSE</tspan>
      </tspan>
    </text>
    <flowRoot style="font-style:normal;font-weight:normal;font-size:40px;line-height:125%;font-family:sans-serif;letter-spacing:0px;word-spacing:0px;fill:#000000;fill-opacity:1;stroke:none;stroke-width:1px;stroke-linecap:butt;stroke-linejoin:miter;stroke-opacity:1" id="flowRoot4348" xml:space="preserve">
      <flowRegion id="flowRegion4350">
        <rect y="923.34906" x="1937.6116" height="54.621098" width="106.3674" id="rect4352"/>
      </flowRegion>
      <flowPara id="flowPara4354"/>
    </flowRoot>
  </g>
  <g transform="translate(-2584.3154,-1003.2778)" style="display:inline" id="Stick Bases">
    <path transform="matrix(1.0000145,0,0,0.9931262,-0.04681944,9.9635475)" style="fill:url(#radialGradient5081);fill-opacity:1;stroke:#655f73;stroke-width:5.17218828;stroke-opacity:1" d="m 2834.76,1446.54 -77.71,-32.19 -32.2,-77.72 32.2,-77.72 77.71,-32.19 77.72,32.19 32.19,77.72 -32.19,77.72 z" id="Control Stick Base"/>
    <path transform="matrix(1.0000145,0,0,0.9931262,-0.04681944,9.9635475)" style="fill:url(#radialGradient5069);fill-opacity:1;stroke:#543f88;stroke-width:4.81218433;stroke-miterlimit:4;stroke-dasharray:none;stroke-opacity:1" d="m 3426.55,1729.8 -72.3,-29.95 -29.95,-72.3 29.95,-72.31 72.3,-29.95 72.31,29.95 29.95,72.31 -29.95,72.3 z" id="C-Stick Base"/>
  </g>
  <g transform="translate(-2584.3154,-1003.2778)" style="display:inline" id="Sticks">
    <g transform="matrix(0.33572305,0,0,0.33341052,2144.732,957.18124)" munia:offset-scale="0.6" munia:axis-v="1" munia:axis-h="0" munia:stick-id="0" id="Control Stick">
      <ellipse style="fill:#eeeeee;stroke:#6a6a6a;stroke-width:16.94153214;stroke-miterlimit:4;stroke-dasharray:none;stroke-opacity:1" id="ellipse3475" ry="238.42455" rx="248.07381" cy="1140.4144" cx="2055.343"/>
      <ellipse style="fill:#eeeeee;stroke:#c9c9c9;stroke-width:16.94153214;stroke-miterlimit:4;stroke-dasharray:none;stroke-opacity:1" id="ellipse3485" ry="199.39655" rx="211.16457" cy="1141.4341" cx="2053.6677"/>
      <ellipse style="fill:#eeeeee;stroke:#c9c9c9;stroke-width:16.94153214;stroke-miterlimit:4;stroke-dasharray:none;stroke-opacity:1" id="ellipse3495" ry="123.92943" rx="131.24287" cy="1147.0046" cx="2053.4849"/>
      <ellipse style="fill:#eeeeee;stroke:#c9c9c9;stroke-width:16.94153214;stroke-miterlimit:4;stroke-dasharray:none;stroke-opacity:1" id="ellipse3505" ry="42.111355" rx="44.596466" cy="1146.9158" cx="2055.7612"/>
    </g>
    <g transform="matrix(0.33572305,0,0,0.33341052,2142.7524,967.50301)" munia:offset-scale="0.6" munia:axis-v="4" munia:axis-h="5" munia:stick-id="1" id="C-Stick">
      <circle style="fill:#f5ba00;fill-opacity:1;stroke:#c98b00;stroke-width:16;stroke-miterlimit:4;stroke-dasharray:none;stroke-opacity:1" id="circle3526" r="144" cy="1976" cx="3824"/>
      <ellipse transform="translate(-0.6122751,4.4577637)" clip-path="url(#clipPath4932)" ry="47.878845" rx="42.84795" cy="1971.5422" cx="3840.7258" id="path4902" style="fill:none;fill-opacity:1;stroke:#ad7800;stroke-width:22.8156929;stroke-miterlimit:4;stroke-dasharray:none;stroke-opacity:1"/>
    </g>
  </g>
  <g transform="translate(-2584.3154,-1003.2778)" style="display:inline" id="Face Buttons">
    <g transform="matrix(0.33572305,0,0,0.33341052,2141.8388,966.66125)" munia:button-state="released" munia:button-id="0" id="A">
      <circle style="fill:#00bc8e;stroke:#005741;stroke-width:16;stroke-miterlimit:4;stroke-dasharray:none;stroke-opacity:1" id="A Button" r="224" cy="1104" cx="4408"/>
      <text transform="scale(0.73837619,1.3543232)" id="text4304" y="861.646" x="5919.1294" style="font-style:normal;font-weight:normal;font-size:64.93060303px;line-height:125%;font-family:sans-serif;letter-spacing:0px;word-spacing:0px;fill:#008866;fill-opacity:1;stroke:none;stroke-width:1px;stroke-linecap:butt;stroke-linejoin:miter;stroke-opacity:1" xml:space="preserve">
        <tspan id="tspan4306" y="861.646" x="5919.1294">
          <tspan id="tspan4308" style="font-style:normal;font-variant:normal;font-weight:bold;font-stretch:normal;font-size:129.86120605px;font-family:'arial black';-inkscape-font-specification:'arial black, Bold';fill:#008866;fill-opacity:1" y="861.646" x="5919.1294">A</tspan>
        </tspan>
      </text>
    </g>
    <g transform="matrix(0.33572305,0,0,0.33341052,2141.8388,966.66125)" munia:button-state="pressed" munia:button-id="0" id="A Pressed">
      <circle cx="4408" cy="1104" r="224" id="circle4282" style="fill:#85ffe1;fill-opacity:1;stroke:#85ffe1;stroke-width:16;stroke-miterlimit:4;stroke-dasharray:none;stroke-opacity:1"/>
      <text transform="scale(0.73837619,1.3543232)" id="text4322" y="861.646" x="5919.1294" style="font-style:normal;font-weight:normal;font-size:64.93060303px;line-height:125%;font-family:sans-serif;letter-spacing:0px;word-spacing:0px;fill:#00c795;fill-opacity:1;stroke:none;stroke-width:1px;stroke-linecap:butt;stroke-linejoin:miter;stroke-opacity:1" xml:space="preserve">
        <tspan id="tspan4324" y="861.646" x="5919.1294">
          <tspan id="tspan4326" style="font-style:normal;font-variant:normal;font-weight:bold;font-stretch:normal;font-size:129.86120605px;font-family:'arial black';-inkscape-font-specification:'arial black, Bold';fill:#00c795;fill-opacity:1" y="861.646" x="5919.1294">A</tspan>
        </tspan>
      </text>
    </g>
    <g transform="matrix(0.33572305,0,0,0.33341052,2141.8388,966.66125)" munia:button-state="released" munia:button-id="1" id="B">
      <circle style="fill:#e70909;fill-opacity:1;stroke:#7d1010;stroke-width:16;stroke-miterlimit:4;stroke-dasharray:none;stroke-opacity:1" id="B Button" r="130" cy="1336" cx="3968"/>
      <text transform="scale(0.74668267,1.339257)" id="text4310" y="1044.7511" x="5260.8413" style="font-style:normal;font-weight:normal;font-size:65.91461182px;line-height:125%;font-family:sans-serif;letter-spacing:0px;word-spacing:0px;fill:#b80707;fill-opacity:1;stroke:none;stroke-width:1px;stroke-linecap:butt;stroke-linejoin:miter;stroke-opacity:1" xml:space="preserve">
        <tspan id="tspan4312" y="1044.7511" x="5260.8413">
          <tspan id="tspan4314" style="font-style:normal;font-variant:normal;font-weight:bold;font-stretch:normal;font-size:131.82922363px;font-family:'Arial Black';-inkscape-font-specification:'Arial Black, Bold';fill:#b80707;fill-opacity:1" y="1044.7511" x="5260.8413">B</tspan>
        </tspan>
      </text>
    </g>
    <g transform="matrix(0.33572305,0,0,0.33341052,2141.8388,966.66125)" munia:button-state="pressed" munia:button-id="1" id="B-Pressed">
      <circle cx="3968" cy="1336" r="130" id="circle4294" style="fill:#fcadad;fill-opacity:1;stroke:#fcadad;stroke-width:16;stroke-miterlimit:4;stroke-dasharray:none;stroke-opacity:1"/>
      <text transform="scale(0.74668267,1.339257)" id="text4316" y="1044.7511" x="5260.8413" style="font-style:normal;font-weight:normal;font-size:65.91461182px;line-height:125%;font-family:sans-serif;letter-spacing:0px;word-spacing:0px;fill:#e06565;fill-opacity:1;stroke:none;stroke-width:1px;stroke-linecap:butt;stroke-linejoin:miter;stroke-opacity:1" xml:space="preserve">
        <tspan id="tspan4318" y="1044.7511" x="5260.8413">
          <tspan id="tspan4320" style="font-style:normal;font-variant:normal;font-weight:bold;font-stretch:normal;font-size:131.82922363px;font-family:'Arial Black';-inkscape-font-specification:'Arial Black, Bold';fill:#e06565;fill-opacity:1" y="1044.7511" x="5260.8413">B</tspan>
        </tspan>
      </text>
    </g>
    <g transform="matrix(0.33572305,0,0,0.33341052,2141.8388,966.66125)" munia:button-state="released" munia:button-id="3" id="Y">
      <path style="fill:#c8c8c8;fill-opacity:1;stroke:#969696;stroke-width:16;stroke-miterlimit:4;stroke-dasharray:none;stroke-opacity:1" id="Y Button" d="m 4487.297,672.681 c -8.889,-112.396 -236.646,-62.308 -273.91,-45.485 -37.264,16.823 -207.073,96.898 -134.669,194.161 83.202,86.025 136.636,-11.178 211.14,-46.641 96.962,-37.559 200.876,15.784 197.439,-102.035 z"/>
      <text transform="scale(0.73837619,1.3543232)" id="text4328" y="564.57025" x="5724.7109" style="font-style:normal;font-weight:normal;font-size:64.93060303px;line-height:125%;font-family:sans-serif;letter-spacing:0px;word-spacing:0px;fill:#969696;fill-opacity:1;stroke:none;stroke-width:1px;stroke-linecap:butt;stroke-linejoin:miter;stroke-opacity:1" xml:space="preserve">
        <tspan id="tspan4330" y="564.57025" x="5724.7109">
          <tspan id="tspan4332" style="font-style:normal;font-variant:normal;font-weight:bold;font-stretch:normal;font-size:129.86120605px;font-family:'arial black';-inkscape-font-specification:'arial black, Bold';fill:#969696;fill-opacity:1" y="564.57025" x="5724.7109">Y</tspan>
        </tspan>
      </text>
    </g>
    <g transform="matrix(0.33572305,0,0,0.33341052,2141.8498,966.47542)" style="stroke-width:16;stroke-miterlimit:4;stroke-dasharray:none" munia:button-state="pressed" munia:button-id="3" id="Y Pressed">
      <path d="m 4487.297,672.681 c -8.889,-112.396 -236.646,-62.308 -273.91,-45.485 -37.264,16.823 -207.073,96.898 -134.669,194.161 83.202,86.025 136.636,-11.178 211.14,-46.641 96.962,-37.559 200.876,15.784 197.439,-102.035 z" id="path4337" style="fill:#ffffff;fill-opacity:1;stroke:#ffffff;stroke-width:16;stroke-miterlimit:4;stroke-dasharray:none;stroke-opacity:1"/>
      <text transform="scale(0.73837619,1.3543232)" id="text4342" y="564.57025" x="5724.7109" style="font-style:normal;font-weight:normal;font-size:64.93060303px;line-height:125%;font-family:sans-serif;letter-spacing:0px;word-spacing:0px;fill:#e0e0e0;fill-opacity:1;stroke:none;stroke-width:9.85667706;stroke-linecap:butt;stroke-linejoin:miter;stroke-miterlimit:4;stroke-dasharray:none;stroke-opacity:1" xml:space="preserve">
        <tspan id="tspan4344" y="564.57025" x="5724.7109">
          <tspan id="tspan4346" style="font-style:normal;font-variant:normal;font-weight:bold;font-stretch:normal;font-size:129.86120605px;font-family:'arial black';-inkscape-font-specification:'arial black, Bold';fill:#e0e0e0;fill-opacity:1;stroke-width:9.85667706;stroke-miterlimit:4;stroke-dasharray:none" y="564.57025" x="5724.7109">Y</tspan>
        </tspan>
      </text>
    </g>
    <g transform="matrix(0.33572305,0,0,0.33341052,2141.8388,966.66125)" munia:button-state="released" munia:button-id="2" id="X">
      <path style="fill:#c8c8c8;fill-opacity:1;stroke:#969696;stroke-width:16;stroke-miterlimit:4;stroke-dasharray:none;stroke-opacity:1" id="X Button" d="m 4897.257,913.106 c -16.822,-37.264 -96.897,-207.073 -194.161,-134.67 -86.025,83.202 11.178,136.636 46.641,211.141 37.56,96.962 -15.783,200.876 102.035,197.438 112.396,-8.888 62.308,-236.645 45.485,-273.909 z"/>
      <text transform="scale(0.73837619,1.3543232)" id="text4334" y="769.36322" x="6486.3252" style="font-style:normal;font-weight:normal;font-size:64.93060303px;line-height:125%;font-family:sans-serif;letter-spacing:0px;word-spacing:0px;fill:#969696;fill-opacity:1;stroke:none;stroke-width:1px;stroke-linecap:butt;stroke-linejoin:miter;stroke-opacity:1" xml:space="preserve">
        <tspan id="tspan4336" y="769.36322" x="6486.3252">
          <tspan id="tspan4338" style="font-style:normal;font-variant:normal;font-weight:bold;font-stretch:normal;font-size:129.86120605px;font-family:'arial black';-inkscape-font-specification:'arial black, Bold';fill:#969696;fill-opacity:1" y="769.36322" x="6486.3252">X</tspan>
          <tspan id="tspan4340" style="font-style:normal;font-variant:normal;font-weight:bold;font-stretch:normal;font-size:129.86120605px;font-family:'arial black';-inkscape-font-specification:'arial black, Bold';fill:#969696;fill-opacity:1" y="769.36322" x="6587.272" dx="0"/>
        </tspan>
      </text>
    </g>
    <g transform="matrix(0.33572305,0,0,0.33341052,2141.794,966.62215)" munia:button-state="pressed" munia:button-id="2" id="X Pressed">
      <path d="m 4897.257,913.106 c -16.822,-37.264 -96.897,-207.073 -194.161,-134.67 -86.025,83.202 11.178,136.636 46.641,211.141 37.56,96.962 -15.783,200.876 102.035,197.438 112.396,-8.888 62.308,-236.645 45.485,-273.909 z" id="path4349" style="fill:#ffffff;fill-opacity:1;stroke:#ffffff;stroke-width:16;stroke-miterlimit:4;stroke-dasharray:none;stroke-opacity:1"/>
      <text transform="scale(0.73837619,1.3543232)" id="text4464" y="769.36322" x="6486.3252" style="font-style:normal;font-weight:normal;font-size:64.93060303px;line-height:125%;font-family:sans-serif;letter-spacing:0px;word-spacing:0px;fill:#e0e0e0;fill-opacity:1;stroke:none;stroke-width:1px;stroke-linecap:butt;stroke-linejoin:miter;stroke-opacity:1" xml:space="preserve">
        <tspan id="tspan4466" y="769.36322" x="6486.3252">
          <tspan id="tspan4468" style="font-style:normal;font-variant:normal;font-weight:bold;font-stretch:normal;font-size:129.86120605px;font-family:'arial black';-inkscape-font-specification:'arial black, Bold';fill:#e0e0e0;fill-opacity:1" y="769.36322" x="6486.3252">X</tspan>
          <tspan id="tspan4470" style="font-style:normal;font-variant:normal;font-weight:bold;font-stretch:normal;font-size:129.86120605px;font-family:'arial black';-inkscape-font-specification:'arial black, Bold';fill:#e0e0e0;fill-opacity:1" y="769.36322" x="6587.272" dx="0"/>
        </tspan>
      </text>
    </g>
    <g transform="matrix(0.33572305,0,0,0.33341052,2142.1763,966.04462)" id="D-Pad">
      <g id="Base">
        <path id="rect5692" d="m 2573.2885,1738.2656 c -11.1484,0 -20.123,8.9746 -20.123,20.1231 v 148.0527 h -148.0527 c -11.1485,0 -20.1231,8.9746 -20.1231,20.1231 v 104.3281 c 0,11.1484 8.9746,20.123 20.1231,20.123 h 148.0527 v 148.0528 c 0,11.1484 8.9746,20.123 20.123,20.123 h 104.3282 c 11.1484,0 20.123,-8.9746 20.123,-20.123 v -148.0528 h 148.0527 c 11.1485,0 20.1231,-8.9746 20.1231,-20.123 v -104.3281 c 0,-11.1485 -8.9746,-20.1231 -20.1231,-20.1231 h -148.0527 v -148.0527 c 0,-11.1485 -8.9746,-20.1231 -20.123,-20.1231 z" style="fill:#c8c8c8;fill-opacity:1;stroke:#7d7d7d;stroke-width:16.60231781;stroke-miterlimit:4;stroke-dasharray:none;stroke-opacity:1"/>
        <polygon points="2627.297,1780.071 2578.651,1862 2674.235,1862 " id="polygon3555" style="fill:#969696;fill-opacity:1"/>
        <polygon points="2627.297,2184.928 2674.235,2103 2578.651,2103 " id="polygon3560" style="fill:#969696;fill-opacity:1"/>
        <polygon transform="translate(0,-3.7815)" points="2505.953,1934.718 2424.024,1981.656 2505.953,2030.302 " id="polygon3565" style="fill:#969696;fill-opacity:1"/>
        <polygon points="2746.953,1934.718 2746.953,2030.302 2828.881,1981.656 " id="polygon3570" style="fill:#969696;fill-opacity:1"/>
        <circle cx="2626.9031" cy="1979.417" r="48.646999" id="circle3575" style="fill:#969696;fill-opacity:1"/>
      </g>
      <g munia:button-state="pressed" munia:button-id="8" id="Up Pressed">
        <path style="fill:#ffffff;fill-opacity:1;stroke:#ffffff;stroke-width:16.60231781;stroke-miterlimit:4;stroke-dasharray:none;stroke-opacity:1" d="m 2573.2885,1738.2656 c -11.1484,0 -20.123,8.9746 -20.123,20.1231 v 148.0527 h -148.0527 c -11.1485,0 -20.1231,8.9746 -20.1231,20.1231 v 104.3281 c 0,11.1484 8.9746,20.123 20.1231,20.123 h 148.0527 v 148.0528 c 0,11.1484 8.9746,20.123 20.123,20.123 h 104.3282 c 11.1484,0 20.123,-8.9746 20.123,-20.123 v -148.0528 h 148.0527 c 11.1485,0 20.1231,-8.9746 20.1231,-20.123 v -104.3281 c 0,-11.1485 -8.9746,-20.1231 -20.1231,-20.1231 h -148.0527 v -148.0527 c 0,-11.1485 -8.9746,-20.1231 -20.123,-20.1231 z" id="path4328" clip-path="url(#clipPath4342)"/>
        <polygon style="fill:#e0e0e0;fill-opacity:1" id="polygon4352" points="2674.235,1862 2627.297,1780.071 2578.651,1862 "/>
      </g>
      <g munia:button-state="pressed" munia:button-id="9" id="Down Pressed">
        <path clip-path="url(#clipPath4342)" id="path4346" d="m 2573.2885,1738.2656 c -11.1484,0 -20.123,8.9746 -20.123,20.1231 v 148.0527 h -148.0527 c -11.1485,0 -20.1231,8.9746 -20.1231,20.1231 v 104.3281 c 0,11.1484 8.9746,20.123 20.1231,20.123 h 148.0527 v 148.0528 c 0,11.1484 8.9746,20.123 20.123,20.123 h 104.3282 c 11.1484,0 20.123,-8.9746 20.123,-20.123 v -148.0528 h 148.0527 c 11.1485,0 20.1231,-8.9746 20.1231,-20.123 v -104.3281 c 0,-11.1485 -8.9746,-20.1231 -20.1231,-20.1231 h -148.0527 v -148.0527 c 0,-11.1485 -8.9746,-20.1231 -20.123,-20.1231 z" style="fill:#ffffff;fill-opacity:1;stroke:#ffffff;stroke-width:16.60231781;stroke-miterlimit:4;stroke-dasharray:none;stroke-opacity:1" transform="matrix(1,0,0,-1,0,3957.4284)"/>
        <polygon style="fill:#e0e0e0;fill-opacity:1" id="polygon4358" points="2674.235,2103 2578.651,2103 2627.297,2184.928 "/>
      </g>
      <g munia:button-state="pressed" munia:button-id="10" id="Left Pressed">
        <path transform="matrix(0,1,1,0,646.7241,-646.7527)" style="fill:#ffffff;fill-opacity:1;stroke:#ffffff;stroke-width:16.60231781;stroke-miterlimit:4;stroke-dasharray:none;stroke-opacity:1" d="m 2573.2885,1738.2656 c -11.1484,0 -20.123,8.9746 -20.123,20.1231 v 148.0527 h -148.0527 c -11.1485,0 -20.1231,8.9746 -20.1231,20.1231 v 104.3281 c 0,11.1484 8.9746,20.123 20.1231,20.123 h 148.0527 v 148.0528 c 0,11.1484 8.9746,20.123 20.123,20.123 h 104.3282 c 11.1484,0 20.123,-8.9746 20.123,-20.123 v -148.0528 h 148.0527 c 11.1485,0 20.1231,-8.9746 20.1231,-20.123 v -104.3281 c 0,-11.1485 -8.9746,-20.1231 -20.1231,-20.1231 h -148.0527 v -148.0527 c 0,-11.1485 -8.9746,-20.1231 -20.123,-20.1231 z" id="path4348" clip-path="url(#clipPath4342)"/>
        <polygon style="fill:#e0e0e0;fill-opacity:1" id="polygon4368" points="2505.953,2030.302 2505.953,1934.718 2424.024,1981.656 " transform="translate(0,-3.7815)"/>
      </g>
      <g munia:button-state="pressed" munia:button-id="11" id="Right Pressed">
        <path transform="matrix(0,-1,-1,0,4604.1811,4604.1525)" style="fill:#ffffff;fill-opacity:1;stroke:#ffffff;stroke-width:16.60231781;stroke-miterlimit:4;stroke-dasharray:none;stroke-opacity:1" d="m 2573.2885,1738.2656 c -11.1484,0 -20.123,8.9746 -20.123,20.1231 v 148.0527 h -148.0527 c -11.1485,0 -20.1231,8.9746 -20.1231,20.1231 v 104.3281 c 0,11.1484 8.9746,20.123 20.1231,20.123 h 148.0527 v 148.0528 c 0,11.1484 8.9746,20.123 20.123,20.123 h 104.3282 c 11.1484,0 20.123,-8.9746 20.123,-20.123 v -148.0528 h 148.0527 c 11.1485,0 20.1231,-8.9746 20.1231,-20.123 v -104.3281 c 0,-11.1485 -8.9746,-20.1231 -20.1231,-20.1231 h -148.0527 v -148.0527 c 0,-11.1485 -8.9746,-20.1231 -20.123,-20.1231 z" id="path4350" clip-path="url(#clipPath4342)"/>
        <polygon style="fill:#e0e0e0;fill-opacity:1" id="polygon4374" points="2828.881,1981.656 2746.953,1934.718 2746.953,2030.302 "/>
      </g>
    </g>
    <ellipse ry="27.339663" rx="27.529291" style="fill:#c8c8c8;fill-opacity:1;stroke:#9a9a9a;stroke-width:5.35303688;stroke-miterlimit:4;stroke-dasharray:none;stroke-opacity:1" cy="1381.1239" cx="3220.1677" munia:button-state="released" munia:button-id="4" id="Start"/>
    <ellipse ry="27.339663" rx="27.529291" cx="3220.1677" cy="1381.1239" style="fill:#ffffff;fill-opacity:1;stroke:#ffffff;stroke-width:5.35303688;stroke-miterlimit:4;stroke-dasharray:none;stroke-opacity:1" munia:button-state="pressed" munia:button-id="4" id="Start Pressed"/>
  </g>
</svg>
