<?xml version="1.0" encoding="UTF-8" standalone="no"?>
<svg xmlns:munia="http://www.munia.io/namespaces/munia" xmlns:dc="http://purl.org/dc/elements/1.1/" xmlns:cc="http://creativecommons.org/ns#" xmlns:rdf="http://www.w3.org/1999/02/22-rdf-syntax-ns#" xmlns:svg="http://www.w3.org/2000/svg" xmlns="http://www.w3.org/2000/svg" xmlns:xlink="http://www.w3.org/1999/xlink" xmlns:sodipodi="http://sodipodi.sourceforge.net/DTD/sodipodi-0.dtd" xmlns:inkscape="http://www.inkscape.org/namespaces/inkscape" viewBox="0 0 800 775.33" id="svg2" version="1.1" inkscape:version="0.92.3 (2405546, 2018-03-11)" sodipodi:docname="n64.svg" width="800" height="775.33002">
  <metadata id="metadata411">
    <rdf:RDF>
      <cc:Work rdf:about="">
        <dc:format>image/svg+xml</dc:format>
        <dc:type rdf:resource="http://purl.org/dc/dcmitype/StillImage"/>
        <dc:title/>
      </cc:Work>
    </rdf:RDF>
  </metadata>
  <defs id="defs107">
    <linearGradient id="linearGradient4240">
      <stop style="stop-color:#ff0000;stop-opacity:1;" offset="0" id="stop4242"/>
      <stop id="stop4248" offset="0.52922076" style="stop-color:#ff0000;stop-opacity:1;"/>
      <stop style="stop-color:#ffffff;stop-opacity:0;" offset="1" id="stop4244"/>
    </linearGradient>
    <radialGradient inkscape:collect="always" xlink:href="#linearGradient4240" id="radialGradient4246" cx="553.20258" cy="375.94775" fx="553.20258" fy="375.94775" r="87.843132" gradientUnits="userSpaceOnUse" gradientTransform="matrix(1.1595592,0,0,1.1595592,-100.12972,-57.287994)"/>
  </defs>
  <sodipodi:namedview pagecolor="#ffffff" bordercolor="#666666" borderopacity="1" objecttolerance="10" gridtolerance="10" guidetolerance="10" inkscape:pageopacity="0" inkscape:pageshadow="2" inkscape:window-width="1920" inkscape:window-height="1147" id="namedview105" showgrid="false" inkscape:zoom="0.67617092" inkscape:cx="574.19485" inkscape:cy="319.56515" inkscape:window-x="1072" inkscape:window-y="147" inkscape:window-maximized="1" inkscape:current-layer="layer1" fit-margin-top="0" fit-margin-left="0" fit-margin-right="0" fit-margin-bottom="0" viewbox-height="777.33"/>
  <munia:info munia:skin-name="N64" munia:device-type="N64"/>
  <g inkscape:groupmode="layer" id="layer5" inkscape:label="Triggers" style="display:inline" transform="translate(-250.33896,27.625337)">
    <path id="L" munia:button-id="9" munia:button-state="released" style="fill:#505050;fill-opacity:1;fill-rule:evenodd;stroke:#000000;stroke-width:5.79779577;stroke-linecap:butt;stroke-linejoin:miter;stroke-miterlimit:4;stroke-dasharray:none;stroke-opacity:1" d="m 509.42303,27.194173 -18.63577,1.656514 -86.55281,12.423847 c 0,0 -39.96339,4.762473 -72.05833,28.988982 -2.8989,1.449449 -2.07063,12.009728 -2.07063,12.009728 L 506.93826,46.658203 Z" inkscape:connector-curvature="0" sodipodi:nodetypes="ccccccc"/>
    <path id="R" munia:button-id="8" munia:button-state="released" style="fill:#505050;fill-opacity:1;fill-rule:evenodd;stroke:#000000;stroke-width:5.79779577;stroke-linecap:butt;stroke-linejoin:miter;stroke-miterlimit:4;stroke-dasharray:none;stroke-opacity:1" d="m 797.78963,27.194167 18.63577,1.656514 86.55282,12.423847 c 0,0 39.96338,4.762473 72.05832,28.988976 2.8989,1.449449 2.07064,12.009729 2.07064,12.009729 L 800.2744,46.658197 Z" inkscape:connector-curvature="0" sodipodi:nodetypes="ccccccc"/>
    <path id="L Pressed" munia:button-id="9" munia:button-state="pressed" style="fill:#ff0000;fill-opacity:1;fill-rule:evenodd;stroke:#ff0000;stroke-width:5.79779577;stroke-linecap:butt;stroke-linejoin:miter;stroke-miterlimit:4;stroke-dasharray:none;stroke-opacity:1" d="m 509.42303,27.194173 -18.63577,1.656514 -86.55281,12.423847 c 0,0 -39.96339,4.762473 -72.05833,28.988982 -2.8989,1.449449 -2.07063,12.009728 -2.07063,12.009728 L 506.93826,46.658203 Z" inkscape:connector-curvature="0" sodipodi:nodetypes="ccccccc"/>
    <path id="R Pressed" munia:button-id="8" munia:button-state="pressed" style="fill:#ff0000;fill-opacity:1;fill-rule:evenodd;stroke:#ff0000;stroke-width:5.79779577;stroke-linecap:butt;stroke-linejoin:miter;stroke-miterlimit:4;stroke-dasharray:none;stroke-opacity:1" d="m 797.78963,27.194173 18.63577,1.656514 86.55282,12.423847 c 0,0 39.96338,4.762473 72.05832,28.988982 2.8989,1.449449 2.07064,12.009728 2.07064,12.009728 L 800.2744,46.658203 Z" inkscape:connector-curvature="0" sodipodi:nodetypes="ccccccc"/>
  </g>
  <g id="Z" munia:button-id="1" munia:z-index="-1" munia:button-state="pressed" inkscape:groupmode="layer" inkscape:label="Z" transform="translate(-250.33896,27.625337)">
    <circle style="color:#000000;clip-rule:nonzero;display:inline;overflow:visible;visibility:visible;opacity:1;isolation:auto;mix-blend-mode:normal;color-interpolation:sRGB;color-interpolation-filters:linearRGB;solid-color:#000000;solid-opacity:1;fill:url(#radialGradient4246);fill-opacity:1;fill-rule:nonzero;stroke:none;stroke-width:4.63823652;stroke-linecap:round;stroke-linejoin:miter;stroke-miterlimit:4;stroke-dasharray:none;stroke-dashoffset:0;stroke-opacity:1;color-rendering:auto;image-rendering:auto;shape-rendering:auto;text-rendering:auto;enable-background:accumulate" id="Z Pressed" cx="541.34143" cy="378.64566" r="101.85931"/>
  </g>
  <g inkscape:label="Base" inkscape:groupmode="layer" id="layer1" style="display:inline" transform="translate(-250.33896,27.625337)">
    <path style="fill:#cecece;fill-opacity:1;fill-rule:evenodd;stroke:#000000;stroke-width:5.79779577;stroke-linecap:butt;stroke-linejoin:miter;stroke-miterlimit:4;stroke-dasharray:none;stroke-opacity:1" d="m 281.46449,191.44338 c -2.92834,15.2273 -7.47765,27.84603 -9.82031,37.80234 -2.34266,9.95633 -3.514,14.05598 -6.44233,29.2833 -2.92833,15.22731 -5.54107,28.97813 -7.02798,40.41094 -1.00672,7.74065 -1.59788,11.01901 -2.43524,18.885 -0.76846,7.21878 -1.29778,13.82517 -1.51801,18.89044 -0.58567,13.47032 -0.29512,24.8854 -0.73208,38.94678 -0.44967,14.47011 -0.35223,27.08362 0.7572,44.20306 0.87678,13.52939 2.23707,25.40828 3.92813,41.30416 1.46417,13.76314 4.36626,29.92299 6.19972,40.82506 2.12026,12.60744 6.25696,31.65737 9.18441,40.96108 1.70533,5.41972 4.82871,13.08267 7.84539,19.06457 2.05739,4.07969 6.01585,8.2327 8.54285,10.71863 5.77509,5.68122 11.37255,9.48882 16.45928,10.87033 6.09926,1.65652 14.77766,3.6561 23.56264,1.31345 8.78499,-2.34267 14.43111,-7.58259 18.23102,-12.61263 4.90063,-6.4871 9.05126,-12.72757 10.98749,-17.49277 4.79022,-10.92709 11.48468,-28.75792 15.84867,-43.0259 5.70835,-16.77595 7.09344,-22.67283 10.26244,-31.95495 8.63424,-27.60266 13.43479,-52.14795 19.86487,-77.65049 3.05197,-13.72733 7.4443,-29.20182 9.97574,-35.1198 5.69123,-13.30488 17.90666,-14.79107 27.58621,-15.78356 39.76854,-4.07763 34.35436,-4.75638 43.58901,-8.48352 7.60339,-3.06878 7.78206,-24.37366 7.78206,-24.37366 z" id="Left Leg" inkscape:connector-curvature="0" sodipodi:nodetypes="csssssssssssssssccccssscc"/>
    <path style="fill:#cecece;fill-opacity:1;fill-rule:evenodd;stroke:#000000;stroke-width:5.79779577;stroke-linecap:butt;stroke-linejoin:miter;stroke-miterlimit:4;stroke-dasharray:none;stroke-opacity:1" d="m 1019.2134,191.44283 c 2.9284,15.22731 7.4777,27.84604 9.8203,37.80235 2.3427,9.95632 3.514,14.05598 6.4424,29.2833 2.9283,15.2273 5.541,28.97812 7.028,40.41094 1.0067,7.74064 1.5978,11.01901 2.4352,18.88499 0.7685,7.21878 1.2978,13.82517 1.518,18.89044 0.5857,13.47032 0.2951,24.8854 0.7321,38.94679 0.4496,14.4701 0.3522,27.08361 -0.7572,44.20305 -0.8768,13.52939 -2.2371,25.40829 -3.9281,41.30416 -1.4642,13.76315 -4.3663,29.923 -6.1998,40.82507 -2.1202,12.60743 -6.2569,31.65737 -9.1844,40.96108 -1.7053,5.41972 -4.8287,13.08266 -7.8454,19.06456 -2.0574,4.07969 -6.0158,8.2327 -8.5428,10.71863 -5.7751,5.68123 -11.37257,9.48883 -16.4593,10.87034 -6.09926,1.65652 -14.77766,3.6561 -23.56264,1.31344 -8.78499,-2.34267 -14.43111,-7.58259 -18.23102,-12.61263 -4.90063,-6.48709 -9.05126,-12.72756 -10.98749,-17.49276 -4.79022,-10.92709 -11.48469,-28.75793 -15.84868,-43.02591 -5.70835,-16.77594 -7.09344,-22.67282 -10.26244,-31.95494 -8.63424,-27.60266 -13.43479,-52.14795 -19.86487,-77.6505 -3.05197,-13.72732 -7.4443,-29.20182 -9.97575,-35.1198 -5.69122,-13.30487 -17.90665,-14.79107 -27.5862,-15.78356 -39.76854,-4.07762 -34.35436,-4.75637 -43.58901,-8.48352 -7.60339,-3.06877 -7.78206,-24.37366 -7.78206,-24.37366 z" id="Right Leg" inkscape:connector-curvature="0" sodipodi:nodetypes="csssssssssssssssccccssscc"/>
    <path style="fill:#cecece;fill-opacity:1;fill-rule:evenodd;stroke:#000000;stroke-width:5.79779577;stroke-linecap:butt;stroke-linejoin:miter;stroke-miterlimit:4;stroke-dasharray:none;stroke-opacity:1" d="m 646.23714,-26.707461 c -15.5563,0.106795 -34.46836,1.649218 -46.86649,3.61394 -18.34434,1.50091 -53.98791,10.984979 -53.98791,10.984979 l -21.04902,6.1709193 c 0,0 -9.31601,3.1965915 -13.85603,5.14232024 -4.59893,2.18153666 -7.07576,5.18266136 -8.47638,8.28161806 -0.41413,1.4494489 -12.16772,26.9214044 -12.16772,26.9214044 -1.29708,2.712209 -2.88197,4.650377 -5.35832,6.006458 -2.36569,1.351722 -12.36539,3.21918 -20.85502,4.20273 l -63.99526,8.333856 c -12.02799,1.886754 -34.85763,8.11114 -51.65013,18.277992 -17.33453,10.495054 -23.53055,17.388796 -36.20196,30.777824 -12.66688,13.38429 -24.17411,33.84369 -28.18343,47.16887 -4.55637,15.14324 -8.60797,34.55114 -8.60797,44.57451 0,13.20725 -0.94372,36.20204 3.65525,51.17813 3.96511,12.91197 14.9764,35.84775 21.93382,43.8664 6.99466,8.06162 15.22913,17.43969 29.24431,27.35801 9.3491,6.61623 21.88901,10.49176 31.13185,14.15073 9.44721,3.73987 28.40132,7.18907 36.79142,8.49055 11.82565,1.83446 48.11232,7.54709 48.11232,7.54709 0,0 36.33351,4.07556 44.92213,6.07677 9.42223,1.91781 20.663,6.57423 25.83081,9.96028 8.85578,5.80235 17.82161,18.26161 19.81095,22.64127 4.11191,9.05281 6.82238,21.31661 8.70922,26.97685 1.88671,5.66027 36.57272,200.37633 36.57272,200.37633 0,0 12.48475,55.58278 16.98117,68.86671 6.05093,17.87672 12.9888,31.09256 15.81314,35.57191 4.13325,6.5551 11.2127,16.09271 18.1478,21.03034 3.93484,2.80161 12.11345,5.84557 19.02952,6.82818 1.57886,0.14205 4.05973,0.18878 5.75744,0.0336 7.53517,-0.69098 12.18558,-3.28109 16.60628,-6.33363 6.93498,-4.93775 14.01513,-14.47536 18.14838,-21.03046 2.82434,-4.4793 9.76221,-17.69511 15.81326,-35.57186 4.49642,-13.28393 16.98116,-68.86671 16.98116,-68.86671 0,0 34.68531,-194.71606 36.57203,-200.37633 1.88684,-5.66024 4.598,-17.92404 8.70992,-26.97685 1.98922,-4.37966 10.95516,-16.83896 19.81083,-22.6413 5.16781,-3.38602 16.40858,-8.04244 25.83092,-9.96025 8.58851,-2.00121 44.92214,-6.07677 44.92214,-6.07677 0,0 36.28655,-5.71264 48.11231,-7.54709 8.38999,-1.30148 27.15414,-5.272 36.79131,-8.49058 11.91859,-3.98054 24.04148,-8.88971 31.13196,-14.15072 13.78855,-10.23098 22.2495,-19.29637 29.24423,-27.35798 6.9574,-8.0187 17.9687,-30.95447 21.9338,-43.86642 4.599,-14.97612 3.6552,-37.97088 3.6552,-51.17813 0,-10.0234 -4.0515,-29.4313 -8.6079,-44.57451 -4.0093,-13.32521 -15.5165,-33.78457 -28.18341,-47.16888 C 982.22636,89.14565 976.03038,82.251908 958.69578,71.756854 941.90339,61.590002 919.07364,55.365616 907.04565,53.478862 l -63.99526,-8.333856 c -15.37373,-1.976619 -18.36437,-3.218577 -20.8549,-4.20273 -2.47647,-1.356081 -4.06124,-3.294249 -5.35844,-6.006458 L 804.66875,8.0144136 C 803.37155,5.9507809 800.792,1.9143322 796.19307,-0.26720442 791.65305,-2.2129331 782.33703,-5.4095247 782.33703,-5.4095247 L 761.2879,-11.580444 c 0,0 -35.64346,-9.48408 -53.98791,-10.984979 -17.56976,-2.429219 -34.91978,-3.602275 -50.95046,-3.973786 -3.11121,-0.140713 -6.52252,-0.192325 -10.11239,-0.167672 z" id="Main" inkscape:connector-curvature="0" sodipodi:nodetypes="ccccccccccsssssssssccssscssscscsscsssccsssssssssccccccccccsc"/>
    <circle style="fill:#505050;fill-opacity:1;stroke:#3a3a3a;stroke-width:5.79779577;stroke-linecap:round;stroke-linejoin:miter;stroke-miterlimit:4;stroke-dasharray:none;stroke-opacity:1" id="path4194" cx="653.33527" cy="389.1423" r="83.488258"/>
    <path sodipodi:type="star" style="fill:#202020;fill-opacity:1;stroke:#303030;stroke-width:5.79779577;stroke-linecap:round;stroke-linejoin:miter;stroke-miterlimit:4;stroke-dasharray:none;stroke-opacity:1" id="path4196" sodipodi:sides="8" sodipodi:cx="653.33527" sodipodi:cy="389.1423" sodipodi:r1="50.693089" sodipodi:r2="46.834309" sodipodi:arg1="0.78539816" sodipodi:arg2="1.1780972" inkscape:flatsided="true" inkscape:rounded="0" inkscape:randomized="0" d="m 689.18069,424.98773 -35.84542,14.84766 -35.84543,-14.84766 -14.84766,-35.84543 14.84766,-35.84542 35.84543,-14.84767 35.84542,14.84767 14.84766,35.84542 z"/>
    <g id="Logo" transform="matrix(0.35277391,0,0,0.35277391,414.22082,13.444299)">
      <path d="m 475.71766,100.73034 h 18.20844 l 25.21167,40.7793 -0.0146,-40.7793 h 18.07712 v 58.47708 h -18.04794 l -25.34299,-40.77931 v 40.77931 h -18.1063 l 0.0146,-58.47708" class="ps02" id="path3361" style="fill:#b2b2b2;fill-opacity:1;fill-rule:nonzero;stroke:none" inkscape:connector-curvature="0"/>
      <path d="m 635.49374,106.74145 h 17.59565 v 7.86406 h 9.51274 v 5.79227 h -9.51274 l 0.0146,38.80964 h -17.62483 l 0.0146,-38.80964 h -9.55651 v -5.77768 h 9.5711 l -0.0146,-7.87865" class="ps02" id="path3363" style="fill:#b2b2b2;fill-opacity:1;fill-rule:nonzero;stroke:none" inkscape:connector-curvature="0"/>
      <path d="m 547.26746,120.32483 h 17.58106 v 38.88259 h -17.58106 v -38.88259" class="ps02" id="path3365" style="fill:#b2b2b2;fill-opacity:1;fill-rule:nonzero;stroke:none" inkscape:connector-curvature="0"/>
      <path d="m 547.22369,100.71575 h 17.62483 v 11.94928 h -17.62483 z" class="ps02" id="path3367" style="fill:#b2b2b2;fill-opacity:1;fill-rule:nonzero;stroke:none" inkscape:connector-curvature="0"/>
      <path d="m 862.50093,139.45243 c 0,0 -0.015,5.87981 -0.015,8.22881 0,6.20079 -3.6621,8.75406 -7.1929,8.75406 -3.5162,0 -7.1929,-2.55327 -7.1929,-8.75406 0,-2.349 0,-8.37471 0,-8.37471 0,0 0.015,-5.76308 0.015,-8.11209 0,-6.1716 3.6767,-8.71028 7.1783,-8.71028 3.5162,0 7.1929,2.53868 7.1929,8.71028 0,2.34901 0,6.71144 0.015,8.27258 v -0.0146 z m -7.0616,-21.783 c -14.1961,0 -25.7077,9.77536 -25.7077,21.82677 0,12.06601 11.5116,21.84137 25.7077,21.84137 14.1962,0 25.6932,-9.77536 25.6932,-21.84137 0,-12.05141 -11.497,-21.82677 -25.6932,-21.82677" class="ps02" id="path3369" style="fill:#b2b2b2;fill-opacity:1;fill-rule:nonzero;stroke:none" inkscape:connector-curvature="0"/>
      <path d="m 806.65013,100.73034 h 17.3622 v 58.47708 h -17.3914 c 0,0 -0.015,-1.89672 -0.015,-2.24688 -6.7261,4.21654 -14.3129,4.20195 -20.2365,1.45901 -1.5757,-0.74409 -12.02221,-5.74849 -12.02221,-19.2881 0,-10.25683 9.68781,-21.47661 22.35201,-20.35317 4.1728,0.36475 7.1492,1.88212 9.9504,3.47244 0,-9.00209 0,-21.52038 0,-21.52038 z m 0.1313,38.83881 c 0,0 0,-4.88768 0,-6.94488 0,-6.02571 -4.1582,-7.55766 -6.8866,-7.55766 -2.8012,0 -6.9011,1.53195 -6.9011,7.55766 0,1.98425 0.015,6.9157 0.015,6.9157 0,0 -0.015,4.8585 -0.015,6.9303 0,5.99652 4.0999,7.57225 6.8866,7.57225 2.7429,0 6.9011,-1.57573 6.9011,-7.57225 0,-2.5095 0,-6.90112 0,-6.90112" class="ps02" id="path3371" style="fill:#b2b2b2;fill-opacity:1;fill-rule:nonzero;stroke:none" inkscape:connector-curvature="0"/>
      <path d="m 606.02176,118.51565 c 6.56554,-0.17508 19.91547,4.129 19.82793,19.52155 -0.0292,2.74293 -0.0146,21.15563 -0.0146,21.15563 h -17.47893 c 0,0 0,-23.09612 0,-25.53266 0,-3.3849 -3.239,-7.16374 -8.02455,-7.16374 -4.80014,0 -8.34553,3.77884 -8.34553,7.16374 0,1.64868 0.0146,25.53266 0.0146,25.53266 h -17.46434 l -0.0146,-38.88259 17.47893,-0.0146 c 0,0 -0.0292,3.13687 0,4.09981 3.35572,-3.20982 8.21422,-5.70472 14.02108,-5.87981" class="ps02" id="path3373" style="fill:#b2b2b2;fill-opacity:1;fill-rule:nonzero;stroke:none" inkscape:connector-curvature="0"/>
      <path d="m 748.93169,118.51565 c 6.58013,-0.17508 19.91547,4.129 19.81334,19.52155 -0.0146,2.74293 0,21.15563 0,21.15563 h -17.46434 c 0,0 0,-23.09612 0,-25.53266 0,-3.3849 -3.25359,-7.16374 -8.03914,-7.16374 -4.78555,0 -8.34553,3.77884 -8.34553,7.16374 0,1.64868 0.0146,25.53266 0.0146,25.53266 h -17.46434 l 0.0146,-38.88259 17.44975,-0.0146 c 0,0 -0.0146,3.13687 0,4.09981 3.37031,-3.20982 8.21422,-5.70472 14.02108,-5.87981" class="ps02" id="path3375" style="fill:#b2b2b2;fill-opacity:1;fill-rule:nonzero;stroke:none" inkscape:connector-curvature="0"/>
      <path d="m 678.9868,133.87902 c -0.0292,-3.41408 0.0438,-5.69014 1.1672,-7.63062 1.37147,-2.39277 3.89556,-3.54539 6.1862,-3.54539 h -0.0146 c 2.30524,0 4.82932,1.15262 6.20079,3.54539 1.10885,1.94048 1.16721,4.21654 1.13803,7.63062 h -14.67763 z m 14.61927,11.73043 c 0,0 0.0146,0.16049 0.0146,2.34901 0,7.11996 -4.68342,8.69569 -7.28046,8.69569 -2.59703,0 -7.3534,-1.57573 -7.3534,-8.69569 0,-2.13016 0.0146,-8.02455 0.0146,-8.02455 0,0 33.1195,0.0146 33.1195,0 0,-12.06601 -11.64289,-22.06022 -25.94118,-22.06022 -14.29829,0 -25.89741,9.77536 -25.89741,21.84137 0,12.05141 11.59912,21.82677 25.89741,21.82677 11.86174,0 21.88514,-6.7698 24.94906,-15.94697 l -17.5227,0.0146" class="ps02" id="path3377" style="fill:#b2b2b2;fill-opacity:1;fill-rule:nonzero;stroke:none" inkscape:connector-curvature="0"/>
      <path d="m 883.87543,105.07818 c 2.8451,0 4.2603,0.96295 4.2603,2.87425 0,1.31311 -0.817,2.30523 -2.1885,2.64081 l 2.2323,4.46456 h -2.6992 l -1.8967,-4.08522 h -1.1964 v 4.08522 h -2.4219 v -9.97962 z m -0.2188,-3.89555 c -4.9753,0 -9.0021,4.04145 -9.0021,9.00208 0,4.97522 4.0268,9.00209 9.0021,9.00209 4.9752,0 9.002,-4.02687 9.002,-9.00209 0,-4.96063 -4.0268,-9.00208 -9.002,-9.00208 z m 7.2804,9.00208 c 0,4.02687 -3.2682,7.28046 -7.2804,7.28046 -4.0269,0 -7.2805,-3.25359 -7.2805,-7.28046 0,-4.01227 3.2536,-7.28045 7.2805,-7.28045 4.0122,0 7.2804,3.26818 7.2804,7.28045 z m -8.5498,-0.67114 h 1.1964 c 1.3861,0 2.0426,-0.42311 2.0426,-1.41524 0,-1.0359 -0.7149,-1.48819 -2.1739,-1.48819 h -1.0651 v 2.90343" class="ps02" id="path3379" style="fill:#b2b2b2;fill-opacity:1;fill-rule:nonzero;stroke:none" inkscape:connector-curvature="0"/>
      <path d="m 491.63545,192.18101 c -39.52455,-0.0146 -65.94721,-28.02755 -65.94721,-61.99328 0,-33.980317 26.48102,-62.314277 65.88885,-62.226737 h 372.45584 c 39.4224,-0.0875 65.9034,28.24642 65.9034,62.226737 0,33.96573 -26.4226,61.97869 -65.9472,61.99328 z m 0.13131,-108.944187 c -31.31033,0.0584 -50.51964,20.980547 -50.51964,46.863367 0,25.86823 19.09259,46.96549 50.51964,46.84877 h 372.09107 c 31.4271,0.11672 50.5109,-20.98054 50.5109,-46.84877 0,-25.88282 -19.2006,-46.805007 -50.5109,-46.863367 H 491.76676" class="ps02" id="path3381" style="fill:#b2b2b2;fill-opacity:1;fill-rule:nonzero;stroke:none" inkscape:connector-curvature="0"/>
    </g>
    <path style="fill:none;fill-rule:evenodd;stroke:#969696;stroke-width:9.27647305;stroke-linecap:butt;stroke-linejoin:miter;stroke-miterlimit:4;stroke-dasharray:none;stroke-opacity:1" d="m 820.99873,235.26804 32.79728,37.48262" id="path4854" inkscape:connector-curvature="0"/>
    <circle style="fill:none;fill-opacity:1;stroke:#969696;stroke-width:4.63823652;stroke-linecap:round;stroke-linejoin:miter;stroke-miterlimit:4;stroke-dasharray:none;stroke-opacity:1" id="path4856" cx="923.60187" cy="176.94296" r="55.65884"/>
    <circle style="fill:#bdbdbd;fill-opacity:1;stroke:#aaaaaa;stroke-width:5.79779577;stroke-linecap:round;stroke-linejoin:miter;stroke-miterlimit:4;stroke-dasharray:none;stroke-opacity:1" id="path4858" cx="408.7576" cy="207.09149" r="84.896301"/>
    <g style="font-style:normal;font-weight:normal;font-size:32.84613419px;line-height:125%;font-family:sans-serif;text-align:center;letter-spacing:0px;word-spacing:0px;text-anchor:middle;fill:#b2b2b2;fill-opacity:1;stroke:none;stroke-width:1px;stroke-linecap:butt;stroke-linejoin:miter;stroke-opacity:1" id="text4860" transform="matrix(0.97557185,0,0,1.0859643,60.124267,-42.420557)">
      <path d="m 893.9584,197.07146 -6.66277,0.0446 -0.0447,-1.28169 c -0.0458,-1.31433 -0.0749,-2.13307 -0.22454,-2.45384 -0.13899,-0.33145 -0.45441,-0.49718 -0.94625,-0.49718 -0.55599,0 -0.90883,0.1978 -1.05852,0.59341 -0.14969,0.39561 -0.22453,1.25097 -0.22453,2.5661 v 12.06069 c 0,1.26167 0.0748,2.08497 0.22453,2.46988 0.14969,0.38491 0.4865,0.57737 1.01041,0.57737 0.50253,0 0.82863,-0.19246 0.97832,-0.57737 0.26385,-0.58424 0.24058,-2.93941 0.24058,-2.93941 l 6.66277,-0.0446 c 0,0 0.27176,0.90996 -0.48809,3.73784 -0.37422,1.12267 -1.21355,2.10635 -2.51799,2.95102 -1.29374,0.84468 -2.89221,1.26702 -4.7954,1.26702 -1.97804,0 -3.60859,-0.35819 -4.89164,-1.07456 -1.28305,-0.71637 -2.13308,-1.70539 -2.55007,-2.96706 -0.41699,-1.27236 -0.62548,-3.1809 -0.62548,-5.72562 v -7.58604 c 0,-1.87112 0.0642,-3.27179 0.19245,-4.202 0.12831,-0.94091 0.50788,-1.84439 1.13871,-2.71045 0.64153,-0.86606 1.52363,-1.54501 2.6463,-2.03684 1.13336,-0.50253 2.43245,-0.75379 3.89727,-0.75379 1.98873,0 3.62997,0.38491 4.92371,1.15474 1.29375,0.76983 2.14377,1.73212 2.55007,2.88687 0.60701,1.14154 0.56481,4.54091 0.56481,4.54091 z" style="font-style:normal;font-variant:normal;font-weight:normal;font-stretch:condensed;line-height:125%;font-family:Impact;-inkscape-font-specification:'Impact Condensed';text-align:center;text-anchor:middle;fill:#b2b2b2;fill-opacity:1" id="path4867" inkscape:connector-curvature="0" sodipodi:nodetypes="ccscscsscscccccsscsscccssccc"/>
    </g>
  </g>
  <g inkscape:groupmode="layer" id="stick" munia:stick-id="0" munia:axis-h="0" munia:axis-v="1" munia:offset-scale="0.5" inkscape:label="Stick" style="display:inline" transform="translate(-250.33896,27.625337)">
    <circle style="fill:#e8e8e8;fill-opacity:1;stroke:#a6a6a6;stroke-width:5.79779577;stroke-linecap:round;stroke-linejoin:miter;stroke-miterlimit:4;stroke-dasharray:none;stroke-opacity:1" id="path4759" cx="653.33527" cy="389.1423" r="36.311283"/>
    <circle style="display:inline;fill:#e8e8e8;fill-opacity:1;stroke:#a6a6a6;stroke-width:2.31911826;stroke-linecap:round;stroke-linejoin:miter;stroke-miterlimit:4;stroke-dasharray:none;stroke-opacity:1" id="path4759-3" cx="653.33527" cy="389.1423" r="27.633423"/>
    <circle style="display:inline;fill:#e8e8e8;fill-opacity:1;stroke:#a6a6a6;stroke-width:2.31911826;stroke-linecap:round;stroke-linejoin:miter;stroke-miterlimit:4;stroke-dasharray:none;stroke-opacity:1" id="path4759-3-6" cx="653.33527" cy="389.1423" r="20.040295"/>
    <circle style="display:inline;fill:#e8e8e8;fill-opacity:1;stroke:#a6a6a6;stroke-width:2.31911826;stroke-linecap:round;stroke-linejoin:miter;stroke-miterlimit:4;stroke-dasharray:none;stroke-opacity:1" id="path4759-3-6-1" cx="653.33527" cy="389.1423" r="11.917103"/>
    <circle style="display:inline;fill:#000000;fill-opacity:1;stroke:none;stroke-width:0.86164039;stroke-linecap:round;stroke-linejoin:miter;stroke-miterlimit:4;stroke-dasharray:none;stroke-opacity:1" id="path4759-3-6-1-8" cx="653.33527" cy="389.1423" r="3.63941"/>
  </g>
  <g inkscape:groupmode="layer" id="layer2" inkscape:label="Buttons" style="display:inline" transform="translate(-250.33896,27.625337)">
    <g id="D-Pad" transform="matrix(1.1595592,0,0,1.1595592,-103.76755,-57.287994)">
      <path inkscape:connector-curvature="0" id="rect4975" d="m 429,169 c -2.216,0 -4,1.784 -4,4 v 38 h -38 c -2.216,0 -4,1.784 -4,4 v 26 c 0,2.216 1.784,4 4,4 h 38 v 38 c 0,2.216 1.784,4 4,4 h 26 c 2.216,0 4,-1.784 4,-4 v -38 h 38 c 2.216,0 4,-1.784 4,-4 v -26 c 0,-2.216 -1.784,-4 -4,-4 h -38 v -38 c 0,-2.216 -1.784,-4 -4,-4 z" style="fill:#505050;fill-opacity:1;stroke:#3a3a3a;stroke-width:3.47896385;stroke-linecap:round;stroke-linejoin:miter;stroke-miterlimit:4;stroke-dasharray:none;stroke-opacity:1"/>
      <path transform="matrix(1.333121,0,0,1.1648522,-723.58091,-7.3001447)" sodipodi:type="star" style="display:inline;fill:#3a3a3a;fill-opacity:1;stroke:none;stroke-width:4;stroke-linecap:round;stroke-linejoin:miter;stroke-miterlimit:4;stroke-dasharray:none;stroke-opacity:1" id="path4869-0" sodipodi:sides="3" sodipodi:cx="845" sodipodi:cy="202" sodipodi:r1="10" sodipodi:r2="5" sodipodi:arg1="3.1415927" sodipodi:arg2="0" inkscape:flatsided="true" inkscape:rounded="0" inkscape:randomized="0" d="m 835,202 15,-8.66025 0,17.3205 z"/>
      <path transform="matrix(-1.333121,0,0,1.1648522,1608.1544,-7.3001447)" sodipodi:type="star" style="display:inline;fill:#3a3a3a;fill-opacity:1;stroke:none;stroke-width:4;stroke-linecap:round;stroke-linejoin:miter;stroke-miterlimit:4;stroke-dasharray:none;stroke-opacity:1" id="path4869-0-4" sodipodi:sides="3" sodipodi:cx="845" sodipodi:cy="202" sodipodi:r1="10" sodipodi:r2="5" sodipodi:arg1="3.1415927" sodipodi:arg2="0" inkscape:flatsided="true" inkscape:rounded="0" inkscape:randomized="0" d="m 835,202 15,-8.66025 0,17.3205 z"/>
      <path transform="matrix(0,-1.333121,-1.1648522,0,677.30014,1394.0116)" sodipodi:type="star" style="display:inline;fill:#3a3a3a;fill-opacity:1;stroke:none;stroke-width:4;stroke-linecap:round;stroke-linejoin:miter;stroke-miterlimit:4;stroke-dasharray:none;stroke-opacity:1" id="path4869-0-4-6" sodipodi:sides="3" sodipodi:cx="845" sodipodi:cy="202" sodipodi:r1="10" sodipodi:r2="5" sodipodi:arg1="3.1415927" sodipodi:arg2="0" inkscape:flatsided="true" inkscape:rounded="0" inkscape:randomized="0" d="m 835,202 15,-8.66025 0,17.3205 z"/>
      <path transform="matrix(0,1.333121,-1.1648522,0,677.30014,-937.44019)" sodipodi:type="star" style="display:inline;fill:#3a3a3a;fill-opacity:1;stroke:none;stroke-width:4;stroke-linecap:round;stroke-linejoin:miter;stroke-miterlimit:4;stroke-dasharray:none;stroke-opacity:1" id="path4869-0-4-6-4" sodipodi:sides="3" sodipodi:cx="845" sodipodi:cy="202" sodipodi:r1="10" sodipodi:r2="5" sodipodi:arg1="3.1415927" sodipodi:arg2="0" inkscape:flatsided="true" inkscape:rounded="0" inkscape:randomized="0" d="m 835,202 15,-8.66025 0,17.3205 z"/>
      <circle r="9.1795883" cy="228" cx="442" id="path4286" style="fill:#3a3a3a;fill-opacity:1;stroke:#3a3a3a;stroke-width:4.56939507;stroke-linecap:round;stroke-linejoin:miter;stroke-miterlimit:4;stroke-dasharray:none;stroke-opacity:1"/>
    </g>
    <g id="Left Pressed" munia:button-id="12" munia:button-state="pressed" transform="matrix(1.1595592,0,0,1.1595592,-103.76755,-57.287994)">
      <path sodipodi:nodetypes="csssscc" style="fill:#ffffff;fill-opacity:1;stroke:#ffffff;stroke-width:3.47896385;stroke-linecap:round;stroke-linejoin:miter;stroke-miterlimit:4;stroke-dasharray:none;stroke-opacity:1" d="m 425,211 h -38 c -2.216,0 -4,1.784 -4,4 v 26 c 0,2.216 1.784,4 4,4 h 38 z" id="rect4975-1" inkscape:connector-curvature="0"/>
      <path d="m 835,202 15,-8.66025 0,17.3205 z" inkscape:randomized="0" inkscape:rounded="0" inkscape:flatsided="true" sodipodi:arg2="0" sodipodi:arg1="3.1415927" sodipodi:r2="5" sodipodi:r1="10" sodipodi:cy="202" sodipodi:cx="845" sodipodi:sides="3" id="path4869-0-8" style="display:inline;fill:#dcdcdc;fill-opacity:1;stroke:none;stroke-width:4;stroke-linecap:round;stroke-linejoin:miter;stroke-miterlimit:4;stroke-dasharray:none;stroke-opacity:1" sodipodi:type="star" transform="matrix(1.333121,0,0,1.1648522,-723.58091,-7.3001447)"/>
    </g>
    <g id="Up Pressed" munia:button-id="10" munia:button-state="pressed" transform="matrix(1.1595592,0,0,1.1595592,-103.76755,-57.287994)">
      <path sodipodi:nodetypes="ssccsss" style="display:inline;fill:#ffffff;fill-opacity:1;stroke:#ffffff;stroke-width:3.47896385;stroke-linecap:round;stroke-linejoin:miter;stroke-miterlimit:4;stroke-dasharray:none;stroke-opacity:1" d="m 429,169 c -2.216,0 -4,1.784 -4,4 v 38 h 34 v -38 c 0,-2.216 -1.784,-4 -4,-4 z" id="rect4975-3" inkscape:connector-curvature="0"/>
      <path d="m 835,202 15,-8.66025 0,17.3205 z" inkscape:randomized="0" inkscape:rounded="0" inkscape:flatsided="true" sodipodi:arg2="0" sodipodi:arg1="3.1415927" sodipodi:r2="5" sodipodi:r1="10" sodipodi:cy="202" sodipodi:cx="845" sodipodi:sides="3" id="path4869-0-4-6-4-5" style="display:inline;fill:#dcdcdc;fill-opacity:1;stroke:none;stroke-width:4;stroke-linecap:round;stroke-linejoin:miter;stroke-miterlimit:4;stroke-dasharray:none;stroke-opacity:1" sodipodi:type="star" transform="matrix(0,1.333121,-1.1648522,0,677.30014,-937.44019)"/>
    </g>
    <g id="Right Pressed" munia:button-id="13" munia:button-state="pressed" transform="matrix(1.1595592,0,0,1.1595592,-103.76755,-57.287994)">
      <path sodipodi:nodetypes="csssscc" style="display:inline;fill:#ffffff;fill-opacity:1;stroke:#ffffff;stroke-width:3.47896385;stroke-linecap:round;stroke-linejoin:miter;stroke-miterlimit:4;stroke-dasharray:none;stroke-opacity:1" d="m 459,245 h 38 c 2.216,0 4,-1.784 4,-4 v -26 c 0,-2.216 -1.784,-4 -4,-4 h -38 z" id="rect4975-3-3" inkscape:connector-curvature="0"/>
      <path d="m 835,202 15,-8.66025 0,17.3205 z" inkscape:randomized="0" inkscape:rounded="0" inkscape:flatsided="true" sodipodi:arg2="0" sodipodi:arg1="3.1415927" sodipodi:r2="5" sodipodi:r1="10" sodipodi:cy="202" sodipodi:cx="845" sodipodi:sides="3" id="path4869-0-4-4" style="display:inline;fill:#dcdcdc;fill-opacity:1;stroke:none;stroke-width:4;stroke-linecap:round;stroke-linejoin:miter;stroke-miterlimit:4;stroke-dasharray:none;stroke-opacity:1" sodipodi:type="star" transform="matrix(-1.333121,0,0,1.1648522,1608.1544,-7.3001495)"/>
    </g>
    <g id="Down Pressed" munia:button-id="11" munia:button-state="pressed" transform="matrix(1.1595592,0,0,1.1595592,-103.76755,-57.287994)">
      <path sodipodi:nodetypes="csssscc" style="display:inline;fill:#ffffff;fill-opacity:1;stroke:#ffffff;stroke-width:3.47896385;stroke-linecap:round;stroke-linejoin:miter;stroke-miterlimit:4;stroke-dasharray:none;stroke-opacity:1" d="m 425,245 v 38 c 0,2.216 1.784,4 4,4 h 26 c 2.216,0 4,-1.784 4,-4 v -38 z" id="rect4975-3-6" inkscape:connector-curvature="0"/>
      <path d="m 835,202 15,-8.66025 0,17.3205 z" inkscape:randomized="0" inkscape:rounded="0" inkscape:flatsided="true" sodipodi:arg2="0" sodipodi:arg1="3.1415927" sodipodi:r2="5" sodipodi:r1="10" sodipodi:cy="202" sodipodi:cx="845" sodipodi:sides="3" id="path4869-0-4-6-3" style="display:inline;fill:#dcdcdc;fill-opacity:1;stroke:none;stroke-width:4;stroke-linecap:round;stroke-linejoin:miter;stroke-miterlimit:4;stroke-dasharray:none;stroke-opacity:1" sodipodi:type="star" transform="matrix(0,-1.333121,-1.1648522,0,677.30014,1394.0116)"/>
    </g>
    <g id="Start" munia:button-id="0" munia:button-state="released" transform="matrix(1.1595592,0,0,1.1595592,-103.76755,-57.287994)">
      <circle r="25" cy="248" cx="653" id="path4754" style="fill:#ff0505;fill-opacity:1;stroke:#c10f0f;stroke-width:5;stroke-linecap:round;stroke-linejoin:miter;stroke-miterlimit:4;stroke-dasharray:none;stroke-opacity:1"/>
      <text transform="scale(0.87630952,1.1411493)" id="text4947" y="224.57195" x="745.00488" style="font-style:normal;font-variant:normal;font-weight:normal;font-stretch:condensed;line-height:0%;font-family:impact;-inkscape-font-specification:'impact Condensed';text-align:center;letter-spacing:0px;word-spacing:0px;writing-mode:lr-tb;text-anchor:middle;fill:#e60000;fill-opacity:1;stroke:none;stroke-width:1px;stroke-linecap:butt;stroke-linejoin:miter;stroke-opacity:1" xml:space="preserve"><tspan y="224.57195" x="745.00488" id="tspan4949" sodipodi:role="line" style="font-size:18.33504486px;line-height:1.25">START</tspan></text>
    </g>
    <g id="A" munia:button-id="3" munia:button-state="released" transform="matrix(1.1595592,0,0,1.1595592,-103.76755,-57.287994)">
      <circle r="27" cy="294" cx="834" id="path4148-4" style="fill:#3e39a6;fill-opacity:1;stroke:#242768;stroke-width:5;stroke-linecap:round;stroke-linejoin:miter;stroke-miterlimit:4;stroke-dasharray:none;stroke-opacity:1"/>
      <text transform="scale(0.94664697,1.05636)" id="text4966" y="290.26297" x="866.53339" style="font-style:normal;font-weight:normal;line-height:0%;font-family:sans-serif;letter-spacing:0px;word-spacing:0px;fill:#232665;fill-opacity:1;stroke:none;stroke-width:1px;stroke-linecap:butt;stroke-linejoin:miter;stroke-opacity:1" xml:space="preserve"><tspan style="font-style:normal;font-variant:normal;font-weight:normal;font-stretch:condensed;font-size:28.4570446px;line-height:1.25;font-family:impact;-inkscape-font-specification:'impact Condensed';fill:#232665;fill-opacity:1" y="290.26297" x="866.53339" id="tspan4968" sodipodi:role="line">A</tspan></text>
    </g>
    <g id="B" munia:button-id="2" munia:button-state="released" transform="matrix(1.1595592,0,0,1.1595592,-103.76755,-57.287994)">
      <circle r="27" cy="243" cx="787" id="path4148" style="fill:#2c7938;fill-opacity:1;stroke:#1f5725;stroke-width:5;stroke-linecap:round;stroke-linejoin:miter;stroke-miterlimit:4;stroke-dasharray:none;stroke-opacity:1"/>
      <text transform="scale(0.93308188,1.0717173)" id="text4957" y="238.42607" x="827.61212" style="font-style:normal;font-variant:normal;font-weight:normal;font-stretch:condensed;line-height:0%;font-family:impact;-inkscape-font-specification:'impact Condensed';letter-spacing:0px;word-spacing:0px;fill:#225e28;fill-opacity:1;stroke:none;stroke-width:1px;stroke-linecap:butt;stroke-linejoin:miter;stroke-opacity:1" xml:space="preserve"><tspan y="238.42607" x="827.61212" id="tspan4959" sodipodi:role="line" style="font-size:28.47081184px;line-height:1.25">B</tspan></text>
    </g>
    <g id="C-Up" munia:button-id="7" munia:button-state="released" style="display:inline" transform="matrix(0,1.1595592,-1.1595592,0,1157.8327,-848.10735)">
      <circle r="19" cy="202" cx="845" id="path4165-5" style="fill:#ffd832;fill-opacity:1;stroke:#d8a105;stroke-width:4;stroke-linecap:round;stroke-linejoin:miter;stroke-miterlimit:4;stroke-dasharray:none;stroke-opacity:1"/>
      <path transform="matrix(1.333121,0,0,1.1648522,-280.05852,-33.300145)" d="m 835,202 15,-8.66025 0,17.3205 z" inkscape:randomized="0" inkscape:rounded="0" inkscape:flatsided="true" sodipodi:arg2="0" sodipodi:arg1="3.1415927" sodipodi:r2="5" sodipodi:r1="10" sodipodi:cy="202" sodipodi:cx="845" sodipodi:sides="3" id="path4869-5" style="fill:#f6c706;fill-opacity:1;stroke:none;stroke-width:4;stroke-linecap:round;stroke-linejoin:miter;stroke-miterlimit:4;stroke-dasharray:none;stroke-opacity:1" sodipodi:type="star"/>
    </g>
    <g id="C-Right" munia:button-id="4" munia:button-state="released" transform="matrix(-1.1595592,0,0,1.1595592,1950.9712,-57.288006)" style="display:inline">
      <circle r="19" cy="202" cx="845" id="path4165-0" style="fill:#ffd832;fill-opacity:1;stroke:#d8a105;stroke-width:4;stroke-linecap:round;stroke-linejoin:miter;stroke-miterlimit:4;stroke-dasharray:none;stroke-opacity:1"/>
      <path transform="matrix(1.333121,0,0,1.1648522,-280.05852,-33.300145)" d="m 835,202 15,-8.66025 0,17.3205 z" inkscape:randomized="0" inkscape:rounded="0" inkscape:flatsided="true" sodipodi:arg2="0" sodipodi:arg1="3.1415927" sodipodi:r2="5" sodipodi:r1="10" sodipodi:cy="202" sodipodi:cx="845" sodipodi:sides="3" id="path4869-6" style="fill:#f6c706;fill-opacity:1;stroke:none;stroke-width:4;stroke-linecap:round;stroke-linejoin:miter;stroke-miterlimit:4;stroke-dasharray:none;stroke-opacity:1" sodipodi:type="star"/>
    </g>
    <g id="C-Left" munia:button-id="5" munia:button-state="released" transform="matrix(1.1595592,0,0,1.1595592,-103.76755,-57.287994)">
      <circle r="19" cy="202" cx="845" id="path4165" style="fill:#ffd832;fill-opacity:1;stroke:#d8a105;stroke-width:4;stroke-linecap:round;stroke-linejoin:miter;stroke-miterlimit:4;stroke-dasharray:none;stroke-opacity:1"/>
      <path transform="matrix(1.333121,0,0,1.1648522,-280.05852,-33.300145)" d="m 835,202 15,-8.66025 0,17.3205 z" inkscape:randomized="0" inkscape:rounded="0" inkscape:flatsided="true" sodipodi:arg2="0" sodipodi:arg1="3.1415927" sodipodi:r2="5" sodipodi:r1="10" sodipodi:cy="202" sodipodi:cx="845" sodipodi:sides="3" id="path4869" style="fill:#f6c706;fill-opacity:1;stroke:none;stroke-width:4;stroke-linecap:round;stroke-linejoin:miter;stroke-miterlimit:4;stroke-dasharray:none;stroke-opacity:1" sodipodi:type="star"/>
    </g>
    <g id="C-Down" munia:button-id="6" munia:button-state="released" style="display:inline" transform="matrix(0,-1.1595592,-1.1595592,0,1157.8327,1201.9933)">
      <circle r="19" cy="202" cx="845" id="path4165-5-8" style="fill:#ffd832;fill-opacity:1;stroke:#d8a105;stroke-width:4;stroke-linecap:round;stroke-linejoin:miter;stroke-miterlimit:4;stroke-dasharray:none;stroke-opacity:1"/>
      <path transform="matrix(1.333121,0,0,1.1648522,-280.05852,-33.300145)" d="m 835,202 15,-8.66025 0,17.3205 z" inkscape:randomized="0" inkscape:rounded="0" inkscape:flatsided="true" sodipodi:arg2="0" sodipodi:arg1="3.1415927" sodipodi:r2="5" sodipodi:r1="10" sodipodi:cy="202" sodipodi:cx="845" sodipodi:sides="3" id="path4869-5-7" style="fill:#f6c706;fill-opacity:1;stroke:none;stroke-width:4;stroke-linecap:round;stroke-linejoin:miter;stroke-miterlimit:4;stroke-dasharray:none;stroke-opacity:1" sodipodi:type="star"/>
    </g>
    <g id="Start Pressed" munia:button-id="0" munia:button-state="pressed" transform="matrix(1.1595592,0,0,1.1595592,-103.76755,-57.287994)" style="display:inline">
      <circle r="25" cy="248" cx="653" id="path4754-3" style="fill:#ff9292;fill-opacity:1;stroke:#ff9292;stroke-width:5;stroke-linecap:round;stroke-linejoin:miter;stroke-miterlimit:4;stroke-dasharray:none;stroke-opacity:1"/>
      <text transform="scale(0.87630952,1.1411493)" id="text4947-9" y="224.57195" x="745.00488" style="font-style:normal;font-variant:normal;font-weight:normal;font-stretch:condensed;line-height:0%;font-family:impact;-inkscape-font-specification:'impact Condensed';text-align:center;letter-spacing:0px;word-spacing:0px;writing-mode:lr-tb;text-anchor:middle;fill:#ff6464;fill-opacity:1;stroke:none;stroke-width:1px;stroke-linecap:butt;stroke-linejoin:miter;stroke-opacity:1" xml:space="preserve"><tspan y="224.57195" x="745.00488" id="tspan4949-1" sodipodi:role="line" style="font-size:18.33504486px;line-height:1.25">START</tspan></text>
    </g>
    <g id="A Pressed" munia:button-id="3" munia:button-state="pressed" transform="matrix(1.1595592,0,0,1.1595592,-103.76755,-57.287994)" style="display:inline">
      <circle r="27" cy="294" cx="834" id="path4148-4-3" style="fill:#807de5;fill-opacity:1;stroke:#807de5;stroke-width:5;stroke-linecap:round;stroke-linejoin:miter;stroke-miterlimit:4;stroke-dasharray:none;stroke-opacity:1"/>
      <text transform="scale(0.94664697,1.05636)" id="text4966-6" y="290.26297" x="866.53339" style="font-style:normal;font-weight:normal;line-height:0%;font-family:sans-serif;letter-spacing:0px;word-spacing:0px;fill:#5257c3;fill-opacity:1;stroke:none;stroke-width:1px;stroke-linecap:butt;stroke-linejoin:miter;stroke-opacity:1" xml:space="preserve"><tspan style="font-style:normal;font-variant:normal;font-weight:normal;font-stretch:condensed;font-size:28.4570446px;line-height:1.25;font-family:impact;-inkscape-font-specification:'impact Condensed';fill:#5257c3;fill-opacity:1" y="290.26297" x="866.53339" id="tspan4968-0" sodipodi:role="line">A</tspan></text>
    </g>
    <g id="B Pressed" munia:button-id="2" munia:button-state="pressed" transform="matrix(1.1595592,0,0,1.1595592,-103.76755,-57.287994)" style="display:inline">
      <circle r="27" cy="243" cx="787" id="path4148-9" style="fill:#70d37f;fill-opacity:1;stroke:#70d37f;stroke-width:5;stroke-linecap:round;stroke-linejoin:miter;stroke-miterlimit:4;stroke-dasharray:none;stroke-opacity:1"/>
      <text transform="scale(0.93308188,1.0717173)" id="text4957-9" y="238.42607" x="827.61212" style="font-style:normal;font-variant:normal;font-weight:normal;font-stretch:condensed;line-height:0%;font-family:impact;-inkscape-font-specification:'impact Condensed';letter-spacing:0px;word-spacing:0px;fill:#43b74e;fill-opacity:1;stroke:none;stroke-width:1px;stroke-linecap:butt;stroke-linejoin:miter;stroke-opacity:1" xml:space="preserve"><tspan y="238.42607" x="827.61212" id="tspan4959-4" sodipodi:role="line" style="font-size:28.47081184px;line-height:1.25">B</tspan></text>
    </g>
    <g id="C-Up Pressed" munia:button-id="7" munia:button-state="pressed" style="display:inline" transform="matrix(0,1.1595592,-1.1595592,0,1157.8327,-848.10735)">
      <circle r="19" cy="202" cx="845" id="path4165-5-5" style="fill:#ffeea2;fill-opacity:1;stroke:#ffeea2;stroke-width:4;stroke-linecap:round;stroke-linejoin:miter;stroke-miterlimit:4;stroke-dasharray:none;stroke-opacity:1"/>
      <path transform="matrix(1.333121,0,0,1.1648522,-280.05852,-33.300145)" d="m 835,202 15,-8.66025 0,17.3205 z" inkscape:randomized="0" inkscape:rounded="0" inkscape:flatsided="true" sodipodi:arg2="0" sodipodi:arg1="3.1415927" sodipodi:r2="5" sodipodi:r1="10" sodipodi:cy="202" sodipodi:cx="845" sodipodi:sides="3" id="path4869-5-9" style="fill:#fbdd63;fill-opacity:1;stroke:none;stroke-width:4;stroke-linecap:round;stroke-linejoin:miter;stroke-miterlimit:4;stroke-dasharray:none;stroke-opacity:1" sodipodi:type="star"/>
    </g>
    <g id="C-Right Pressed" munia:button-id="4" munia:button-state="pressed" transform="matrix(-1.1595592,0,0,1.1595592,1950.9712,-57.288006)" style="display:inline">
      <circle r="19" cy="202" cx="845" id="path4165-0-4" style="fill:#ffeea2;fill-opacity:1;stroke:#ffeea2;stroke-width:4;stroke-linecap:round;stroke-linejoin:miter;stroke-miterlimit:4;stroke-dasharray:none;stroke-opacity:1"/>
      <path transform="matrix(1.333121,0,0,1.1648522,-280.05852,-33.300145)" d="m 835,202 15,-8.66025 0,17.3205 z" inkscape:randomized="0" inkscape:rounded="0" inkscape:flatsided="true" sodipodi:arg2="0" sodipodi:arg1="3.1415927" sodipodi:r2="5" sodipodi:r1="10" sodipodi:cy="202" sodipodi:cx="845" sodipodi:sides="3" id="path4869-6-7" style="fill:#fbdd63;fill-opacity:1;stroke:none;stroke-width:4;stroke-linecap:round;stroke-linejoin:miter;stroke-miterlimit:4;stroke-dasharray:none;stroke-opacity:1" sodipodi:type="star"/>
    </g>
    <g id="C-Left Pressed" munia:button-id="5" munia:button-state="pressed" transform="matrix(1.1595592,0,0,1.1595592,-103.76755,-57.287994)" style="display:inline">
      <circle r="19" cy="202" cx="845" id="path4165-2" style="fill:#ffeea2;fill-opacity:1;stroke:#ffeea2;stroke-width:4;stroke-linecap:round;stroke-linejoin:miter;stroke-miterlimit:4;stroke-dasharray:none;stroke-opacity:1"/>
      <path transform="matrix(1.333121,0,0,1.1648522,-280.05852,-33.300145)" d="m 835,202 15,-8.66025 0,17.3205 z" inkscape:randomized="0" inkscape:rounded="0" inkscape:flatsided="true" sodipodi:arg2="0" sodipodi:arg1="3.1415927" sodipodi:r2="5" sodipodi:r1="10" sodipodi:cy="202" sodipodi:cx="845" sodipodi:sides="3" id="path4869-63" style="fill:#fbdd63;fill-opacity:1;stroke:none;stroke-width:4;stroke-linecap:round;stroke-linejoin:miter;stroke-miterlimit:4;stroke-dasharray:none;stroke-opacity:1" sodipodi:type="star"/>
    </g>
    <g id="C-Down Pressed" munia:button-id="6" munia:button-state="pressed" style="display:inline" transform="matrix(0,-1.1595592,-1.1595592,0,1157.8327,1201.9933)">
      <circle r="19" cy="202" cx="845" id="path4165-5-8-4" style="fill:#ffeea2;fill-opacity:1;stroke:#ffeea2;stroke-width:4;stroke-linecap:round;stroke-linejoin:miter;stroke-miterlimit:4;stroke-dasharray:none;stroke-opacity:1"/>
      <path transform="matrix(1.333121,0,0,1.1648522,-280.05852,-33.300145)" d="m 835,202 15,-8.66025 0,17.3205 z" inkscape:randomized="0" inkscape:rounded="0" inkscape:flatsided="true" sodipodi:arg2="0" sodipodi:arg1="3.1415927" sodipodi:r2="5" sodipodi:r1="10" sodipodi:cy="202" sodipodi:cx="845" sodipodi:sides="3" id="path4869-5-7-9" style="fill:#fbdd63;fill-opacity:1;stroke:none;stroke-width:4;stroke-linecap:round;stroke-linejoin:miter;stroke-miterlimit:4;stroke-dasharray:none;stroke-opacity:1" sodipodi:type="star"/>
    </g>
  </g>
</svg>
