<?xml version="1.0" encoding="UTF-8" standalone="no"?>
<svg xmlns:munia="http://www.munia.io/namespaces/munia" xmlns:dc="http://purl.org/dc/elements/1.1/" xmlns:cc="http://creativecommons.org/ns#" xmlns:rdf="http://www.w3.org/1999/02/22-rdf-syntax-ns#" xmlns:svg="http://www.w3.org/2000/svg" xmlns="http://www.w3.org/2000/svg" xmlns:xlink="http://www.w3.org/1999/xlink" xmlns:sodipodi="http://sodipodi.sourceforge.net/DTD/sodipodi-0.dtd" xmlns:inkscape="http://www.inkscape.org/namespaces/inkscape" viewBox="0 0 1279.9999 719.99999" id="svg2" version="1.1" inkscape:version="0.91 r13725" sodipodi:docname="n64.svg">
  <defs id="defs107">
    <linearGradient id="linearGradient4240">
      <stop style="stop-color:#ff0000;stop-opacity:1;" offset="0" id="stop4242"/>
      <stop id="stop4248" offset="0.52922076" style="stop-color:#ff0000;stop-opacity:1;"/>
      <stop style="stop-color:#ffffff;stop-opacity:0;" offset="1" id="stop4244"/>
    </linearGradient>
    <radialGradient inkscape:collect="always" xlink:href="#linearGradient4240" id="radialGradient4246" cx="553.20258" cy="375.94775" fx="553.20258" fy="375.94775" r="87.843132" gradientUnits="userSpaceOnUse" gradientTransform="translate(3.1372546,1.1104175e-7)"/>
  </defs>
  <sodipodi:namedview pagecolor="#ffffff" bordercolor="#666666" borderopacity="1" objecttolerance="10" gridtolerance="10" guidetolerance="10" inkscape:pageopacity="0" inkscape:pageshadow="2" inkscape:window-width="1680" inkscape:window-height="1027" id="namedview105" showgrid="false" inkscape:zoom="0.95625009" inkscape:cx="633.05691" inkscape:cy="384.65166" inkscape:window-x="-8" inkscape:window-y="-8" inkscape:window-maximized="1" inkscape:current-layer="layer3"/>
  <munia:info munia:skin-name="N64" munia:device-name="NinHID N64"/>
  <g inkscape:groupmode="layer" id="layer5" inkscape:label="Triggers" style="display:inline">
    <path id="L" munia:button-id="4" munia:button-state="released" style="fill:#505050;fill-opacity:1;fill-rule:evenodd;stroke:#000000;stroke-width:5;stroke-linecap:butt;stroke-linejoin:miter;stroke-miterlimit:4;stroke-dasharray:none;stroke-opacity:1" d="m 528.81353,72.857141 -16.07143,1.428572 -74.64286,10.714285 c 0,0 -34.46429,4.107141 -62.14286,25.000002 -2.5,1.25 -1.78571,10.35715 -1.78571,10.35715 l 152.5,-30.714294 z" inkscape:connector-curvature="0" sodipodi:nodetypes="ccccccc"/>
    <path id="R" munia:button-id="5" munia:button-state="released" style="fill:#505050;fill-opacity:1;fill-rule:evenodd;stroke:#000000;stroke-width:5;stroke-linecap:butt;stroke-linejoin:miter;stroke-miterlimit:4;stroke-dasharray:none;stroke-opacity:1" d="m 777.49993,72.857136 16.07143,1.428572 74.64286,10.714285 c 0,0 34.46429,4.107141 62.14286,24.999997 2.5,1.25 1.78571,10.35715 1.78571,10.35715 l -152.5,-30.714289 z" inkscape:connector-curvature="0" sodipodi:nodetypes="ccccccc"/>
    <path id="L Pressed" munia:button-id="4" munia:button-state="pressed" style="fill:#ff0000;fill-opacity:1;fill-rule:evenodd;stroke:#ff0000;stroke-width:5;stroke-linecap:butt;stroke-linejoin:miter;stroke-miterlimit:4;stroke-dasharray:none;stroke-opacity:1" d="m 528.81353,72.857141 -16.07143,1.428572 -74.64286,10.714285 c 0,0 -34.46429,4.107141 -62.14286,25.000002 -2.5,1.25 -1.78571,10.35715 -1.78571,10.35715 l 152.5,-30.714294 z" inkscape:connector-curvature="0" sodipodi:nodetypes="ccccccc"/>
    <path id="R Pressed" munia:button-id="5" munia:button-state="pressed" style="fill:#ff0000;fill-opacity:1;fill-rule:evenodd;stroke:#ff0000;stroke-width:5;stroke-linecap:butt;stroke-linejoin:miter;stroke-miterlimit:4;stroke-dasharray:none;stroke-opacity:1" d="m 777.49993,72.857141 16.07143,1.428572 74.64286,10.714285 c 0,0 34.46429,4.107141 62.14286,25.000002 2.5,1.25 1.78571,10.35715 1.78571,10.35715 l -152.5,-30.714294 z" inkscape:connector-curvature="0" sodipodi:nodetypes="ccccccc"/>
  </g>
  <g id="Z" munia:button-id="2" munia:button-state="pressed" inkscape:groupmode="layer" inkscape:label="Z">
    <circle style="color:#000000;clip-rule:nonzero;display:inline;overflow:visible;visibility:visible;opacity:1;isolation:auto;mix-blend-mode:normal;color-interpolation:sRGB;color-interpolation-filters:linearRGB;solid-color:#000000;solid-opacity:1;fill:url(#radialGradient4246);fill-opacity:1;fill-rule:nonzero;stroke:none;stroke-width:4;stroke-linecap:round;stroke-linejoin:miter;stroke-miterlimit:4;stroke-dasharray:none;stroke-dashoffset:0;stroke-opacity:1;color-rendering:auto;image-rendering:auto;shape-rendering:auto;text-rendering:auto;enable-background:accumulate" id="Z Pressed" cx="556.33984" cy="375.94775" r="87.843132"/>
  </g>
  <g inkscape:label="Base" inkscape:groupmode="layer" id="layer1" style="display:inline">
    <path style="fill:#cecece;fill-opacity:1;fill-rule:evenodd;stroke:#000000;stroke-width:5;stroke-linecap:butt;stroke-linejoin:miter;stroke-miterlimit:4;stroke-dasharray:none;stroke-opacity:1" d="m 332.22284,214.50511 c -2.52539,13.13198 -6.4487,24.01433 -8.46901,32.60062 -2.0203,8.5863 -3.03046,12.12183 -5.55584,25.25382 -2.52538,13.13198 -4.7786,24.99064 -6.06091,34.85026 -0.86819,6.67551 -1.378,9.50276 -2.10014,16.28636 -0.66272,6.22545 -1.1192,11.92278 -1.30913,16.29105 -0.50508,11.61676 -0.25451,21.46109 -0.63134,33.58758 -0.38779,12.47897 -0.30376,23.35682 0.65301,38.12057 0.75613,11.6677 1.92924,21.91202 3.3876,35.62057 1.2627,11.86929 3.76545,25.80549 5.34662,35.2074 1.82851,10.87261 5.39598,27.30121 7.92061,35.3247 1.47067,4.67395 4.16426,11.28245 6.76583,16.44122 1.77429,3.51831 5.18805,7.09985 7.36733,9.24371 4.98042,4.89947 9.80765,8.18313 14.19443,9.37454 5.25998,1.42858 12.7442,3.15301 20.32034,1.13271 7.57615,-2.02031 12.44534,-6.5392 15.72237,-10.87709 4.22629,-5.59445 7.80578,-10.97621 9.47558,-15.0857 4.13107,-9.42349 9.90435,-24.80074 13.66784,-37.1054 4.92286,-14.46752 6.11736,-19.55297 8.85029,-27.55784 7.44614,-23.80444 11.58612,-44.97222 17.1314,-66.96553 2.63201,-11.8384 6.41994,-25.18355 8.60305,-30.2872 4.90809,-11.47408 15.44264,-12.75577 23.79025,-13.61169 34.29626,-3.51653 29.62709,-4.10188 37.59102,-7.31616 6.55714,-2.6465 6.71122,-21.01976 6.71122,-21.01976 z" id="Left Leg" inkscape:connector-curvature="0" sodipodi:nodetypes="csssssssssssssssccccssscc"/>
    <path style="fill:#cecece;fill-opacity:1;fill-rule:evenodd;stroke:#000000;stroke-width:5;stroke-linecap:butt;stroke-linejoin:miter;stroke-miterlimit:4;stroke-dasharray:none;stroke-opacity:1" d="m 968.45508,214.50464 c 2.52539,13.13198 6.4487,24.01433 8.46901,32.60062 2.0203,8.5863 3.03046,12.12183 5.55584,25.25382 2.52538,13.13198 4.7786,24.99064 6.06091,34.85026 0.86819,6.67551 1.378,9.50276 2.10014,16.28636 0.66272,6.22545 1.1192,11.92278 1.30913,16.29105 0.50508,11.61676 0.25451,21.46109 0.63134,33.58758 0.38779,12.47897 0.30376,23.35682 -0.65301,38.12057 -0.75613,11.6677 -1.92924,21.91202 -3.3876,35.62057 -1.2627,11.86929 -3.76545,25.80549 -5.34662,35.2074 -1.82851,10.87261 -5.39598,27.30121 -7.92061,35.3247 -1.47067,4.67395 -4.16426,11.28245 -6.76583,16.44122 -1.77429,3.51831 -5.18805,7.09985 -7.36733,9.24371 -4.98042,4.89947 -9.80765,8.18313 -14.19443,9.37454 -5.25998,1.42858 -12.7442,3.15301 -20.32034,1.13271 -7.57615,-2.02031 -12.44534,-6.5392 -15.72237,-10.87709 -4.22629,-5.59445 -7.80578,-10.97621 -9.47558,-15.0857 -4.13107,-9.42349 -9.90436,-24.80074 -13.66785,-37.1054 -4.92286,-14.46752 -6.11736,-19.55297 -8.85029,-27.55784 -7.44614,-23.80444 -11.58612,-44.97222 -17.1314,-66.96553 -2.63201,-11.8384 -6.41994,-25.18355 -8.60305,-30.2872 -4.90809,-11.47408 -15.44264,-12.75577 -23.79025,-13.61169 -34.29626,-3.51653 -29.62709,-4.10188 -37.59102,-7.31616 -6.55714,-2.6465 -6.71122,-21.01976 -6.71122,-21.01976 z" id="Right Leg" inkscape:connector-curvature="0" sodipodi:nodetypes="csssssssssssssssccccssscc"/>
    <path style="fill:#cecece;fill-opacity:1;fill-rule:evenodd;stroke:#000000;stroke-width:5;stroke-linecap:butt;stroke-linejoin:miter;stroke-miterlimit:4;stroke-dasharray:none;stroke-opacity:1" d="m 646.80156,26.37255 c -13.4157,0.0921 -29.7254,1.42228 -40.4175,3.11665 -15.8201,1.29438 -46.559,9.47341 -46.559,9.47341 l -18.1526,5.32178 c 0,0 -8.0341,2.75673 -11.9494,4.43472 -3.9661,1.88135 -6.10211,4.46951 -7.31,7.14204 -0.35714,1.25 -10.4934,23.21693 -10.4934,23.21693 -1.1186,2.339 -2.4854,4.01047 -4.621,5.17995 -2.04016,1.16572 -10.66387,2.77621 -17.9853,3.62442 l -55.1893,7.18709 c -10.3729,1.62713 -30.0611,6.99502 -44.5429,15.76288 -14.94924,9.0509 -20.29267,14.99604 -31.22045,26.54269 -10.92388,11.54257 -20.84767,29.18669 -24.3053,40.67828 -3.9294,13.05948 -7.42348,29.79679 -7.42348,38.44091 0,11.38989 -0.81386,31.22052 3.15227,44.13585 3.4195,11.13524 12.9156,30.91498 18.91566,37.83024 6.03217,6.95231 13.13355,15.03993 25.22019,23.59346 8.06264,5.70581 18.87701,9.04806 26.84801,12.20354 8.14724,3.22525 24.4932,6.19983 31.7288,7.32222 10.1984,1.58203 41.4919,6.50859 41.4919,6.50859 0,0 31.3339,3.51475 38.7407,5.24058 8.1257,1.65392 17.8197,5.6696 22.2764,8.58972 7.6372,5.00392 15.3693,15.74875 17.0849,19.52575 3.5461,7.80712 5.8836,18.38338 7.5108,23.26475 1.6271,4.8814 31.5402,172.80388 31.5402,172.80388 0,0 10.7668,47.93441 14.6445,59.39043 5.2183,15.41682 11.2015,26.81412 13.6372,30.67709 3.5645,5.6531 9.6698,13.8783 15.6506,18.1365 3.3934,2.4161 10.4466,5.0412 16.411,5.8886 1.3616,0.1225 3.5011,0.1628 4.9652,0.029 6.4983,-0.5959 10.5088,-2.8296 14.3212,-5.4621 5.9807,-4.2583 12.0866,-12.4835 15.6511,-18.1366 2.4357,-3.86293 8.4189,-15.2602 13.6373,-30.67705 3.8777,-11.45602 14.6445,-59.39043 14.6445,-59.39043 0,0 29.9125,-167.92248 31.5396,-172.80388 1.6272,-4.88137 3.9653,-15.45763 7.5114,-23.26475 1.7155,-3.777 9.4477,-14.52186 17.0848,-19.52578 4.4567,-2.92009 14.1507,-6.93577 22.2765,-8.58969 7.4067,-1.72583 38.7407,-5.24058 38.7407,-5.24058 0,0 31.2934,-4.92656 41.4919,-6.50859 7.2355,-1.12239 23.41764,-4.54655 31.7287,-7.32225 10.27856,-3.4328 20.7333,-7.66645 26.8481,-12.20353 11.8912,-8.82316 19.1879,-16.64113 25.2201,-23.59343 6.0001,-6.9153 15.4962,-26.69503 18.9157,-37.83026 3.9661,-12.91535 3.1522,-32.74596 3.1522,-44.13585 0,-8.64414 -3.494,-25.38145 -7.4234,-38.44091 -3.4576,-11.49161 -13.3814,-29.1357 -24.3053,-40.67828 -10.9278,-11.54665 -16.2712,-17.49179 -31.2205,-26.54269 -14.4817,-8.76786 -34.17,-14.13575 -44.5429,-15.76288 l -55.1893,-7.18709 c -13.25825,-1.70463 -15.83737,-2.77569 -17.9852,-3.62442 -2.1357,-1.16948 -3.5024,-2.84095 -4.6211,-5.17995 l -10.4939,-23.21693 c -1.1187,-1.77967 -3.3433,-5.26069 -7.3094,-7.14204 -3.9153,-1.67799 -11.9494,-4.43472 -11.9494,-4.43472 l -18.1527,-5.32178 c 0,0 -30.7388,-8.17904 -46.559,-9.47341 -15.1521,-2.09495 -30.1147,-3.10659 -43.9395,-3.42698 -2.6831,-0.12135 -5.625,-0.16586 -8.7209,-0.1446 z" id="Main" inkscape:connector-curvature="0" sodipodi:nodetypes="ccccccccccsssssssssccssscssscscsscsssccsssssssssccccccccccsc"/>
    <circle style="fill:#505050;fill-opacity:1;stroke:#3a3a3a;stroke-width:5;stroke-linecap:round;stroke-linejoin:miter;stroke-miterlimit:4;stroke-dasharray:none;stroke-opacity:1" id="path4194" cx="652.92297" cy="385" r="72"/>
    <path sodipodi:type="star" style="fill:#202020;fill-opacity:1;stroke:#303030;stroke-width:5;stroke-linecap:round;stroke-linejoin:miter;stroke-miterlimit:4;stroke-dasharray:none;stroke-opacity:1" id="path4196" sodipodi:sides="8" sodipodi:cx="652.92297" sodipodi:cy="385" sodipodi:r1="43.717552" sodipodi:r2="40.389751" sodipodi:arg1="0.78539816" sodipodi:arg2="1.1780972" inkscape:flatsided="true" inkscape:rounded="0" inkscape:randomized="0" d="M 683.83595,415.91298 652.92297,428.71755 622.01,415.91298 609.20542,385 622.01,354.08702 652.92297,341.28245 683.83595,354.08702 696.64053,385 Z"/>
    <g id="Logo" transform="matrix(0.30423105,0,0,0.30423105,446.71146,60.999295)">
      <path d="m 475.71766,100.73034 18.20844,0 25.21167,40.7793 -0.0146,-40.7793 18.07712,0 0,58.47708 -18.04794,0 -25.34299,-40.77931 0,40.77931 -18.1063,0 0.0146,-58.47708" class="ps02" id="path3361" style="fill:#b2b2b2;fill-opacity:1;fill-rule:nonzero;stroke:none" inkscape:connector-curvature="0"/>
      <path d="m 635.49374,106.74145 17.59565,0 0,7.86406 9.51274,0 0,5.79227 -9.51274,0 0.0146,38.80964 -17.62483,0 0.0146,-38.80964 -9.55651,0 0,-5.77768 9.5711,0 -0.0146,-7.87865" class="ps02" id="path3363" style="fill:#b2b2b2;fill-opacity:1;fill-rule:nonzero;stroke:none" inkscape:connector-curvature="0"/>
      <path d="m 547.26746,120.32483 17.58106,0 0,38.88259 -17.58106,0 0,-38.88259" class="ps02" id="path3365" style="fill:#b2b2b2;fill-opacity:1;fill-rule:nonzero;stroke:none" inkscape:connector-curvature="0"/>
      <path d="m 547.22369,100.71575 17.62483,0 0,11.94928 -17.62483,0 0,-11.94928 z" class="ps02" id="path3367" style="fill:#b2b2b2;fill-opacity:1;fill-rule:nonzero;stroke:none" inkscape:connector-curvature="0"/>
      <path d="m 862.50093,139.45243 c 0,0 -0.015,5.87981 -0.015,8.22881 0,6.20079 -3.6621,8.75406 -7.1929,8.75406 -3.5162,0 -7.1929,-2.55327 -7.1929,-8.75406 0,-2.349 0,-8.37471 0,-8.37471 0,0 0.015,-5.76308 0.015,-8.11209 0,-6.1716 3.6767,-8.71028 7.1783,-8.71028 3.5162,0 7.1929,2.53868 7.1929,8.71028 0,2.34901 0,6.71144 0.015,8.27258 l 0,-0.0146 z m -7.0616,-21.783 c -14.1961,0 -25.7077,9.77536 -25.7077,21.82677 0,12.06601 11.5116,21.84137 25.7077,21.84137 14.1962,0 25.6932,-9.77536 25.6932,-21.84137 0,-12.05141 -11.497,-21.82677 -25.6932,-21.82677" class="ps02" id="path3369" style="fill:#b2b2b2;fill-opacity:1;fill-rule:nonzero;stroke:none" inkscape:connector-curvature="0"/>
      <path d="m 806.65013,100.73034 17.3622,0 0,58.47708 -17.3914,0 c 0,0 -0.015,-1.89672 -0.015,-2.24688 -6.7261,4.21654 -14.3129,4.20195 -20.2365,1.45901 -1.5757,-0.74409 -12.02221,-5.74849 -12.02221,-19.2881 0,-10.25683 9.68781,-21.47661 22.35201,-20.35317 4.1728,0.36475 7.1492,1.88212 9.9504,3.47244 0,-9.00209 0,-21.52038 0,-21.52038 z m 0.1313,38.83881 c 0,0 0,-4.88768 0,-6.94488 0,-6.02571 -4.1582,-7.55766 -6.8866,-7.55766 -2.8012,0 -6.9011,1.53195 -6.9011,7.55766 0,1.98425 0.015,6.9157 0.015,6.9157 0,0 -0.015,4.8585 -0.015,6.9303 0,5.99652 4.0999,7.57225 6.8866,7.57225 2.7429,0 6.9011,-1.57573 6.9011,-7.57225 0,-2.5095 0,-6.90112 0,-6.90112" class="ps02" id="path3371" style="fill:#b2b2b2;fill-opacity:1;fill-rule:nonzero;stroke:none" inkscape:connector-curvature="0"/>
      <path d="m 606.02176,118.51565 c 6.56554,-0.17508 19.91547,4.129 19.82793,19.52155 -0.0292,2.74293 -0.0146,21.15563 -0.0146,21.15563 l -17.47893,0 c 0,0 0,-23.09612 0,-25.53266 0,-3.3849 -3.239,-7.16374 -8.02455,-7.16374 -4.80014,0 -8.34553,3.77884 -8.34553,7.16374 0,1.64868 0.0146,25.53266 0.0146,25.53266 l -17.46434,0 -0.0146,-38.88259 17.47893,-0.0146 c 0,0 -0.0292,3.13687 0,4.09981 3.35572,-3.20982 8.21422,-5.70472 14.02108,-5.87981" class="ps02" id="path3373" style="fill:#b2b2b2;fill-opacity:1;fill-rule:nonzero;stroke:none" inkscape:connector-curvature="0"/>
      <path d="m 748.93169,118.51565 c 6.58013,-0.17508 19.91547,4.129 19.81334,19.52155 -0.0146,2.74293 0,21.15563 0,21.15563 l -17.46434,0 c 0,0 0,-23.09612 0,-25.53266 0,-3.3849 -3.25359,-7.16374 -8.03914,-7.16374 -4.78555,0 -8.34553,3.77884 -8.34553,7.16374 0,1.64868 0.0146,25.53266 0.0146,25.53266 l -17.46434,0 0.0146,-38.88259 17.44975,-0.0146 c 0,0 -0.0146,3.13687 0,4.09981 3.37031,-3.20982 8.21422,-5.70472 14.02108,-5.87981" class="ps02" id="path3375" style="fill:#b2b2b2;fill-opacity:1;fill-rule:nonzero;stroke:none" inkscape:connector-curvature="0"/>
      <path d="m 678.9868,133.87902 c -0.0292,-3.41408 0.0438,-5.69014 1.1672,-7.63062 1.37147,-2.39277 3.89556,-3.54539 6.1862,-3.54539 l -0.0146,0 c 2.30524,0 4.82932,1.15262 6.20079,3.54539 1.10885,1.94048 1.16721,4.21654 1.13803,7.63062 l -14.67763,0 z m 14.61927,11.73043 c 0,0 0.0146,0.16049 0.0146,2.34901 0,7.11996 -4.68342,8.69569 -7.28046,8.69569 -2.59703,0 -7.3534,-1.57573 -7.3534,-8.69569 0,-2.13016 0.0146,-8.02455 0.0146,-8.02455 0,0 33.1195,0.0146 33.1195,0 0,-12.06601 -11.64289,-22.06022 -25.94118,-22.06022 -14.29829,0 -25.89741,9.77536 -25.89741,21.84137 0,12.05141 11.59912,21.82677 25.89741,21.82677 11.86174,0 21.88514,-6.7698 24.94906,-15.94697 l -17.5227,0.0146" class="ps02" id="path3377" style="fill:#b2b2b2;fill-opacity:1;fill-rule:nonzero;stroke:none" inkscape:connector-curvature="0"/>
      <path d="m 883.87543,105.07818 c 2.8451,0 4.2603,0.96295 4.2603,2.87425 0,1.31311 -0.817,2.30523 -2.1885,2.64081 l 2.2323,4.46456 -2.6992,0 -1.8967,-4.08522 -1.1964,0 0,4.08522 -2.4219,0 0,-9.97962 3.9101,0 z m -0.2188,-3.89555 c -4.9753,0 -9.0021,4.04145 -9.0021,9.00208 0,4.97522 4.0268,9.00209 9.0021,9.00209 4.9752,0 9.002,-4.02687 9.002,-9.00209 0,-4.96063 -4.0268,-9.00208 -9.002,-9.00208 z m 7.2804,9.00208 c 0,4.02687 -3.2682,7.28046 -7.2804,7.28046 -4.0269,0 -7.2805,-3.25359 -7.2805,-7.28046 0,-4.01227 3.2536,-7.28045 7.2805,-7.28045 4.0122,0 7.2804,3.26818 7.2804,7.28045 z m -8.5498,-0.67114 1.1964,0 c 1.3861,0 2.0426,-0.42311 2.0426,-1.41524 0,-1.0359 -0.7149,-1.48819 -2.1739,-1.48819 l -1.0651,0 0,2.90343" class="ps02" id="path3379" style="fill:#b2b2b2;fill-opacity:1;fill-rule:nonzero;stroke:none" inkscape:connector-curvature="0"/>
      <path d="m 491.63545,192.18101 c -39.52455,-0.0146 -65.94721,-28.02755 -65.94721,-61.99328 0,-33.980317 26.48102,-62.314277 65.88885,-62.226737 l 372.45584,0 c 39.4224,-0.0875 65.9034,28.24642 65.9034,62.226737 0,33.96573 -26.4226,61.97869 -65.9472,61.99328 l -372.35368,0 z m 0.13131,-108.944187 c -31.31033,0.0584 -50.51964,20.980547 -50.51964,46.863367 0,25.86823 19.09259,46.96549 50.51964,46.84877 l 372.09107,0 c 31.4271,0.11672 50.5109,-20.98054 50.5109,-46.84877 0,-25.88282 -19.2006,-46.805007 -50.5109,-46.863367 l -372.09107,0" class="ps02" id="path3381" style="fill:#b2b2b2;fill-opacity:1;fill-rule:nonzero;stroke:none" inkscape:connector-curvature="0"/>
    </g>
    <path style="fill:none;fill-rule:evenodd;stroke:#969696;stroke-width:8;stroke-linecap:butt;stroke-linejoin:miter;stroke-miterlimit:4;stroke-dasharray:none;stroke-opacity:1" d="m 797.51538,252.29936 28.28427,32.32488" id="path4854" inkscape:connector-curvature="0"/>
    <circle style="fill:none;fill-opacity:1;stroke:#969696;stroke-width:4;stroke-linecap:round;stroke-linejoin:miter;stroke-miterlimit:4;stroke-dasharray:none;stroke-opacity:1" id="path4856" cx="886" cy="202" r="48"/>
    <circle style="fill:#bdbdbd;fill-opacity:1;stroke:#aaaaaa;stroke-width:5;stroke-linecap:round;stroke-linejoin:miter;stroke-miterlimit:4;stroke-dasharray:none;stroke-opacity:1" id="path4858" cx="442" cy="228" r="73.214287"/>
    <g style="font-style:normal;font-weight:normal;font-size:32.84613419px;line-height:125%;font-family:sans-serif;text-align:center;letter-spacing:0px;word-spacing:0px;text-anchor:middle;fill:#b2b2b2;fill-opacity:1;stroke:none;stroke-width:1px;stroke-linecap:butt;stroke-linejoin:miter;stroke-opacity:1" id="text4860" transform="matrix(0.84132994,0,0,0.93653198,141.33976,12.821628)">
      <path d="m 893.9584,197.07146 -6.66277,0.0446 -0.0447,-1.28169 c -0.0458,-1.31433 -0.0749,-2.13307 -0.22454,-2.45384 -0.13899,-0.33145 -0.45441,-0.49718 -0.94625,-0.49718 -0.55599,0 -0.90883,0.1978 -1.05852,0.59341 -0.14969,0.39561 -0.22453,1.25097 -0.22453,2.5661 l 0,12.06069 c 0,1.26167 0.0748,2.08497 0.22453,2.46988 0.14969,0.38491 0.4865,0.57737 1.01041,0.57737 0.50253,0 0.82863,-0.19246 0.97832,-0.57737 0.26385,-0.58424 0.24058,-2.93941 0.24058,-2.93941 l 6.66277,-0.0446 c 0,0 0.27176,0.90996 -0.48809,3.73784 -0.37422,1.12267 -1.21355,2.10635 -2.51799,2.95102 -1.29374,0.84468 -2.89221,1.26702 -4.7954,1.26702 -1.97804,0 -3.60859,-0.35819 -4.89164,-1.07456 -1.28305,-0.71637 -2.13308,-1.70539 -2.55007,-2.96706 -0.41699,-1.27236 -0.62548,-3.1809 -0.62548,-5.72562 l 0,-7.58604 c 0,-1.87112 0.0642,-3.27179 0.19245,-4.202 0.12831,-0.94091 0.50788,-1.84439 1.13871,-2.71045 0.64153,-0.86606 1.52363,-1.54501 2.6463,-2.03684 1.13336,-0.50253 2.43245,-0.75379 3.89727,-0.75379 1.98873,0 3.62997,0.38491 4.92371,1.15474 1.29375,0.76983 2.14377,1.73212 2.55007,2.88687 0.60701,1.14154 0.56481,4.54091 0.56481,4.54091 z" style="font-style:normal;font-variant:normal;font-weight:normal;font-stretch:condensed;line-height:125%;font-family:Impact;-inkscape-font-specification:'Impact Condensed';text-align:center;text-anchor:middle;fill:#b2b2b2;fill-opacity:1" id="path4867" inkscape:connector-curvature="0" sodipodi:nodetypes="ccscscsscscccccsscsscccssccc"/>
    </g>
  </g>
  <g inkscape:groupmode="layer" id="stick" munia:stick-id="0" munia:axis-h="0" munia:axis-v="1" munia:offset-scale="0.6" inkscape:label="Stick" style="display:inline">
    <circle style="fill:#e8e8e8;fill-opacity:1;stroke:#a6a6a6;stroke-width:5;stroke-linecap:round;stroke-linejoin:miter;stroke-miterlimit:4;stroke-dasharray:none;stroke-opacity:1" id="path4759" cx="652.92297" cy="385" r="31.31473"/>
    <circle style="display:inline;fill:#e8e8e8;fill-opacity:1;stroke:#a6a6a6;stroke-width:2;stroke-linecap:round;stroke-linejoin:miter;stroke-miterlimit:4;stroke-dasharray:none;stroke-opacity:1" id="path4759-3" cx="652.92297" cy="385" r="23.830973"/>
    <circle style="display:inline;fill:#e8e8e8;fill-opacity:1;stroke:#a6a6a6;stroke-width:2;stroke-linecap:round;stroke-linejoin:miter;stroke-miterlimit:4;stroke-dasharray:none;stroke-opacity:1" id="path4759-3-6" cx="652.92297" cy="385" r="17.282684"/>
    <circle style="display:inline;fill:#e8e8e8;fill-opacity:1;stroke:#a6a6a6;stroke-width:2;stroke-linecap:round;stroke-linejoin:miter;stroke-miterlimit:4;stroke-dasharray:none;stroke-opacity:1" id="path4759-3-6-1" cx="652.92297" cy="385" r="10.27727"/>
    <circle style="display:inline;fill:#000000;fill-opacity:1;stroke:none;stroke-width:0.74307585;stroke-linecap:round;stroke-linejoin:miter;stroke-miterlimit:4;stroke-dasharray:none;stroke-opacity:1" id="path4759-3-6-1-8" cx="652.92297" cy="385" r="3.1386151"/>
  </g>
  <g inkscape:groupmode="layer" id="layer2" inkscape:label="Buttons" style="display:inline">
    <g id="D-Pad">
      <path inkscape:connector-curvature="0" id="rect4975" d="m 429,169 c -2.216,0 -4,1.784 -4,4 l 0,38 -38,0 c -2.216,0 -4,1.784 -4,4 l 0,26 c 0,2.216 1.784,4 4,4 l 38,0 0,38 c 0,2.216 1.784,4 4,4 l 26,0 c 2.216,0 4,-1.784 4,-4 l 0,-38 38,0 c 2.216,0 4,-1.784 4,-4 l 0,-26 c 0,-2.216 -1.784,-4 -4,-4 l -38,0 0,-38 c 0,-2.216 -1.784,-4 -4,-4 l -26,0 z" style="fill:#505050;fill-opacity:1;stroke:#3a3a3a;stroke-width:3.47896385;stroke-linecap:round;stroke-linejoin:miter;stroke-miterlimit:4;stroke-dasharray:none;stroke-opacity:1"/>
      <path transform="matrix(1.333121,0,0,1.1648522,-723.58091,-7.3001447)" sodipodi:type="star" style="display:inline;fill:#3a3a3a;fill-opacity:1;stroke:none;stroke-width:4;stroke-linecap:round;stroke-linejoin:miter;stroke-miterlimit:4;stroke-dasharray:none;stroke-opacity:1" id="path4869-0" sodipodi:sides="3" sodipodi:cx="845" sodipodi:cy="202" sodipodi:r1="10" sodipodi:r2="5" sodipodi:arg1="3.1415927" sodipodi:arg2="0" inkscape:flatsided="true" inkscape:rounded="0" inkscape:randomized="0" d="m 835,202 15,-8.66025 0,17.3205 z"/>
      <path transform="matrix(-1.333121,0,0,1.1648522,1608.1544,-7.3001447)" sodipodi:type="star" style="display:inline;fill:#3a3a3a;fill-opacity:1;stroke:none;stroke-width:4;stroke-linecap:round;stroke-linejoin:miter;stroke-miterlimit:4;stroke-dasharray:none;stroke-opacity:1" id="path4869-0-4" sodipodi:sides="3" sodipodi:cx="845" sodipodi:cy="202" sodipodi:r1="10" sodipodi:r2="5" sodipodi:arg1="3.1415927" sodipodi:arg2="0" inkscape:flatsided="true" inkscape:rounded="0" inkscape:randomized="0" d="m 835,202 15,-8.66025 0,17.3205 z"/>
      <path transform="matrix(0,-1.333121,-1.1648522,0,677.30014,1394.0116)" sodipodi:type="star" style="display:inline;fill:#3a3a3a;fill-opacity:1;stroke:none;stroke-width:4;stroke-linecap:round;stroke-linejoin:miter;stroke-miterlimit:4;stroke-dasharray:none;stroke-opacity:1" id="path4869-0-4-6" sodipodi:sides="3" sodipodi:cx="845" sodipodi:cy="202" sodipodi:r1="10" sodipodi:r2="5" sodipodi:arg1="3.1415927" sodipodi:arg2="0" inkscape:flatsided="true" inkscape:rounded="0" inkscape:randomized="0" d="m 835,202 15,-8.66025 0,17.3205 z"/>
      <path transform="matrix(0,1.333121,-1.1648522,0,677.30014,-937.44019)" sodipodi:type="star" style="display:inline;fill:#3a3a3a;fill-opacity:1;stroke:none;stroke-width:4;stroke-linecap:round;stroke-linejoin:miter;stroke-miterlimit:4;stroke-dasharray:none;stroke-opacity:1" id="path4869-0-4-6-4" sodipodi:sides="3" sodipodi:cx="845" sodipodi:cy="202" sodipodi:r1="10" sodipodi:r2="5" sodipodi:arg1="3.1415927" sodipodi:arg2="0" inkscape:flatsided="true" inkscape:rounded="0" inkscape:randomized="0" d="m 835,202 15,-8.66025 0,17.3205 z"/>
      <circle r="9.1795883" cy="228" cx="442" id="path4286" style="fill:#3a3a3a;fill-opacity:1;stroke:#3a3a3a;stroke-width:4.56939507;stroke-linecap:round;stroke-linejoin:miter;stroke-miterlimit:4;stroke-dasharray:none;stroke-opacity:1"/>
    </g>
    <g id="Left Pressed" munia:button-id="12" munia:button-state="pressed">
      <path sodipodi:nodetypes="csssscc" style="fill:#ffffff;fill-opacity:1;stroke:#ffffff;stroke-width:3.47896385;stroke-linecap:round;stroke-linejoin:miter;stroke-miterlimit:4;stroke-dasharray:none;stroke-opacity:1" d="m 425,211 -38,0 c -2.216,0 -4,1.784 -4,4 l 0,26 c 0,2.216 1.784,4 4,4 l 38,0 z" id="rect4975-1" inkscape:connector-curvature="0"/>
      <path d="m 835,202 15,-8.66025 0,17.3205 z" inkscape:randomized="0" inkscape:rounded="0" inkscape:flatsided="true" sodipodi:arg2="0" sodipodi:arg1="3.1415927" sodipodi:r2="5" sodipodi:r1="10" sodipodi:cy="202" sodipodi:cx="845" sodipodi:sides="3" id="path4869-0-8" style="display:inline;fill:#dcdcdc;fill-opacity:1;stroke:none;stroke-width:4;stroke-linecap:round;stroke-linejoin:miter;stroke-miterlimit:4;stroke-dasharray:none;stroke-opacity:1" sodipodi:type="star" transform="matrix(1.333121,0,0,1.1648522,-723.58091,-7.3001447)"/>
    </g>
    <g id="Up Pressed" munia:button-id="10" munia:button-state="pressed">
      <path sodipodi:nodetypes="ssccsss" style="display:inline;fill:#ffffff;fill-opacity:1;stroke:#ffffff;stroke-width:3.47896385;stroke-linecap:round;stroke-linejoin:miter;stroke-miterlimit:4;stroke-dasharray:none;stroke-opacity:1" d="m 429,169 c -2.216,0 -4,1.784 -4,4 l 0,38 34,0 0,-38 c 0,-2.216 -1.784,-4 -4,-4 z" id="rect4975-3" inkscape:connector-curvature="0"/>
      <path d="m 835,202 15,-8.66025 0,17.3205 z" inkscape:randomized="0" inkscape:rounded="0" inkscape:flatsided="true" sodipodi:arg2="0" sodipodi:arg1="3.1415927" sodipodi:r2="5" sodipodi:r1="10" sodipodi:cy="202" sodipodi:cx="845" sodipodi:sides="3" id="path4869-0-4-6-4-5" style="display:inline;fill:#dcdcdc;fill-opacity:1;stroke:none;stroke-width:4;stroke-linecap:round;stroke-linejoin:miter;stroke-miterlimit:4;stroke-dasharray:none;stroke-opacity:1" sodipodi:type="star" transform="matrix(0,1.333121,-1.1648522,0,677.30014,-937.44019)"/>
    </g>
    <g id="Right Pressed" munia:button-id="13" munia:button-state="pressed">
      <path sodipodi:nodetypes="csssscc" style="display:inline;fill:#ffffff;fill-opacity:1;stroke:#ffffff;stroke-width:3.47896385;stroke-linecap:round;stroke-linejoin:miter;stroke-miterlimit:4;stroke-dasharray:none;stroke-opacity:1" d="m 459,245 38,0 c 2.216,0 4,-1.784 4,-4 l 0,-26 c 0,-2.216 -1.784,-4 -4,-4 l -38,0 z" id="rect4975-3-3" inkscape:connector-curvature="0"/>
      <path d="m 835,202 15,-8.66025 0,17.3205 z" inkscape:randomized="0" inkscape:rounded="0" inkscape:flatsided="true" sodipodi:arg2="0" sodipodi:arg1="3.1415927" sodipodi:r2="5" sodipodi:r1="10" sodipodi:cy="202" sodipodi:cx="845" sodipodi:sides="3" id="path4869-0-4-4" style="display:inline;fill:#dcdcdc;fill-opacity:1;stroke:none;stroke-width:4;stroke-linecap:round;stroke-linejoin:miter;stroke-miterlimit:4;stroke-dasharray:none;stroke-opacity:1" sodipodi:type="star" transform="matrix(-1.333121,0,0,1.1648522,1608.1544,-7.3001495)"/>
    </g>
    <g id="Down Pressed" munia:button-id="11" munia:button-state="pressed">
      <path sodipodi:nodetypes="csssscc" style="display:inline;fill:#ffffff;fill-opacity:1;stroke:#ffffff;stroke-width:3.47896385;stroke-linecap:round;stroke-linejoin:miter;stroke-miterlimit:4;stroke-dasharray:none;stroke-opacity:1" d="m 425,245 0,38 c 0,2.216 1.784,4 4,4 l 26,0 c 2.216,0 4,-1.784 4,-4 l 0,-38 z" id="rect4975-3-6" inkscape:connector-curvature="0"/>
      <path d="m 835,202 15,-8.66025 0,17.3205 z" inkscape:randomized="0" inkscape:rounded="0" inkscape:flatsided="true" sodipodi:arg2="0" sodipodi:arg1="3.1415927" sodipodi:r2="5" sodipodi:r1="10" sodipodi:cy="202" sodipodi:cx="845" sodipodi:sides="3" id="path4869-0-4-6-3" style="display:inline;fill:#dcdcdc;fill-opacity:1;stroke:none;stroke-width:4;stroke-linecap:round;stroke-linejoin:miter;stroke-miterlimit:4;stroke-dasharray:none;stroke-opacity:1" sodipodi:type="star" transform="matrix(0,-1.333121,-1.1648522,0,677.30014,1394.0116)"/>
    </g>
    <g id="Start" munia:button-id="3" munia:button-state="released">
      <circle r="25" cy="248" cx="653" id="path4754" style="fill:#ff0505;fill-opacity:1;stroke:#c10f0f;stroke-width:5;stroke-linecap:round;stroke-linejoin:miter;stroke-miterlimit:4;stroke-dasharray:none;stroke-opacity:1"/>
      <text transform="scale(0.87630952,1.1411493)" sodipodi:linespacing="125%" id="text4947" y="224.57195" x="745.00488" style="font-style:normal;font-variant:normal;font-weight:normal;font-stretch:condensed;font-size:18.33504486px;line-height:125%;font-family:impact;-inkscape-font-specification:'impact Condensed';text-align:center;letter-spacing:0px;word-spacing:0px;writing-mode:lr-tb;text-anchor:middle;fill:#e60000;fill-opacity:1;stroke:none;stroke-width:1px;stroke-linecap:butt;stroke-linejoin:miter;stroke-opacity:1" xml:space="preserve"><tspan y="224.57195" x="745.00488" id="tspan4949" sodipodi:role="line">START</tspan></text>
    </g>
    <g id="A" munia:button-id="0" munia:button-state="released">
      <circle r="27" cy="294" cx="834" id="path4148-4" style="fill:#3e39a6;fill-opacity:1;stroke:#242768;stroke-width:5;stroke-linecap:round;stroke-linejoin:miter;stroke-miterlimit:4;stroke-dasharray:none;stroke-opacity:1"/>
      <text transform="scale(0.94664697,1.05636)" sodipodi:linespacing="125%" id="text4966" y="290.26297" x="866.53339" style="font-style:normal;font-weight:normal;font-size:28.4570446px;line-height:125%;font-family:sans-serif;letter-spacing:0px;word-spacing:0px;fill:#232665;fill-opacity:1;stroke:none;stroke-width:1px;stroke-linecap:butt;stroke-linejoin:miter;stroke-opacity:1" xml:space="preserve"><tspan style="font-style:normal;font-variant:normal;font-weight:normal;font-stretch:condensed;font-family:impact;-inkscape-font-specification:'impact Condensed';fill:#232665;fill-opacity:1" y="290.26297" x="866.53339" id="tspan4968" sodipodi:role="line">A</tspan></text>
    </g>
    <g id="B" munia:button-id="1" munia:button-state="released">
      <circle r="27" cy="243" cx="787" id="path4148" style="fill:#2c7938;fill-opacity:1;stroke:#1f5725;stroke-width:5;stroke-linecap:round;stroke-linejoin:miter;stroke-miterlimit:4;stroke-dasharray:none;stroke-opacity:1"/>
      <text transform="scale(0.93308188,1.0717173)" sodipodi:linespacing="125%" id="text4957" y="238.42607" x="827.61212" style="font-style:normal;font-variant:normal;font-weight:normal;font-stretch:condensed;font-size:28.47081184px;line-height:125%;font-family:impact;-inkscape-font-specification:'impact Condensed';letter-spacing:0px;word-spacing:0px;fill:#225e28;fill-opacity:1;stroke:none;stroke-width:1px;stroke-linecap:butt;stroke-linejoin:miter;stroke-opacity:1" xml:space="preserve"><tspan y="238.42607" x="827.61212" id="tspan4959" sodipodi:role="line">B</tspan></text>
    </g>
    <g id="C-Up" munia:button-id="6" munia:button-state="released" style="display:inline" transform="matrix(0,1,-1,0,1087.9999,-682.00001)">
      <circle r="19" cy="202" cx="845" id="path4165-5" style="fill:#ffd832;fill-opacity:1;stroke:#d8a105;stroke-width:4;stroke-linecap:round;stroke-linejoin:miter;stroke-miterlimit:4;stroke-dasharray:none;stroke-opacity:1"/>
      <path transform="matrix(1.333121,0,0,1.1648522,-280.05852,-33.300145)" d="m 835,202 15,-8.66025 0,17.3205 z" inkscape:randomized="0" inkscape:rounded="0" inkscape:flatsided="true" sodipodi:arg2="0" sodipodi:arg1="3.1415927" sodipodi:r2="5" sodipodi:r1="10" sodipodi:cy="202" sodipodi:cx="845" sodipodi:sides="3" id="path4869-5" style="fill:#f6c706;fill-opacity:1;stroke:none;stroke-width:4;stroke-linecap:round;stroke-linejoin:miter;stroke-miterlimit:4;stroke-dasharray:none;stroke-opacity:1" sodipodi:type="star"/>
    </g>
    <g id="C-Right" munia:button-id="9" munia:button-state="released" transform="matrix(-1,0,0,1,1771.9999,-1.0813315e-5)" style="display:inline">
      <circle r="19" cy="202" cx="845" id="path4165-0" style="fill:#ffd832;fill-opacity:1;stroke:#d8a105;stroke-width:4;stroke-linecap:round;stroke-linejoin:miter;stroke-miterlimit:4;stroke-dasharray:none;stroke-opacity:1"/>
      <path transform="matrix(1.333121,0,0,1.1648522,-280.05852,-33.300145)" d="m 835,202 15,-8.66025 0,17.3205 z" inkscape:randomized="0" inkscape:rounded="0" inkscape:flatsided="true" sodipodi:arg2="0" sodipodi:arg1="3.1415927" sodipodi:r2="5" sodipodi:r1="10" sodipodi:cy="202" sodipodi:cx="845" sodipodi:sides="3" id="path4869-6" style="fill:#f6c706;fill-opacity:1;stroke:none;stroke-width:4;stroke-linecap:round;stroke-linejoin:miter;stroke-miterlimit:4;stroke-dasharray:none;stroke-opacity:1" sodipodi:type="star"/>
    </g>
    <g id="C-Left" munia:button-id="8" munia:button-state="released">
      <circle r="19" cy="202" cx="845" id="path4165" style="fill:#ffd832;fill-opacity:1;stroke:#d8a105;stroke-width:4;stroke-linecap:round;stroke-linejoin:miter;stroke-miterlimit:4;stroke-dasharray:none;stroke-opacity:1"/>
      <path transform="matrix(1.333121,0,0,1.1648522,-280.05852,-33.300145)" d="m 835,202 15,-8.66025 0,17.3205 z" inkscape:randomized="0" inkscape:rounded="0" inkscape:flatsided="true" sodipodi:arg2="0" sodipodi:arg1="3.1415927" sodipodi:r2="5" sodipodi:r1="10" sodipodi:cy="202" sodipodi:cx="845" sodipodi:sides="3" id="path4869" style="fill:#f6c706;fill-opacity:1;stroke:none;stroke-width:4;stroke-linecap:round;stroke-linejoin:miter;stroke-miterlimit:4;stroke-dasharray:none;stroke-opacity:1" sodipodi:type="star"/>
    </g>
    <g id="C-Down" munia:button-id="7" munia:button-state="released" style="display:inline" transform="matrix(0,-1,-1,0,1087.9999,1086)">
      <circle r="19" cy="202" cx="845" id="path4165-5-8" style="fill:#ffd832;fill-opacity:1;stroke:#d8a105;stroke-width:4;stroke-linecap:round;stroke-linejoin:miter;stroke-miterlimit:4;stroke-dasharray:none;stroke-opacity:1"/>
      <path transform="matrix(1.333121,0,0,1.1648522,-280.05852,-33.300145)" d="m 835,202 15,-8.66025 0,17.3205 z" inkscape:randomized="0" inkscape:rounded="0" inkscape:flatsided="true" sodipodi:arg2="0" sodipodi:arg1="3.1415927" sodipodi:r2="5" sodipodi:r1="10" sodipodi:cy="202" sodipodi:cx="845" sodipodi:sides="3" id="path4869-5-7" style="fill:#f6c706;fill-opacity:1;stroke:none;stroke-width:4;stroke-linecap:round;stroke-linejoin:miter;stroke-miterlimit:4;stroke-dasharray:none;stroke-opacity:1" sodipodi:type="star"/>
    </g>
    <g id="Start Pressed" munia:button-id="3" munia:button-state="pressed" transform="translate(-1.0351563e-6,-8.1331495e-7)" style="display:inline">
      <circle r="25" cy="248" cx="653" id="path4754-3" style="fill:#ff9292;fill-opacity:1;stroke:#ff9292;stroke-width:5;stroke-linecap:round;stroke-linejoin:miter;stroke-miterlimit:4;stroke-dasharray:none;stroke-opacity:1"/>
      <text transform="scale(0.87630952,1.1411493)" sodipodi:linespacing="125%" id="text4947-9" y="224.57195" x="745.00488" style="font-style:normal;font-variant:normal;font-weight:normal;font-stretch:condensed;font-size:18.33504486px;line-height:125%;font-family:impact;-inkscape-font-specification:'impact Condensed';text-align:center;letter-spacing:0px;word-spacing:0px;writing-mode:lr-tb;text-anchor:middle;fill:#ff6464;fill-opacity:1;stroke:none;stroke-width:1px;stroke-linecap:butt;stroke-linejoin:miter;stroke-opacity:1" xml:space="preserve"><tspan y="224.57195" x="745.00488" id="tspan4949-1" sodipodi:role="line">START</tspan></text>
    </g>
    <g id="A Pressed" munia:button-id="0" munia:button-state="pressed" transform="translate(-1.0351563e-6,-8.1331495e-7)" style="display:inline">
      <circle r="27" cy="294" cx="834" id="path4148-4-3" style="fill:#807de5;fill-opacity:1;stroke:#807de5;stroke-width:5;stroke-linecap:round;stroke-linejoin:miter;stroke-miterlimit:4;stroke-dasharray:none;stroke-opacity:1"/>
      <text transform="scale(0.94664697,1.05636)" sodipodi:linespacing="125%" id="text4966-6" y="290.26297" x="866.53339" style="font-style:normal;font-weight:normal;font-size:28.4570446px;line-height:125%;font-family:sans-serif;letter-spacing:0px;word-spacing:0px;fill:#5257c3;fill-opacity:1;stroke:none;stroke-width:1px;stroke-linecap:butt;stroke-linejoin:miter;stroke-opacity:1" xml:space="preserve"><tspan style="font-style:normal;font-variant:normal;font-weight:normal;font-stretch:condensed;font-family:impact;-inkscape-font-specification:'impact Condensed';fill:#5257c3;fill-opacity:1" y="290.26297" x="866.53339" id="tspan4968-0" sodipodi:role="line">A</tspan></text>
    </g>
    <g id="B Pressed" munia:button-id="1" munia:button-state="pressed" transform="translate(-1.0351563e-6,-8.1331495e-7)" style="display:inline">
      <circle r="27" cy="243" cx="787" id="path4148-9" style="fill:#70d37f;fill-opacity:1;stroke:#70d37f;stroke-width:5;stroke-linecap:round;stroke-linejoin:miter;stroke-miterlimit:4;stroke-dasharray:none;stroke-opacity:1"/>
      <text transform="scale(0.93308188,1.0717173)" sodipodi:linespacing="125%" id="text4957-9" y="238.42607" x="827.61212" style="font-style:normal;font-variant:normal;font-weight:normal;font-stretch:condensed;font-size:28.47081184px;line-height:125%;font-family:impact;-inkscape-font-specification:'impact Condensed';letter-spacing:0px;word-spacing:0px;fill:#43b74e;fill-opacity:1;stroke:none;stroke-width:1px;stroke-linecap:butt;stroke-linejoin:miter;stroke-opacity:1" xml:space="preserve"><tspan y="238.42607" x="827.61212" id="tspan4959-4" sodipodi:role="line">B</tspan></text>
    </g>
    <g id="C-Up Pressed" munia:button-id="6" munia:button-state="pressed" style="display:inline" transform="matrix(0,1,-1,0,1087.9999,-682.00001)">
      <circle r="19" cy="202" cx="845" id="path4165-5-5" style="fill:#ffeea2;fill-opacity:1;stroke:#ffeea2;stroke-width:4;stroke-linecap:round;stroke-linejoin:miter;stroke-miterlimit:4;stroke-dasharray:none;stroke-opacity:1"/>
      <path transform="matrix(1.333121,0,0,1.1648522,-280.05852,-33.300145)" d="m 835,202 15,-8.66025 0,17.3205 z" inkscape:randomized="0" inkscape:rounded="0" inkscape:flatsided="true" sodipodi:arg2="0" sodipodi:arg1="3.1415927" sodipodi:r2="5" sodipodi:r1="10" sodipodi:cy="202" sodipodi:cx="845" sodipodi:sides="3" id="path4869-5-9" style="fill:#fbdd63;fill-opacity:1;stroke:none;stroke-width:4;stroke-linecap:round;stroke-linejoin:miter;stroke-miterlimit:4;stroke-dasharray:none;stroke-opacity:1" sodipodi:type="star"/>
    </g>
    <g id="C-Right Pressed" munia:button-id="9" munia:button-state="pressed" transform="matrix(-1,0,0,1,1771.9999,-1.0813315e-5)" style="display:inline">
      <circle r="19" cy="202" cx="845" id="path4165-0-4" style="fill:#ffeea2;fill-opacity:1;stroke:#ffeea2;stroke-width:4;stroke-linecap:round;stroke-linejoin:miter;stroke-miterlimit:4;stroke-dasharray:none;stroke-opacity:1"/>
      <path transform="matrix(1.333121,0,0,1.1648522,-280.05852,-33.300145)" d="m 835,202 15,-8.66025 0,17.3205 z" inkscape:randomized="0" inkscape:rounded="0" inkscape:flatsided="true" sodipodi:arg2="0" sodipodi:arg1="3.1415927" sodipodi:r2="5" sodipodi:r1="10" sodipodi:cy="202" sodipodi:cx="845" sodipodi:sides="3" id="path4869-6-7" style="fill:#fbdd63;fill-opacity:1;stroke:none;stroke-width:4;stroke-linecap:round;stroke-linejoin:miter;stroke-miterlimit:4;stroke-dasharray:none;stroke-opacity:1" sodipodi:type="star"/>
    </g>
    <g id="C-Left Pressed" munia:button-id="8" munia:button-state="pressed" transform="translate(-1.0351563e-6,-8.1331495e-7)" style="display:inline">
      <circle r="19" cy="202" cx="845" id="path4165-2" style="fill:#ffeea2;fill-opacity:1;stroke:#ffeea2;stroke-width:4;stroke-linecap:round;stroke-linejoin:miter;stroke-miterlimit:4;stroke-dasharray:none;stroke-opacity:1"/>
      <path transform="matrix(1.333121,0,0,1.1648522,-280.05852,-33.300145)" d="m 835,202 15,-8.66025 0,17.3205 z" inkscape:randomized="0" inkscape:rounded="0" inkscape:flatsided="true" sodipodi:arg2="0" sodipodi:arg1="3.1415927" sodipodi:r2="5" sodipodi:r1="10" sodipodi:cy="202" sodipodi:cx="845" sodipodi:sides="3" id="path4869-63" style="fill:#fbdd63;fill-opacity:1;stroke:none;stroke-width:4;stroke-linecap:round;stroke-linejoin:miter;stroke-miterlimit:4;stroke-dasharray:none;stroke-opacity:1" sodipodi:type="star"/>
    </g>
    <g id="C-Down Pressed" munia:button-id="7" munia:button-state="pressed" style="display:inline" transform="matrix(0,-1,-1,0,1087.9999,1086)">
      <circle r="19" cy="202" cx="845" id="path4165-5-8-4" style="fill:#ffeea2;fill-opacity:1;stroke:#ffeea2;stroke-width:4;stroke-linecap:round;stroke-linejoin:miter;stroke-miterlimit:4;stroke-dasharray:none;stroke-opacity:1"/>
      <path transform="matrix(1.333121,0,0,1.1648522,-280.05852,-33.300145)" d="m 835,202 15,-8.66025 0,17.3205 z" inkscape:randomized="0" inkscape:rounded="0" inkscape:flatsided="true" sodipodi:arg2="0" sodipodi:arg1="3.1415927" sodipodi:r2="5" sodipodi:r1="10" sodipodi:cy="202" sodipodi:cx="845" sodipodi:sides="3" id="path4869-5-7-9" style="fill:#fbdd63;fill-opacity:1;stroke:none;stroke-width:4;stroke-linecap:round;stroke-linejoin:miter;stroke-miterlimit:4;stroke-dasharray:none;stroke-opacity:1" sodipodi:type="star"/>
    </g>
  </g>
</svg>
