<?xml version="1.0" encoding="UTF-8" standalone="no"?>
<svg xmlns:munia="http://www.munia.io/namespaces/munia" xmlns:dc="http://purl.org/dc/elements/1.1/" xmlns:cc="http://creativecommons.org/ns#" xmlns:rdf="http://www.w3.org/1999/02/22-rdf-syntax-ns#" xmlns:svg="http://www.w3.org/2000/svg" xmlns="http://www.w3.org/2000/svg" xmlns:xlink="http://www.w3.org/1999/xlink" height="775.33002" width="800" version="1.1" id="svg2" viewBox="0 0 800 775.33">
    <metadata id="metadata411">
        <rdf:RDF>
            <cc:Work rdf:about="">
                <dc:format>image/svg+xml</dc:format>
                <dc:type rdf:resource="http://purl.org/dc/dcmitype/StillImage" />
                <dc:title></dc:title>
            </cc:Work>
        </rdf:RDF>
    </metadata>
    <defs id="defs107">
        <linearGradient id="linearGradient4240">
            <stop id="stop4242" offset="0" style="stop-color:#ff0000;stop-opacity:1;" />
            <stop style="stop-color:#ff0000;stop-opacity:1;" offset="0.52922076" id="stop4248" />
            <stop id="stop4244" offset="1" style="stop-color:#ffffff;stop-opacity:0;" />
        </linearGradient>
        <radialGradient gradientTransform="matrix(1.1595592,0,0,1.1595592,-100.12972,-57.287994)" gradientUnits="userSpaceOnUse" r="87.843132" fy="375.94775" fx="553.20258" cy="375.94775" cx="553.20258" id="radialGradient4246" xlink:href="#linearGradient4240" />
    </defs>
    <munia:info munia:device-type="N64" munia:skin-name="N64" />
    <g transform="translate(-250.33896,27.625337)" style="display:inline" id="layer5">
        <path d="m 509.42303,27.194173 -18.63577,1.656514 -86.55281,12.423847 c 0,0 -39.96339,4.762473 -72.05833,28.988982 -2.8989,1.449449 -2.07063,12.009728 -2.07063,12.009728 L 506.93826,46.658203 Z" style="fill:#505050;fill-opacity:1;fill-rule:evenodd;stroke:#000000;stroke-width:5.79779577;stroke-linecap:butt;stroke-linejoin:miter;stroke-miterlimit:4;stroke-dasharray:none;stroke-opacity:1" munia:button-state="released" munia:button-id="9" id="L" />
        <path d="m 797.78963,27.194167 18.63577,1.656514 86.55282,12.423847 c 0,0 39.96338,4.762473 72.05832,28.988976 2.8989,1.449449 2.07064,12.009729 2.07064,12.009729 L 800.2744,46.658197 Z" style="fill:#505050;fill-opacity:1;fill-rule:evenodd;stroke:#000000;stroke-width:5.79779577;stroke-linecap:butt;stroke-linejoin:miter;stroke-miterlimit:4;stroke-dasharray:none;stroke-opacity:1" munia:button-state="released" munia:button-id="8" id="R" />
        <path d="m 509.42303,27.194173 -18.63577,1.656514 -86.55281,12.423847 c 0,0 -39.96339,4.762473 -72.05833,28.988982 -2.8989,1.449449 -2.07063,12.009728 -2.07063,12.009728 L 506.93826,46.658203 Z" style="fill:#ff0000;fill-opacity:1;fill-rule:evenodd;stroke:#ff0000;stroke-width:5.79779577;stroke-linecap:butt;stroke-linejoin:miter;stroke-miterlimit:4;stroke-dasharray:none;stroke-opacity:1" munia:button-state="pressed" munia:button-id="9" id="L Pressed" />
        <path d="m 797.78963,27.194173 18.63577,1.656514 86.55282,12.423847 c 0,0 39.96338,4.762473 72.05832,28.988982 2.8989,1.449449 2.07064,12.009728 2.07064,12.009728 L 800.2744,46.658203 Z" style="fill:#ff0000;fill-opacity:1;fill-rule:evenodd;stroke:#ff0000;stroke-width:5.79779577;stroke-linecap:butt;stroke-linejoin:miter;stroke-miterlimit:4;stroke-dasharray:none;stroke-opacity:1" munia:button-state="pressed" munia:button-id="8" id="R Pressed" />
    </g>
    <g transform="translate(-250.33896,27.625337)" munia:button-state="pressed" munia:z-index="-1" munia:button-id="1" id="Z">
        <circle r="101.85931" cy="378.64566" cx="541.34143" id="Z Pressed" style="color:#000000;clip-rule:nonzero;display:inline;overflow:visible;visibility:visible;opacity:1;isolation:auto;mix-blend-mode:normal;color-interpolation:sRGB;color-interpolation-filters:linearRGB;solid-color:#000000;solid-opacity:1;fill:url(#radialGradient4246);fill-opacity:1;fill-rule:nonzero;stroke:none;stroke-width:4.63823652;stroke-linecap:round;stroke-linejoin:miter;stroke-miterlimit:4;stroke-dasharray:none;stroke-dashoffset:0;stroke-opacity:1;color-rendering:auto;image-rendering:auto;shape-rendering:auto;text-rendering:auto;enable-background:accumulate" />
    </g>
    <g transform="translate(-250.339,27.6253)" style="display:inline" id="layer1">
        <path id="Left Leg" d="m 281.464,191.443 c -2.928,15.228 -7.477,27.846 -9.82,37.803 -2.342,9.956 -3.514,14.056 -6.442,29.283 -2.928,15.227 -5.541,28.978 -7.028,40.411 -1.007,7.741 -1.598,11.019 -2.435,18.885 -0.769,7.219 -1.298,13.825 -1.518,18.89 -0.586,13.471 -0.296,24.886 -0.732,38.947 -0.45,14.47 -0.353,27.084 0.757,44.203 0.877,13.53 2.237,25.409 3.928,41.304 1.464,13.764 4.366,29.923 6.2,40.825 2.12,12.608 6.257,31.658 9.184,40.962 1.705,5.419 4.829,13.082 7.845,19.064 2.058,4.08 6.016,8.233 8.543,10.719 5.775,5.681 11.373,9.489 16.46,10.87 6.099,1.657 14.777,3.656 23.562,1.314 8.785,-2.343 14.431,-7.583 18.231,-12.613 4.901,-6.487 9.051,-12.728 10.988,-17.493 4.79,-10.927 11.484,-28.758 15.848,-43.026 5.709,-16.776 7.094,-22.673 10.263,-31.955 8.634,-27.602 13.435,-52.148 19.865,-77.65 3.052,-13.728 7.444,-29.202 9.975,-35.12 5.692,-13.305 17.907,-14.791 27.587,-15.784 39.768,-4.077 34.354,-4.756 43.589,-8.483 7.603,-3.069 7.782,-24.374 7.782,-24.374 z" style="fill:#cecece;fill-opacity:1;fill-rule:evenodd;stroke:black;stroke-width:5.797796;stroke-linecap:butt;stroke-linejoin:miter;stroke-miterlimit:4;stroke-dasharray:none;stroke-opacity:1" />
        <path id="Right Leg" d="m 1019.21,191.443 c 2.93,15.227 7.48,27.846 9.82,37.802 2.35,9.956 3.52,14.056 6.45,29.283 2.92,15.228 5.54,28.979 7.02,40.411 1.01,7.741 1.6,11.019 2.44,18.885 0.77,7.219 1.3,13.826 1.52,18.891 0.58,13.47 0.29,24.885 0.73,38.947 0.45,14.47 0.35,27.083 -0.76,44.203 -0.87,13.529 -2.23,25.408 -3.93,41.304 -1.46,13.763 -4.36,29.923 -6.2,40.825 -2.12,12.607 -6.25,31.657 -9.18,40.961 -1.71,5.42 -4.83,13.083 -7.85,19.065 -2.05,4.079 -6.01,8.232 -8.54,10.718 -5.77,5.681 -11.371,9.489 -16.458,10.871 -6.099,1.656 -14.777,3.656 -23.562,1.313 -8.785,-2.343 -14.431,-7.583 -18.231,-12.613 -4.901,-6.487 -9.052,-12.727 -10.988,-17.492 -4.79,-10.928 -11.484,-28.758 -15.848,-43.026 -5.709,-16.776 -7.094,-22.673 -10.263,-31.955 -8.634,-27.603 -13.435,-52.148 -19.865,-77.651 -3.052,-13.727 -7.444,-29.202 -9.975,-35.12 -5.692,-13.304 -17.907,-14.791 -27.587,-15.783 -39.768,-4.078 -34.354,-4.756 -43.589,-8.484 -7.603,-3.068 -7.782,-24.373 -7.782,-24.373 z" style="fill:#cecece;fill-opacity:1;fill-rule:evenodd;stroke:black;stroke-width:5.797796;stroke-linecap:butt;stroke-linejoin:miter;stroke-miterlimit:4;stroke-dasharray:none;stroke-opacity:1" />
        <path id="Main" d="m 646.237,-26.7075 c -15.556,0.1068 -34.468,1.6493 -46.866,3.614 -18.345,1.5009 -53.988,10.985 -53.988,10.985 l -21.049,6.17088 c 0,0 -9.316,3.19659 -13.856,5.142318 -4.599,2.181532 -7.076,5.182662 -8.477,8.281622 -0.414,1.44944 -12.167,26.92138 -12.167,26.92138 -1.297,2.7122 -2.882,4.6504 -5.359,6.0065 -2.365,1.3517 -12.365,3.2192 -20.855,4.2027 l -63.995,8.3339 c -12.028,1.8867 -34.858,8.1111 -51.65,18.278 -17.335,10.495 -23.531,17.3888 -36.202,30.7782 -12.667,13.384 -24.174,33.843 -28.184,47.168 -4.556,15.144 -8.607,34.552 -8.607,44.575 0,13.207 -0.944,36.202 3.655,51.178 3.965,12.912 14.976,35.848 21.934,43.866 6.994,8.062 15.229,17.44 29.244,27.358 9.349,6.617 21.889,10.492 31.132,14.151 9.447,3.74 28.401,7.189 36.791,8.491 11.826,1.834 48.112,7.547 48.112,7.547 0,0 36.334,4.075 44.923,6.077 9.422,1.917 20.663,6.574 25.83,9.96 8.856,5.802 17.822,18.262 19.811,22.641 4.112,9.053 6.823,21.317 8.71,26.977 1.886,5.66 36.572,200.376 36.572,200.376 0,0 12.485,55.583 16.981,68.867 6.051,17.877 12.989,31.093 15.814,35.572 4.133,6.555 11.212,16.093 18.147,21.03 3.935,2.802 12.114,5.846 19.03,6.829 1.579,0.142 4.06,0.188 5.757,0.03 7.536,-0.691 12.186,-3.281 16.607,-6.334 6.935,-4.937 14.015,-14.475 18.148,-21.03 2.824,-4.479 9.762,-17.695 15.813,-35.572 4.497,-13.284 16.981,-68.867 16.981,-68.867 0,0 34.686,-194.716 36.572,-200.376 1.887,-5.66 4.598,-17.924 8.71,-26.977 1.99,-4.379 10.956,-16.839 19.811,-22.641 5.168,-3.386 16.409,-8.042 25.831,-9.96 8.589,-2.001 44.922,-6.077 44.922,-6.077 0,0 36.287,-5.713 48.113,-7.547 8.39,-1.302 27.154,-5.272 36.791,-8.491 11.919,-3.98 24.041,-8.889 31.132,-14.15 13.788,-10.231 22.249,-19.297 29.244,-27.358 6.96,-8.019 17.97,-30.955 21.93,-43.867 4.6,-14.976 3.66,-37.971 3.66,-51.178 0,-10.023 -4.05,-29.431 -8.61,-44.574 -4.01,-13.326 -15.52,-33.785 -28.182,-47.169 C 982.226,89.1457 976.03,82.2519 958.696,71.7569 941.903,61.59 919.074,55.3656 907.046,53.4789 L 843.05,45.145 c -15.373,-1.9766 -18.364,-3.2186 -20.855,-4.2027 -2.476,-1.3561 -4.061,-3.2943 -5.358,-6.0065 L 804.669,8.01441 c -1.297,-2.06363 -3.877,-6.10008 -8.476,-8.281614 -4.54,-1.945726 -13.856,-5.142316 -13.856,-5.142316 l -21.049,-6.17088 c 0,0 -35.644,-9.4841 -53.988,-10.985 -17.57,-2.4292 -34.92,-3.6023 -50.95,-3.9738 -3.112,-0.1407 -6.523,-0.1923 -10.113,-0.1677 z" style="fill:#cecece;fill-opacity:1;fill-rule:evenodd;stroke:black;stroke-width:5.797796;stroke-linecap:butt;stroke-linejoin:miter;stroke-miterlimit:4;stroke-dasharray:none;stroke-opacity:1" />
        <circle r="83.4883" cy="389.142" cx="653.335" id="path4194" style="fill:#505050;fill-opacity:1;stroke:#3a3a3a;stroke-width:5.797796;stroke-linecap:round;stroke-linejoin:miter;stroke-miterlimit:4;stroke-dasharray:none;stroke-opacity:1" />
        <path d="m 689.18,424.987 -35.845,14.848 -35.845,-14.848 -14.848,-35.845 14.848,-35.845 35.845,-14.848 35.845,14.848 14.848,35.845 z" id="path4196" style="fill:#202020;fill-opacity:1;stroke:#303030;stroke-width:5.797796;stroke-linecap:round;stroke-linejoin:miter;stroke-miterlimit:4;stroke-dasharray:none;stroke-opacity:1" />
        <g transform="matrix(0.352774,0,0,0.352774,414.221,13.4443)" id="Logo">
            <path style="fill:#b2b2b2;fill-opacity:1;fill-rule:nonzero;stroke:none" id="path3361" class="ps02" d="m 475.718,100.73 h 18.208 l 25.212,40.78 -0.01,-40.78 H 537.2 v 58.477 h -18.048 l -25.343,-40.779 v 40.779 h -18.106 l 0.02,-58.477" />
            <path style="fill:#b2b2b2;fill-opacity:1;fill-rule:nonzero;stroke:none" id="path3363" class="ps02" d="m 635.494,106.741 h 17.595 v 7.865 h 9.513 v 5.792 h -9.513 l 0.01,38.809 h -17.625 l 0.01,-38.809 h -9.557 v -5.778 h 9.571 l -0.01,-7.879" />
            <path style="fill:#b2b2b2;fill-opacity:1;fill-rule:nonzero;stroke:none" id="path3365" class="ps02" d="m 547.267,120.325 h 17.582 v 38.882 h -17.582 v -38.882" />
            <path style="fill:#b2b2b2;fill-opacity:1;fill-rule:nonzero;stroke:none" id="path3367" class="ps02" d="m 547.224,100.716 h 17.625 v 11.949 h -17.625 z" />
            <path style="fill:#b2b2b2;fill-opacity:1;fill-rule:nonzero;stroke:none" id="path3369" class="ps02" d="m 862.501,139.452 c 0,0 -0.01,5.88 -0.01,8.229 0,6.201 -3.662,8.754 -7.193,8.754 -3.516,0 -7.193,-2.553 -7.193,-8.754 0,-2.349 0,-8.374 0,-8.374 0,0 0.01,-5.764 0.01,-8.113 0,-6.171 3.677,-8.71 7.178,-8.71 3.517,0 7.193,2.539 7.193,8.71 0,2.349 0,6.712 0.01,8.273 v -0.02 z m -7.062,-21.783 c -14.196,0 -25.707,9.776 -25.707,21.827 0,12.066 11.511,21.842 25.707,21.842 14.197,0 25.694,-9.776 25.694,-21.842 0,-12.051 -11.497,-21.827 -25.694,-21.827" />
            <path style="fill:#b2b2b2;fill-opacity:1;fill-rule:nonzero;stroke:none" id="path3371" class="ps02" d="m 806.65,100.73 h 17.362 v 58.477 h -17.391 c 0,0 -0.01,-1.896 -0.01,-2.246 -6.726,4.216 -14.313,4.201 -20.237,1.459 -1.575,-0.745 -12.022,-5.749 -12.022,-19.289 0,-10.256 9.688,-21.476 22.352,-20.353 4.173,0.365 7.149,1.882 9.951,3.473 0,-9.002 0,-21.521 0,-21.521 z m 0.131,38.839 c 0,0 0,-4.888 0,-6.945 0,-6.025 -4.158,-7.557 -6.886,-7.557 -2.801,0 -6.901,1.532 -6.901,7.557 0,1.985 0.01,6.916 0.01,6.916 0,0 -0.01,4.858 -0.01,6.93 0,5.997 4.1,7.573 6.886,7.573 2.743,0 6.901,-1.576 6.901,-7.573 0,-2.509 0,-6.901 0,-6.901" />
            <path style="fill:#b2b2b2;fill-opacity:1;fill-rule:nonzero;stroke:none" id="path3373" class="ps02" d="m 606.022,118.516 c 6.565,-0.175 19.915,4.129 19.828,19.521 -0.03,2.743 -0.01,21.156 -0.01,21.156 h -17.479 c 0,0 0,-23.096 0,-25.533 0,-3.385 -3.239,-7.164 -8.024,-7.164 -4.801,0 -8.346,3.779 -8.346,7.164 0,1.649 0.01,25.533 0.01,25.533 h -17.465 l -0.01,-38.883 17.479,-0.01 c 0,0 -0.03,3.137 0,4.099 3.355,-3.209 8.214,-5.704 14.021,-5.879" />
            <path style="fill:#b2b2b2;fill-opacity:1;fill-rule:nonzero;stroke:none" id="path3375" class="ps02" d="m 748.932,118.516 c 6.58,-0.175 19.915,4.129 19.813,19.521 -0.01,2.743 0,21.156 0,21.156 h -17.464 c 0,0 0,-23.096 0,-25.533 0,-3.385 -3.254,-7.164 -8.039,-7.164 -4.786,0 -8.346,3.779 -8.346,7.164 0,1.649 0.01,25.533 0.01,25.533 h -17.465 l 0.01,-38.883 17.45,-0.01 c 0,0 -0.01,3.137 0,4.099 3.37,-3.209 8.214,-5.704 14.021,-5.879" />
            <path style="fill:#b2b2b2;fill-opacity:1;fill-rule:nonzero;stroke:none" id="path3377" class="ps02" d="m 678.987,133.879 c -0.03,-3.414 0.04,-5.69 1.167,-7.631 1.371,-2.392 3.896,-3.545 6.186,-3.545 h -0.01 c 2.305,0 4.829,1.153 6.2,3.545 1.109,1.941 1.168,4.217 1.138,7.631 h -14.677 z m 14.619,11.73 c 0,0 0.01,0.161 0.01,2.349 0,7.12 -4.684,8.696 -7.281,8.696 -2.597,0 -7.353,-1.576 -7.353,-8.696 0,-2.13 0.01,-8.024 0.01,-8.024 0,0 33.12,0.02 33.12,0 0,-12.066 -11.643,-22.06 -25.941,-22.06 -14.299,0 -25.898,9.775 -25.898,21.841 0,12.051 11.599,21.827 25.898,21.827 11.861,0 21.885,-6.77 24.949,-15.947 l -17.523,0.01" />
            <path style="fill:#b2b2b2;fill-opacity:1;fill-rule:nonzero;stroke:none" id="path3379" class="ps02" d="m 883.875,105.078 c 2.846,0 4.261,0.963 4.261,2.874 0,1.314 -0.817,2.306 -2.189,2.641 l 2.233,4.465 h -2.7 l -1.896,-4.085 h -1.197 v 4.085 h -2.422 v -9.98 z m -0.218,-3.895 c -4.976,0 -9.002,4.041 -9.002,9.002 0,4.975 4.026,9.002 9.002,9.002 4.975,0 9.002,-4.027 9.002,-9.002 0,-4.961 -4.027,-9.002 -9.002,-9.002 z m 7.28,9.002 c 0,4.027 -3.268,7.28 -7.28,7.28 -4.027,0 -7.281,-3.253 -7.281,-7.28 0,-4.013 3.254,-7.281 7.281,-7.281 4.012,0 7.28,3.268 7.28,7.281 z m -8.55,-0.671 h 1.197 c 1.386,0 2.042,-0.424 2.042,-1.416 0,-1.036 -0.715,-1.488 -2.174,-1.488 h -1.065 v 2.904" />
            <path style="fill:#b2b2b2;fill-opacity:1;fill-rule:nonzero;stroke:none" id="path3381" class="ps02" d="m 491.635,192.181 c -39.524,-0.02 -65.947,-28.028 -65.947,-61.993 0,-33.9806 26.481,-62.3145 65.889,-62.227 h 372.456 c 39.422,-0.087 65.903,28.2464 65.903,62.227 0,33.965 -26.422,61.978 -65.947,61.993 z m 0.132,-108.9442 c -31.311,0.058 -50.52,20.9802 -50.52,46.8632 0,25.868 19.093,46.966 50.52,46.849 h 372.091 c 31.427,0.117 50.511,-20.981 50.511,-46.849 0,-25.883 -19.201,-46.8048 -50.511,-46.8632 H 491.767" />
        </g>
        <path id="path4854" d="m 820.999,235.268 32.797,37.483" style="fill:none;fill-rule:evenodd;stroke:#969696;stroke-width:9.276473;stroke-linecap:butt;stroke-linejoin:miter;stroke-miterlimit:4;stroke-dasharray:none;stroke-opacity:1" />
        <circle r="55.6588" cy="176.943" cx="923.602" id="path4856" style="fill:none;fill-opacity:1;stroke:#969696;stroke-width:4.638237;stroke-linecap:round;stroke-linejoin:miter;stroke-miterlimit:4;stroke-dasharray:none;stroke-opacity:1" />
        <circle r="84.8963" cy="207.091" cx="408.758" id="path4858" style="fill:#bdbdbd;fill-opacity:1;stroke:#aaa;stroke-width:5.797796;stroke-linecap:round;stroke-linejoin:miter;stroke-miterlimit:4;stroke-dasharray:none;stroke-opacity:1" />
        <g transform="matrix(0.975572,0,0,1.08596,60.1243,-42.4206)" id="text4860" style="font-style:normal;font-weight:normal;font-size:32.846134px;line-height:125%;font-family:sans-serif;text-align:center;letter-spacing:0px;word-spacing:0px;text-anchor:middle;fill:#b2b2b2;fill-opacity:1;stroke:none;stroke-width:1px;stroke-linecap:butt;stroke-linejoin:miter;stroke-opacity:1">
            <path id="path4867" style="font-style:normal;font-variant:normal;font-weight:normal;font-stretch:condensed;line-height:125%;font-family:Impact;-inkscape-font-specification:'Impact Condensed';text-align:center;text-anchor:middle;fill:#b2b2b2;fill-opacity:1" d="m 893.958,197.071 -6.662,0.05 -0.05,-1.282 c -0.05,-1.314 -0.07,-2.133 -0.225,-2.453 -0.139,-0.332 -0.454,-0.498 -0.946,-0.498 -0.556,0 -0.909,0.198 -1.058,0.594 -0.15,0.395 -0.225,1.251 -0.225,2.566 v 12.061 c 0,1.261 0.07,2.085 0.225,2.469 0.149,0.385 0.486,0.578 1.01,0.578 0.503,0 0.829,-0.193 0.978,-0.578 0.264,-0.584 0.241,-2.939 0.241,-2.939 l 6.663,-0.04 c 0,0 0.271,0.91 -0.488,3.738 -0.375,1.123 -1.214,2.107 -2.518,2.951 -1.294,0.845 -2.893,1.267 -4.796,1.267 -1.978,0 -3.608,-0.358 -4.891,-1.074 -1.283,-0.717 -2.134,-1.706 -2.55,-2.967 -0.417,-1.273 -0.626,-3.181 -0.626,-5.726 v -7.586 c 0,-1.871 0.06,-3.272 0.192,-4.202 0.129,-0.941 0.508,-1.844 1.139,-2.71 0.642,-0.866 1.524,-1.545 2.646,-2.037 1.134,-0.503 2.433,-0.754 3.898,-0.754 1.988,0 3.63,0.385 4.923,1.155 1.294,0.77 2.144,1.732 2.551,2.887 0.607,1.141 0.564,4.54 0.564,4.54 z" />
        </g>
    </g>
    <g transform="translate(-250.33896,27.625337)" style="display:inline" munia:offset-scale="0.5" munia:axis-v="1" munia:axis-h="0" munia:stick-id="0" id="stick">
        <circle r="36.311283" cy="389.1423" cx="653.33527" id="path4759" style="fill:#e8e8e8;fill-opacity:1;stroke:#a6a6a6;stroke-width:5.79779577;stroke-linecap:round;stroke-linejoin:miter;stroke-miterlimit:4;stroke-dasharray:none;stroke-opacity:1" />
        <circle r="27.633423" cy="389.1423" cx="653.33527" id="path4759-3" style="display:inline;fill:#e8e8e8;fill-opacity:1;stroke:#a6a6a6;stroke-width:2.31911826;stroke-linecap:round;stroke-linejoin:miter;stroke-miterlimit:4;stroke-dasharray:none;stroke-opacity:1" />
        <circle r="20.040295" cy="389.1423" cx="653.33527" id="path4759-3-6" style="display:inline;fill:#e8e8e8;fill-opacity:1;stroke:#a6a6a6;stroke-width:2.31911826;stroke-linecap:round;stroke-linejoin:miter;stroke-miterlimit:4;stroke-dasharray:none;stroke-opacity:1" />
        <circle r="11.917103" cy="389.1423" cx="653.33527" id="path4759-3-6-1" style="display:inline;fill:#e8e8e8;fill-opacity:1;stroke:#a6a6a6;stroke-width:2.31911826;stroke-linecap:round;stroke-linejoin:miter;stroke-miterlimit:4;stroke-dasharray:none;stroke-opacity:1" />
        <circle r="3.63941" cy="389.1423" cx="653.33527" id="path4759-3-6-1-8" style="display:inline;fill:#000000;fill-opacity:1;stroke:none;stroke-width:0.86164039;stroke-linecap:round;stroke-linejoin:miter;stroke-miterlimit:4;stroke-dasharray:none;stroke-opacity:1" />
    </g>
    <g transform="translate(-250.33896,27.625337)" style="display:inline" id="layer2">
        <g transform="matrix(1.1595592,0,0,1.1595592,-103.76755,-57.287994)" id="D-Pad">
            <path style="fill:#505050;fill-opacity:1;stroke:#3a3a3a;stroke-width:3.47896385;stroke-linecap:round;stroke-linejoin:miter;stroke-miterlimit:4;stroke-dasharray:none;stroke-opacity:1" d="m 429,169 c -2.216,0 -4,1.784 -4,4 v 38 h -38 c -2.216,0 -4,1.784 -4,4 v 26 c 0,2.216 1.784,4 4,4 h 38 v 38 c 0,2.216 1.784,4 4,4 h 26 c 2.216,0 4,-1.784 4,-4 v -38 h 38 c 2.216,0 4,-1.784 4,-4 v -26 c 0,-2.216 -1.784,-4 -4,-4 h -38 v -38 c 0,-2.216 -1.784,-4 -4,-4 z" id="rect4975" />
            <path d="m 835,202 15,-8.66 0,17.32 z" id="path4869-0" style="display:inline;fill:#3a3a3a;fill-opacity:1;stroke:none;stroke-width:4;stroke-linecap:round;stroke-linejoin:miter;stroke-miterlimit:4;stroke-dasharray:none;stroke-opacity:1" transform="matrix(1.333121,0,0,1.1648522,-723.58091,-7.3001447)" />
            <path d="m 835,202 15,-8.66 0,17.32 z" id="path4869-0-4" style="display:inline;fill:#3a3a3a;fill-opacity:1;stroke:none;stroke-width:4;stroke-linecap:round;stroke-linejoin:miter;stroke-miterlimit:4;stroke-dasharray:none;stroke-opacity:1" transform="matrix(-1.333121,0,0,1.1648522,1608.1544,-7.3001447)" />
            <path d="m 835,202 15,-8.66 0,17.32 z" id="path4869-0-4-6" style="display:inline;fill:#3a3a3a;fill-opacity:1;stroke:none;stroke-width:4;stroke-linecap:round;stroke-linejoin:miter;stroke-miterlimit:4;stroke-dasharray:none;stroke-opacity:1" transform="matrix(0,-1.333121,-1.1648522,0,677.30014,1394.0116)" />
            <path d="m 835,202 15,-8.66 0,17.32 z" id="path4869-0-4-6-4" style="display:inline;fill:#3a3a3a;fill-opacity:1;stroke:none;stroke-width:4;stroke-linecap:round;stroke-linejoin:miter;stroke-miterlimit:4;stroke-dasharray:none;stroke-opacity:1" transform="matrix(0,1.333121,-1.1648522,0,677.30014,-937.44019)" />
            <circle style="fill:#3a3a3a;fill-opacity:1;stroke:#3a3a3a;stroke-width:4.56939507;stroke-linecap:round;stroke-linejoin:miter;stroke-miterlimit:4;stroke-dasharray:none;stroke-opacity:1" id="path4286" cx="442" cy="228" r="9.1795883" />
        </g>
        <g transform="matrix(1.1595592,0,0,1.1595592,-103.76755,-57.287994)" munia:button-state="pressed" munia:button-id="12" id="Left Pressed">
            <path id="rect4975-1" d="m 425,211 h -38 c -2.216,0 -4,1.784 -4,4 v 26 c 0,2.216 1.784,4 4,4 h 38 z" style="fill:#ffffff;fill-opacity:1;stroke:#ffffff;stroke-width:3.47896385;stroke-linecap:round;stroke-linejoin:miter;stroke-miterlimit:4;stroke-dasharray:none;stroke-opacity:1" />
            <path transform="matrix(1.333121,0,0,1.1648522,-723.58091,-7.3001447)" style="display:inline;fill:#dcdcdc;fill-opacity:1;stroke:none;stroke-width:4;stroke-linecap:round;stroke-linejoin:miter;stroke-miterlimit:4;stroke-dasharray:none;stroke-opacity:1" id="path4869-0-8" d="m 835,202 15,-8.66 0,17.32 z" />
        </g>
        <g transform="matrix(1.1595592,0,0,1.1595592,-103.76755,-57.287994)" munia:button-state="pressed" munia:button-id="10" id="Up Pressed">
            <path id="rect4975-3" d="m 429,169 c -2.216,0 -4,1.784 -4,4 v 38 h 34 v -38 c 0,-2.216 -1.784,-4 -4,-4 z" style="display:inline;fill:#ffffff;fill-opacity:1;stroke:#ffffff;stroke-width:3.47896385;stroke-linecap:round;stroke-linejoin:miter;stroke-miterlimit:4;stroke-dasharray:none;stroke-opacity:1" />
            <path transform="matrix(0,1.333121,-1.1648522,0,677.30014,-937.44019)" style="display:inline;fill:#dcdcdc;fill-opacity:1;stroke:none;stroke-width:4;stroke-linecap:round;stroke-linejoin:miter;stroke-miterlimit:4;stroke-dasharray:none;stroke-opacity:1" id="path4869-0-4-6-4-5" d="m 835,202 15,-8.66 0,17.32 z" />
        </g>
        <g transform="matrix(1.1595592,0,0,1.1595592,-103.76755,-57.287994)" munia:button-state="pressed" munia:button-id="13" id="Right Pressed">
            <path id="rect4975-3-3" d="m 459,245 h 38 c 2.216,0 4,-1.784 4,-4 v -26 c 0,-2.216 -1.784,-4 -4,-4 h -38 z" style="display:inline;fill:#ffffff;fill-opacity:1;stroke:#ffffff;stroke-width:3.47896385;stroke-linecap:round;stroke-linejoin:miter;stroke-miterlimit:4;stroke-dasharray:none;stroke-opacity:1" />
            <path transform="matrix(-1.333121,0,0,1.1648522,1608.1544,-7.3001495)" style="display:inline;fill:#dcdcdc;fill-opacity:1;stroke:none;stroke-width:4;stroke-linecap:round;stroke-linejoin:miter;stroke-miterlimit:4;stroke-dasharray:none;stroke-opacity:1" id="path4869-0-4-4" d="m 835,202 15,-8.66 0,17.32 z" />
        </g>
        <g transform="matrix(1.1595592,0,0,1.1595592,-103.76755,-57.287994)" munia:button-state="pressed" munia:button-id="11" id="Down Pressed">
            <path id="rect4975-3-6" d="m 425,245 v 38 c 0,2.216 1.784,4 4,4 h 26 c 2.216,0 4,-1.784 4,-4 v -38 z" style="display:inline;fill:#ffffff;fill-opacity:1;stroke:#ffffff;stroke-width:3.47896385;stroke-linecap:round;stroke-linejoin:miter;stroke-miterlimit:4;stroke-dasharray:none;stroke-opacity:1" />
            <path transform="matrix(0,-1.333121,-1.1648522,0,677.30014,1394.0116)" style="display:inline;fill:#dcdcdc;fill-opacity:1;stroke:none;stroke-width:4;stroke-linecap:round;stroke-linejoin:miter;stroke-miterlimit:4;stroke-dasharray:none;stroke-opacity:1" id="path4869-0-4-6-3" d="m 835,202 15,-8.66 0,17.32 z" />
        </g>
        <g transform="matrix(1.1595592,0,0,1.1595592,-103.76755,-57.287994)" munia:button-state="released" munia:button-id="0" id="Start">
            <circle style="fill:#ff0505;fill-opacity:1;stroke:#c10f0f;stroke-width:5;stroke-linecap:round;stroke-linejoin:miter;stroke-miterlimit:4;stroke-dasharray:none;stroke-opacity:1" id="path4754" cx="653" cy="248" r="25" />
            <text xml:space="preserve" style="font-style:normal;font-variant:normal;font-weight:normal;font-stretch:condensed;line-height:0%;font-family:impact;-inkscape-font-specification:'impact Condensed';text-align:center;letter-spacing:0px;word-spacing:0px;writing-mode:lr-tb;text-anchor:middle;fill:#e60000;fill-opacity:1;stroke:none;stroke-width:1px;stroke-linecap:butt;stroke-linejoin:miter;stroke-opacity:1" x="745.00488" y="224.57195" id="text4947" transform="scale(0.87630952,1.1411493)"><tspan style="font-size:18.33504486px;line-height:1.25" id="tspan4949" x="745.00488" y="224.57195">START</tspan></text>
        </g>
        <g transform="matrix(1.1595592,0,0,1.1595592,-103.76755,-57.287994)" munia:button-state="released" munia:button-id="3" id="A">
            <circle style="fill:#3e39a6;fill-opacity:1;stroke:#242768;stroke-width:5;stroke-linecap:round;stroke-linejoin:miter;stroke-miterlimit:4;stroke-dasharray:none;stroke-opacity:1" id="path4148-4" cx="834" cy="294" r="27" />
            <text xml:space="preserve" style="font-style:normal;font-weight:normal;line-height:0%;font-family:sans-serif;letter-spacing:0px;word-spacing:0px;fill:#232665;fill-opacity:1;stroke:none;stroke-width:1px;stroke-linecap:butt;stroke-linejoin:miter;stroke-opacity:1" x="866.53339" y="290.26297" id="text4966" transform="scale(0.94664697,1.05636)"><tspan id="tspan4968" x="866.53339" y="290.26297" style="font-style:normal;font-variant:normal;font-weight:normal;font-stretch:condensed;font-size:28.4570446px;line-height:1.25;font-family:impact;-inkscape-font-specification:'impact Condensed';fill:#232665;fill-opacity:1">A</tspan></text>
        </g>
        <g transform="matrix(1.1595592,0,0,1.1595592,-103.76755,-57.287994)" munia:button-state="released" munia:button-id="2" id="B">
            <circle style="fill:#2c7938;fill-opacity:1;stroke:#1f5725;stroke-width:5;stroke-linecap:round;stroke-linejoin:miter;stroke-miterlimit:4;stroke-dasharray:none;stroke-opacity:1" id="path4148" cx="787" cy="243" r="27" />
            <text xml:space="preserve" style="font-style:normal;font-variant:normal;font-weight:normal;font-stretch:condensed;line-height:0%;font-family:impact;-inkscape-font-specification:'impact Condensed';letter-spacing:0px;word-spacing:0px;fill:#225e28;fill-opacity:1;stroke:none;stroke-width:1px;stroke-linecap:butt;stroke-linejoin:miter;stroke-opacity:1" x="827.61212" y="238.42607" id="text4957" transform="scale(0.93308188,1.0717173)"><tspan style="font-size:28.47081184px;line-height:1.25" id="tspan4959" x="827.61212" y="238.42607">B</tspan></text>
        </g>
        <g transform="matrix(0,1.1595592,-1.1595592,0,1157.8327,-848.10735)" style="display:inline" munia:button-state="released" munia:button-id="7" id="C-Up">
            <circle style="fill:#ffd832;fill-opacity:1;stroke:#d8a105;stroke-width:4;stroke-linecap:round;stroke-linejoin:miter;stroke-miterlimit:4;stroke-dasharray:none;stroke-opacity:1" id="path4165-5" cx="845" cy="202" r="19" />
            <path style="fill:#f6c706;fill-opacity:1;stroke:none;stroke-width:4;stroke-linecap:round;stroke-linejoin:miter;stroke-miterlimit:4;stroke-dasharray:none;stroke-opacity:1" id="path4869-5" d="m 835,202 15,-8.66 0,17.32 z" transform="matrix(1.333121,0,0,1.1648522,-280.05852,-33.300145)" />
        </g>
        <g style="display:inline" transform="matrix(-1.1595592,0,0,1.1595592,1950.9712,-57.288006)" munia:button-state="released" munia:button-id="4" id="C-Right">
            <circle style="fill:#ffd832;fill-opacity:1;stroke:#d8a105;stroke-width:4;stroke-linecap:round;stroke-linejoin:miter;stroke-miterlimit:4;stroke-dasharray:none;stroke-opacity:1" id="path4165-0" cx="845" cy="202" r="19" />
            <path style="fill:#f6c706;fill-opacity:1;stroke:none;stroke-width:4;stroke-linecap:round;stroke-linejoin:miter;stroke-miterlimit:4;stroke-dasharray:none;stroke-opacity:1" id="path4869-6" d="m 835,202 15,-8.66 0,17.32 z" transform="matrix(1.333121,0,0,1.1648522,-280.05852,-33.300145)" />
        </g>
        <g transform="matrix(1.1595592,0,0,1.1595592,-103.76755,-57.287994)" munia:button-state="released" munia:button-id="5" id="C-Left">
            <circle style="fill:#ffd832;fill-opacity:1;stroke:#d8a105;stroke-width:4;stroke-linecap:round;stroke-linejoin:miter;stroke-miterlimit:4;stroke-dasharray:none;stroke-opacity:1" id="path4165" cx="845" cy="202" r="19" />
            <path style="fill:#f6c706;fill-opacity:1;stroke:none;stroke-width:4;stroke-linecap:round;stroke-linejoin:miter;stroke-miterlimit:4;stroke-dasharray:none;stroke-opacity:1" id="path4869" d="m 835,202 15,-8.66 0,17.32 z" transform="matrix(1.333121,0,0,1.1648522,-280.05852,-33.300145)" />
        </g>
        <g transform="matrix(0,-1.1595592,-1.1595592,0,1157.8327,1201.9933)" style="display:inline" munia:button-state="released" munia:button-id="6" id="C-Down">
            <circle style="fill:#ffd832;fill-opacity:1;stroke:#d8a105;stroke-width:4;stroke-linecap:round;stroke-linejoin:miter;stroke-miterlimit:4;stroke-dasharray:none;stroke-opacity:1" id="path4165-5-8" cx="845" cy="202" r="19" />
            <path style="fill:#f6c706;fill-opacity:1;stroke:none;stroke-width:4;stroke-linecap:round;stroke-linejoin:miter;stroke-miterlimit:4;stroke-dasharray:none;stroke-opacity:1" id="path4869-5-7" d="m 835,202 15,-8.66 0,17.32 z" transform="matrix(1.333121,0,0,1.1648522,-280.05852,-33.300145)" />
        </g>
        <g style="display:inline" transform="matrix(1.1595592,0,0,1.1595592,-103.76755,-57.287994)" munia:button-state="pressed" munia:button-id="0" id="Start Pressed">
            <circle style="fill:#ff9292;fill-opacity:1;stroke:#ff9292;stroke-width:5;stroke-linecap:round;stroke-linejoin:miter;stroke-miterlimit:4;stroke-dasharray:none;stroke-opacity:1" id="path4754-3" cx="653" cy="248" r="25" />
            <text xml:space="preserve" style="font-style:normal;font-variant:normal;font-weight:normal;font-stretch:condensed;line-height:0%;font-family:impact;-inkscape-font-specification:'impact Condensed';text-align:center;letter-spacing:0px;word-spacing:0px;writing-mode:lr-tb;text-anchor:middle;fill:#ff6464;fill-opacity:1;stroke:none;stroke-width:1px;stroke-linecap:butt;stroke-linejoin:miter;stroke-opacity:1" x="745.00488" y="224.57195" id="text4947-9" transform="scale(0.87630952,1.1411493)"><tspan style="font-size:18.33504486px;line-height:1.25" id="tspan4949-1" x="745.00488" y="224.57195">START</tspan></text>
        </g>
        <g style="display:inline" transform="matrix(1.1595592,0,0,1.1595592,-103.76755,-57.287994)" munia:button-state="pressed" munia:button-id="3" id="A Pressed">
            <circle style="fill:#807de5;fill-opacity:1;stroke:#807de5;stroke-width:5;stroke-linecap:round;stroke-linejoin:miter;stroke-miterlimit:4;stroke-dasharray:none;stroke-opacity:1" id="path4148-4-3" cx="834" cy="294" r="27" />
            <text xml:space="preserve" style="font-style:normal;font-weight:normal;line-height:0%;font-family:sans-serif;letter-spacing:0px;word-spacing:0px;fill:#5257c3;fill-opacity:1;stroke:none;stroke-width:1px;stroke-linecap:butt;stroke-linejoin:miter;stroke-opacity:1" x="866.53339" y="290.26297" id="text4966-6" transform="scale(0.94664697,1.05636)"><tspan id="tspan4968-0" x="866.53339" y="290.26297" style="font-style:normal;font-variant:normal;font-weight:normal;font-stretch:condensed;font-size:28.4570446px;line-height:1.25;font-family:impact;-inkscape-font-specification:'impact Condensed';fill:#5257c3;fill-opacity:1">A</tspan></text>
        </g>
        <g style="display:inline" transform="matrix(1.1595592,0,0,1.1595592,-103.76755,-57.287994)" munia:button-state="pressed" munia:button-id="2" id="B Pressed">
            <circle style="fill:#70d37f;fill-opacity:1;stroke:#70d37f;stroke-width:5;stroke-linecap:round;stroke-linejoin:miter;stroke-miterlimit:4;stroke-dasharray:none;stroke-opacity:1" id="path4148-9" cx="787" cy="243" r="27" />
            <text xml:space="preserve" style="font-style:normal;font-variant:normal;font-weight:normal;font-stretch:condensed;line-height:0%;font-family:impact;-inkscape-font-specification:'impact Condensed';letter-spacing:0px;word-spacing:0px;fill:#43b74e;fill-opacity:1;stroke:none;stroke-width:1px;stroke-linecap:butt;stroke-linejoin:miter;stroke-opacity:1" x="827.61212" y="238.42607" id="text4957-9" transform="scale(0.93308188,1.0717173)"><tspan style="font-size:28.47081184px;line-height:1.25" id="tspan4959-4" x="827.61212" y="238.42607">B</tspan></text>
        </g>
        <g transform="matrix(0,1.1595592,-1.1595592,0,1157.8327,-848.10735)" style="display:inline" munia:button-state="pressed" munia:button-id="7" id="C-Up Pressed">
            <circle style="fill:#ffeea2;fill-opacity:1;stroke:#ffeea2;stroke-width:4;stroke-linecap:round;stroke-linejoin:miter;stroke-miterlimit:4;stroke-dasharray:none;stroke-opacity:1" id="path4165-5-5" cx="845" cy="202" r="19" />
            <path style="fill:#fbdd63;fill-opacity:1;stroke:none;stroke-width:4;stroke-linecap:round;stroke-linejoin:miter;stroke-miterlimit:4;stroke-dasharray:none;stroke-opacity:1" id="path4869-5-9" d="m 835,202 15,-8.66 0,17.32 z" transform="matrix(1.333121,0,0,1.1648522,-280.05852,-33.300145)" />
        </g>
        <g style="display:inline" transform="matrix(-1.1595592,0,0,1.1595592,1950.9712,-57.288006)" munia:button-state="pressed" munia:button-id="4" id="C-Right Pressed">
            <circle style="fill:#ffeea2;fill-opacity:1;stroke:#ffeea2;stroke-width:4;stroke-linecap:round;stroke-linejoin:miter;stroke-miterlimit:4;stroke-dasharray:none;stroke-opacity:1" id="path4165-0-4" cx="845" cy="202" r="19" />
            <path style="fill:#fbdd63;fill-opacity:1;stroke:none;stroke-width:4;stroke-linecap:round;stroke-linejoin:miter;stroke-miterlimit:4;stroke-dasharray:none;stroke-opacity:1" id="path4869-6-7" d="m 835,202 15,-8.66 0,17.32 z" transform="matrix(1.333121,0,0,1.1648522,-280.05852,-33.300145)" />
        </g>
        <g style="display:inline" transform="matrix(1.1595592,0,0,1.1595592,-103.76755,-57.287994)" munia:button-state="pressed" munia:button-id="5" id="C-Left Pressed">
            <circle style="fill:#ffeea2;fill-opacity:1;stroke:#ffeea2;stroke-width:4;stroke-linecap:round;stroke-linejoin:miter;stroke-miterlimit:4;stroke-dasharray:none;stroke-opacity:1" id="path4165-2" cx="845" cy="202" r="19" />
            <path style="fill:#fbdd63;fill-opacity:1;stroke:none;stroke-width:4;stroke-linecap:round;stroke-linejoin:miter;stroke-miterlimit:4;stroke-dasharray:none;stroke-opacity:1" id="path4869-63" d="m 835,202 15,-8.66 0,17.32 z" transform="matrix(1.333121,0,0,1.1648522,-280.05852,-33.300145)" />
        </g>
        <g transform="matrix(0,-1.1595592,-1.1595592,0,1157.8327,1201.9933)" style="display:inline" munia:button-state="pressed" munia:button-id="6" id="C-Down Pressed">
            <circle style="fill:#ffeea2;fill-opacity:1;stroke:#ffeea2;stroke-width:4;stroke-linecap:round;stroke-linejoin:miter;stroke-miterlimit:4;stroke-dasharray:none;stroke-opacity:1" id="path4165-5-8-4" cx="845" cy="202" r="19" />
            <path style="fill:#fbdd63;fill-opacity:1;stroke:none;stroke-width:4;stroke-linecap:round;stroke-linejoin:miter;stroke-miterlimit:4;stroke-dasharray:none;stroke-opacity:1" id="path4869-5-7-9" d="m 835,202 15,-8.66 0,17.32 z" transform="matrix(1.333121,0,0,1.1648522,-280.05852,-33.300145)" />
        </g>
    </g>
</svg>
