<?xml version="1.0" encoding="UTF-8" standalone="no"?>
<svg xmlns:munia="http://www.munia.io/namespaces/munia" xmlns:dc="http://purl.org/dc/elements/1.1/" xmlns:cc="http://creativecommons.org/ns#" xmlns:rdf="http://www.w3.org/1999/02/22-rdf-syntax-ns#" xmlns:svg="http://www.w3.org/2000/svg" xmlns="http://www.w3.org/2000/svg" xml:space="preserve" viewBox="0 0 1280 800" height="800" width="1280" y="0px" x="0px" id="ps2-controller" version="1.1">
	<munia:info munia:device-type="PS2" munia:skin-name="PlayStation 2" />

	<g transform="matrix(5.27847,0,0,5.31172,1611.15,-2085.18)" id="triggers">
		<path d="m -272.3,407.154 h 33.2 l -2.6,-4.3 c -1.7,-2.8 -6.1,-4.9 -14,-4.9 -7.9,0 -12.3,2.1 -14,4.9 z" style="display:inline;fill:#555;stroke:black" munia:z-index="-2" munia:button-state="released" munia:button-id="10" id="L2" />
		<path d="m -272.3,407.154 h 33.2 l -2.6,-4.3 c -1.7,-2.8 -6.1,-4.9 -14,-4.9 -7.9,0 -12.3,2.1 -14,4.9 z" style="display:none;fill:#ccc;stroke:#f4f4f4" munia:z-index="-2" munia:button-state="pressed" munia:button-id="10" id="L2-hl" />
		<path d="m -130,407.531 h 33.2 l -2.6,-4.3 c -1.7,-2.8 -6.1,-4.9 -14,-4.9 -7.9,0 -12.3,2.1 -14,4.9 z" style="display:inline;fill:#555;stroke:black" munia:z-index="-2" munia:button-state="released" munia:button-id="11" id="R2" />
		<path d="m -130,407.531 h 33.2 l -2.6,-4.3 c -1.7,-2.8 -6.1,-4.9 -14,-4.9 -7.9,0 -12.3,2.1 -14,4.9 z" style="display:none;fill:#ccc;stroke:#f4f4f4" munia:z-index="-2" munia:button-state="pressed" munia:button-id="11" id="R2-hl" />

		<g style="display:inline" transform="translate(0,3.01223)" munia:z-index="-1" munia:button-state="released" munia:button-id="8" id="L1">			
			<path id="path2578" d="m -234.9,426.2 c -1.7,-11 -2.5,-16.5 -3.3,-20.5 -0.8,-4.1 -7.7,-6.1 -17.6,-6.1 -9.9,0 -16.8,2.1 -17.5,6.1 -0.8,4.1 -1.6,9.5 -3.3,20.5" style="fill:#262626;stroke:black" />
			<path id="path2580" d="m -257.177,401.2 h 0.65 v 4.42 h 2.405 v 0.585 h -3.055 V 401.2" style="stroke:none" />
		</g>
		<g style="display:none" transform="translate(0,3.01223)" munia:z-index="-1" munia:button-state="pressed" munia:button-id="8" id="L1-hl">
			<path id="path1908" d="m -234.9,426.2 c -1.7,-11 -2.5,-16.5 -3.3,-20.5 -0.8,-4.1 -7.7,-6.1 -17.6,-6.1 -9.9,0 -16.8,2.1 -17.5,6.1 -0.8,4.1 -1.6,9.5 -3.3,20.5" style="fill:#ddd;stroke:#f4f4f4" />
			<path id="path1910" d="m -257.177,401.2 h 0.65 v 4.42 h 2.405 v 0.585 h -3.055 V 401.2" style="fill:#eee" />
		</g>
		
		<g style="display:inline" transform="translate(0,3.01223)" munia:z-index="-1" munia:button-state="released" munia:button-id="9" id="R1">			
			<path id="path1913" d="m -92.6,426.2 c -1.7,-11 -2.5,-16.5 -3.3,-20.5 -0.8,-4.1 -7.7,-6.1 -17.6,-6.1 -9.9,0 -16.7,2.1 -17.5,6.1 -0.8,4.1 -1.6,9.5 -3.3,20.5" style="fill:#262626;stroke:black" />
			<path id="path1915" d="m -111.728,403.848 c 0.13,0.06 0.26,0.13 0.39,0.325 0.13,0.13 0.26,0.39 0.39,0.65 l 0.715,1.365 h -0.715 l -0.65,-1.3 c -0.195,-0.325 -0.325,-0.585 -0.455,-0.65 -0.13,-0.13 -0.39,-0.195 -0.65,-0.195 h -0.715 v 2.08 h -0.65 v -5.005 h 1.495 c 0.585,0 0.975,0.13 1.3,0.325 0.26,0.26 0.39,0.585 0.39,1.105 0,0.325 -0.06,0.585 -0.195,0.78 -0.13,0.325 -0.39,0.455 -0.65,0.52 m -1.69,-2.08 v 1.755 h 0.845 c 0.325,0 0.585,-0.06 0.715,-0.195 0.195,-0.13 0.26,-0.39 0.26,-0.65 0,-0.26 -0.06,-0.52 -0.26,-0.65 -0.195,-0.13 -0.39,-0.195 -0.715,-0.195 h -0.845" style="stroke:none" />
		</g>
		<g style="display:none" transform="translate(0,3.01223)" munia:z-index="-1" munia:button-state="pressed" munia:button-id="9" id="R1-hl">
			<path id="path1918" d="m -92.6,426.2 c -1.7,-11 -2.5,-16.5 -3.3,-20.5 -0.8,-4.1 -7.7,-6.1 -17.6,-6.1 -9.9,0 -16.7,2.1 -17.5,6.1 -0.8,4.1 -1.6,9.5 -3.3,20.5" style="fill:#ddd;stroke:#f4f4f4" />
			<path id="path1920" d="m -111.728,403.848 c 0.13,0.06 0.26,0.13 0.39,0.325 0.13,0.13 0.26,0.39 0.39,0.65 l 0.715,1.365 h -0.715 l -0.65,-1.3 c -0.195,-0.325 -0.325,-0.585 -0.455,-0.65 -0.13,-0.13 -0.39,-0.195 -0.65,-0.195 h -0.715 v 2.08 h -0.65 v -5.005 h 1.495 c 0.585,0 0.975,0.13 1.3,0.325 0.26,0.26 0.39,0.585 0.39,1.105 0,0.325 -0.06,0.585 -0.195,0.78 -0.13,0.325 -0.39,0.455 -0.65,0.52 m -1.69,-2.08 v 1.755 h 0.845 c 0.325,0 0.585,-0.06 0.715,-0.195 0.195,-0.13 0.26,-0.39 0.26,-0.65 0,-0.26 -0.06,-0.52 -0.26,-0.65 -0.195,-0.13 -0.39,-0.195 -0.715,-0.195 h -0.845" style="fill:#eee" />
		</g>
	</g>
	
	<g transform="matrix(5.27847,0,0,5.31172,1611.15,-2107.18)" id="background">		
		<path d="m -244.9,420.5 c -1.5,0 -2.8,1.2 -2.8,2.8 v 73.2 c 0,1.5 1.2,2.8 2.8,2.8 h 121.8 c 1.5,0 2.8,-1.2 2.8,-2.8 v -73.2 c 0,-1.5 -1.2,-2.8 -2.8,-2.8 -41.404,1.184 -80.494,0 -121.8,0 z" style="fill:#3f3f3f;stroke:black;stroke-linecap:round;stroke-linejoin:round" id="back-base" />
		<path d="m -238.6,426.8 h 109.1 c 1.5,0 2.8,1.2 2.8,2.7 v 63.1 c 0,1.5 -1.2,2.7 -2.8,2.7 h -109.1 c -1.5,0 -2.8,-1.2 -2.8,-2.7 v -63.1 c 0.1,-1.5 1.3,-2.7 2.8,-2.7 z" style="fill:#262626" id="front-base" />
		<path d="m -292.6,443 c -5.5,30.1 -9.1,62.2 -11.8,76.3 -4.2,22.1 32.8,40.7 46.8,15.2 10.6,-19.4 22.7,-44.2 22.7,-44.2 z" style="fill:#262626;stroke:black" id="leg-left" />
		<circle r="37.9" cy="452.4" cx="-255.7" style="fill:#333;stroke:black;stroke-linecap:round;stroke-linejoin:round" id="dpad-base" />
		<path d="m -75.4,443 c 5.5,30.1 9.1,62.7 11.8,76.3 4.4,22.1 -32.8,40.7 -46.8,15.2 -10.6,-19.4 -22.7,-44.2 -22.7,-44.2 z" style="fill:#262626;stroke:black" id="leg-right" />
		<circle r="37.9" cy="452.4" cx="-112.3" style="fill:#333;stroke:black;stroke-linecap:round;stroke-linejoin:round" id="face-base-circle" />
		<path d="m -120.1,424.4 c -1.5,0 -2.8,1.2 -2.8,2.8 v 14.7 h -14.7 c -1.5,0 -2.8,1.2 -2.8,2.8 v 15.6 c 0,1.5 1.2,2.8 2.8,2.8 h 14.7 v 14.7 c 0,1.5 1.2,2.8 2.8,2.8 h 15.6 c 1.5,0 2.7,-1.2 2.8,-2.8 V 463.1 H -87 c 1.5,0 2.8,-1.2 2.8,-2.8 v -15.6 c 0,-1.5 -1.2,-2.8 -2.8,-2.8 h -14.7 v -14.7 c 0,-1.5 -1.2,-2.8 -2.8,-2.8 z" style="fill:#262626" id="face-buttons-base" />
		<path d="m -263.7,423.9 c -1.5,0 -2.8,1.2 -2.8,2.8 v 14.7 h -14.6 c -1.5,0 -2.8,1.2 -2.8,2.8 v 15.5 c 0,1.5 1.2,2.8 2.8,2.8 h 14.7 v 14.7 c 0,1.5 1.2,2.8 2.8,2.8 h 15.6 c 1.5,0 2.7,-1.2 2.8,-2.8 v -14.7 h 14.7 c 1.5,0 2.8,-1.2 2.8,-2.8 v -15.6 c 0,-1.5 -1.2,-2.8 -2.8,-2.8 h -14.8 v -14.6 c 0,-1.5 -1.2,-2.8 -2.8,-2.8 z" style="fill:#262626" id="dpad-base_1_" />
		<g transform="translate(-259.501,-472.992)" id="dpad-outer">
			<path d="m 3.6,899.8 -3.8,3.6 h 7.6 z" style="fill:#3f3f3f" id="dpad-outer-up" />
			<path d="m 3.6,949.9 -3.8,-3.6 h 7.6 z" style="fill:#3f3f3f" id="dpad-outer-down" />
			<path d="m 28.7,924.9 -3.6,-3.8 v 7.6 z" style="fill:#3f3f3f" id="dpad-outer-right" />
			<path d="m -21.4,924.9 3.6,-3.8 v 7.6 z" style="fill:#3f3f3f" id="dpad-outer-left" />
		</g>
		<path id="text-select" d="m -212.588,458.785 v 0.451 c -0.182,-0.08 -0.353,-0.147 -0.514,-0.188 -0.161,-0.04 -0.317,-0.06 -0.467,-0.06 -0.26,0 -0.461,0.05 -0.603,0.146 -0.141,0.103 -0.212,0.237 -0.212,0.417 0,0.152 0.04,0.266 0.141,0.344 0.1,0.07 0.273,0.137 0.535,0.185 l 0.289,0.06 c 0.357,0.06 0.62,0.182 0.789,0.348 0.171,0.165 0.256,0.387 0.256,0.664 0,0.332 -0.116,0.583 -0.347,0.754 -0.228,0.171 -0.565,0.257 -1.008,0.257 -0.168,0 -0.346,-0.02 -0.536,-0.05 -0.188,-0.04 -0.383,-0.09 -0.585,-0.163 v -0.476 c 0.195,0.106 0.385,0.185 0.571,0.238 0.187,0.05 0.369,0.08 0.55,0.08 0.273,0 0.483,-0.05 0.632,-0.156 0.149,-0.104 0.222,-0.252 0.222,-0.444 0,-0.168 -0.05,-0.299 -0.16,-0.394 -0.106,-0.09 -0.281,-0.166 -0.524,-0.213 l -0.291,-0.05 c -0.357,-0.07 -0.615,-0.177 -0.775,-0.324 -0.159,-0.146 -0.239,-0.35 -0.239,-0.611 0,-0.302 0.11,-0.54 0.33,-0.714 0.221,-0.175 0.524,-0.262 0.911,-0.262 0.166,0 0.335,0.01 0.507,0.04 0.172,0.03 0.349,0.07 0.528,0.13 m 0.959,-0.111 h 2.236 v 0.389 h -1.757 v 1.012 h 1.684 v 0.389 h -1.684 v 1.239 h 1.801 v 0.389 h -2.28 v -3.418 m 3.07,0 h 0.478 v 3.029 h 1.722 v 0.389 h -2.2 v -3.418 m 2.701,0 h 2.235 v 0.389 h -1.757 v 1.012 h 1.684 v 0.389 h -1.684 v 1.239 h 1.8 v 0.389 h -2.278 v -3.418 m 5.717,0.263 v 0.487 c -0.162,-0.144 -0.334,-0.253 -0.516,-0.325 -0.182,-0.07 -0.375,-0.108 -0.58,-0.108 -0.405,0 -0.715,0.12 -0.929,0.36 -0.215,0.238 -0.322,0.583 -0.322,1.035 0,0.451 0.107,0.795 0.322,1.036 0.214,0.238 0.524,0.356 0.929,0.356 0.205,0 0.398,-0.03 0.58,-0.107 0.182,-0.07 0.354,-0.181 0.516,-0.325 v 0.483 c -0.168,0.11 -0.345,0.192 -0.533,0.247 -0.186,0.05 -0.384,0.08 -0.592,0.08 -0.536,0 -0.957,-0.158 -1.265,-0.475 -0.308,-0.317 -0.462,-0.749 -0.462,-1.298 0,-0.55 0.154,-0.982 0.462,-1.299 0.308,-0.317 0.729,-0.476 1.265,-0.476 0.211,0 0.41,0.03 0.597,0.08 0.188,0.05 0.363,0.133 0.528,0.242 m 0.254,-0.262 h 2.991 v 0.389 h -1.255 v 3.029 h -0.481 v -3.029 h -1.255 v -0.389" style="font-style:normal;font-weight:normal;font-size:4.56555px;font-family:'Bitstream Vera Sans';fill:#e6e6e6;fill-opacity:1;stroke:none;stroke-width:1.044741px;stroke-linecap:butt;stroke-linejoin:miter;stroke-opacity:1" />
		<path id="text-start" d="m -168.493,458.784 v 0.451 c -0.181,-0.08 -0.352,-0.147 -0.514,-0.188 -0.161,-0.04 -0.317,-0.06 -0.466,-0.06 -0.261,0 -0.463,0.05 -0.604,0.147 -0.141,0.103 -0.211,0.237 -0.211,0.416 0,0.152 0.04,0.266 0.14,0.344 0.1,0.07 0.273,0.138 0.534,0.185 l 0.289,0.06 c 0.357,0.06 0.621,0.182 0.79,0.348 0.17,0.164 0.256,0.386 0.256,0.664 0,0.332 -0.116,0.582 -0.347,0.754 -0.228,0.17 -0.565,0.257 -1.009,0.257 -0.167,0 -0.345,-0.02 -0.534,-0.05 -0.188,-0.04 -0.384,-0.09 -0.586,-0.162 v -0.477 c 0.195,0.106 0.385,0.185 0.571,0.239 0.187,0.05 0.37,0.08 0.549,0.08 0.274,0 0.485,-0.05 0.633,-0.156 0.148,-0.104 0.222,-0.252 0.222,-0.444 0,-0.169 -0.05,-0.299 -0.16,-0.395 -0.106,-0.09 -0.281,-0.165 -0.524,-0.212 l -0.291,-0.05 c -0.357,-0.07 -0.615,-0.176 -0.774,-0.323 -0.16,-0.146 -0.24,-0.351 -0.24,-0.612 0,-0.302 0.11,-0.54 0.329,-0.713 0.222,-0.175 0.525,-0.263 0.912,-0.263 0.166,0 0.335,0.01 0.507,0.04 0.172,0.03 0.348,0.07 0.528,0.13 m 0.469,-0.112 h 2.992 v 0.39 h -1.256 v 3.029 h -0.48 v -3.029 h -1.256 v -0.39 m 4.259,0.455 -0.649,1.703 h 1.301 l -0.652,-1.703 m -0.271,-0.455 h 0.543 l 1.347,3.419 h -0.497 l -0.322,-0.877 h -1.593 l -0.322,0.877 h -0.505 l 1.349,-3.419 m 4.081,1.815 c 0.107,0.03 0.203,0.106 0.299,0.216 0.09,0.11 0.196,0.261 0.294,0.453 l 0.486,0.935 h -0.514 l -0.453,-0.877 c -0.117,-0.229 -0.231,-0.381 -0.341,-0.456 -0.108,-0.07 -0.258,-0.112 -0.447,-0.112 h -0.522 v 1.445 h -0.478 v -3.419 h 1.08 c 0.404,0 0.706,0.08 0.904,0.245 0.2,0.163 0.299,0.41 0.299,0.739 0,0.216 -0.05,0.395 -0.156,0.537 -0.106,0.141 -0.253,0.24 -0.451,0.294 m -1.198,-1.435 v 1.213 h 0.602 c 0.231,0 0.404,-0.05 0.521,-0.153 0.119,-0.103 0.177,-0.255 0.177,-0.456 0,-0.2 -0.06,-0.35 -0.177,-0.451 -0.117,-0.102 -0.29,-0.153 -0.521,-0.153 h -0.602 m 2.054,-0.38 h 2.992 v 0.39 h -1.256 v 3.029 h -0.48 v -3.029 h -1.256 v -0.39" style="font-style:normal;font-weight:normal;font-size:4.56555px;font-family:'Bitstream Vera Sans';fill:#e6e6e6;fill-opacity:1;stroke:none;stroke-width:1.044741px;stroke-linecap:butt;stroke-linejoin:miter;stroke-opacity:1" />
	<g style="fill:#5b5b5b;fill-opacity:1" id="ps2-logo" transform="matrix(0.141261,0,0,0.140377,-193.604,434.035)"><path style="fill:#5b5b5b;fill-opacity:1" id="path125" d="m 50.372,0 c 5.858,1.092 11.616,2.652 17.347,4.278 3.277,0.952 6.547,1.937 9.795,2.986 5.102,1.625 10.182,3.465 14.803,6.209 2.07,1.257 4.058,2.677 5.757,4.409 a 21.957,21.957 0 0 1 4.454,6.255 c 2.015,4.208 2.705,8.909 2.909,13.531 0.1,3.016 0.09,6.058 -0.474,9.035 -0.468,2.587 -1.3,5.138 -2.684,7.385 -1.222,1.984 -2.921,3.701 -4.983,4.807 -1.978,1.066 -4.242,1.574 -6.485,1.529 -3.402,0.035 -6.703,-1.049 -9.756,-2.471 C 80.999,47.8 81.046,37.645 81.031,27.494 81.01,25.657 81.135,23.801 80.764,21.989 80.503,20.585 79.931,19.17 78.828,18.217 c -0.73,-0.659 -1.678,-1.031 -2.63,-1.232 -0.963,-0.183 -1.99,0.226 -2.586,0.999 -0.991,1.238 -1.251,2.882 -1.296,4.423 -0.01,27.181 0.01,54.363 -0.01,81.542 A 29320,29320 0 0 1 50.372,96.988 c -0.01,-32.329 0,-64.658 0,-96.988 z M 17.506,68.784 C 27.039,65.409 36.562,62 46.099,58.637 c 0.015,3.742 0,7.486 0.01,11.232 -0.01,0.508 0.026,1.018 -0.037,1.523 -7.538,2.672 -15.062,5.391 -22.592,8.08 -1.044,0.395 -2.115,0.841 -2.92,1.638 -0.375,0.374 -0.681,0.927 -0.476,1.462 0.258,0.631 0.902,0.975 1.496,1.234 1.652,0.672 3.458,0.768 5.218,0.848 1.962,-0.031 3.933,-0.178 5.854,-0.602 1.299,-0.256 2.549,-0.693 3.787,-1.158 3.218,-1.165 6.436,-2.337 9.659,-3.49 0.023,3.166 0,6.334 0.01,9.504 -0.01,0.633 0.029,1.27 -0.034,1.9 -3.958,0.711 -7.963,1.193 -11.986,1.257 C 25.983,92.248 17.863,90.994 10.168,88.462 7.645,87.731 5.137,86.757 3.029,85.155 1.869,84.257 0.831,83.128 0.303,81.739 c -0.442,-1.177 -0.41,-2.535 0.141,-3.67 0.531,-1.133 1.459,-2.027 2.481,-2.723 2.364,-1.633 4.973,-2.879 7.615,-3.989 2.279,-0.97 4.641,-1.726 6.966,-2.573 z" /><path style="fill:#5b5b5b;fill-opacity:1" id="path127" d="m 94.209,64.52 c 2.162,-0.25 4.338,-0.309 6.512,-0.387 7.15,0.027 14.338,0.916 21.178,3.062 1.342,0.408 2.642,0.937 3.979,1.362 2.384,0.871 4.77,1.927 6.678,3.641 1.146,1.045 2.135,2.454 2.148,4.062 0.07,1.31 -0.524,2.566 -1.374,3.531 -1.616,1.812 -3.752,3.058 -5.896,4.144 -2.283,1.164 -4.737,1.915 -7.131,2.801 -14.612,5.247 -29.226,10.492 -43.835,15.745 0,-4.094 0,-8.186 0,-12.275 0.022,-0.164 -0.067,-0.449 0.163,-0.492 11.118,-3.955 22.233,-7.922 33.35,-11.889 1.503,-0.562 3.122,-0.969 4.397,-1.988 0.522,-0.41 1.033,-1.062 0.777,-1.766 -0.267,-0.615 -0.905,-0.955 -1.492,-1.21 -1.664,-0.659 -3.476,-0.786 -5.246,-0.836 -2.771,0.019 -5.566,0.36 -8.202,1.249 -7.919,2.775 -15.823,5.584 -23.744,8.35 10e-4,-4.395 0,-8.787 0,-13.181 5.729,-2.011 11.713,-3.23 17.739,-3.923 z m 32.483,30.275 c 1.729,-0.215 3.535,0.56 4.571,1.961 1.131,1.447 1.338,3.533 0.539,5.185 -0.807,1.714 -2.65,2.915 -4.56,2.853 -1.757,0.04 -3.459,-0.984 -4.324,-2.5 -0.781,-1.334 -0.875,-3.043 -0.27,-4.463 0.681,-1.64 2.283,-2.836 4.044,-3.036 z m -0.376,0.924 a 4.149,4.149 0 0 0 -2.425,1.613 4.175,4.175 0 0 0 -0.694,3.354 4.164,4.164 0 0 0 1.808,2.61 c 1.403,0.922 3.37,0.871 4.713,-0.141 1.385,-0.979 2.043,-2.857 1.566,-4.484 -0.294,-1.1 -1.08,-2.037 -2.07,-2.582 -0.88,-0.465 -1.93,-0.6 -2.898,-0.37 z" /><path style="fill:#5b5b5b;fill-opacity:1" id="path129" d="m 125.118,96.896 c 0.901,0 1.805,0 2.707,0 0.51,0.01 1.072,0.126 1.434,0.518 0.363,0.41 0.393,1.008 0.293,1.522 -0.06,0.34 -0.356,0.541 -0.573,0.778 0.188,0.168 0.43,0.324 0.475,0.597 0.104,0.521 0,1.067 0.161,1.577 0.105,0.181 0.212,0.363 0.22,0.578 -0.374,0.01 -0.747,0 -1.121,0.01 -0.252,-0.594 -0.06,-1.26 -0.221,-1.871 -0.06,-0.249 -0.32,-0.404 -0.565,-0.396 -0.61,-0.03 -1.223,0 -1.83,0 -0.01,0.758 0.02,1.518 -0.02,2.275 a 23.39,23.39 0 0 0 -0.955,0 c -0.02,-1.862 0,-3.72 0,-5.578 z m 0.978,0.884 v 1.541 c 0.545,0 1.091,0.01 1.638,0 0.271,0 0.586,-0.053 0.762,-0.283 a 0.973,0.973 0 0 0 0.01,-0.98 c -0.141,-0.234 -0.438,-0.258 -0.682,-0.273 -0.578,-0.018 -1.156,-0.01 -1.733,-0.01 z" /></g><g id="text-playstation" style="display:inline;fill:#5c5c5c;fill-opacity:1" transform="matrix(0.07578,0,0,0.075305,-209.882,437.004)"><path d="m 189.722,175.407 v 45.711 h 7.135 v -41.331 h 6.606 c 0,0 4.798,0 6.442,2.146 1.396,1.823 1.651,5.129 1.651,7.363 0,2.389 -0.152,6.083 -0.953,7.435 -1.217,2.066 -3.215,2.481 -5.042,2.481 h -4.36 v 4.056 h 6.27 c 0,0 5.656,0.236 8.09,-2.237 2.983,-3.032 3.741,-7.108 3.741,-12.565 0,-4.958 -1.799,-9.96 -5.477,-11.659 -3.043,-1.4 -8.531,-1.4 -8.531,-1.4 h -15.572" style="fill:#5c5c5c;fill-opacity:1;fill-rule:nonzero;stroke:none" id="path3003" /><path d="m 224.91,221.118 h 7.135 v -45.711 h -7.135 z" style="fill:#5c5c5c;fill-opacity:1;fill-rule:nonzero;stroke:none" id="path3005" /><path d="m 270.006,186.069 13.055,34.215 -7.494,18.356 h 5.923 l 21.583,-52.571 h -6.614 l -9.401,25.623 -8.747,-25.623 h -8.305" style="fill:#5c5c5c;fill-opacity:1;fill-rule:nonzero;stroke:none" id="path3007" /><path d="m 308.446,220.846 v -4.319 c 0,0 7.546,0.295 9.118,0.295 3.482,0 5.221,-0.742 6.529,-2.146 0.774,-0.842 1.472,-4.571 1.472,-5.899 0,-1.325 -0.255,-4.188 -0.774,-5.361 -0.534,-1.149 -1.751,-2.222 -3.574,-2.377 -1.3,-0.112 -3.31,-0.375 -5.66,-0.483 -3.294,-0.156 -5.472,-1.875 -6.521,-3.111 -1.041,-1.237 -2.433,-3.099 -2.433,-8.799 0,-5.708 1.476,-8.907 2.955,-10.391 1.48,-1.492 3.646,-2.146 5.309,-2.441 1.915,-0.327 5.042,-0.347 5.042,-0.347 l 9.988,0.291 v 4.32 c 0,0 -7.284,-0.291 -8.851,-0.291 -3.482,0 -4.527,0.746 -5.832,2.146 -0.769,0.833 -1.372,3.139 -1.372,4.459 0,1.328 0.156,4.009 0.678,5.169 0.519,1.149 1.739,2.226 3.566,2.39 1.297,0.1 3.311,0.363 5.656,0.47 3.311,0.156 5.485,1.871 6.522,3.111 1.049,1.241 2.445,3.854 2.445,9.549 0,5.708 -1.488,9.785 -2.96,11.273 -1.484,1.483 -3.645,2.145 -5.309,2.433 -1.918,0.331 -5.045,0.355 -5.045,0.355 l -10.949,-0.296" style="fill:#5c5c5c;fill-opacity:1;fill-rule:nonzero;stroke:none" id="path3009" /><path d="m 347.379,179.787 h -7.132 v 33.557 c 0,0 0.172,3.063 0.348,4.14 0.175,1.077 1.743,3.634 5.831,3.634 l 7.391,-0.144 v -4.304 c 0,0 -2.002,0.144 -3.211,0.144 -1.224,0 -2.708,-0.08 -2.959,-2.15 -0.268,-2.066 -0.268,-4.535 -0.268,-4.535 v -19.76 h 8.057 v -4.3 h -8.057 v -6.282" style="fill:#5c5c5c;fill-opacity:1;fill-rule:nonzero;stroke:none" id="path3011" /><path d="m 416.24,221.118 h 7.133 v -35.047 h -7.133 z" style="fill:#5c5c5c;fill-opacity:1;fill-rule:nonzero;stroke:none" id="path3013" /><path d="m 416.24,181.769 h 7.133 v -6.363 h -7.133 z" style="fill:#5c5c5c;fill-opacity:1;fill-rule:nonzero;stroke:none" id="path3015" /><path d="m 445.916,185.77 c 4.855,0 8.62,1.085 10.642,2.72 2.042,1.639 4.551,5.098 4.551,15.105 0,10.008 -2.509,13.462 -4.551,15.106 -2.022,1.635 -5.787,2.728 -10.642,2.728 -4.866,0 -8.615,-1.093 -10.654,-2.728 -2.038,-1.644 -4.535,-5.098 -4.535,-15.106 0,-10.007 2.497,-13.466 4.535,-15.105 2.039,-1.635 5.788,-2.72 10.654,-2.72 z m -4.89,6.721 c -0.981,1.208 -2.178,3.749 -2.178,11.104 0,7.352 1.197,9.896 2.178,11.101 0.977,1.196 2.78,2.006 5.114,2.006 2.337,0 4.132,-0.81 5.121,-2.006 0.977,-1.205 2.174,-3.749 2.174,-11.101 0,-7.355 -1.197,-9.896 -2.174,-11.104 -0.989,-1.201 -2.784,-2.003 -5.121,-2.003 -2.334,0 -4.137,0.802 -5.114,2.003" style="fill:#5c5c5c;fill-opacity:1;fill-rule:nonzero;stroke:none" id="path3017" /><path d="m 475.887,190.991 6.997,-0.295 c 1.83,0 3.984,0.494 5.029,1.819 0.974,1.248 1.588,2.736 1.588,5.133 v 23.43 h 7.144 v -24.02 c 0,-4.543 -1.4,-7.184 -3.498,-8.843 -2.992,-2.373 -8.353,-2.146 -8.353,-2.146 l -15.983,0.287 v 34.722 h 7.076 v -30.087" style="fill:#5c5c5c;fill-opacity:1;fill-rule:nonzero;stroke:none" id="path3019" /><path d="m 402.033,179.787 h -7.136 v 33.557 c 0,0 0.167,3.063 0.339,4.14 0.179,1.077 1.735,3.634 5.839,3.634 l 7.391,-0.144 v -4.304 c 0,0 -2.006,0.144 -3.219,0.144 -1.212,0 -2.7,-0.08 -2.959,-2.15 -0.255,-2.066 -0.255,-4.535 -0.255,-4.535 v -19.76 h 8.037 v -4.3 h -8.037 v -6.282" style="fill:#5c5c5c;fill-opacity:1;fill-rule:nonzero;stroke:none" id="path3021" /><path d="m 259.121,197.648 c 0,-2.397 -0.61,-3.885 -1.591,-5.133 -1.045,-1.325 -3.191,-1.819 -5.026,-1.819 l -9.409,0.295 v -4.635 l 11.323,-0.287 c 0,0 5.361,-0.228 8.357,2.146 2.09,1.659 3.478,4.3 3.478,8.843 v 23.685 l -13.673,0.295 c 0,0 -6.191,0.02 -9.31,-1.241 -3.039,-1.236 -4.699,-4.63 -4.699,-9.341 0,-4.547 1.392,-7.188 3.483,-8.847 2.995,-2.377 8.352,-2.142 8.352,-2.142 h 4.367 v 4.037 h -2.449 c -1.834,0 -3.721,0.339 -4.77,1.663 -0.977,1.236 -1.5,2.309 -1.5,4.707 0,3.147 0.61,4.551 2.09,5.62 1.309,0.953 3.65,1.16 6.263,1.16 l 4.714,-0.287 v -18.719" style="fill:#5c5c5c;fill-opacity:1;fill-rule:nonzero;stroke:none" id="path3023" /><path d="m 379.433,197.648 c 0,-2.397 -0.599,-3.885 -1.58,-5.133 -1.057,-1.325 -3.203,-1.819 -5.026,-1.819 l -9.405,0.295 v -4.635 l 11.316,-0.287 c 0,0 5.357,-0.228 8.348,2.146 2.09,1.659 3.486,4.3 3.486,8.843 v 23.685 l -13.673,0.295 c 0,0 -6.198,0.02 -9.31,-1.241 -3.043,-1.236 -4.706,-4.63 -4.706,-9.341 0,-4.547 1.404,-7.188 3.482,-8.847 2.991,-2.377 8.36,-2.142 8.36,-2.142 h 4.364 v 4.037 h -2.453 c -1.823,0 -3.722,0.339 -4.759,1.663 -0.981,1.236 -1.507,2.309 -1.507,4.707 0,3.147 0.614,4.551 2.09,5.62 1.304,0.953 3.657,1.16 6.27,1.16 l 4.703,-0.287 v -18.719" style="fill:#5c5c5c;fill-opacity:1;fill-rule:nonzero;stroke:none" id="path3025" /></g></g>
	
	<g transform="matrix(5.27847,0,0,5.31172,1611.15,-2107.18)" id="buttons">
	
		<g transform="translate(-259.501,-472.992)" id="dpad">
			<path d="m 9.3,915.4 c 0,0.4 -0.2,0.7 -0.4,0.9 l -4.4,3.5 c -0.4,0.3 -1,0.3 -1.5,0 l -4.5,-3.5 C -1.8,916.1 -2,915.7 -2,915.4 v -8.1 c 0,-0.7 0.5,-1.2 1.2,-1.2 v 0 H 8 c 0.6,0 1.2,0.5 1.2,1.2 z" style="fill:#5a5a5a;stroke:#454545;stroke-linecap:round;stroke-linejoin:round" munia:button-state="released" munia:button-id="12" id="dpad-up" />
			<path d="m 9.3,915.4 c 0,0.4 -0.2,0.7 -0.4,0.9 l -4.4,3.5 c -0.4,0.3 -1,0.3 -1.5,0 l -4.5,-3.5 C -1.8,916.1 -2,915.7 -2,915.4 v -8.1 c 0,-0.7 0.5,-1.2 1.2,-1.2 v 0 H 8 c 0.6,0 1.2,0.5 1.2,1.2 z" style="display:none;fill:#ddd;stroke:white;stroke-linecap:round;stroke-linejoin:round" munia:button-state="pressed" munia:button-id="12" id="dpad-up-hl" />

			<path d="m 9.2,934.3 c 0,-0.4 -0.2,-0.7 -0.4,-0.9 l -4.4,-3.5 c -0.4,-0.3 -1,-0.3 -1.5,0 l -4.5,3.5 c -0.3,0.2 -0.5,0.6 -0.5,0.9 v 8.1 c 0,0.7 0.5,1.2 1.2,1.2 v 0 h 8.8 c 0.6,0 1.2,-0.5 1.2,-1.2 z" style="fill:#5a5a5a;stroke:#454545;stroke-linecap:round;stroke-linejoin:round" munia:button-state="released" munia:button-id="13" id="dpad_down" />
			<path d="m 9.2,934.3 c 0,-0.4 -0.2,-0.7 -0.4,-0.9 l -4.4,-3.5 c -0.4,-0.3 -1,-0.3 -1.5,0 l -4.5,3.5 c -0.3,0.2 -0.5,0.6 -0.5,0.9 v 8.1 c 0,0.7 0.5,1.2 1.2,1.2 v 0 h 8.8 c 0.6,0 1.2,-0.5 1.2,-1.2 z" style="display:none;fill:#ddd;stroke:white;stroke-linecap:round;stroke-linejoin:round" munia:button-state="pressed" munia:button-id="13" id="dpad_down-hl" />

			<path d="m -5.8,919.2 c 0.4,0 0.7,0.2 0.9,0.4 l 3.5,4.4 c 0.3,0.4 0.3,1 0,1.5 l -3.5,4.5 c -0.2,0.3 -0.6,0.5 -0.9,0.5 h -8.1 c -0.7,0 -1.2,-0.5 -1.2,-1.2 v 0 -8.8 c 0,-0.6 0.5,-1.2 1.2,-1.2 z" style="fill:#5a5a5a;stroke:#454545;stroke-linecap:round;stroke-linejoin:round" munia:button-state="released" munia:button-id="14" id="dpad-left" />
			<path d="m -5.8,919.2 c 0.4,0 0.7,0.2 0.9,0.4 l 3.5,4.4 c 0.3,0.4 0.3,1 0,1.5 l -3.5,4.5 c -0.2,0.3 -0.6,0.5 -0.9,0.5 h -8.1 c -0.7,0 -1.2,-0.5 -1.2,-1.2 v 0 -8.8 c 0,-0.6 0.5,-1.2 1.2,-1.2 z" style="display:none;fill:#ddd;stroke:white;stroke-linecap:round;stroke-linejoin:round" munia:button-state="pressed" munia:button-id="14" id="dpad-left-hl" />

			<path d="m 13.1,919.3 c -0.4,0 -0.7,0.2 -0.9,0.4 l -3.5,4.4 c -0.3,0.4 -0.3,1 0,1.5 l 3.5,4.5 c 0.2,0.3 0.6,0.5 0.9,0.5 h 8.1 c 0.7,0 1.2,-0.5 1.2,-1.2 v 0 -8.8 c 0,-0.6 -0.5,-1.2 -1.2,-1.2 z" style="fill:#5a5a5a;stroke:#454545;stroke-linecap:round;stroke-linejoin:round" munia:button-state="released" munia:button-id="15" id="dpad-right" />
			<path d="m 13.1,919.3 c -0.4,0 -0.7,0.2 -0.9,0.4 l -3.5,4.4 c -0.3,0.4 -0.3,1 0,1.5 l 3.5,4.5 c 0.2,0.3 0.6,0.5 0.9,0.5 h 8.1 c 0.7,0 1.2,-0.5 1.2,-1.2 v 0 -8.8 c 0,-0.6 -0.5,-1.2 -1.2,-1.2 z" style="display:none;fill:#ddd;stroke-linecap:round;stroke-linejoin:round" munia:button-state="pressed" munia:button-id="15" id="dpad-right-hl" />
		</g>
		
		<g id="face-buttons">		
			<g transform="translate(-259.501,-472.992)" munia:button-state="released" munia:button-id="0" id="facebtn-cross">
				<circle r="8.2" cy="943.1" cx="147.2" style="fill:#5a5a5a;stroke:#454545;stroke-linecap:round;stroke-linejoin:round" id="path3246" />
				<path d="m 143,939 8.5,8.5 m 0,-8.5 -8.5,8.5" style="fill:none;stroke:#8243fb" id="path3313" />
			</g>
			<g style="display:none" transform="translate(-259.501,-472.992)" munia:button-state="pressed" munia:button-id="0" id="facebtn-cross-hl">
				<circle r="8.2" cy="943.1" cx="147.2" style="fill:#ddd;stroke:#f4f4f4;stroke-linecap:round;stroke-linejoin:round" id="circle1725" />
				<path d="m 143,939 8.5,8.5 m 0,-8.5 -8.5,8.5" style="fill:none;stroke:white;stroke-opacity:0.3" id="path1727" />
			</g>
			
			
			<g transform="translate(-259.501,-472.992)" munia:button-state="released" munia:button-id="1" id="facebtn-square">
				<circle r="8.2" cy="925.4" cx="129.5" style="fill:#5a5a5a;stroke:#454545;stroke-linecap:round;stroke-linejoin:round" id="path3250" />
				<rect height="9.4" width="9.4" style="fill:none;stroke:#ff01db" y="920.7" x="124.8" id="rect3307" />
			</g>
			<g style="display:none" transform="translate(-259.501,-472.992)" munia:button-state="pressed" munia:button-id="1" id="facebtn-square-hl">
				<circle r="8.2" cy="925.4" cx="129.5" style="fill:#ddd;stroke:#f4f4f4;stroke-linecap:round;stroke-linejoin:round" id="circle1733" />
				<rect height="9.4" width="9.4" style="fill:none;stroke:white;stroke-opacity:0.3" y="920.7" x="124.8" id="rect1735" />
			</g>
			
			
			<g transform="translate(-259.501,-472.992)" munia:button-state="released" munia:button-id="2" id="facebtn-circle">
				<circle r="8.2" cy="925.4" cx="164.9" style="fill:#5a5a5a;stroke:#454545;stroke-linecap:round;stroke-linejoin:round" id="path3248" />
				<circle r="5.6" cy="925.4" cx="164.9" style="fill:none;stroke:red;stroke-width:1.4583;stroke-linecap:round;stroke-linejoin:round" id="path3311" />
			</g>
			<g style="display:none" transform="translate(-259.501,-472.992)" munia:button-state="pressed" munia:button-id="2" id="facebtn-circle-hl">
				<circle r="8.2" cy="925.4" cx="164.9" style="fill:#ddd;stroke:#f4f4f4;stroke-linecap:round;stroke-linejoin:round" id="circle1741" />
				<circle r="5.6" cy="925.4" cx="164.9" style="fill:none;stroke:white;stroke-width:1.4583;stroke-linecap:round;stroke-linejoin:round;stroke-opacity:0.3" id="circle1743" />
			</g>
			
			
			<g transform="translate(-259.501,-472.992)" munia:button-state="released" munia:button-id="3" id="facebtn-triangle">
				<circle r="8.2" cy="907.7" cx="147.2" style="fill:#5a5a5a;stroke:#454545;stroke-linecap:round;stroke-linejoin:round" id="path3244" />
				<path d="M 152.5,911.1 H 142 l 5.2,-9.1 z" style="fill:none;stroke:#00ff83;stroke-width:1.1416" id="path3309" />
			</g>
			<g style="display:none" transform="translate(-259.501,-472.992)" munia:button-state="pressed" munia:button-id="3" id="facebtn-triangle-hl">
				<circle r="8.2" cy="907.7" cx="147.2" style="fill:#ddd;stroke:#f4f4f4;stroke-linecap:round;stroke-linejoin:round" id="circle1749" />
				<path d="M 152.5,911.1 H 142 l 5.2,-9.1 z" style="fill:none;stroke:white;stroke-width:1.1416;stroke-opacity:0.3" id="path1751" />
			</g>
		</g>
		<path d="m -210.5,449.884 h 8.5 c 0.9,0 1.6,0.7 1.6,1.6 v 3.5 c 0,0.9 -0.7,1.6 -1.6,1.6 h -8.5 c -0.9,0 -1.6,-0.7 -1.6,-1.6 v -3.5 c 0.1,-0.9 0.8,-1.6 1.6,-1.6 z" style="fill:#595959;stroke:black;stroke-linecap:round;stroke-linejoin:round" munia:button-state="released" munia:button-id="4" id="btn-select" />
		<path d="m -210.5,449.884 h 8.5 c 0.9,0 1.6,0.7 1.6,1.6 v 3.5 c 0,0.9 -0.7,1.6 -1.6,1.6 h -8.5 c -0.9,0 -1.6,-0.7 -1.6,-1.6 v -3.5 c 0.1,-0.9 0.8,-1.6 1.6,-1.6 z" style="display:none;fill:#ddd;stroke:white;stroke-linecap:round;stroke-linejoin:round" munia:button-state="pressed" munia:button-id="4" id="btn-select-hl" />
		<path d="m -158.3,453.184 -8.5,3.3 c -0.8,0.3 -1.6,-0.7 -1.6,-1.6 v -3.5 c 0,-0.9 0.8,-1.9 1.6,-1.6 z" style="fill:#595959;stroke:black;stroke-linecap:round;stroke-linejoin:round" munia:button-state="released" munia:button-id="5" id="btn-start" />
		<path d="m -158.3,453.184 -8.5,3.3 c -0.8,0.3 -1.6,-0.7 -1.6,-1.6 v -3.5 c 0,-0.9 0.8,-1.9 1.6,-1.6 z" style="display:none;fill:#ddd;stroke:white;stroke-linecap:round;stroke-linejoin:round" munia:button-state="pressed" munia:button-id="5" id="btn-start-hl" />
	</g>
	
	<g transform="matrix(5.27847,0,0,5.31172,1611.15,-2107.18)" id="sticks">
		<g transform="translate(-259.501,-472.992)" id="stick-left">
			<circle r="24.1" cy="962.2" cx="40.1" style="fill:#333;stroke:black;stroke-width:1.5652;stroke-linecap:round;stroke-linejoin:round" id="stick-left-base" />
			<circle r="18.6" cy="962.2" cx="40.1" style="fill-opacity:0.5185;stroke:black;stroke-width:2.0282;stroke-linecap:round;stroke-linejoin:round" id="stick-left-outer" />
			<circle r="16.2" cy="962.2" cx="40.1" style="fill:#4d4d4d;fill-opacity:0.9;stroke:black;stroke-width:2.3226;stroke-linecap:round;stroke-linejoin:round" munia:deadzone="21" munia:offset-scale="0.6" munia:axis-v="1" munia:axis-h="0" munia:button-state="released" munia:button-id="6" munia:stick-id="0" id="stick-left-inner" />
			<circle r="16.2" cy="962.2" cx="40.1" style="display:none;fill:#ddd;fill-opacity:0.8;stroke:black;stroke-width:2.3226;stroke-linecap:round;stroke-linejoin:round" munia:deadzone="21" munia:offset-scale="0.6" munia:axis-v="1" munia:axis-h="0" munia:button-state="pressed" munia:button-id="6" munia:stick-id="0" id="stick-left-inner-hl" />
		</g>
		<g transform="translate(-259.501,-472.992)" id="stick-right">
			<circle r="24.1" cy="962.2" cx="110.2" style="fill:#333;stroke:black;stroke-width:1.5652;stroke-linecap:round;stroke-linejoin:round" id="stick-right-base" />
			<circle r="18.6" cy="962.2" cx="110.2" style="fill-opacity:0.5185;stroke:black;stroke-width:2.0282;stroke-linecap:round;stroke-linejoin:round" id="stick-right-outer" />
			<circle r="16.2" cy="962.2" cx="110.2" style="fill:#4d4d4d;fill-opacity:0.9;stroke:black;stroke-width:2.3226;stroke-linecap:round;stroke-linejoin:round" munia:deadzone="21" munia:offset-scale="0.6" munia:axis-v="3" munia:axis-h="2" munia:button-state="released" munia:button-id="7" munia:stick-id="1" id="stick-right-inner" />
			<circle r="16.2" cy="962.2" cx="110.2" style="display:none;fill:#ddd;fill-opacity:0.8;stroke:black;stroke-width:2.3226;stroke-linecap:round;stroke-linejoin:round" munia:deadzone="21" munia:offset-scale="0.6" munia:axis-v="3" munia:axis-h="2" munia:button-state="pressed" munia:button-id="7" munia:stick-id="1" id="stick-right-inner-hl" />
		</g>
	</g>
</svg>