<?xml version="1.0" encoding="iso-8859-1"?>
<svg 
	xmlns:dc="http://purl.org/dc/elements/1.1/" 
	xmlns:rdf="http://www.w3.org/1999/02/22-rdf-syntax-ns#" 
	xmlns:svg="http://www.w3.org/2000/svg" 
	xmlns:cc="http://creativecommons.org/ns#" 
	xmlns="http://www.w3.org/2000/svg" 
	xmlns:xlink="http://www.w3.org/1999/xlink"
	version="1.1" 
	id="ps2-controller" x="0px" y="0px" width="242.5px" height="150.6px" 
	viewBox="-305.2 396.7 242.5 150.6"
	style="enable-background:new -305.2 396.7 242.5 150.6;" xml:space="preserve">
	<g id="triggers">
		<path id="L2" style="fill:#7A7A7A;stroke:#000000;" d="M-272.3,406.4h33.2l-2.6-4.3c-1.7-2.8-6.1-4.9-14-4.9s-12.3,2.1-14,4.9L-272.3,406.4z"/>
		<path id="R2" style="fill:#7A7A7A;stroke:#000000;" d="M-130,406.4   h33.2l-2.6-4.3c-1.7-2.8-6.1-4.9-14-4.9s-12.3,2.1-14,4.9L-130,406.4z"/>
		<g id="L1">
			<path id="L1-trigger" style="fill:#262626;stroke:#000000;" d="M-234.9,426.2c-1.7-11-2.5-16.5-3.3-20.5c-0.8-4.1-7.7-6.1-17.6-6.1c-9.9,0-16.8,2.1-17.5,6.1c-0.8,4.1-1.6,9.5-3.3,20.5"/>
			<path id="text-L" d="M-258,404h1v6.8h3.7v0.9h-4.7V404"/>
		</g>
		<g id="R1">
			<path id="R1-trigger" style="fill:#262626;stroke:#000000;" d="M-92.6,426.2c-1.7-11-2.5-16.5-3.3-20.5c-0.8-4.1-7.7-6.1-17.6-6.1s-16.7,2.1-17.5,6.1c-0.8,4.1-1.6,9.5-3.3,20.5"/>
			<path id="text-R" d="M-111.5,408.1c0.2,0.1,0.4,0.2,0.6,0.5c0.2,0.2,0.4,0.6,0.6,1l1.1,2.1h-1.1    l-1-2c-0.3-0.5-0.5-0.9-0.7-1c-0.2-0.2-0.6-0.3-1-0.3h-1.1v3.2h-1v-7.7h2.3c0.9,0,1.5,0.2,2,0.5c0.4,0.4,0.6,0.9,0.6,1.7    c0,0.5-0.1,0.9-0.3,1.2C-110.7,407.8-111.1,408-111.5,408.1 M-114.1,404.9v2.7h1.3c0.5,0,0.9-0.1,1.1-0.3c0.3-0.2,0.4-0.6,0.4-1    s-0.1-0.8-0.4-1c-0.3-0.2-0.6-0.3-1.1-0.3h-1.3"/>
		</g>
	</g>

	<g id="background">
		<path id="back-base" style="fill:#3F3F3F;stroke:#000000;stroke-linecap:round;stroke-linejoin:round;" d="M-244.9,420.5c-1.5,0-2.8,1.2-2.8,2.8v73.2c0,1.5,1.2,2.8,2.8,2.8h121.8c1.5,0,2.8-1.2,2.8-2.8v-73.2c0-1.5-1.2-2.8-2.8-2.8h-52.8   c-0.3,0.4-0.8,0.8-1.3,0.8h-14.3c-0.6,0-1-0.3-1.3-0.8H-244.9z"/>
		<path id="front-base" style="fill:#262626;" d="M-238.6,426.8h109.1c1.5,0,2.8,1.2,2.8,2.7v63.1c0,1.5-1.2,2.7-2.8,2.7h-109.1   c-1.5,0-2.8-1.2-2.8-2.7v-63.1C-241.3,428-240.1,426.8-238.6,426.8z"/>
		<path id="leg-left" style="fill:#262626;stroke:#000000;" d="M-292.6,443c-5.5,30.1-9.1,62.2-11.8,76.3c-4.2,22.1,32.8,40.7,46.8,15.2c10.6-19.4,22.7-44.2,22.7-44.2L-292.6,443z"/>
		<circle id="dpad-base" style="fill:#333333;stroke:#000000;stroke-linecap:round;stroke-linejoin:round;" cx="-255.7" cy="452.4" r="37.9"/>
		<path id="leg-right" style="fill:#262626;stroke:#000000;" d="M-75.4,443c5.5,30.1,9.1,62.7,11.8,76.3c4.4,22.1-32.8,40.7-46.8,15.2c-10.6-19.4-22.7-44.2-22.7-44.2L-75.4,443z"/>
		<circle id="face-base-circle" style="fill:#333333;stroke:#000000;stroke-linecap:round;stroke-linejoin:round;" cx="-112.3" cy="452.4" r="37.9"/>
		<path id="face-buttons-base" style="fill:#262626;" d="M-120.1,424.4c-1.5,0-2.8,1.2-2.8,2.8   v14.7h-14.7c-1.5,0-2.8,1.2-2.8,2.8v15.6c0,1.5,1.2,2.8,2.8,2.8h14.7v14.7c0,1.5,1.2,2.8,2.8,2.8h15.6c1.5,0,2.7-1.2,2.8-2.8v-14.7   H-87c1.5,0,2.8-1.2,2.8-2.8v-15.6c0-1.5-1.2-2.8-2.8-2.8h-14.7v-14.7c0-1.5-1.2-2.8-2.8-2.8H-120.1z"/>
		<path id="dpad-base_1_" style="fill:#262626;" d="M-263.7,423.9c-1.5,0-2.8,1.2-2.8,2.8v14.7   h-14.6c-1.5,0-2.8,1.2-2.8,2.8v15.5c0,1.5,1.2,2.8,2.8,2.8h14.7v14.7c0,1.5,1.2,2.8,2.8,2.8h15.6c1.5,0,2.7-1.2,2.8-2.8v-14.7h14.7   c1.5,0,2.8-1.2,2.8-2.8v-15.6c0-1.5-1.2-2.8-2.8-2.8h-14.8v-14.6c0-1.5-1.2-2.8-2.8-2.8H-263.7z"/>
		<g id="dpad-outer" transform="translate(-259.50125,-472.9924)">
			<path id="dpad-outer-up" style="fill:#3F3F3F;" d="M3.6,899.8l-3.8,3.6h7.6L3.6,899.8z"/>
			<path id="dpad-outer-down" style="fill:#3F3F3F;" d="M3.6,949.9l-3.8-3.6h7.6L3.6,949.9z"/>
			<path id="dpad-outer-right" style="fill:#3F3F3F;" d="M28.7,924.9l-3.6-3.8v7.6L28.7,924.9z"/>
			<path id="dpad-outer-left" style="fill:#3F3F3F;" d="M-21.4,924.9l3.6-3.8v7.6L-21.4,924.9z"/>
		</g>
		<path id="text-select" style="fill:#E6E6E6;" d="M-211.9,447.2v0.4c-0.2-0.1-0.3-0.1-0.5-0.2   c-0.2,0-0.3-0.1-0.4-0.1c-0.2,0-0.4,0-0.6,0.1c-0.1,0.1-0.2,0.2-0.2,0.4c0,0.1,0,0.3,0.1,0.3c0.1,0.1,0.3,0.1,0.5,0.2l0.3,0.1   c0.3,0.1,0.6,0.2,0.7,0.3c0.2,0.2,0.2,0.4,0.2,0.6c0,0.3-0.1,0.6-0.3,0.7c-0.2,0.2-0.5,0.2-0.9,0.2c-0.2,0-0.3,0-0.5-0.1   c-0.2,0-0.4-0.1-0.6-0.2v-0.5c0.2,0.1,0.4,0.2,0.5,0.2c0.2,0.1,0.3,0.1,0.5,0.1c0.3,0,0.5-0.1,0.6-0.2c0.1-0.1,0.2-0.2,0.2-0.4   c0-0.2-0.1-0.3-0.2-0.4c-0.1-0.1-0.3-0.2-0.5-0.2l-0.3-0.1c-0.3-0.1-0.6-0.2-0.7-0.3c-0.2-0.1-0.2-0.3-0.2-0.6   c0-0.3,0.1-0.5,0.3-0.7c0.2-0.2,0.5-0.3,0.9-0.3c0.2,0,0.3,0,0.5,0C-212.2,447.1-212,447.1-211.9,447.2 M-211,447.1h2.1v0.4h-1.7v1   h1.6v0.4h-1.6v1.2h1.7v0.4h-2.1V447.1 M-208.1,447.1h0.5v2.9h1.6v0.4h-2.1V447.1 M-205.5,447.1h2.1v0.4h-1.7v1h1.6v0.4h-1.6v1.2   h1.7v0.4h-2.1V447.1 M-200.2,447.3v0.5c-0.2-0.1-0.3-0.2-0.5-0.3c-0.2-0.1-0.4-0.1-0.5-0.1c-0.4,0-0.7,0.1-0.9,0.3   c-0.2,0.2-0.3,0.6-0.3,1s0.1,0.8,0.3,1c0.2,0.2,0.5,0.3,0.9,0.3c0.2,0,0.4,0,0.5-0.1c0.2-0.1,0.3-0.2,0.5-0.3v0.5   c-0.2,0.1-0.3,0.2-0.5,0.2c-0.2,0.1-0.4,0.1-0.6,0.1c-0.5,0-0.9-0.2-1.2-0.5c-0.3-0.3-0.4-0.7-0.4-1.3c0-0.5,0.1-1,0.4-1.3   s0.7-0.5,1.2-0.5c0.2,0,0.4,0,0.6,0.1C-200.5,447.1-200.3,447.2-200.2,447.3 M-199.9,447.1h2.8v0.4h-1.2v2.9h-0.5v-2.9h-1.2   L-199.9,447.1"/>
		<path id="text-start" style="fill:#E6E6E6;" d="M-169,447.2v0.4c-0.2-0.1-0.3-0.1-0.5-0.2   c-0.2,0-0.3-0.1-0.4-0.1c-0.2,0-0.4,0-0.6,0.1c-0.1,0.1-0.2,0.2-0.2,0.4c0,0.1,0,0.3,0.1,0.3c0.1,0.1,0.3,0.1,0.5,0.2l0.3,0.1   c0.3,0.1,0.6,0.2,0.7,0.3c0.2,0.2,0.2,0.4,0.2,0.6c0,0.3-0.1,0.6-0.3,0.7c-0.2,0.2-0.5,0.2-0.9,0.2c-0.2,0-0.3,0-0.5-0.1   c-0.2,0-0.4-0.1-0.6-0.2v-0.5c0.2,0.1,0.4,0.2,0.5,0.2c0.2,0.1,0.3,0.1,0.5,0.1c0.3,0,0.5-0.1,0.6-0.2s0.2-0.2,0.2-0.4   c0-0.2-0.1-0.3-0.2-0.4c-0.1-0.1-0.3-0.2-0.5-0.2l-0.3-0.1c-0.3-0.1-0.6-0.2-0.7-0.3c-0.2-0.1-0.2-0.3-0.2-0.6   c0-0.3,0.1-0.5,0.3-0.7s0.5-0.3,0.9-0.3c0.2,0,0.3,0,0.5,0C-169.3,447.1-169.2,447.1-169,447.2 M-168.6,447.1h2.8v0.4h-1.2v2.9   h-0.5v-2.9h-1.2L-168.6,447.1 M-164.5,447.5l-0.6,1.7h1.2L-164.5,447.5 M-164.8,447.1h0.5l1.3,3.3h-0.5l-0.3-0.9h-1.5l-0.3,0.9   h-0.5L-164.8,447.1 M-161,448.8c0.1,0,0.2,0.1,0.3,0.2s0.2,0.3,0.3,0.4l0.5,0.9h-0.5l-0.4-0.9c-0.1-0.2-0.2-0.4-0.3-0.4   c-0.1-0.1-0.2-0.1-0.4-0.1h-0.5v1.4h-0.5V447h1c0.4,0,0.7,0.1,0.9,0.2s0.3,0.4,0.3,0.7c0,0.2,0,0.4-0.1,0.5   C-160.6,448.7-160.8,448.8-161,448.8 M-162.1,447.4v1.2h0.6c0.2,0,0.4,0,0.5-0.1s0.2-0.2,0.2-0.4s-0.1-0.3-0.2-0.4   c-0.1-0.1-0.3-0.1-0.5-0.1h-0.6 M-160.2,447.1h2.8v0.4h-1.2v2.9h-0.4v-2.9h-1.2V447.1"/>
	</g>

	<g id="buttons">
		<path id="btn-select" style="fill:#595959;stroke:#000000;stroke-linecap:round;stroke-linejoin:round;" d="M-210.5,452.9h8.5   c0.9,0,1.6,0.7,1.6,1.6v3.5c0,0.9-0.7,1.6-1.6,1.6h-8.5c-0.9,0-1.6-0.7-1.6-1.6v-3.5C-212,453.6-211.3,452.9-210.5,452.9z"/>
		<path id="btn-start" style="fill:#595959;stroke:#000000;stroke-linecap:round;stroke-linejoin:round;" d="M-158.3,456.2l-8.5,3.3c-0.8,0.3-1.6-0.7-1.6-1.6v-3.5c0-0.9,0.8-1.9,1.6-1.6L-158.3,456.2z"/>
		<g id="dpad" transform="translate(-259.50125,-472.9924)">		
			<path id="dpad-right" style="fill:#5A5A5A;stroke:#454545;stroke-linecap:round;stroke-linejoin:round;" d="M13.1,919.3c-0.4,0-0.7,0.2-0.9,0.4l-3.5,4.4c-0.3,0.4-0.3,1,0,1.5l3.5,4.5c0.2,0.3,0.6,0.5,0.9,0.5h8.1c0.7,0,1.2-0.5,1.2-1.2    l0,0v-8.8c0-0.6-0.5-1.2-1.2-1.2L13.1,919.3z"/>
			<path id="dpad-left" style="fill:#5A5A5A;stroke:#454545;stroke-linecap:round;stroke-linejoin:round;" d="M-5.8,919.2c0.4,0,0.7,0.2,0.9,0.4l3.5,4.4c0.3,0.4,0.3,1,0,1.5l-3.5,4.5c-0.2,0.3-0.6,0.5-0.9,0.5h-8.1c-0.7,0-1.2-0.5-1.2-1.2    l0,0v-8.8c0-0.6,0.5-1.2,1.2-1.2L-5.8,919.2z"/>
			<path id="dpad_down" style="fill:#5A5A5A;stroke:#454545;stroke-linecap:round;stroke-linejoin:round;" d="M9.2,934.3c0-0.4-0.2-0.7-0.4-0.9l-4.4-3.5c-0.4-0.3-1-0.3-1.5,0l-4.5,3.5c-0.3,0.2-0.5,0.6-0.5,0.9v8.1c0,0.7,0.5,1.2,1.2,1.2    l0,0h8.8c0.6,0,1.2-0.5,1.2-1.2L9.2,934.3z"/>
			<path id="dpad-up" style="fill:#5A5A5A;stroke:#454545;stroke-linecap:round;stroke-linejoin:round;" d="M9.3,915.4c0,0.4-0.2,0.7-0.4,0.9l-4.4,3.5c-0.4,0.3-1,0.3-1.5,0l-4.5-3.5c-0.3-0.2-0.5-0.6-0.5-0.9v-8.1c0-0.7,0.5-1.2,1.2-1.2    l0,0H8c0.6,0,1.2,0.5,1.2,1.2L9.3,915.4z"/>
		</g>
		<g id="face-buttons">
			<g id="facebtn-square" transform="translate(-259.50125,-472.9924)">			
				<circle id="path3250" style="fill:#5A5A5A;stroke:#454545;stroke-linecap:round;stroke-linejoin:round;" cx="129.5" cy="925.4" r="8.2"/>
				<rect id="rect3307" x="124.8" y="920.7" style="fill:none;stroke:#FF01DB;" width="9.4" height="9.4"/>
			</g>
			<g id="facebtn-triangle" transform="translate(-259.50125,-472.9924)">
				<circle id="path3244" style="fill:#5A5A5A;stroke:#454545;stroke-linecap:round;stroke-linejoin:round;" cx="147.2" cy="907.7" r="8.2"/>
				<path id="path3309" style="fill:none;stroke:#00FF83;stroke-width:1.1416;" d="M152.5,911.1H142l5.2-9.1L152.5,911.1z"/>
			</g>
			<g id="facebtn-circle" transform="translate(-259.50125,-472.9924)">
				<circle id="path3248" style="fill:#5A5A5A;stroke:#454545;stroke-linecap:round;stroke-linejoin:round;" cx="164.9" cy="925.4" r="8.2"/>
				<circle id="path3311" style="fill:none;stroke:#FF0000;stroke-width:1.4583;stroke-linecap:round;stroke-linejoin:round;" cx="164.9" cy="925.4" r="5.6"/>
			</g>
			<g id="facebtn-cross" transform="translate(-259.50125,-472.9924)">
				<circle id="path3246" style="fill:#5A5A5A;stroke:#454545;stroke-linecap:round;stroke-linejoin:round;" cx="147.2" cy="943.1" r="8.2"/>
				<path id="path3313" style="fill:none;stroke:#8243FB;" d="M143,939l8.5,8.5 M151.5,939     l-8.5,8.5"/>
			</g>
		</g>
	</g>
	<g id="sticks">
		<g id="stick-right" transform="translate(-259.50125,-472.9924)">
			<circle id="stick-right-base" style="fill:#333333;stroke:#000000;stroke-width:1.5652;stroke-linecap:round;stroke-linejoin:round;" cx="110.2" cy="962.2" r="24.1"/>
			<circle id="stick-right-outer" style="fill-opacity:0.5185;stroke:#000000;stroke-width:2.0282;stroke-linecap:round;stroke-linejoin:round;" cx="110.2" cy="962.2" r="18.6"/>
			<circle id="stick-right-inner" style="fill:#4D4D4D;fill-opacity:0.5185;stroke:#000000;stroke-width:2.3226;stroke-linecap:round;stroke-linejoin:round;" cx="110.2" cy="962.2" r="16.2"/>
		</g>
		<g id="stick-left" transform="translate(-259.50125,-472.9924)">
			<circle id="stick-left-base" style="fill:#333333;stroke:#000000;stroke-width:1.5652;stroke-linecap:round;stroke-linejoin:round;" cx="40.1" cy="962.2" r="24.1"/>
			<circle id="stick-left-outer" style="fill-opacity:0.5185;stroke:#000000;stroke-width:2.0282;stroke-linecap:round;stroke-linejoin:round;" cx="40.1" cy="962.2" r="18.6"/>
			<circle id="stick-left-inner" style="fill:#4D4D4D;fill-opacity:0.5185;stroke:#000000;stroke-width:2.3226;stroke-linecap:round;stroke-linejoin:round;" cx="40.1" cy="962.2" r="16.2"/>
		</g>
	</g>
</svg>
