<svg xmlns:munia="http://www.munia.io/namespaces/munia" xmlns="http://www.w3.org/2000/svg" viewBox="-0.1 0 731.82 321.498" height="321.498" width="731.82">
    <munia:info munia:device-type="PS2" munia:skin-name="PlayStation 2 - compact"/>
    <path d="M18.274 2.395c-8.561 0-15.979 4.823-15.979 11.254v294.202c0 6.029 6.848 11.253 15.979 11.253H713.35c8.557 0 15.976-4.823 15.976-11.253V13.649c0-6.029-6.851-11.254-15.976-11.254-236.282 4.759-459.357 0-695.076 0z" fill="#3f3f3f" fill-opacity=".362" stroke="#000" stroke-width="4.789" stroke-linecap="round" stroke-linejoin="round"/>
    <g transform="matrix(5.34872 0 0 -2.90785 -42.825 250.892)" munia:button-id="8" munia:button-state="pressed">
        <rect rx=".748" ry="1.376" height="10" width="20" y="55" x="53" fill="#ccc" stroke="#f4f4f4" stroke-width=".198"/>
        <text transform="scale(.7267 -1.3761)" y="-41.26" x="82.32" style="line-height:9.12181px" font-weight="400" font-size="6.811" font-family="sans-serif" letter-spacing="0" word-spacing="0" fill="#fff" stroke-width=".365">
            <tspan y="-41.26" x="82.32">L1</tspan>
        </text>
    </g>
    <g transform="matrix(5.34872 0 0 -2.90785 -42.825 250.892)" munia:button-id="8" munia:button-state="released">
        <rect rx=".748" ry="1.376" height="10" width="20" y="55" x="53" fill="#555" stroke="#000" stroke-width=".198"/>
        <text transform="scale(.7267 -1.3761)" y="-41.26" x="82.32" style="line-height:9.12181px" font-weight="400" font-size="6.811" font-family="sans-serif" letter-spacing="0" word-spacing="0" fill="#fff" stroke-width=".365">
            <tspan y="-41.26" x="82.32">L1</tspan>
        </text>
    </g>
    <g transform="matrix(5.34872 0 0 -2.90785 -66.825 250.892)" munia:button-id="9" munia:button-state="pressed">
        <rect rx=".748" ry="1.376" height="10" width="20" y="55" x="83" fill="#ccc" stroke="#f4f4f4" stroke-width=".198"/>
        <text transform="scale(.7267 -1.3761)" y="-41.26" x="123.923" style="line-height:9.12181px" font-weight="400" font-size="6.811" font-family="sans-serif" letter-spacing="0" word-spacing="0" fill="#fff" stroke-width=".365">
            <tspan y="-41.26" x="123.923">R1</tspan>
        </text>
    </g>
    <g transform="matrix(5.34872 0 0 -2.90785 -66.825 250.892)" munia:button-id="9" munia:button-state="released">
        <rect rx=".748" ry="1.376" height="10" width="20" y="55" x="83" fill="#555" stroke="#000" stroke-width=".198"/>
        <text transform="scale(.7267 -1.3761)" y="-41.26" x="123.923" style="line-height:9.12181px" font-weight="400" font-size="6.811" font-family="sans-serif" letter-spacing="0" word-spacing="0" fill="#fff" stroke-width=".365">
            <tspan y="-41.26" x="123.923">R1</tspan>
        </text>
    </g>
    <g transform="matrix(5.34872 0 0 -2.90785 -42.825 258.892)" munia:button-id="10" munia:button-state="pressed">
        <rect rx=".748" ry="1.376" height="10" width="20" y="72" x="53" fill="#ccc" stroke="#f4f4f4" stroke-width=".198"/>
        <text transform="scale(.7267 -1.3761)" y="-53.665" x="82.32" style="line-height:9.12181px" font-weight="400" font-size="6.811" font-family="sans-serif" letter-spacing="0" word-spacing="0" fill="#fff" stroke-width=".365">
            <tspan y="-53.665" x="82.32">L2</tspan>
        </text>
    </g>
    <g transform="matrix(5.34872 0 0 -2.90785 -42.825 258.892)" munia:button-id="10" munia:button-state="released">
        <rect rx=".748" ry="1.376" height="10" width="20" y="72" x="53" fill="#555" stroke="#000" stroke-width=".198"/>
        <text transform="scale(.7267 -1.3761)" y="-53.665" x="82.32" style="line-height:9.12181px" font-weight="400" font-size="6.811" font-family="sans-serif" letter-spacing="0" word-spacing="0" fill="#fff" stroke-width=".365">
            <tspan y="-53.665" x="82.32">L2</tspan>
        </text>
    </g>
    <g transform="matrix(5.34872 0 0 -2.90785 -66.825 258.892)" munia:button-id="11" munia:button-state="pressed">
        <rect rx="747.842" ry="1.376" height="10" width="20" y="72" x="83" fill="#ccc" stroke="#f4f4f4" stroke-width=".198"/>
        <text transform="scale(.7267 -1.3761)" y="-53.665" x="123.923" style="line-height:9.12181px" font-weight="400" font-size="6.811" font-family="sans-serif" letter-spacing="0" word-spacing="0" fill="#fff" stroke-width=".365">
            <tspan y="-53.665" x="123.923">R2</tspan>
        </text>
    </g>
    <g transform="matrix(5.34872 0 0 -2.90785 -66.825 258.892)" munia:button-id="11" munia:button-state="released">
        <rect ry="1.376" rx=".748" height="10" width="20" y="72" x="83" fill="#555" stroke="#000" stroke-width=".198"/>
        <text transform="scale(.7267 -1.3761)" y="-53.665" x="123.923" style="line-height:9.12181px" font-weight="400" font-size="6.811" font-family="sans-serif" letter-spacing="0" word-spacing="0" fill="#fff" stroke-width=".365">
            <tspan y="-53.665" x="123.923">R2</tspan>
        </text>
    </g>
    <g>
        <path d="M116.581 10.946c-7.917 0-14.779 6.374-14.779 14.873V103.9H24.736c-7.918 0-14.78 6.374-14.78 14.873v82.332c0 7.967 6.335 14.873 14.78 14.873h77.594v78.082c0 7.967 6.334 14.873 14.78 14.873h82.343c7.918 0 14.252-6.374 14.78-14.873v-78.082h77.594c7.917 0 14.78-6.375 14.78-14.873v-82.863c0-7.968-6.335-14.873-14.78-14.873h-78.122V25.819c0-7.968-6.334-14.873-14.779-14.873z" fill="#262626" stroke-width="5.295"/>
        <g fill="#3f3f3f">
            <path d="M157.749 26.394L137.69 45.516h40.116zM157.749 292.51L137.69 273.39h40.116zM290.238 159.718l-19.002-20.185v40.37zM25.787 159.718l19.003-20.185v40.37z"/>
        </g>
        <g fill="#5a5a5a" stroke="#454545" stroke-linecap="round" stroke-linejoin="round">
            <path d="M9.3 915.4c0 .4-.2.7-.4.9l-4.4 3.5c-.4.3-1 .3-1.5 0l-4.5-3.5c-.3-.2-.5-.6-.5-.9v-8.1c0-.7.5-1.2 1.2-1.2H8c.6 0 1.2.5 1.2 1.2z" munia:button-state="released" munia:button-id="12" transform="matrix(5.51434 0 0 5.63063 137.473 -5049.292)"/>
            <path d="M9.2 934.3c0-.4-.2-.7-.4-.9l-4.4-3.5c-.4-.3-1-.3-1.5 0l-4.5 3.5c-.3.2-.5.6-.5.9v8.1c0 .7.5 1.2 1.2 1.2h8.8c.6 0 1.2-.5 1.2-1.2z" munia:button-state="released" munia:button-id="13" transform="matrix(5.51434 0 0 5.63063 137.473 -5049.292)"/>
            <path d="M-5.8 919.2c.4 0 .7.2.9.4l3.5 4.4c.3.4.3 1 0 1.5l-3.5 4.5c-.2.3-.6.5-.9.5h-8.1c-.7 0-1.2-.5-1.2-1.2v-8.8c0-.6.5-1.2 1.2-1.2z" munia:button-state="released" munia:button-id="14" transform="matrix(5.51434 0 0 5.63063 137.473 -5049.292)"/>
            <path d="M13.1 919.3c-.4 0-.7.2-.9.4l-3.5 4.4c-.3.4-.3 1 0 1.5l3.5 4.5c.2.3.6.5.9.5h8.1c.7 0 1.2-.5 1.2-1.2v-8.8c0-.6-.5-1.2-1.2-1.2z" munia:button-state="released" munia:button-id="15" transform="matrix(5.51434 0 0 5.63063 137.473 -5049.292)"/>
        </g>
    </g>
    <g>
        <path d="M526.687 12.954c-7.918 0-14.78 6.325-14.78 14.758v77.476h-77.593c-7.918 0-14.78 6.324-14.78 14.757v82.22c0 7.905 6.334 14.758 14.78 14.758h77.593v77.476c0 7.905 6.334 14.757 14.78 14.757h82.344c7.92 0 14.25-6.324 14.78-14.757v-77.476h77.59c7.92 0 14.78-6.326 14.78-14.758v-82.22c0-7.906-6.33-14.757-14.78-14.757h-77.59V27.712c0-7.907-6.33-14.758-14.78-14.758z" fill="#262626" stroke-width="5.295"/>
        <g munia:button-state="released" munia:button-id="0" transform="matrix(5.41561 0 0 5.48349 -229.495 -4912.889)">
            <circle r="8.2" cy="943.1" cx="147.2" fill="#5a5a5a" stroke="#454545" stroke-linecap="round" stroke-linejoin="round"/>
            <path d="M143 939l8.5 8.5m0-8.5l-8.5 8.5" fill="none" stroke="#8243fb"/>
        </g>
        <g munia:button-state="released" munia:button-id="1" transform="matrix(5.41561 0 0 5.48349 -229.495 -4912.889)">
            <circle r="8.2" cy="925.4" cx="129.5" fill="#5a5a5a" stroke="#454545" stroke-linecap="round" stroke-linejoin="round"/>
            <path fill="none" stroke="#ff01db" d="M124.8 920.7h9.4v9.4h-9.4z"/>
        </g>
        <g munia:button-state="released" munia:button-id="2" stroke-linecap="round" stroke-linejoin="round" transform="matrix(5.41561 0 0 5.48349 -229.495 -4912.889)">
            <circle r="8.2" cy="925.4" cx="164.9" fill="#5a5a5a" stroke="#454545"/>
            <circle r="5.6" cy="925.4" cx="164.9" fill="none" stroke="red" stroke-width="1.458"/>
        </g>
        <g munia:button-state="released" munia:button-id="3" transform="matrix(5.41561 0 0 5.48349 -229.495 -4912.889)">
            <circle r="8.2" cy="907.7" cx="147.2" fill="#5a5a5a" stroke="#454545" stroke-linecap="round" stroke-linejoin="round"/>
            <path d="M152.5 911.1H142l5.2-9.1z" fill="none" stroke="#00ff83" stroke-width="1.142"/>
        </g>
    </g>
    <g fill="#595959" stroke="#000" stroke-linecap="round" stroke-linejoin="round">
        <path d="M-210.5 449.884h8.5c.9 0 1.6.7 1.6 1.6v3.5c0 .9-.7 1.6-1.6 1.6h-8.5c-.9 0-1.6-.7-1.6-1.6v-3.5c.1-.9.8-1.6 1.6-1.6z" munia:button-id="4" munia:button-state="released" transform="matrix(5.27847 0 0 5.31172 1391.449 -2147.548)"/>
        <path d="M-175.734 453.184l-8.5 3.3c-.8.3-1.6-.7-1.6-1.6v-3.5c0-.9.8-1.9 1.6-1.6z" munia:button-id="5" munia:button-state="released" transform="matrix(5.27847 0 0 5.31172 1391.449 -2147.548)"/>
    </g>
</svg>
