<?xml version="1.0" encoding="UTF-8" standalone="no"?>
<svg xmlns:munia="http://www.munia.io/namespaces/munia" xmlns:dc="http://purl.org/dc/elements/1.1/" xmlns:cc="http://creativecommons.org/ns#" xmlns:rdf="http://www.w3.org/1999/02/22-rdf-syntax-ns#" xmlns:svg="http://www.w3.org/2000/svg" xmlns="http://www.w3.org/2000/svg" width="1280" height="555" viewBox="0 0 1280 555" id="svg4136" version="1.1">
    <munia:info munia:skin-name="SNES" munia:device-type="SNES" />
    <g id="layer1" style="display:inline" transform="translate(-37.4583,-73.8974)">
        <path id="L" munia:button-id="5" munia:button-state="released" munia:z-index="-1" style="fill:#dedede;fill-opacity:1;fill-rule:evenodd;stroke:black;stroke-width:5.301616;stroke-linecap:butt;stroke-linejoin:miter;stroke-miterlimit:4;stroke-dasharray:none;stroke-opacity:1" d="M 456.119,104.388 V 82.9734 c 0.141,-2.8399 -2.679,-5.3539 -5.893,-5.3539 -3.215,0 -154.287,-1.071 -154.287,-1.071 -29.831,3.123 -57.56,4.9545 -98.573,23.2883 -3.882,2.0072 -10.713,6.4242 -10.713,6.4242 -1.875,1.607 -5.358,3.748 -8.171,10.44 -0.937,5.622 -0.937,25.163 -0.937,25.163 z" />
        <path id="L Pressed" munia:button-id="5" munia:button-state="pressed" munia:z-index="-1" d="m 432.174,134.071 v -20.203 c 0.134,-2.679 -2.525,-5.051 -5.556,-5.051 -3.03,0 -145.462,-1.01 -145.462,-1.01 -28.125,2.946 -54.267,4.674 -92.934,21.97 -3.661,1.894 -10.101,6.061 -10.101,6.061 -1.768,1.516 -5.051,3.536 -7.703,9.849 -0.884,5.304 -0.884,23.739 -0.884,23.739 z" style="display:none;fill:#f60202;fill-opacity:1;fill-rule:evenodd;stroke:#f60202;stroke-width:5;stroke-linecap:butt;stroke-linejoin:miter;stroke-miterlimit:4;stroke-dasharray:none;stroke-opacity:1" />
        <path id="R" munia:button-id="4" munia:button-state="released" munia:z-index="-1" style="fill:#dedede;fill-opacity:1;fill-rule:evenodd;stroke:black;stroke-width:5.301616;stroke-linecap:butt;stroke-linejoin:miter;stroke-miterlimit:4;stroke-dasharray:none;stroke-opacity:1" d="M 898.798,104.388 V 82.9734 c -0.14,-2.8399 2.68,-5.3539 5.9,-5.3539 3.21,0 154.282,-1.071 154.282,-1.071 29.83,3.123 57.56,4.9545 98.57,23.2893 3.88,2.0072 10.7,6.4242 10.7,6.4242 1.89,1.606 5.37,3.747 8.17,10.44 0.95,5.621 0.95,25.162 0.95,25.162 z" />
        <path id="R Pressed" munia:button-id="4" munia:button-state="pressed" munia:z-index="-1" d="m 849.538,134.071 v -20.203 c -0.134,-2.679 2.526,-5.051 5.556,-5.051 3.031,0 145.466,-1.01 145.466,-1.01 28.12,2.946 54.26,4.674 92.93,21.971 3.66,1.894 10.1,6.061 10.1,6.061 1.77,1.515 5.05,3.535 7.7,9.849 0.89,5.303 0.89,23.738 0.89,23.738 z" style="display:none;fill:#f60202;fill-opacity:1;fill-rule:evenodd;stroke:#f60202;stroke-width:5;stroke-linecap:butt;stroke-linejoin:miter;stroke-miterlimit:4;stroke-dasharray:none;stroke-opacity:1" />
        <path style="fill:#dedede;fill-opacity:1;stroke:black;stroke-width:5.301616;stroke-linecap:round;stroke-miterlimit:4;stroke-dasharray:none;stroke-opacity:1" d="m 307.3,88.8044 v 0.3021 A 268.771,268.597 0 0 0 40.1091,357.65 268.771,268.597 0 0 0 308.879,626.247 268.771,268.597 0 0 0 480.096,564.408 H 874.638 A 268.771,268.597 0 0 0 1046.04,626.247 268.771,268.597 0 0 0 1314.81,357.65 268.771,268.597 0 0 0 1049.88,89.2433 v -0.4389 z" id="Controller" />
        <ellipse style="fill:#d9d9d9;fill-opacity:1;stroke:#bfbfbf;stroke-width:5.301616;stroke-linecap:round;stroke-miterlimit:4;stroke-dasharray:none;stroke-opacity:1" id="D-Pad Indent" cx="306.077" cy="361.284" rx="146.93" ry="146.835" />
        <path style="fill:black;stroke-width:1.060323" d="m 483.647,192.811 v -9.253 h 157.799 157.802 l -0.11,9.149 -0.11,9.15 -157.693,0.105 -157.688,0.107 v -9.252 z m 7.819,4.727 c 0,-0.527 -0.274,-0.821 -0.769,-0.821 -0.681,0 -0.729,-0.196 -0.429,-1.748 0.187,-0.961 0.347,-1.873 0.357,-2.028 0,-0.153 0.42,-0.338 0.911,-0.411 1.214,-0.177 1.489,-1.159 0.324,-1.159 -0.798,0 -0.878,-0.156 -0.652,-1.285 0.143,-0.706 0.258,-1.527 0.258,-1.822 0,-0.295 0.415,-0.594 0.922,-0.667 0.507,-0.08 0.983,-0.456 1.059,-0.851 0.112,-0.588 -0.164,-0.72 -1.51,-0.72 h -1.648 l -0.42,2.158 c -0.232,1.187 -0.774,3.964 -1.207,6.168 l -0.788,4.009 h 1.797 c 1.521,0 1.795,-0.125 1.795,-0.823 z m 13.727,0.107 c 0.113,-0.396 0.445,-1.83 0.737,-3.186 0.476,-2.211 0.544,-2.318 0.648,-1.029 0.323,4.062 0.563,4.934 1.352,4.934 0.578,0 0.851,-0.398 1.052,-1.541 0.151,-0.848 0.69,-3.624 1.199,-6.168 l 0.925,-4.626 h -0.947 c -1.03,0 -1.217,0.387 -1.645,3.411 -0.153,1.084 -0.351,1.898 -0.441,1.81 -0.09,-0.1 -0.3,-1.255 -0.465,-2.59 -0.256,-2.046 -0.441,-2.445 -1.178,-2.55 -0.815,-0.117 -0.95,0.271 -1.954,5.565 -0.594,3.13 -1.079,5.916 -1.079,6.19 0,0.779 1.565,0.586 1.796,-0.22 z m 17.694,0 c 0.111,-0.396 0.522,-2.662 0.913,-5.038 0.391,-2.374 0.923,-4.502 1.184,-4.728 0.263,-0.226 0.597,-0.734 0.747,-1.13 0.235,-0.625 0,-0.72 -1.773,-0.72 -1.742,0 -2.046,0.117 -2.046,0.788 0,0.433 0.189,0.851 0.416,0.927 0.265,0.08 0.114,1.779 -0.411,4.637 -0.455,2.474 -0.827,4.832 -0.827,5.24 0,0.972 1.518,0.991 1.797,0.02 z m 16.717,-0.107 c 0,-0.553 -0.273,-0.821 -0.841,-0.821 -0.743,0 -0.811,-0.179 -0.584,-1.542 0.39,-2.349 0.512,-2.571 1.414,-2.571 1.031,0 1.115,-1.126 0.1,-1.307 -0.638,-0.114 -0.691,-0.363 -0.392,-1.853 0.266,-1.326 0.552,-1.75 1.247,-1.85 0.497,-0.07 0.968,-0.464 1.045,-0.874 0.123,-0.641 -0.106,-0.727 -1.626,-0.616 l -1.767,0.128 -0.905,4.522 c -0.496,2.489 -1.015,5.217 -1.152,6.066 l -0.247,1.541 h 1.855 c 1.584,0 1.857,-0.12 1.857,-0.823 z m 13.992,-1.855 c 0.277,-1.472 0.689,-2.792 0.915,-2.931 0.765,-0.472 1.009,0.709 0.618,2.981 -0.414,2.406 -0.289,2.869 0.678,2.499 0.637,-0.245 1.355,-4.318 0.946,-5.381 -0.124,-0.324 0,-0.677 0.284,-0.785 0.542,-0.208 1.617,-5.098 1.251,-5.69 -0.118,-0.193 -1.182,-0.35 -2.363,-0.35 h -2.146 l -0.975,5.43 c -0.537,2.988 -1.064,5.762 -1.17,6.168 -0.14,0.528 0.05,0.737 0.632,0.737 0.688,0 0.906,-0.441 1.33,-2.678 z m 1.017,-5.61 c 0.46,-2.283 0.664,-2.813 1.08,-2.813 1.203,0 0.618,3.808 -0.623,4.046 -0.629,0.12 -0.695,-0.05 -0.457,-1.233 z m 16.642,3.045 c 0.581,-3.318 1.132,-5.361 1.502,-5.571 0.323,-0.18 0.588,-0.597 0.588,-0.926 0,-0.432 -0.51,-0.595 -1.854,-0.595 -1.575,0 -1.851,0.122 -1.851,0.822 0,0.452 0.156,0.822 0.342,0.822 0.188,0 -0.08,2.36 -0.611,5.243 -0.524,2.884 -0.955,5.29 -0.958,5.346 0,0.05 0.428,0.105 0.96,0.105 0.915,0 1.014,-0.273 1.882,-5.243 z m 14.787,3.805 c 0.287,-0.793 0.795,-1.44 1.13,-1.44 0.474,0 0.549,0.322 0.339,1.44 -0.262,1.394 -0.229,1.438 1.011,1.438 1.269,0 1.28,-0.02 1.282,-2.159 0,-1.187 0.122,-3.962 0.267,-6.167 l 0.266,-4.009 h -1.194 c -1.159,0 -1.252,0.162 -3.25,5.644 -2.594,7.119 -2.508,6.691 -1.348,6.691 0.743,0 1.101,-0.344 1.497,-1.438 z m 1.141,-3.29 c 0.13,-0.34 0.31,-0.617 0.4,-0.617 0.08,0 0.161,0.277 0.161,0.617 0,0.338 -0.178,0.616 -0.398,0.616 -0.219,0 -0.292,-0.278 -0.163,-0.616 z m 15.941,-0.842 c 1.279,-6.608 1.286,-6.765 0.348,-6.765 -0.614,0 -0.887,0.869 -1.708,5.43 -0.537,2.988 -1.062,5.762 -1.17,6.168 -0.136,0.528 0.05,0.737 0.631,0.737 0.729,0 0.945,-0.634 1.899,-5.57 z m 13.823,3.206 c 0.73,-3.751 1.183,-4.4 1.222,-1.748 0.05,3.014 0.379,4.112 1.251,4.112 0.605,0 0.905,-0.947 1.805,-5.709 1.29,-6.812 1.281,-6.626 0.302,-6.626 -0.92,0 -1.154,0.513 -1.527,3.318 -0.313,2.351 -0.968,2.009 -0.98,-0.509 0,-2.045 -0.358,-2.809 -1.284,-2.809 -0.429,0 -0.779,0.05 -0.779,0.12 0,0.07 -0.463,2.518 -1.027,5.447 -1.245,6.461 -1.254,6.768 -0.237,6.768 0.639,0 0.884,-0.461 1.254,-2.364 z m 18.327,0.205 c 0.462,-3.435 0.993,-3.759 1.009,-0.616 0,3.451 0.855,3.781 2.09,0.823 1.681,-4.028 1.888,-3.851 0.96,0.821 -0.186,0.94 -0.08,1.131 0.624,1.131 0.542,0 0.922,-0.332 1.057,-0.926 0.258,-1.136 1.863,-10.773 1.863,-11.174 0,-0.16 -0.48,-0.231 -1.067,-0.16 -0.895,0.11 -1.279,0.616 -2.356,3.125 -1.45,3.37 -1.847,3.19 -1.897,-0.863 -0.03,-2.357 -0.05,-2.39 -1.152,-2.262 -1.104,0.128 -1.146,0.239 -2.238,5.887 -0.614,3.167 -1.126,5.895 -1.139,6.065 0,0.17 0.42,0.308 0.965,0.308 0.883,0 1.021,-0.233 1.281,-2.159 z m 21.181,1.988 c 0,-0.1 0.114,-0.465 0.251,-0.824 0.178,-0.465 0,-0.649 -0.617,-0.649 -0.937,0 -0.991,-0.228 -0.603,-2.57 0.211,-1.277 0.422,-1.543 1.23,-1.543 0.591,0 0.975,-0.241 0.975,-0.616 0,-0.347 -0.369,-0.617 -0.841,-0.617 -0.749,0 -0.812,-0.172 -0.563,-1.541 0.358,-1.989 0.471,-2.16 1.428,-2.16 0.523,0 0.798,-0.282 0.798,-0.822 0,-0.678 -0.275,-0.822 -1.558,-0.822 h -1.558 l -1.116,5.677 c -0.615,3.122 -1.117,5.898 -1.117,6.168 0,0.299 0.646,0.49 1.647,0.49 0.905,0 1.644,-0.08 1.644,-0.171 z m 15.183,-3.116 c 0.658,-3.43 0.69,-3.414 1.072,0.512 0.226,2.329 0.392,2.775 1.03,2.775 0.814,0 0.878,-0.219 2.407,-8.326 l 0.756,-4.009 h -0.933 c -0.966,0 -0.969,0 -1.685,3.906 l -0.301,1.645 -0.281,-1.234 c -0.154,-0.678 -0.303,-1.926 -0.329,-2.775 -0.04,-1.323 -0.182,-1.542 -1.001,-1.542 -0.9,0 -1.015,0.327 -2.061,5.859 -0.61,3.223 -1.107,6.011 -1.105,6.196 0,0.186 0.417,0.278 0.922,0.206 0.792,-0.114 0.999,-0.555 1.509,-3.213 z m 17.043,2.361 c 0.12,-0.508 0.553,-2.913 0.958,-5.344 0.488,-2.934 0.914,-4.421 1.263,-4.421 0.288,0 0.527,-0.37 0.527,-0.822 0,-0.7 -0.275,-0.822 -1.851,-0.822 -1.55,0 -1.852,0.129 -1.852,0.787 0,0.434 0.169,0.851 0.378,0.926 0.213,0.07 -0.03,2.429 -0.555,5.379 l -0.934,5.243 h 0.922 c 0.616,0 0.996,-0.306 1.144,-0.926 z m 28.205,-0.04 c 0.256,-0.305 0.577,-1.386 0.716,-2.401 0.214,-1.551 0.08,-2.122 -0.847,-3.586 -1.289,-2.042 -1.326,-4.256 -0.08,-4.493 0.661,-0.126 0.745,0.07 0.596,1.333 -0.14,1.209 -0.04,1.479 0.56,1.479 0.464,0 0.825,-0.415 0.985,-1.131 0.137,-0.622 0.335,-1.443 0.439,-1.825 0.22,-0.819 -0.974,-1.566 -2.5,-1.566 -2.799,0 -3.624,3.744 -1.522,6.91 0.93,1.401 1.119,2.046 0.907,3.081 -0.162,0.797 -0.556,1.367 -1.006,1.453 -0.625,0.12 -0.717,-0.106 -0.603,-1.431 0.105,-1.226 -0.02,-1.604 -0.568,-1.709 -0.461,-0.08 -0.775,0.192 -0.911,0.816 -0.235,1.082 -0.349,2.355 -0.28,3.112 0.07,0.709 3.516,0.675 4.11,-0.05 z m 13.643,-2.189 c 0.353,-1.868 1.143,-3.826 2.479,-6.135 1.078,-1.865 1.853,-3.5 1.723,-3.629 -0.75,-0.749 -1.742,-0.02 -2.91,2.127 l -1.284,2.364 v -1.44 c -0.03,-2.426 -0.426,-3.346 -1.385,-3.207 -0.77,0.111 -0.841,0.336 -0.673,2.181 0.283,3.122 0.236,6.79 -0.113,8.736 -0.297,1.657 -0.262,1.748 0.674,1.748 0.891,0 1.036,-0.266 1.504,-2.745 z m 17.171,2.231 c 0.229,-0.282 0.544,-1.295 0.701,-2.247 0.237,-1.435 0.1,-2.078 -0.809,-3.744 -1.182,-2.169 -1.287,-4.391 -0.207,-4.391 0.435,0 0.601,0.395 0.556,1.336 -0.05,1.055 0.108,1.336 0.713,1.336 0.871,0 1.339,-1.3 1.129,-3.136 -0.12,-1.046 -0.316,-1.196 -1.718,-1.311 -3.266,-0.269 -4.362,2.754 -2.315,6.38 1.302,2.304 1.535,3.76 0.73,4.564 -0.871,0.87 -1.219,0.533 -1.083,-1.049 0.113,-1.3 0,-1.541 -0.669,-1.541 -0.604,0 -0.887,0.402 -1.141,1.626 -0.187,0.895 -0.247,1.867 -0.134,2.159 0.264,0.693 3.69,0.707 4.247,0.02 z m 12.154,-0.411 c 0.12,-0.509 0.54,-2.868 0.937,-5.243 0.488,-2.909 0.968,-4.557 1.478,-5.053 0.412,-0.404 0.757,-0.821 0.757,-0.925 0,-0.106 -0.937,-0.19 -2.062,-0.19 -1.5,0 -2.058,0.158 -2.058,0.583 0,0.321 0.213,0.653 0.475,0.74 0.345,0.115 0.233,1.515 -0.412,5.091 -0.487,2.714 -0.886,5.156 -0.886,5.427 0,0.91 1.546,0.534 1.771,-0.43 z m 15.105,0.107 c 0,-0.556 -0.278,-0.824 -0.84,-0.824 -0.758,0 -0.825,-0.179 -0.6,-1.541 0.397,-2.349 0.525,-2.57 1.425,-2.57 0.465,0 0.832,-0.271 0.832,-0.617 0,-0.339 -0.277,-0.616 -0.615,-0.616 -0.675,0 -0.765,-0.798 -0.36,-2.828 0.203,-1.02 0.465,-1.285 1.268,-1.285 0.735,0 0.967,-0.193 0.87,-0.719 -0.105,-0.5 -0.6,-0.758 -1.643,-0.845 -1.77,-0.147 -1.612,-0.49 -2.82,6.087 -0.48,2.6 -0.967,5.145 -1.095,5.655 -0.21,0.857 -0.07,0.924 1.673,0.924 1.627,0 1.905,-0.12 1.905,-0.821 z m 12.409,-2.161 0.55,-2.98 0.12,3.007 c 0.11,2.557 0.23,2.989 0.81,2.875 0.41,-0.08 1.16,-1.242 1.82,-2.802 1.16,-2.738 1.35,-2.507 0.78,0.949 -0.3,1.849 -0.27,1.967 0.53,1.851 0.76,-0.11 0.95,-0.726 1.76,-5.468 1.2,-7.043 1.2,-7.127 0,-6.896 -0.76,0.145 -1.3,0.898 -2.4,3.336 l -1.42,3.148 -0.32,-3.393 c -0.29,-3.168 -0.37,-3.391 -1.25,-3.391 -1.07,0 -1.02,-0.159 -2.259,6.578 -0.48,2.601 -0.975,5.052 -1.095,5.449 -0.158,0.548 0,0.719 0.81,0.719 0.944,0 1.064,-0.231 1.574,-2.982 z m -351.683,-4.88 c -0.172,-0.279 -0.991,-0.379 -2.087,-0.256 -0.993,0.113 -1.916,0.02 -2.052,-0.196 -0.135,-0.221 -0.689,-0.316 -1.229,-0.213 -0.538,0.106 -0.98,0 -0.98,-0.215 0,-0.221 -0.369,-0.305 -0.823,-0.187 -0.452,0.118 -0.823,0.03 -0.823,-0.202 0,-0.229 -0.278,-0.31 -0.618,-0.179 -0.338,0.129 -0.615,0.04 -0.615,-0.206 0,-0.244 -0.279,-0.336 -0.617,-0.206 -0.34,0.131 -0.617,0.09 -0.617,-0.09 0,-0.185 -0.734,-0.667 -1.634,-1.072 -0.899,-0.405 -1.942,-1.077 -2.319,-1.492 -0.376,-0.416 -0.85,-0.653 -1.051,-0.529 -0.201,0.125 -0.34,0.07 -0.307,-0.113 0.143,-0.828 -0.08,-1.395 -0.446,-1.164 -0.233,0.145 -0.302,-0.02 -0.162,-0.387 0.135,-0.35 0.09,-0.637 -0.111,-0.637 -0.55,0 -0.413,-2.605 0.17,-3.22 0.284,-0.301 0.394,-0.764 0.241,-1.029 -0.151,-0.263 -0.145,-0.365 0,-0.226 0.159,0.139 0.81,-0.233 1.446,-0.828 0.638,-0.595 1.882,-1.449 2.762,-1.898 0.884,-0.451 1.664,-0.946 1.735,-1.103 0.08,-0.157 0.394,-0.184 0.721,-0.05 0.324,0.125 0.589,0.03 0.589,-0.216 0,-0.243 0.26,-0.343 0.576,-0.222 0.316,0.122 0.692,0.03 0.835,-0.2 0.143,-0.232 0.514,-0.324 0.825,-0.206 0.309,0.119 0.684,0.02 0.833,-0.224 0.151,-0.243 0.713,-0.332 1.253,-0.196 0.539,0.135 1.222,0.1 1.519,-0.08 0.719,-0.448 6.918,-0.482 7.19,-0.05 0.12,0.192 0.708,0.311 1.308,0.263 0.6,-0.05 1.405,0.05 1.791,0.216 0.386,0.166 0.879,0.191 1.095,0.05 0.219,-0.134 0.459,-0.07 0.534,0.143 0.08,0.214 0.601,0.454 1.167,0.535 0.566,0.09 1.446,0.376 1.956,0.657 0.507,0.279 0.927,0.363 0.932,0.186 0,-0.177 0.142,-0.136 0.308,0.09 0.656,0.898 3.305,2.618 3.608,2.344 0.177,-0.16 0.194,-0.07 0.03,0.209 -0.158,0.275 0.05,0.829 0.448,1.233 0.758,0.759 1.043,3.798 0.399,4.27 -0.184,0.137 -0.387,0.599 -0.451,1.029 -0.07,0.43 -0.374,0.79 -0.693,0.8 -0.318,0 -0.516,0.288 -0.44,0.617 0.07,0.328 0,0.474 -0.139,0.321 -0.153,-0.152 -1.129,0.265 -2.173,0.925 -1.043,0.663 -2.032,1.203 -2.199,1.203 -0.167,0 -0.825,0.213 -1.462,0.474 -0.637,0.263 -1.345,0.511 -1.57,0.555 -0.227,0.04 -0.505,0.122 -0.618,0.174 -0.536,0.251 -2.926,0.444 -5.348,0.432 -1.935,0 -2.504,0.105 -2.059,0.402 0.377,0.253 0.426,0.42 0.129,0.423 -0.27,0 -0.618,-0.201 -0.773,-0.453 z m 50.73,-12.289 c -1.861,-1.463 -1.921,-2.742 -0.514,-10.896 l 1.278,-7.401 3.735,-0.117 3.736,-0.117 -1.019,5.775 c -0.949,5.384 -0.975,5.846 -0.352,6.792 1.265,1.931 4.163,1.827 5.638,-0.203 0.991,-1.366 2.529,-10.357 2.007,-11.733 -0.207,-0.546 -2.318,-4.216 -4.689,-8.158 -2.373,-3.941 -4.601,-7.853 -4.953,-8.696 -0.904,-2.163 -0.798,-4.784 0.429,-10.574 1.939,-9.148 3.14,-10.099 12.832,-10.149 6.361,-0.03 8.085,0.35 9.291,2.072 0.954,1.359 0.847,3.276 -0.61,10.91 l -1.284,6.723 h -3.654 c -2.648,0 -3.654,-0.141 -3.654,-0.514 0,-0.282 0.387,-2.695 0.861,-5.36 0.795,-4.482 0.811,-4.922 0.199,-5.853 -1.272,-1.94 -3.995,-1.637 -5.644,0.624 -0.811,1.116 -2,6.159 -2,8.491 0,1.087 0.651,2.428 2.632,5.421 1.446,2.186 3.803,6.011 5.236,8.498 3.093,5.366 3.072,5.135 1.212,14.367 -1.474,7.309 -1.893,8.379 -3.828,9.758 -1.264,0.901 -1.768,0.965 -8.559,1.085 -6.834,0.121 -7.273,0.09 -8.326,-0.745 z m 25.618,-0.353 c -0.989,-0.987 -1.227,-1.577 -1.224,-3.007 0,-1.87 8.407,-51.036 8.843,-51.741 0.139,-0.224 1.723,-0.408 3.519,-0.408 2.783,0 3.267,0.106 3.267,0.69 0,0.378 -1.949,11.675 -4.331,25.102 -2.382,13.428 -4.223,24.589 -4.09,24.804 0.308,0.5 7.063,0.515 7.369,0.02 0.195,-0.316 9.283,-49.613 9.283,-50.356 0,-0.143 1.479,-0.258 3.29,-0.258 2.174,0 3.292,0.158 3.292,0.465 0,1.609 -9.591,51.631 -10.08,52.578 -0.334,0.642 -1.211,1.599 -1.949,2.126 -1.266,0.902 -1.766,0.964 -8.652,1.086 l -7.309,0.129 -1.228,-1.228 z m 22.426,0.267 c 0.246,-1.029 10.495,-55.042 10.495,-55.314 0,-0.09 3.935,-0.108 8.743,-0.03 13.219,0.199 12.844,-0.385 9.838,15.269 -1.223,6.366 -2.451,11.663 -2.873,12.384 -0.403,0.692 -1.354,1.675 -2.11,2.185 -1.256,0.845 -1.854,0.926 -6.82,0.926 h -5.445 l -1.539,8.121 c -0.848,4.466 -1.942,10.157 -2.435,12.645 l -0.892,4.522 -3.595,0.119 c -3.562,0.118 -3.592,0.11 -3.367,-0.823 z m 19.328,-30.879 c 0.344,-0.523 1.303,-4.21 2.135,-8.193 1.443,-6.921 1.479,-7.289 0.815,-8.3 -0.625,-0.953 -0.952,-1.058 -3.311,-1.058 h -2.62 l -1.71,8.848 c -0.943,4.866 -1.601,9.03 -1.462,9.251 0.137,0.223 1.437,0.404 2.888,0.404 2.307,0 2.721,-0.121 3.265,-0.952 z m 5.569,31.324 c 0,-0.609 10.635,-54.651 10.893,-55.351 0.141,-0.384 1.993,-0.515 7.333,-0.515 3.93,0 7.241,0.1 7.358,0.215 0.387,0.383 -0.868,6.503 -1.405,6.859 -0.288,0.19 -2.058,0.297 -3.937,0.235 -3.122,-0.106 -3.429,-0.04 -3.607,0.71 -0.45,1.911 -3.057,15.669 -3.059,16.138 0,0.375 1.025,0.515 3.75,0.515 h 3.75 l -0.283,1.953 c -0.589,4.091 -0.244,3.803 -4.579,3.803 -3.665,0 -3.867,0.05 -4.062,0.926 -0.114,0.509 -0.77,4.255 -1.461,8.327 -0.689,4.069 -1.355,7.909 -1.478,8.531 l -0.228,1.131 h 3.942 c 2.892,0 3.934,0.136 3.915,0.514 0,0.283 -0.249,1.809 -0.523,3.392 l -0.498,2.878 -7.911,0.112 c -5.866,0.09 -7.91,-0.02 -7.91,-0.373 z m 19.337,0.262 c 0,-0.29 10.222,-54.087 10.491,-55.202 0.22,-0.92 0.262,-0.926 8.34,-0.924 9.245,0 10.438,0.296 11.716,2.905 0.71,1.449 0.693,1.604 -1.334,12.13 -1.13,5.864 -2.055,10.794 -2.056,10.955 0,0.616 -1.935,2.109 -3.834,2.962 l -1.98,0.892 1.56,1.011 c 2.549,1.652 2.555,1.917 0.294,14.228 l -2.027,11.042 -3.639,0.119 c -3.612,0.119 -3.639,0.112 -3.408,-0.822 1.03,-4.166 3.569,-18.912 3.569,-20.724 0,-3.417 -0.379,-3.861 -3.299,-3.861 -2.198,0 -2.468,0.09 -2.663,0.926 -0.119,0.509 -1.139,5.827 -2.267,11.821 -1.128,5.993 -2.148,11.313 -2.268,11.822 -0.204,0.868 -0.426,0.924 -3.706,0.924 -1.919,0 -3.489,-0.09 -3.489,-0.204 z m 18.862,-31.595 c 0.674,-0.715 1.271,-2.662 2.336,-7.598 1.636,-7.583 1.683,-8.163 0.75,-9.192 -0.963,-1.065 -5.339,-1.09 -5.641,-0.03 -0.699,2.459 -3.172,16.698 -2.983,17.188 0.159,0.417 0.888,0.595 2.43,0.595 1.78,0 2.381,-0.186 3.108,-0.962 z m 18.996,31.492 c 0,-0.169 2.379,-12.799 5.281,-28.064 l 5.278,-27.755 3.508,-0.118 3.507,-0.117 0.211,1.351 c 0.118,0.743 0.924,7.134 1.793,14.201 0.872,7.067 1.682,12.849 1.8,12.847 0.12,0 1.314,-5.968 2.653,-13.261 1.339,-7.291 2.583,-13.674 2.767,-14.183 0.313,-0.872 0.56,-0.926 4.25,-0.926 2.156,0 3.92,0.1 3.92,0.224 0,0.424 -10.319,54.672 -10.537,55.389 -0.185,0.611 -0.737,0.719 -3.657,0.719 h -3.44 l -0.245,-2.158 c -0.214,-1.892 -2.222,-26.928 -2.321,-28.943 -0.07,-1.334 -1.037,2.961 -3.898,17.224 l -2.785,13.877 h -4.046 c -2.224,0 -4.042,-0.138 -4.039,-0.307 z m 28.165,-0.601 c 0.118,-0.519 2.349,-12.228 4.957,-26.024 2.608,-13.795 4.936,-26.053 5.174,-27.24 l 0.432,-2.16 h 3.469 c 2.506,0 3.464,0.143 3.458,0.515 0,0.283 -2.373,12.911 -5.261,28.063 l -5.248,27.549 -3.598,0.119 c -3.564,0.117 -3.596,0.109 -3.383,-0.822 z m 10.702,0.409 c 0.1,-0.291 2.51,-12.832 5.36,-27.87 2.85,-15.039 5.328,-27.491 5.508,-27.671 0.179,-0.18 1.792,-0.274 3.58,-0.207 l 3.254,0.121 1.303,10.28 c 0.717,5.654 1.526,12.092 1.797,14.309 0.272,2.215 0.551,3.972 0.62,3.903 0.08,-0.06 1.26,-6.23 2.649,-13.691 1.39,-7.463 2.621,-13.89 2.736,-14.287 0.178,-0.618 0.741,-0.72 4.02,-0.72 2.096,0 3.901,0.08 4.008,0.197 0.168,0.167 -2.468,14.371 -8.949,48.22 l -1.515,7.915 h -3.556 -3.559 l -1.129,-14.497 c -0.621,-7.973 -1.122,-15.003 -1.114,-15.625 0.05,-3.34 -0.923,0.402 -3.711,14.391 l -3.095,15.522 -4.195,0.117 c -3.273,0.09 -4.154,0 -4.012,-0.411 z m 32.508,-0.425 c 0.407,-1.754 8.44,-47.301 8.44,-47.858 0,-0.399 -0.605,-0.559 -2.103,-0.559 h -2.103 l 0.284,-1.542 c 0.155,-0.848 0.47,-2.421 0.697,-3.495 l 0.413,-1.954 h 8.195 c 9.403,0 8.586,-0.463 7.74,4.388 l -0.453,2.603 h -1.706 c -0.939,0 -1.916,0.142 -2.17,0.308 -0.44,0.288 -1.41,5.346 -6.563,34.225 -1.231,6.898 -2.344,13.05 -2.473,13.672 l -0.235,1.131 h -4.088 c -4.032,0 -4.088,-0.01 -3.875,-0.926 z m 14.045,0.205 c 0.1,-0.396 2.57,-12.889 5.495,-27.761 2.926,-14.874 5.431,-27.225 5.567,-27.448 0.149,-0.239 3.172,-0.404 7.427,-0.404 8.25,0 7.572,-0.462 6.636,4.523 l -0.502,2.674 h -3.764 c -2.07,0 -3.843,0.09 -3.939,0.205 -0.327,0.382 -3.477,16.843 -3.262,17.058 0.115,0.116 1.871,0.212 3.898,0.212 h 3.686 l -0.269,1.336 c -0.147,0.735 -0.378,2.024 -0.512,2.864 l -0.246,1.527 -3.961,0.117 -3.961,0.118 -1.51,8.635 c -0.829,4.749 -1.524,8.958 -1.542,9.354 -0.03,0.638 0.416,0.72 3.902,0.72 3.55,0 3.918,0.07 3.74,0.72 -0.108,0.394 -0.314,1.458 -0.454,2.364 -0.141,0.904 -0.358,2.153 -0.479,2.775 l -0.225,1.13 h -7.953 c -7.366,0 -7.938,-0.05 -7.772,-0.719 z m 18.393,-0.205 c 0.121,-0.509 2.456,-12.767 5.187,-27.242 2.731,-14.473 5.061,-26.731 5.178,-27.24 0.201,-0.869 0.423,-0.926 3.685,-0.926 h 3.47 l 0.229,1.337 c 0.125,0.735 0.872,6.61 1.661,13.055 0.788,6.446 1.551,12.367 1.696,13.158 0.201,1.101 0.877,-1.843 2.874,-12.53 1.437,-7.682 2.702,-14.205 2.814,-14.494 0.284,-0.74 8.049,-0.75 8.036,-0.01 0,0.283 -2.371,12.911 -5.257,28.063 l -5.247,27.549 -3.59,0.118 c -1.975,0.07 -3.59,-0.03 -3.591,-0.205 0,-1.134 -2.516,-31.142 -2.614,-31.241 -0.07,-0.06 -1.375,6.122 -2.904,13.752 -1.531,7.632 -2.966,14.754 -3.191,15.829 l -0.409,1.952 h -4.125 c -4.069,0 -4.122,-0.01 -3.902,-0.925 z m 28.09,0.205 c 0.1,-0.396 2.475,-12.892 5.295,-27.771 2.821,-14.878 5.238,-27.229 5.373,-27.446 0.334,-0.542 15.222,-0.504 17.194,0.04 1.733,0.482 3.165,2.343 3.15,4.084 0,0.566 -2.01,11.537 -4.462,24.38 -4.733,24.867 -4.658,24.6 -7.455,26.504 -1.305,0.889 -1.703,0.924 -10.311,0.924 -8.316,0 -8.94,-0.05 -8.784,-0.718 z m 14.37,-5.962 1.44,-1.337 3.517,-18.503 c 1.943,-10.176 3.548,-19.128 3.578,-19.891 0.08,-2.035 -1.568,-3.34 -4.215,-3.34 h -2.003 l -0.435,2.158 c -0.607,3.002 -7.858,41.828 -7.858,42.06 0,0.106 1.021,0.19 2.268,0.19 1.99,0 2.44,-0.165 3.708,-1.337 z m 14.235,6.121 c -1.2,-0.679 -2.07,-2.165 -2.085,-3.56 0,-1.261 7.597,-45.224 8.197,-47.342 0.525,-1.826 2.723,-3.849 4.837,-4.433 2.39,-0.666 13.42,-0.56 15.11,0.146 1.71,0.716 2.87,2.392 2.82,4.097 -0.1,2.244 -8.81,47.249 -9.42,48.414 -0.31,0.615 -1.17,1.549 -1.92,2.075 -1.27,0.91 -1.72,0.963 -8.952,1.059 -5.797,0.07 -7.837,-0.03 -8.587,-0.456 z m 11.569,-5.893 c 0.44,-0.403 0.96,-1.019 1.14,-1.368 0.56,-1.041 7.05,-37.817 6.91,-39.168 -0.19,-1.809 -1.93,-3.012 -3.67,-2.516 -2.6,0.746 -2.72,1.168 -6.394,21.438 -1.883,10.348 -3.42,19.325 -3.428,19.947 0,1.737 1.41,2.92 3.18,2.634 0.792,-0.13 1.812,-0.564 2.262,-0.967 z m -331.44,3.18 c -0.297,-2.51 -1.822,-6.029 -3.569,-8.233 -2.264,-2.855 -6.361,-4.956 -10.838,-5.557 l -1.985,-0.266 0.285,-1.717 c 1.46,-8.763 9.503,-14.729 18.039,-13.38 5.115,0.809 9.837,4.438 12.095,9.296 1.497,3.223 1.563,8.574 0.15,12.13 -1.874,4.71 -7.196,8.96 -12.032,9.608 l -1.891,0.253 z m -59.198,-1.874 c -5.248,-1.044 -9.15,-3.306 -10.68,-6.189 l -0.969,-1.829 1.029,-1.949 c 2.092,-3.966 7.383,-6.241 15.289,-6.574 7.402,-0.313 13.25,1.307 16.517,4.571 6.929,6.925 -6.996,14.793 -21.186,11.97 z m 27.532,-14.335 c -0.708,-6.85 -6.487,-12.677 -13.722,-13.831 -1.543,-0.247 -2.841,-0.484 -2.884,-0.529 -0.04,-0.04 0.107,-1.097 0.332,-2.341 1.198,-6.628 6.943,-12.199 13.502,-13.095 7.211,-0.986 14.143,2.762 17.211,9.304 0.978,2.084 1.103,2.845 1.103,6.678 0,4.058 -0.09,4.495 -1.349,7.066 -2.287,4.642 -7.179,8.259 -11.929,8.821 l -2.026,0.24 z" id="Logo" />
        <ellipse style="fill:#8f8f8f;fill-opacity:1;stroke:#5d5d5d;stroke-width:5.301616;stroke-linecap:round;stroke-miterlimit:4;stroke-dasharray:none;stroke-opacity:1" id="Button Background" cx="1046.57" cy="359.617" rx="242.437" ry="242.28" />
        <rect style="fill:#dedede;fill-opacity:1;stroke:#5d5d5d;stroke-width:5.242428;stroke-linecap:round;stroke-miterlimit:4;stroke-dasharray:none;stroke-opacity:1" id="AB Indent" width="290.863" height="123.33" x="486.936" y="937.561" ry="61.6643" transform="matrix(0.793542,-0.608515,0.609007,0.793165,0,0)" />
        <rect style="fill:#dedede;fill-opacity:1;stroke:#5d5d5d;stroke-width:5.242428;stroke-linecap:round;stroke-miterlimit:4;stroke-dasharray:none;stroke-opacity:1" id="XY Indent" width="290.863" height="123.33" x="450.054" y="786.392" ry="61.6643" transform="matrix(0.793542,-0.608515,0.609007,0.793165,0,0)" />
        <text xml:space="preserve" style="font-style:normal;font-variant:normal;font-weight:bold;font-stretch:normal;font-size:12.723866px;line-height:0%;font-family:sans-serif;letter-spacing:0px;word-spacing:0px;fill:#dedede;fill-opacity:1;stroke:none;stroke-width:1.060322px;stroke-linecap:butt;stroke-linejoin:miter;stroke-opacity:1" x="1070.07" y="213.588" id="X Text" transform="scale(1.05182,0.950733)"><tspan id="tspan4245" x="1070.07" y="213.588" style="font-style:normal;font-variant:normal;font-weight:bold;font-stretch:normal;font-size:40.336414px;line-height:1.25;font-family:Arial;stroke-width:1.060322px">X</tspan></text>
        <text xml:space="preserve" style="font-style:normal;font-variant:normal;font-weight:bold;font-stretch:normal;font-size:12.723866px;line-height:0%;font-family:sans-serif;letter-spacing:0px;word-spacing:0px;fill:#dedede;fill-opacity:1;stroke:none;stroke-width:1.060322px;stroke-linecap:butt;stroke-linejoin:miter;stroke-opacity:1" x="1174.32" y="320.008" id="A Text" transform="scale(1.05182,0.950733)"><tspan id="tspan4245-0" x="1174.32" y="320.008" style="font-style:normal;font-variant:normal;font-weight:bold;font-stretch:normal;font-size:40.336414px;line-height:1.25;font-family:Arial;stroke-width:1.060322px">A</tspan></text>
        <text xml:space="preserve" style="font-style:normal;font-variant:normal;font-weight:bold;font-stretch:normal;font-size:12.723866px;line-height:0%;font-family:sans-serif;letter-spacing:0px;word-spacing:0px;fill:#dedede;fill-opacity:1;stroke:none;stroke-width:1.060322px;stroke-linecap:butt;stroke-linejoin:miter;stroke-opacity:1" x="795.864" y="462.548" id="Y Text" transform="scale(1.05182,0.950733)"><tspan id="tspan4245-7" x="795.864" y="462.548" style="font-style:normal;font-variant:normal;font-weight:bold;font-stretch:normal;font-size:40.336414px;line-height:1.25;font-family:Arial;stroke-width:1.060322px">Y</tspan></text>
        <text xml:space="preserve" style="font-style:normal;font-variant:normal;font-weight:bold;font-stretch:normal;font-size:12.723881px;line-height:0%;font-family:sans-serif;letter-spacing:0px;word-spacing:0px;fill:#dedede;fill-opacity:1;stroke:none;stroke-width:1.060324px;stroke-linecap:butt;stroke-linejoin:miter;stroke-opacity:1" x="809.22" y="630.677" id="B Text" transform="scale(1.17043,0.854387)"><tspan id="tspan4245-9" x="809.22" y="630.677" style="font-style:normal;font-variant:normal;font-weight:bold;font-stretch:normal;font-size:44.885082px;line-height:1.25;font-family:Arial;stroke-width:1.060324px">B</tspan></text>
        <text xml:space="preserve" style="font-style:normal;font-weight:normal;font-size:12.723797px;line-height:0%;font-family:sans-serif;letter-spacing:0px;word-spacing:0px;opacity:1;fill:black;fill-opacity:1;stroke:none;stroke-width:1.060316px;stroke-linecap:butt;stroke-linejoin:miter;stroke-opacity:1" x="619.322" y="441.887" id="Select Text" transform="matrix(0.903799,0,-0.117477,1.10644,0,0)"><tspan x="619.322" y="441.887" id="tspan4291" style="font-size:31.134418px;line-height:1.25;stroke-width:1.060316px"><tspan x="619.322" y="441.887" style="font-style:italic;font-variant:normal;font-weight:bold;font-stretch:condensed;font-family:Arial;;stroke-width:1.060316px" id="tspan4293">SELECT</tspan></tspan></text>
        <text xml:space="preserve" style="font-style:normal;font-weight:normal;font-size:12.723797px;line-height:0%;font-family:sans-serif;letter-spacing:0px;word-spacing:0px;opacity:1;fill:black;fill-opacity:1;stroke:none;stroke-width:1.060316px;stroke-linecap:butt;stroke-linejoin:miter;stroke-opacity:1" x="782.307" y="441.887" id="Start Text" transform="matrix(0.903799,0,-0.117477,1.10644,0,0)"><tspan x="782.307" y="441.887" id="tspan4291-6" style="font-size:31.134418px;line-height:1.25;stroke-width:1.060316px"><tspan x="782.307" y="441.887" style="font-style:italic;font-variant:normal;font-weight:bold;font-stretch:condensed;font-family:Arial;;stroke-width:1.060316px" id="tspan4293-5">START</tspan></tspan></text>
    </g>
    <g id="layer2" style="display:inline" transform="translate(-37.4583,-73.8974)">
        <ellipse id="Y" munia:button-id="2" munia:button-state="released" style="fill:#288e40;fill-opacity:1;stroke:#154c22;stroke-width:5.301616;stroke-linecap:round;stroke-miterlimit:4;stroke-dasharray:none;stroke-opacity:1" cx="924.138" cy="360.526" rx="47.5233" ry="47.4926" />
        <circle id="Y Pressed" munia:button-id="2" munia:button-state="pressed" r="44.8052" cy="375.714" cx="873.429" style="display:none;fill:#a0e3af;fill-opacity:1;stroke:#a0e3af;stroke-width:5;stroke-linecap:round;stroke-miterlimit:4;stroke-dasharray:none;stroke-opacity:1" />
        <ellipse id="X" munia:button-id="6" munia:button-state="released" style="fill:#2a2ad4;fill-opacity:1;stroke:#115;stroke-width:5.301616;stroke-linecap:round;stroke-miterlimit:4;stroke-dasharray:none;stroke-opacity:1" cx="1053.53" cy="260.585" rx="47.5233" ry="47.4926" />
        <circle id="X Pressed" munia:button-id="6" munia:button-state="pressed" r="44.8052" cy="281.429" cx="995.429" style="display:none;fill:#7676f1;fill-opacity:1;stroke:#7676f1;stroke-width:5;stroke-linecap:round;stroke-linejoin:miter;stroke-miterlimit:4;stroke-dasharray:none;stroke-opacity:1" />
        <ellipse id="B" munia:button-id="3" munia:button-state="released" style="fill:#ea9b03;fill-opacity:1;stroke:#aa7002;stroke-width:5.301616;stroke-linecap:round;stroke-miterlimit:4;stroke-dasharray:none;stroke-opacity:1" cx="1047.32" cy="457.44" rx="47.5233" ry="47.4926" />
        <circle id="B Pressed" munia:button-id="3" munia:button-state="pressed" r="44.8052" cy="467.143" cx="989.571" style="display:none;fill:#ffdfa1;fill-opacity:1;stroke:#ffdfa1;stroke-width:5;stroke-linecap:round;stroke-miterlimit:4;stroke-dasharray:none;stroke-opacity:1" />
        <ellipse id="A" munia:button-id="7" munia:button-state="released" style="fill:#de0c0c;fill-opacity:1;stroke:#6e0707;stroke-width:5.301616;stroke-linecap:round;stroke-miterlimit:4;stroke-dasharray:none;stroke-opacity:1" cx="1176.72" cy="357.498" rx="47.5233" ry="47.4926" />
        <circle id="A Pressed" munia:button-id="7" munia:button-state="pressed" r="44.8052" cy="372.857" cx="1111.57" style="display:none;fill:#faa;fill-opacity:1;stroke:#faa;stroke-width:5;stroke-linecap:round;stroke-miterlimit:4;stroke-dasharray:none;stroke-opacity:1" />
        <rect id="Start" munia:button-id="0" munia:button-state="released" style="fill:#484848;fill-opacity:1;stroke:#202020;stroke-width:5.301619;stroke-linecap:round;stroke-miterlimit:4;stroke-dasharray:none;stroke-opacity:1" width="109.07" height="36.3509" x="256.568" y="724.682" ry="18.1755" transform="matrix(0.793542,-0.608515,0.609007,0.793165,0,0)" />
        <rect id="Start Pressed" munia:button-id="0" munia:button-state="pressed" transform="rotate(-37.5)" ry="17.1429" y="713.051" x="221.986" height="34.2857" width="102.857" style="display:none;fill:white;fill-opacity:1;stroke:white;stroke-width:5;stroke-linecap:round;stroke-miterlimit:4;stroke-dasharray:none;stroke-opacity:1" />
        <rect id="Select" munia:button-id="1" munia:button-state="released" style="fill:#484848;fill-opacity:1;stroke:#202020;stroke-width:5.301619;stroke-linecap:round;stroke-miterlimit:4;stroke-dasharray:none;stroke-opacity:1" width="109.07" height="36.3509" x="145.52" y="639.486" ry="18.1755" transform="matrix(0.793542,-0.608515,0.609007,0.793165,0,0)" />
        <rect id="Select Pressed" munia:button-id="1" munia:button-state="pressed" ry="17.1429" y="632.694" x="117.264" height="34.2857" width="102.857" style="display:none;fill:white;fill-opacity:1;stroke:white;stroke-width:5;stroke-linecap:round;stroke-miterlimit:4;stroke-dasharray:none;stroke-opacity:1" transform="rotate(-37.5)" />
        <g id="D-Pad" clip-path="none" transform="matrix(1.06067,0,0,1.05998,-2.27289,-37.7241)">
            <path id="Base" d="m 268.572,270 c -9.497,0 -17.144,7.645 -17.144,17.143 v 53.572 h -53.571 c -9.497,0 -17.142,7.645 -17.142,17.142 v 38.573 c 0,9.497 7.645,17.142 17.142,17.142 h 53.571 v 53.571 c 0,9.497 7.647,17.142 17.144,17.142 h 38.571 c 9.497,0 17.142,-7.645 17.142,-17.142 v -53.571 h 53.572 c 9.498,0 17.143,-7.645 17.143,-17.142 v -38.573 c 0,-9.497 -7.645,-17.142 -17.143,-17.142 H 324.285 V 287.143 C 324.285,277.645 316.64,270 307.143,270 Z" style="fill:#484848;fill-opacity:1;stroke:#202020;stroke-width:5;stroke-linecap:round;stroke-miterlimit:4;stroke-dasharray:none;stroke-opacity:1" />
            <circle id="Center" r="26.0114" cy="377.143" cx="287.857" style="fill:#383838;fill-opacity:1;stroke:none;stroke-width:5;stroke-linecap:round;stroke-miterlimit:4;stroke-dasharray:none;stroke-opacity:1" />
            <path id="Left" munia:button-id="10" munia:button-state="released" transform="matrix(0.825824,0,0,0.771294,11.4351,85.5444)" d="m 223.239,378.063 43.191,-24.936 0,49.872 z" style="fill:#383838;fill-opacity:1;stroke:#383838;stroke-width:12.52986;stroke-linecap:round;stroke-linejoin:round;stroke-miterlimit:4;stroke-dasharray:none;stroke-opacity:1" />
            <g id="Left Pressed" munia:button-id="10" munia:button-state="pressed" transform="rotate(180,287.857,377.143)" style="display:none">
                <path id="path5524" d="m 324.285,413.572 h 53.572 c 9.498,0 17.143,-7.645 17.143,-17.142 v -38.573 c 0,-9.497 -7.645,-17.142 -17.143,-17.142 h -53.572 z" style="fill:white;fill-opacity:1;stroke:white;stroke-width:5;stroke-linecap:round;stroke-miterlimit:4;stroke-dasharray:none;stroke-opacity:1" />
                <path transform="matrix(-0.825824,0,0,0.771294,563.825,85.544)" d="m 223.239,378.063 21.595,-12.468 21.596,-12.468 0,24.936 0,24.936 -21.595,-12.468 z" id="path5526" style="fill:#dbdbdb;fill-opacity:1;stroke:#dbdbdb;stroke-width:12.52986;stroke-linecap:round;stroke-linejoin:round;stroke-miterlimit:4;stroke-dasharray:none;stroke-opacity:1" />
            </g>
            <path id="Right" munia:button-id="11" munia:button-state="released" transform="matrix(-0.825824,0,0,0.771294,563.825,85.544)" d="m 223.239,378.063 43.191,-24.936 0,49.872 z" style="fill:#383838;fill-opacity:1;stroke:#383838;stroke-width:12.52986;stroke-linecap:round;stroke-linejoin:round;stroke-miterlimit:4;stroke-dasharray:none;stroke-opacity:1" />
            <g id="Right Pressed" munia:button-id="11" munia:button-state="pressed" style="display:none">
                <path id="path5498" d="m 324.285,413.572 h 53.572 c 9.498,0 17.143,-7.645 17.143,-17.142 v -38.573 c 0,-9.497 -7.645,-17.142 -17.143,-17.142 h -53.572 z" style="fill:white;fill-opacity:1;stroke:white;stroke-width:5;stroke-linecap:round;stroke-miterlimit:4;stroke-dasharray:none;stroke-opacity:1" />
                <path transform="matrix(-0.825824,0,0,0.771294,563.825,85.544)" d="m 223.239,378.063 43.191,-24.936 0,49.872 z" id="path5510" style="fill:#dbdbdb;fill-opacity:1;stroke:#dbdbdb;stroke-width:12.52986;stroke-linecap:round;stroke-linejoin:round;stroke-miterlimit:4;stroke-dasharray:none;stroke-opacity:1" />
            </g>
            <path id="Down" munia:button-id="9" munia:button-state="released" transform="matrix(0,-0.825824,0.771294,0,-3.74071,653.232)" d="m 223.239,378.063 43.191,-24.936 0,49.872 z" style="fill:#383838;fill-opacity:1;stroke:#383838;stroke-width:12.52986;stroke-linecap:round;stroke-linejoin:round;stroke-miterlimit:4;stroke-dasharray:none;stroke-opacity:1" />
            <g id="Down Pressed" munia:button-id="9" munia:button-state="pressed" transform="rotate(90,287.857,377.143)" style="display:none">
                <path style="fill:white;fill-opacity:1;stroke:white;stroke-width:5;stroke-linecap:round;stroke-miterlimit:4;stroke-dasharray:none;stroke-opacity:1" d="m 324.285,413.572 h 53.572 c 9.498,0 17.143,-7.645 17.143,-17.142 v -38.573 c 0,-9.497 -7.645,-17.142 -17.143,-17.142 h -53.572 z" id="path5530" />
                <path style="fill:#dbdbdb;fill-opacity:1;stroke:#dbdbdb;stroke-width:12.52986;stroke-linecap:round;stroke-linejoin:round;stroke-miterlimit:4;stroke-dasharray:none;stroke-opacity:1" id="path5532" d="m 223.239,378.063 43.191,-24.936 0,49.872 z" transform="matrix(-0.825824,0,0,0.771294,563.825,85.544)" />
            </g>
            <path id="Up" munia:button-id="8" munia:button-state="released" transform="matrix(0,0.825824,0.771294,0,-3.74071,100.842)" d="m 223.239,378.063 43.191,-24.936 0,49.872 z" style="fill:#383838;fill-opacity:1;stroke:#383838;stroke-width:12.52986;stroke-linecap:round;stroke-linejoin:round;stroke-miterlimit:4;stroke-dasharray:none;stroke-opacity:1" />
            <g id="Up Pressed" munia:button-id="8" munia:button-state="pressed" transform="rotate(-90,287.857,377.143)" style="display:none">
                <path style="fill:white;fill-opacity:1;stroke:white;stroke-width:5;stroke-linecap:round;stroke-miterlimit:4;stroke-dasharray:none;stroke-opacity:1" d="m 324.285,413.572 h 53.572 c 9.498,0 17.143,-7.645 17.143,-17.142 v -38.573 c 0,-9.497 -7.645,-17.142 -17.143,-17.142 h -53.572 z" id="path5518" />
                <path style="fill:#dbdbdb;fill-opacity:1;stroke:#dbdbdb;stroke-width:12.52986;stroke-linecap:round;stroke-linejoin:round;stroke-miterlimit:4;stroke-dasharray:none;stroke-opacity:1" id="path5520" d="m 223.239,378.063 43.191,-24.936 0,49.872 z" transform="matrix(-0.825824,0,0,0.771294,563.825,85.544)" />
            </g>
        </g>
    </g>
</svg>
