<?xml version="1.0" encoding="UTF-8" standalone="no"?>
<!-- Created with Inkscape (http://www.inkscape.org/) -->
<svg xmlns:munia="http://www.munia.io/namespaces/munia" xmlns:dc="http://purl.org/dc/elements/1.1/" xmlns:cc="http://creativecommons.org/ns#" xmlns:rdf="http://www.w3.org/1999/02/22-rdf-syntax-ns#" xmlns:svg="http://www.w3.org/2000/svg" xmlns="http://www.w3.org/2000/svg" xmlns:sodipodi="http://sodipodi.sourceforge.net/DTD/sodipodi-0.dtd" xmlns:inkscape="http://www.inkscape.org/namespaces/inkscape" width="1280" height="720" viewBox="0 0 1280 720.00001" id="svg4136" version="1.1" inkscape:version="0.91 r13725" sodipodi:docname="snes.svg">
  <defs id="defs4138">
    <mask maskUnits="userSpaceOnUse" id="mask5506">
      <rect style="fill:#ffffff;fill-opacity:1;stroke:#ffffff;stroke-width:10;stroke-linecap:butt;stroke-linejoin:miter;stroke-miterlimit:4;stroke-dasharray:none;stroke-opacity:1" id="rect5508" width="71.215752" height="67.98661" x="326.80447" y="343.14673"/>
    </mask>
  </defs>
  <sodipodi:namedview id="base" pagecolor="#ffffff" bordercolor="#666666" borderopacity="1.0" inkscape:pageopacity="0.0" inkscape:pageshadow="2" inkscape:zoom="0.98994949" inkscape:cx="663.93842" inkscape:cy="491.49439" inkscape:document-units="px" inkscape:current-layer="layer2" showgrid="false" units="px" inkscape:window-width="1680" inkscape:window-height="1027" inkscape:window-x="-8" inkscape:window-y="-8" inkscape:window-maximized="1"/>
  <munia:info munia:skin-name="SNES" munia:device-type="SNES"/>
  <metadata id="metadata4141">
    <rdf:RDF>
      <cc:Work rdf:about="">
        <dc:format>image/svg+xml</dc:format>
        <dc:type rdf:resource="http://purl.org/dc/dcmitype/StillImage"/>
        <dc:title/>
      </cc:Work>
    </rdf:RDF>
  </metadata>
  <g inkscape:groupmode="layer" id="layer1" inkscape:label="Base" style="display:inline">
    <path id="L" munia:button-id="5" munia:button-state="released" style="fill:#dedede;fill-opacity:1;fill-rule:evenodd;stroke:#000000;stroke-width:5;stroke-linecap:butt;stroke-linejoin:miter;stroke-miterlimit:4;stroke-dasharray:none;stroke-opacity:1" d="m 432.17416,134.07057 0,-20.20305 c 0.13393,-2.67857 -2.52538,-5.05076 -5.55584,-5.05076 -3.03046,0 -145.46198,-1.01015 -145.46198,-1.01015 -28.125,2.94644 -54.2678,4.67447 -92.934,21.97081 -3.6618,1.89404 -10.1016,6.06092 -10.1016,6.06092 -1.7678,1.51523 -5.0507,3.53554 -7.7024,9.84899 -0.8839,5.3033 -0.8839,23.73858 -0.8839,23.73858 z" inkscape:connector-curvature="0" sodipodi:nodetypes="ccscccccc"/>
    <path id="L Pressed" munia:button-id="5" munia:button-state="pressed" munia:z-index="-1" sodipodi:nodetypes="ccscccccc" inkscape:connector-curvature="0" d="m 432.17416,134.07057 0,-20.20305 c 0.13393,-2.67857 -2.52538,-5.05076 -5.55584,-5.05076 -3.03046,0 -145.46198,-1.01015 -145.46198,-1.01015 -28.125,2.94644 -54.2678,4.67447 -92.934,21.97081 -3.6618,1.89404 -10.1016,6.06092 -10.1016,6.06092 -1.7678,1.51523 -5.0507,3.53554 -7.7024,9.84899 -0.8839,5.3033 -0.8839,23.73858 -0.8839,23.73858 z" style="display:none;fill:#f60202;fill-opacity:1;fill-rule:evenodd;stroke:#f60202;stroke-width:5;stroke-linecap:butt;stroke-linejoin:miter;stroke-miterlimit:4;stroke-dasharray:none;stroke-opacity:1"/>
    <path id="R" munia:button-id="4" munia:button-state="released" style="fill:#dedede;fill-opacity:1;fill-rule:evenodd;stroke:#000000;stroke-width:5;stroke-linecap:butt;stroke-linejoin:miter;stroke-miterlimit:4;stroke-dasharray:none;stroke-opacity:1" d="m 849.53835,134.07091 0,-20.20305 c -0.13393,-2.67857 2.52538,-5.05076 5.55584,-5.05076 3.03046,0 145.46201,-1.01015 145.46201,-1.01015 28.125,2.94644 54.2678,4.67447 92.934,21.97081 3.6618,1.89404 10.1016,6.06092 10.1016,6.06092 1.7678,1.51523 5.0507,3.53554 7.7024,9.84899 0.8839,5.3033 0.8839,23.73858 0.8839,23.73858 z" inkscape:connector-curvature="0" sodipodi:nodetypes="ccscccccc"/>
    <path id="R Pressed" munia:button-id="4" munia:button-state="pressed" munia:z-index="-1" sodipodi:nodetypes="ccscccccc" inkscape:connector-curvature="0" d="m 849.53835,134.07091 0,-20.20305 c -0.13393,-2.67857 2.52538,-5.05076 5.55584,-5.05076 3.03046,0 145.46201,-1.01015 145.46201,-1.01015 28.125,2.94644 54.2678,4.67447 92.934,21.97081 3.6618,1.89404 10.1016,6.06092 10.1016,6.06092 1.7678,1.51523 5.0507,3.53554 7.7024,9.84899 0.8839,5.3033 0.8839,23.73858 0.8839,23.73858 z" style="display:none;fill:#f60202;fill-opacity:1;fill-rule:evenodd;stroke:#f60202;stroke-width:5;stroke-linecap:butt;stroke-linejoin:miter;stroke-miterlimit:4;stroke-dasharray:none;stroke-opacity:1"/>
    <path style="fill:#dedede;fill-opacity:1;stroke:#000000;stroke-width:5;stroke-linecap:round;stroke-miterlimit:4;stroke-dasharray:none;stroke-opacity:1" d="m 291.86792,119.36914 0,0.28516 A 253.39781,253.39781 0 0 0 39.957763,373 253.39781,253.39781 0 0 0 293.3562,626.39844 253.39781,253.39781 0 0 0 454.78003,568.05859 l 371.97656,0 A 253.39781,253.39781 0 0 0 988.3562,626.39844 253.39781,253.39781 0 0 0 1241.7547,373 253.39781,253.39781 0 0 0 991.98706,119.7832 l 0,-0.41406 -700.11914,0 z" id="Controller" inkscape:connector-curvature="0"/>
    <circle style="fill:#d9d9d9;fill-opacity:1;stroke:#bfbfbf;stroke-width:5;stroke-linecap:round;stroke-miterlimit:4;stroke-dasharray:none;stroke-opacity:1" id="D-Pad Indent" cx="290.71429" cy="376.42859" r="138.52652"/>
    <path style="fill:#000000" d="m 458.12948,217.48991 0,-8.72856 148.77228,0 148.77226,0 -0.10445,8.63108 -0.10444,8.63108 -148.66779,0.0974 -148.66788,0.0974 0,-8.72855 z m 7.37036,4.46052 c 0,-0.49862 -0.2586,-0.77584 -0.72374,-0.77584 -0.64288,0 -0.6881,-0.1842 -0.40481,-1.64863 0.17543,-0.90676 0.32653,-1.76742 0.33584,-1.9126 0.009,-0.14517 0.39597,-0.31974 0.8593,-0.38791 1.14437,-0.16838 1.40254,-1.09373 0.30516,-1.09373 -0.75255,0 -0.82718,-0.1473 -0.6142,-1.21223 0.13335,-0.66673 0.24245,-1.44011 0.24245,-1.71863 0,-0.27853 0.39098,-0.56219 0.86885,-0.63036 0.47786,-0.0683 0.92706,-0.42944 0.99823,-0.80282 0.10573,-0.555 -0.15388,-0.67885 -1.42323,-0.67885 l -1.55258,0 -0.39652,2.03654 c -0.2181,1.12011 -0.73057,3.73853 -1.13887,5.81872 l -0.74234,3.78215 1.69323,0 c 1.43463,0 1.69323,-0.1185 1.69323,-0.77581 z m 12.94225,0.097 c 0.10638,-0.37337 0.41902,-1.72621 0.69479,-3.00633 0.44909,-2.08469 0.51272,-2.18586 0.61,-0.96978 0.30643,3.83133 0.53214,4.65496 1.27569,4.65496 0.54429,0 0.80128,-0.37673 0.99241,-1.45467 0.14184,-0.80009 0.65011,-3.41849 1.12947,-5.81872 l 0.87155,-4.36403 -0.8918,0 c -0.97217,0 -1.1474,0.36368 -1.55058,3.21823 -0.14454,1.02327 -0.33206,1.79123 -0.41673,1.70655 -0.0845,-0.0847 -0.282,-1.18372 -0.43852,-2.44237 -0.24001,-1.92985 -0.41397,-2.3069 -1.1102,-2.40627 -0.7681,-0.10962 -0.89637,0.25601 -1.84222,5.25064 -0.55913,2.95264 -1.01662,5.58045 -1.01662,5.83954 0,0.73435 1.47599,0.55321 1.69276,-0.20775 z m 16.68073,0 c 0.1066,-0.37337 0.49462,-2.51174 0.86226,-4.75195 0.36765,-2.24019 0.87033,-4.24765 1.11708,-4.46099 0.24675,-0.21337 0.56325,-0.6934 0.70334,-1.06677 0.22125,-0.58963 0.002,-0.67886 -1.67265,-0.67886 -1.64086,0 -1.92741,0.11054 -1.92741,0.74351 0,0.40893 0.1763,0.80226 0.39176,0.8741 0.24887,0.0829 0.10736,1.67827 -0.38792,4.37418 -0.42881,2.334 -0.77966,4.55907 -0.77966,4.94462 0,0.91634 1.43254,0.93509 1.6932,0.0221 z m 15.7629,-0.097 c 0,-0.52297 -0.25861,-0.77584 -0.7934,-0.77584 -0.70119,0 -0.76531,-0.16906 -0.55164,-1.45468 0.3683,-2.21609 0.48284,-2.42446 1.33287,-2.42446 0.97221,0 1.05187,-1.06275 0.0924,-1.23373 -0.60172,-0.10724 -0.65161,-0.34297 -0.36996,-1.74797 0.25081,-1.25105 0.52096,-1.65194 1.17644,-1.74561 0.46798,-0.0669 0.91119,-0.43785 0.98488,-0.82438 0.11522,-0.60431 -0.0995,-0.68583 -1.53277,-0.58186 l -1.66676,0.12091 -0.85222,4.26703 c -0.46872,2.34687 -0.95755,4.92165 -1.08627,5.72173 l -0.23403,1.45467 1.75018,0 c 1.49158,0 1.75019,-0.11464 1.75019,-0.77581 z M 524.07569,220.2 c 0.26217,-1.38945 0.65058,-2.63374 0.86312,-2.76509 0.72141,-0.44585 0.95236,0.66781 0.58304,2.81139 -0.39098,2.26927 -0.27223,2.70754 0.63882,2.35795 0.60179,-0.23093 1.27684,-4.07325 0.89187,-5.07646 -0.11735,-0.30582 0.003,-0.63914 0.26785,-0.7407 0.51114,-0.19615 1.52498,-4.80942 1.17971,-5.36811 -0.11222,-0.18157 -1.1146,-0.33015 -2.22749,-0.33015 l -2.02345,0 -0.92037,5.12335 c -0.5062,2.81784 -1.00221,5.43625 -1.10223,5.8187 -0.13013,0.49765 0.0391,0.69536 0.59532,0.69536 0.64923,0 0.85561,-0.41579 1.25381,-2.52624 z m 0.95913,-5.29311 c 0.43448,-2.15328 0.62661,-2.6543 1.01785,-2.6543 1.13479,0 0.58295,3.59225 -0.58642,3.81745 -0.59318,0.11423 -0.65534,-0.0533 -0.43143,-1.16315 z m 15.69116,2.87346 c 0.54689,-3.13136 1.06648,-5.0597 1.41623,-5.2561 0.30383,-0.17064 0.55242,-0.5634 0.55242,-0.87281 0,-0.40817 -0.47914,-0.56261 -1.74559,-0.56261 -1.48701,0 -1.74563,0.11494 -1.74563,0.77584 0,0.42671 0.14514,0.77582 0.32254,0.77582 0.17739,0 -0.0821,2.22565 -0.57649,4.94591 -0.49448,2.72024 -0.90145,4.98952 -0.90441,5.04287 -0.003,0.0533 0.4047,0.097 0.90587,0.097 0.8636,0 0.95645,-0.25874 1.77506,-4.9459 z m 13.94116,3.58821 c 0.27003,-0.74675 0.74941,-1.35771 1.06529,-1.35771 0.44629,0 0.51755,0.30269 0.31963,1.35771 -0.24674,1.31529 -0.21702,1.35768 0.9522,1.35768 1.1971,0 1.20695,-0.0165 1.20893,-2.03654 8.5e-4,-1.12011 0.11471,-3.73852 0.25246,-5.8187 l 0.25046,-3.78217 -1.12528,8e-5 c -1.09289,1e-4 -1.18106,0.1533 -3.06483,5.32537 -2.44614,6.71614 -2.36482,6.31196 -1.27011,6.31196 0.69966,0 1.03801,-0.32552 1.41125,-1.35768 z m 1.07628,-3.10332 c 0.12281,-0.32004 0.29188,-0.58187 0.37573,-0.58187 0.0838,0 0.15246,0.26183 0.15246,0.58187 0,0.32003 -0.16908,0.58186 -0.37573,0.58186 -0.20666,0 -0.27526,-0.26183 -0.15246,-0.58186 z m 15.02927,-0.79349 c 1.20492,-6.23486 1.2125,-6.38292 0.32682,-6.38292 -0.57836,0 -0.83603,0.82047 -1.60901,5.12335 -0.5062,2.81784 -1.0022,5.43625 -1.10222,5.8187 -0.13003,0.49727 0.0391,0.69536 0.59356,0.69536 0.6871,0 0.891,-0.59827 1.79085,-5.25449 z m 13.03132,3.024 c 0.68767,-3.53877 1.11525,-4.15057 1.15225,-1.64865 0.042,2.84271 0.35754,3.87914 1.18087,3.87914 0.56844,0 0.85055,-0.89371 1.70036,-5.38653 1.21566,-6.42701 1.20764,-6.25088 0.28454,-6.25088 -0.86609,0 -1.08825,0.48321 -1.43946,3.13071 -0.29415,2.21749 -0.91367,1.89514 -0.92359,-0.48056 -0.007,-1.92848 -0.33788,-2.65015 -1.21118,-2.65015 -0.40388,0 -0.73432,0.0512 -0.73432,0.11342 0,0.0624 -0.43545,2.37529 -0.96767,5.13984 -1.17309,6.09347 -1.18328,6.38415 -0.22358,6.38415 0.60214,0 0.83299,-0.43572 1.18177,-2.23049 z m 17.27852,0.19395 c 0.43539,-3.24021 0.93772,-3.54753 0.95108,-0.58187 0.0146,3.25499 0.80766,3.5671 1.97118,0.77582 1.58386,-3.79962 1.7798,-3.63182 0.90589,0.77583 -0.17589,0.88701 -0.0769,1.06676 0.58773,1.06676 0.51191,0 0.87008,-0.31382 0.99625,-0.87279 0.24193,-1.07196 1.75737,-10.16316 1.75737,-10.54254 0,-0.15048 -0.45333,-0.21837 -1.00741,-0.15086 -0.8439,0.10282 -1.20436,0.58123 -2.22101,2.9477 -1.36626,3.18027 -1.74098,3.00958 -1.78719,-0.81417 -0.027,-2.22379 -0.0424,-2.25451 -1.08747,-2.13353 -1.04031,0.12044 -1.07991,0.22461 -2.11009,5.55354 -0.57745,2.98692 -1.06045,5.5617 -1.07334,5.72172 -0.0129,0.16002 0.3966,0.29093 0.90997,0.29093 0.83262,0 0.96291,-0.21984 1.20704,-2.03654 z m 19.97065,1.87431 c 0,-0.0892 0.10595,-0.43833 0.23546,-0.77583 0.16879,-0.43986 0.004,-0.61359 -0.58188,-0.61359 -0.8832,0 -0.93357,-0.21489 -0.56834,-2.42446 0.199,-1.20397 0.39884,-1.45468 1.15946,-1.45468 0.55831,0 0.91904,-0.22839 0.91904,-0.58186 0,-0.32756 -0.34676,-0.58187 -0.7934,-0.58187 -0.70488,0 -0.76413,-0.16232 -0.53093,-1.45467 0.33856,-1.87638 0.44454,-2.03656 1.34721,-2.03656 0.49434,0 0.75294,-0.26648 0.75294,-0.77582 0,-0.63923 -0.2586,-0.77584 -1.46872,-0.77584 l -1.46873,0 -1.05272,5.35616 c -0.57898,2.94588 -1.0527,5.56428 -1.0527,5.81869 0,0.28105 0.6089,0.46256 1.55165,0.46256 0.85341,0 1.55166,-0.0729 1.55166,-0.16223 z m 14.31396,-2.93872 c 0.62061,-3.23532 0.65128,-3.22068 1.01041,0.48254 0.21307,2.19725 0.36932,2.61841 0.97137,2.61841 0.76825,0 0.82827,-0.20769 2.27024,-7.85524 l 0.71313,-3.78217 -0.88067,0 c -0.91139,0 -0.91329,0.004 -1.58826,3.68519 l -0.28451,1.55165 -0.26472,-1.16374 c -0.14559,-0.64006 -0.28536,-1.81835 -0.31061,-2.61842 -0.0394,-1.24875 -0.17298,-1.45468 -0.94377,-1.45468 -0.84765,0 -0.95634,0.30923 -1.94318,5.52778 -0.57491,3.04027 -1.04368,5.67083 -1.04168,5.84568 0.002,0.17486 0.39308,0.26214 0.86911,0.19396 0.74659,-0.10694 0.94214,-0.52343 1.42314,-3.03096 z m 16.06741,2.22816 c 0.11451,-0.48006 0.52097,-2.74936 0.90325,-5.04289 0.46124,-2.76742 0.86204,-4.17007 1.19153,-4.17007 0.27307,0 0.4965,-0.34911 0.4965,-0.77582 0,-0.6609 -0.25862,-0.77584 -1.74562,-0.77584 -1.4617,0 -1.7456,0.12093 -1.7456,0.74351 0,0.40893 0.16059,0.80168 0.35687,0.87281 0.20085,0.0727 -0.0278,2.29176 -0.52307,5.0752 l -0.87996,4.94589 0.86894,0 c 0.58081,0 0.93797,-0.28941 1.07716,-0.87279 z m 26.59392,-0.0391 c 0.23919,-0.28823 0.54228,-1.30754 0.67355,-2.26519 0.20073,-1.46447 0.074,-2.00206 -0.79782,-3.38303 -1.21571,-1.92583 -1.25114,-4.01508 -0.0719,-4.23873 0.6225,-0.11804 0.70251,0.0607 0.56279,1.25755 -0.13311,1.14011 -0.0366,1.39515 0.52766,1.39515 0.43716,0 0.77766,-0.39142 0.92795,-1.06676 0.13057,-0.5867 0.31685,-1.36161 0.41394,-1.72198 0.208,-0.77195 -0.91805,-1.47829 -2.35667,-1.47829 -2.63895,0 -3.41662,3.53308 -1.43508,6.51977 0.87636,1.32089 1.0556,1.92977 0.85574,2.90701 -0.15367,0.75132 -0.52586,1.28873 -0.94897,1.37021 -0.5883,0.1133 -0.67633,-0.096 -0.56825,-1.35037 0.0996,-1.15555 -0.0191,-1.51276 -0.53529,-1.61218 -0.43409,-0.0836 -0.73083,0.18271 -0.85899,0.77087 -0.22212,1.0195 -0.33035,2.22039 -0.2645,2.93512 0.0616,0.66904 3.31532,0.63619 3.8758,-0.0391 z m 12.86189,-2.06492 c 0.33267,-1.76312 1.078,-3.60972 2.33653,-5.78893 1.01642,-1.75998 1.74734,-3.30063 1.6243,-3.42369 -0.70619,-0.70619 -1.64248,-0.0212 -2.74272,2.00675 l -1.21018,2.23051 -0.0157,-1.3577 c -0.0264,-2.28956 -0.40054,-3.15754 -1.3048,-3.02669 -0.72669,0.1052 -0.79247,0.31832 -0.63478,2.05691 0.26722,2.94621 0.22245,6.40747 -0.1066,8.24315 -0.28025,1.56349 -0.24747,1.64865 0.63493,1.64865 0.84024,0 0.9778,-0.25099 1.41894,-2.58896 z m 16.18827,2.10407 c 0.21534,-0.26669 0.51286,-1.22056 0.66112,-2.11967 0.22331,-1.35418 0.0922,-1.96045 -0.76314,-3.5322 -1.11356,-2.04595 -1.21202,-4.14296 -0.19454,-4.14296 0.40959,0 0.56493,0.37327 0.52468,1.26073 -0.0451,0.9952 0.0963,1.2607 0.67146,1.2607 0.82126,0 1.26264,-1.22691 1.06465,-2.95946 -0.1126,-0.98531 -0.29928,-1.12776 -1.62,-1.23629 -3.07885,-0.25301 -4.11248,2.599 -2.18178,6.02002 1.22634,2.17294 1.44574,3.5466 0.68757,4.30477 -0.82077,0.82077 -1.14879,0.50275 -1.02026,-0.98917 0.10574,-1.22687 0.006,-1.45468 -0.63176,-1.45468 -0.56957,0 -0.8361,0.38021 -1.07604,1.53509 -0.17543,0.84429 -0.23235,1.76074 -0.12651,2.03655 0.25041,0.65258 3.48016,0.66595 4.00455,0.0165 z m 11.46079,-0.38792 c 0.11223,-0.48006 0.51049,-2.7057 0.88504,-4.94589 0.45881,-2.74421 0.9122,-4.29952 1.38965,-4.76706 0.38977,-0.38168 0.70868,-0.77445 0.70868,-0.87282 0,-0.0984 -0.87281,-0.17884 -1.93957,-0.17884 -1.41475,0 -1.93958,0.1487 -1.93958,0.54955 0,0.30224 0.20134,0.61666 0.44739,0.69868 0.32436,0.10811 0.21767,1.42896 -0.38791,4.80284 -0.45941,2.55952 -0.8353,4.86356 -0.8353,5.12003 0,0.85765 1.45901,0.50287 1.6716,-0.40649 z m 14.23286,0.097 c 0,-0.52294 -0.25861,-0.77581 -0.79341,-0.77581 -0.7012,0 -0.7653,-0.16908 -0.55164,-1.4547 0.3683,-2.21608 0.48284,-2.42445 1.33287,-2.42445 0.44184,0 0.78801,-0.25562 0.78801,-0.58187 0,-0.32001 -0.26185,-0.58187 -0.58188,-0.58187 -0.62701,0 -0.7226,-0.75106 -0.33942,-2.66691 0.19231,-0.96159 0.43881,-1.21222 1.19218,-1.21222 0.69491,0 0.91523,-0.18215 0.8211,-0.67884 -0.0892,-0.47086 -0.5633,-0.71515 -1.54716,-0.7973 -1.6623,-0.13878 -1.51319,-0.46144 -2.65396,5.74319 -0.45111,2.45356 -0.9151,4.85375 -1.0311,5.33381 -0.1956,0.80938 -0.0809,0.87281 1.57673,0.87281 1.52907,0 1.78768,-0.11225 1.78768,-0.77584 z m 11.69933,-2.03654 0.51994,-2.81237 0.11448,2.83744 c 0.0973,2.41152 0.21212,2.81865 0.76495,2.71217 0.37992,-0.0731 1.09355,-1.17267 1.71575,-2.64349 1.09318,-2.58417 1.27375,-2.36497 0.73753,0.89535 -0.28674,1.74344 -0.25506,1.85447 0.49797,1.7456 0.71357,-0.10312 0.90097,-0.68455 1.66287,-5.15916 1.13134,-6.64413 1.13116,-6.72376 -0.0154,-6.50452 -0.71429,0.13655 -1.22592,0.84694 -2.26598,3.1465 l -1.34329,2.97011 -0.29584,-3.2003 c -0.27633,-2.98953 -0.35423,-3.20027 -1.18315,-3.20027 -1.01202,0 -0.96082,-0.14922 -2.12939,6.20662 -0.4511,2.45355 -0.91055,4.76648 -1.02102,5.13984 -0.1532,0.51787 0.0271,0.67886 0.76005,0.67886 0.8864,0 1.00118,-0.218 1.48082,-2.81238 z M 412.9099,214.92331 c -0.16246,-0.26288 -0.93498,-0.35743 -1.9686,-0.24092 -0.93565,0.10542 -1.80617,0.0219 -1.93447,-0.18574 -0.12833,-0.20763 -0.64925,-0.29798 -1.15762,-0.20079 -0.50837,0.0972 -0.92432,0.006 -0.92432,-0.20268 0,-0.20864 -0.34911,-0.28805 -0.77582,-0.17647 -0.42671,0.11159 -0.77583,0.026 -0.77583,-0.19022 0,-0.21621 -0.26184,-0.29263 -0.58187,-0.16981 -0.32002,0.1228 -0.58187,0.0355 -0.58187,-0.19397 0,-0.22947 -0.26185,-0.31674 -0.58186,-0.19394 -0.32004,0.12279 -0.58188,0.0807 -0.58188,-0.0936 0,-0.17425 -0.69306,-0.62936 -1.54015,-1.01134 -0.84709,-0.38197 -1.83051,-1.01534 -2.18538,-1.40746 -0.35485,-0.39214 -0.80076,-0.61681 -0.99088,-0.49932 -0.19014,0.11752 -0.32069,0.0697 -0.29015,-0.10606 0.13589,-0.78215 -0.068,-1.31573 -0.41979,-1.09835 -0.21989,0.13591 -0.28493,-0.0198 -0.15244,-0.36502 0.12705,-0.3311 0.0797,-0.60201 -0.1052,-0.60201 -0.51917,0 -0.38996,-2.45668 0.15977,-3.0376 0.26865,-0.28389 0.37158,-0.72029 0.22875,-0.96979 -0.14286,-0.24949 -0.13834,-0.34565 0.009,-0.21372 0.14835,0.13194 0.76142,-0.21938 1.36234,-0.78073 0.60092,-0.56134 1.77309,-1.36755 2.60482,-1.79155 0.8317,-0.42401 1.56713,-0.89204 1.63424,-1.04007 0.0671,-0.14802 0.37261,-0.17298 0.67886,-0.0554 0.30622,0.11752 0.5568,0.0258 0.5568,-0.20357 0,-0.2295 0.24418,-0.32354 0.54264,-0.20902 0.29845,0.11453 0.65314,0.0295 0.78823,-0.18919 0.1351,-0.21857 0.48423,-0.30585 0.77584,-0.19395 0.29162,0.1119 0.64584,0.0165 0.78717,-0.21233 0.14134,-0.22868 0.67276,-0.31142 1.18094,-0.18388 0.50818,0.12755 1.15208,0.09 1.4309,-0.0832 0.67961,-0.4224 6.52291,-0.45435 6.78081,-0.037 0.112,0.18122 0.66638,0.29311 1.23193,0.24865 0.56558,-0.0444 1.32541,0.0469 1.68857,0.20311 0.36315,0.1562 0.82828,0.18017 1.03362,0.0532 0.20536,-0.1269 0.43191,-0.0659 0.50349,0.13577 0.0716,0.20158 0.5665,0.42877 1.09987,0.5049 0.5334,0.0762 1.36257,0.35481 1.8426,0.61933 0.48005,0.26454 0.87549,0.34389 0.87876,0.17638 0.003,-0.16753 0.13417,-0.12903 0.29092,0.0856 0.61837,0.84648 3.11613,2.46987 3.40261,2.21152 0.16722,-0.15077 0.18241,-0.0622 0.0337,0.19659 -0.14867,0.25891 0.0415,0.78259 0.42272,1.16375 0.71526,0.71527 0.98308,3.58308 0.37625,4.02908 -0.1742,0.12806 -0.36539,0.56446 -0.42488,0.96979 -0.0594,0.40535 -0.35337,0.74493 -0.65306,0.75462 -0.29969,0.009 -0.48671,0.27155 -0.41559,0.58189 0.0712,0.31032 0.012,0.44696 -0.13131,0.30361 -0.14334,-0.14335 -1.06487,0.24943 -2.04783,0.87281 -0.98299,0.62338 -1.91626,1.13342 -2.07394,1.13342 -0.1577,0 -0.77812,0.20179 -1.37873,0.4484 -0.60061,0.24663 -1.26658,0.48187 -1.47993,0.52279 -0.21336,0.0409 -0.47519,0.11516 -0.58189,0.16499 -0.50624,0.23647 -2.76023,0.41803 -5.04286,0.40622 -1.82424,-0.009 -2.36054,0.0958 -1.93957,0.38007 0.35391,0.23913 0.40086,0.39545 0.11987,0.39907 -0.2541,0.003 -0.58232,-0.18875 -0.7294,-0.42673 z m 47.82807,-11.5935 c -1.75376,-1.37951 -1.81056,-2.58613 -0.4837,-10.27887 l 1.20434,-6.98245 3.52147,-0.11085 3.52147,-0.11087 -0.96051,5.44939 c -0.89533,5.07957 -0.91787,5.51444 -0.3322,6.40828 1.19353,1.82157 3.92619,1.72262 5.3162,-0.1925 0.93539,-1.28877 2.38506,-9.77136 1.89168,-11.06903 -0.19574,-0.51488 -2.18521,-3.97803 -4.42099,-7.69585 -2.23581,-3.71783 -4.33658,-7.40947 -4.66841,-8.20363 -0.85309,-2.04174 -0.75303,-4.5145 0.40374,-9.97686 1.82749,-8.6295 2.96028,-9.52608 12.09749,-9.57474 5.9974,-0.032 7.62418,0.33109 8.76188,1.95539 0.89776,1.28171 0.79635,3.09075 -0.57687,10.29232 l -1.20942,6.34263 -3.44553,0 c -2.49697,0 -3.44555,-0.13344 -3.44555,-0.48467 0,-0.26658 0.36508,-2.54218 0.81126,-5.05691 0.75022,-4.22846 0.76444,-4.64367 0.18904,-5.52186 -1.19893,-1.82976 -3.76742,-1.54512 -5.32174,0.58977 -0.76521,1.05104 -1.88516,5.80916 -1.88516,8.00913 0,1.02667 0.61328,2.29124 2.48038,5.11449 1.36421,2.06283 3.58595,5.67079 4.93718,8.01767 2.91493,5.06269 2.89652,4.84425 1.14218,13.55351 -1.38905,6.89583 -1.78471,7.90536 -3.60798,9.20582 -1.19178,0.85005 -1.66839,0.91051 -8.06978,1.02395 -6.44487,0.11419 -6.85834,0.0772 -7.85047,-0.70326 z m 24.15226,-0.33268 c -0.93107,-0.93106 -1.15769,-1.48792 -1.15451,-2.83694 0.004,-1.76461 7.92721,-48.14819 8.33804,-48.81294 0.13084,-0.21171 1.62409,-0.38494 3.31832,-0.38494 2.62345,0 3.08041,0.0965 3.08041,0.65022 0,0.35763 -1.83772,11.0147 -4.08383,23.68237 -2.24611,12.66771 -3.98142,23.19789 -3.85624,23.40045 0.29064,0.47028 6.6581,0.48548 6.94789,0.0165 0.18394,-0.2976 8.75046,-46.80609 8.75046,-47.50707 0,-0.13338 1.39647,-0.24252 3.10331,-0.24252 2.05034,0 3.10329,0.14892 3.10329,0.43886 0,1.51776 -9.04184,48.70855 -9.50382,49.60191 -0.31362,0.60647 -1.14018,1.50919 -1.83678,2.00605 -1.19337,0.85117 -1.66486,0.91042 -8.15734,1.02491 l -6.89076,0.12153 -1.15844,-1.15844 z m 21.14312,0.2518 c 0.23282,-0.97103 9.89525,-51.92693 9.89525,-52.18374 0,-0.0869 3.70943,-0.10199 8.24317,-0.0334 12.46324,0.18835 12.1083,-0.36293 9.27494,14.40514 -1.15226,6.00592 -2.31023,11.00273 -2.70734,11.68267 -0.38162,0.65344 -1.27756,1.58143 -1.99098,2.06219 -1.18339,0.79749 -1.74709,0.87413 -6.42952,0.87413 l -5.13241,0 -1.45246,7.6613 c -0.79885,4.2137 -1.83146,9.58146 -2.29467,11.92834 l -0.8422,4.26705 -3.38837,0.11224 c -3.35798,0.11125 -3.38644,0.10422 -3.17541,-0.77584 z m 18.22401,-29.13392 c 0.3236,-0.49389 1.22891,-3.97229 2.01181,-7.72978 1.36045,-6.52946 1.39449,-6.87597 0.76933,-7.83008 -0.58929,-0.89937 -0.89879,-0.9983 -3.12285,-0.9983 l -2.46875,0 -1.61385,8.34734 c -0.88761,4.59104 -1.50796,8.51867 -1.37855,8.72805 0.12941,0.20941 1.3556,0.38071 2.72489,0.38071 2.17441,0 2.56408,-0.11367 3.07797,-0.89794 z m 5.24822,29.55067 c 0,-0.57406 10.02816,-51.55726 10.27113,-52.21847 0.13319,-0.36247 1.87903,-0.4849 6.91418,-0.4849 3.70482,0 6.82664,0.0907 6.93739,0.20137 0.36248,0.36248 -0.81931,6.13516 -1.32481,6.47131 -0.27108,0.18027 -1.94104,0.28006 -3.71105,0.22179 -2.94441,-0.097 -3.23374,-0.0399 -3.401,0.66985 -0.42494,1.80325 -2.88332,14.78201 -2.88398,15.22562 -3.8e-4,0.35249 0.96456,0.48489 3.53455,0.48489 l 3.53527,0 -0.26584,1.84257 c -0.55676,3.85901 -0.23089,3.58821 -4.31792,3.58821 -3.45425,0 -3.64542,0.0436 -3.82991,0.87281 -0.10681,0.48003 -0.72605,4.0149 -1.37614,7.85524 -0.65011,3.84034 -1.27817,7.46249 -1.39571,8.04921 l -0.21371,1.06676 3.716,0 c 2.7269,0 3.70966,0.12906 3.69216,0.48489 -0.0132,0.26669 -0.23514,1.70683 -0.49342,3.2003 l -0.46959,2.71538 -7.4588,0.10532 c -5.53021,0.078 -7.4588,-0.013 -7.4588,-0.35219 z m 18.23194,0.24814 c 0,-0.27481 9.6394,-51.02637 9.89145,-52.0787 0.20807,-0.86861 0.24593,-0.8728 7.86298,-0.87221 8.71697,8.5e-4 9.8424,0.27998 11.04648,2.74141 0.66854,1.36666 0.65249,1.51253 -1.25876,11.44346 -1.06476,5.53251 -1.93681,10.18326 -1.9379,10.33496 -0.004,0.58112 -1.82506,1.9889 -3.61484,2.79468 l -1.86724,0.84067 1.47095,0.95377 c 2.40465,1.55915 2.40985,1.80962 0.27856,13.42286 l -1.91192,10.41779 -3.43136,0.11277 c -3.40507,0.11189 -3.42968,0.10594 -3.21199,-0.77584 0.97037,-3.93036 3.36386,-17.84211 3.36386,-19.55187 0,-3.22397 -0.35673,-3.64173 -3.10956,-3.64173 -2.0727,0 -2.32715,0.0885 -2.51078,0.87281 -0.1124,0.48003 -1.07446,5.49866 -2.13792,11.15251 -1.06347,5.65384 -2.02553,10.67245 -2.13792,11.15251 -0.19209,0.82046 -0.40165,0.87281 -3.49422,0.87281 -1.80943,0 -3.28987,-0.0866 -3.28987,-0.19266 z m 17.78462,-29.80742 c 0.63342,-0.67424 1.1975,-2.51128 2.20115,-7.16838 1.54172,-7.15392 1.58632,-7.70067 0.70748,-8.67178 -0.90902,-1.00446 -5.03378,-1.02815 -5.3175,-0.0305 -0.65982,2.31989 -2.99134,15.75476 -2.81423,16.2163 0.15073,0.39276 0.83842,0.56097 2.29336,0.56097 1.6764,0 2.2427,-0.17521 2.92974,-0.90655 z m 17.90848,29.70913 c 0.002,-0.16002 2.24379,-12.0738 4.98003,-26.47509 l 4.97496,-26.18416 3.30705,-0.11131 3.30702,-0.1113 0.19955,1.27503 c 0.10976,0.70128 0.87075,6.73008 1.6911,13.39736 0.82035,6.66726 1.58361,12.12145 1.69612,12.12041 0.11252,-8.5e-4 1.23794,-5.63063 2.50096,-12.51022 1.26302,-6.87957 2.43699,-12.9011 2.60882,-13.38113 0.29429,-0.82218 0.52675,-0.87281 4.0072,-0.87281 2.03213,0 3.69478,0.0947 3.69478,0.21048 0,0.39977 -9.72814,51.57797 -9.93279,52.25483 -0.17416,0.57604 -0.69648,0.67886 -3.44846,0.67886 l -3.24321,0 -0.23093,-2.03655 c -0.20247,-1.78526 -2.09472,-25.40417 -2.18762,-27.3054 -0.0614,-1.25857 -0.97827,2.7933 -3.67664,16.24987 l -2.62528,13.09208 -3.81387,0 c -2.09761,0 -3.81158,-0.13093 -3.80879,-0.29095 z m 26.55355,-0.5666 c 0.11159,-0.48844 2.21499,-11.53629 4.6742,-24.55079 2.45921,-13.0145 4.65461,-24.57918 4.87868,-25.69929 l 0.40739,-2.03654 3.26975,0 c 2.36233,0 3.26711,0.13458 3.26018,0.4849 -0.005,0.26668 -2.23679,12.18049 -4.95891,26.47509 l -4.9493,25.99021 -3.39247,0.11225 c -3.35975,0.11116 -3.3905,0.10364 -3.18952,-0.77583 z m 10.08939,0.38615 c 0.0936,-0.27411 2.36788,-12.10613 5.05401,-26.29337 2.68614,-14.18724 5.0232,-25.93432 5.19348,-26.10458 0.17028,-0.17029 1.68952,-0.25815 3.37611,-0.19523 l 3.06651,0.11438 1.22867,9.69784 c 0.67575,5.33381 1.43832,11.40822 1.69457,13.4987 0.25624,2.09048 0.51899,3.74779 0.58389,3.6829 0.0648,-0.0648 1.18968,-5.87749 2.49954,-12.91686 1.30985,-7.03937 2.46978,-13.10432 2.5776,-13.47769 0.16856,-0.58358 0.70053,-0.67886 3.79046,-0.67886 1.97691,0 3.6774,0.083 3.77888,0.18449 0.15833,0.15834 -2.32644,13.55807 -8.43584,45.49233 l -1.42858,7.46735 -3.35421,0 -3.35422,0 -1.06479,-13.67397 c -0.58564,-7.52067 -1.05863,-14.15399 -1.05109,-14.7407 0.0405,-3.15073 -0.86914,0.37927 -3.49835,13.57698 l -2.91726,14.64372 -3.95476,0.11047 c -3.08706,0.0862 -3.91744,8.5e-4 -3.78462,-0.3879 z m 30.64902,-0.40141 c 0.38445,-1.65493 7.95821,-44.62339 7.95821,-45.14956 0,-0.37564 -0.57019,-0.52726 -1.98274,-0.52726 l -1.98274,0 0.26749,-1.45467 c 0.14711,-0.80008 0.44285,-2.28384 0.65719,-3.29727 l 0.3897,-1.8426 7.72612,0 c 8.86568,0 8.09513,-0.43692 7.2984,4.1383 l -0.42775,2.45624 -1.6088,0.006 c -0.88486,0.003 -1.80536,0.13419 -2.04555,0.29094 -0.4153,0.27099 -1.32977,5.04277 -6.18774,32.28787 -1.16028,6.50724 -2.20939,12.3114 -2.33137,12.89813 l -0.22177,1.06675 -3.8557,0 c -3.79997,0 -3.85278,-0.0127 -3.65295,-0.87281 z m 13.24163,0.19395 c 0.0923,-0.37337 2.42418,-12.15929 5.18183,-26.19097 2.75765,-14.03167 5.11991,-25.68363 5.24946,-25.89323 0.13964,-0.22597 2.98975,-0.38111 7.00113,-0.38111 7.77831,0 7.13867,-0.43625 6.25638,4.26705 l -0.47299,2.52144 -3.54839,0 c -1.95161,0 -3.62337,0.0874 -3.71501,0.19396 -0.30909,0.35979 -3.27627,15.8907 -3.07446,16.09249 0.10993,0.10994 1.76365,0.19989 3.67492,0.19989 l 3.47507,0 -0.25275,1.2607 c -0.13903,0.6934 -0.35676,1.90927 -0.48383,2.70192 l -0.23108,1.44122 -3.73473,0.11043 -3.73473,0.11046 -1.42277,8.14618 c -0.78252,4.48042 -1.43712,8.45167 -1.45468,8.82505 -0.0282,0.60144 0.39128,0.67884 3.67941,0.67884 3.34693,0 3.69304,0.0666 3.5251,0.67886 -0.1024,0.37336 -0.29473,1.37708 -0.42732,2.23049 -0.13261,0.85342 -0.33628,2.0317 -0.45261,2.61843 l -0.21151,1.06676 -7.49717,0 c -6.94553,0 -7.48483,-0.05 -7.32927,-0.67886 z m 17.34131,-0.19395 c 0.11541,-0.48006 2.31627,-12.04472 4.89079,-25.69929 2.57452,-13.65455 4.77164,-25.21923 4.88248,-25.69926 0.18937,-0.82023 0.39865,-0.87281 3.47382,-0.87281 l 3.27229,0 0.21482,1.26073 c 0.11816,0.6934 0.82283,6.23571 1.56595,12.31624 0.74311,6.08056 1.46279,11.66652 1.59926,12.41324 0.18985,1.03875 0.82657,-1.73825 2.71033,-11.82077 1.35421,-7.24817 2.54776,-13.40146 2.65233,-13.67397 0.26784,-0.69795 7.58853,-0.70817 7.57643,-0.0108 -0.004,0.26669 -2.23463,12.1805 -4.95557,26.47511 l -4.94719,25.99021 -3.38455,0.11207 c -1.86152,0.0616 -3.38508,-0.0256 -3.38573,-0.19395 -0.004,-1.07061 -2.37162,-29.38021 -2.46491,-29.4735 -0.0635,-0.0635 -1.29574,5.77489 -2.7382,12.9743 -1.44244,7.19942 -2.79621,13.91903 -3.00836,14.93244 l -0.38575,1.84259 -3.88904,0 c -3.83666,0 -3.88623,-0.0117 -3.6792,-0.87281 z m 26.4832,0.19395 c 0.0869,-0.37337 2.33386,-12.16304 4.99301,-26.19929 2.65915,-14.03622 4.9385,-25.68818 5.06522,-25.89323 0.31572,-0.51083 14.34675,-0.47527 16.20624,0.0411 1.63601,0.45431 2.99068,2.21031 2.97252,3.85317 -0.006,0.53338 -1.89665,10.88325 -4.20168,22.99971 -4.46312,23.46051 -4.3925,23.20935 -7.03025,25.0046 -1.23289,0.83908 -1.60839,0.87281 -9.72283,0.87281 -7.84016,0 -8.42918,-0.0482 -8.28223,-0.67886 z m 13.54774,-5.62474 1.35393,-1.26073 3.32355,-17.4561 c 1.82795,-9.60085 3.34607,-18.04578 3.37362,-18.7665 0.0733,-1.91968 -1.48153,-3.15062 -3.97977,-3.15062 l -1.89043,0 -0.40943,2.03654 c -0.56932,2.83195 -7.40385,39.46049 -7.40385,39.67975 0,0.098 0.96265,0.17837 2.13922,0.17837 1.87713,0 2.30509,-0.15444 3.49316,-1.26071 z m 13.41809,5.77494 c -1.1285,-0.64092 -1.95003,-2.04268 -1.96852,-3.35888 -0.0167,-1.18958 7.16902,-42.66468 7.738,-44.66266 0.49075,-1.72325 2.56807,-3.63125 4.5539,-4.18273 2.26136,-0.62798 12.65621,-0.52713 14.24871,0.13823 1.61633,0.67537 2.70503,2.25589 2.66193,3.86488 -0.0561,2.11757 -8.30724,44.57536 -8.87585,45.67483 -0.2998,0.57984 -1.11508,1.46077 -1.81174,1.95763 -1.20254,0.85777 -1.62904,0.90824 -8.44296,0.99931 -5.47324,0.0731 -7.39641,-0.0291 -8.10347,-0.43061 z m 10.90291,-5.56006 c 0.42001,-0.3801 0.90794,-0.96073 1.08432,-1.29027 0.52561,-0.98209 6.64179,-35.6779 6.51381,-36.95142 -0.17157,-1.70754 -1.82221,-2.84245 -3.45363,-2.37456 -2.45489,0.70404 -2.57379,1.10224 -6.03905,20.22597 -1.76909,9.76301 -3.22009,18.23098 -3.22445,18.8177 -0.0121,1.63913 1.33134,2.75439 2.99322,2.4847 0.74918,-0.12157 1.70578,-0.53203 2.12578,-0.91212 z m -312.47435,3.00005 c -0.28039,-2.36744 -1.71913,-5.68687 -3.36626,-7.76654 -2.13376,-2.69407 -5.99728,-4.67646 -10.21712,-5.24244 l -1.87194,-0.25107 0.26964,-1.62045 c 1.37548,-8.26678 8.95895,-13.89524 17.00632,-12.6221 4.82225,0.7629 9.27384,4.18655 11.40332,8.77011 1.41235,3.04001 1.47435,8.08783 0.14055,11.44317 -1.76603,4.44267 -6.78369,8.45237 -11.3427,9.06414 l -1.78327,0.23931 -0.23854,-2.01413 z m -55.81213,-1.76771 c -4.94874,-0.98527 -8.62826,-3.1191 -10.06926,-5.83938 l -0.91379,-1.72502 0.96978,-1.83881 c 1.97357,-3.7421 6.9603,-5.8876 14.41541,-6.20215 6.97736,-0.29437 12.49172,1.233 15.57189,4.31318 6.53299,6.53298 -6.59639,13.95557 -19.97403,11.29218 z m 25.95577,-13.52365 c -0.66703,-6.46288 -6.11588,-11.9591 -12.93622,-13.04864 -1.45476,-0.23242 -2.67824,-0.45666 -2.71886,-0.49838 -0.0407,-0.0417 0.0997,-1.03592 0.31185,-2.20934 1.13032,-6.2527 6.54639,-11.50814 12.73162,-12.35401 6.79743,-0.92961 13.33279,2.60608 16.22566,8.77819 0.92115,1.9653 1.03963,2.68329 1.03963,6.29936 0,3.82838 -0.0788,4.24141 -1.27258,6.66622 -2.15569,4.37884 -6.76747,7.79169 -11.24555,8.32207 l -1.91038,0.22626 -0.22517,-2.18173 z" id="Logo" inkscape:connector-curvature="0"/>
    <circle style="fill:#8f8f8f;fill-opacity:1;stroke:#5d5d5d;stroke-width:5;stroke-linecap:round;stroke-miterlimit:4;stroke-dasharray:none;stroke-opacity:1" id="Button Background" cx="988.85718" cy="374.85715" r="228.57143"/>
    <rect style="fill:#dedede;fill-opacity:1;stroke:#5d5d5d;stroke-width:4.94417572;stroke-linecap:round;stroke-miterlimit:4;stroke-dasharray:none;stroke-opacity:1" id="AB Indent" width="274.29306" height="116.32194" x="439.22925" y="913.82751" ry="58.160969" transform="matrix(0.79335334,-0.60876143,0.60876143,0.79335334,0,0)"/>
    <rect style="fill:#dedede;fill-opacity:1;stroke:#5d5d5d;stroke-width:4.94417572;stroke-linecap:round;stroke-miterlimit:4;stroke-dasharray:none;stroke-opacity:1" id="XY Indent" width="274.29306" height="116.32194" x="404.44928" y="771.25403" ry="58.160969" transform="matrix(0.79335334,-0.60876143,0.60876143,0.79335334,0,0)"/>
    <text xml:space="preserve" style="font-style:normal;font-variant:normal;font-weight:bold;font-stretch:normal;font-size:38.04166031px;line-height:125%;font-family:sans-serif;-inkscape-font-specification:'sans-serif Bold';letter-spacing:0px;word-spacing:0px;fill:#dedede;fill-opacity:1;stroke:none;stroke-width:1px;stroke-linecap:butt;stroke-linejoin:miter;stroke-opacity:1" x="1011.2191" y="238.85934" id="X Text" sodipodi:linespacing="125%" transform="scale(1.0514789,0.95104144)"><tspan sodipodi:role="line" id="tspan4245" x="1011.2191" y="238.85934" style="-inkscape-font-specification:'Arial Bold';font-family:Arial;font-weight:bold;font-style:normal;font-stretch:normal;font-variant:normal">X</tspan></text>
    <text xml:space="preserve" style="font-style:normal;font-variant:normal;font-weight:bold;font-stretch:normal;font-size:38.04166031px;line-height:125%;font-family:sans-serif;-inkscape-font-specification:'sans-serif Bold';letter-spacing:0px;word-spacing:0px;fill:#dedede;fill-opacity:1;stroke:none;stroke-width:1px;stroke-linecap:butt;stroke-linejoin:miter;stroke-opacity:1" x="1109.548" y="339.22495" id="A Text" sodipodi:linespacing="125%" transform="scale(1.0514789,0.95104144)"><tspan sodipodi:role="line" id="tspan4245-0" x="1109.548" y="339.22495" style="-inkscape-font-specification:'Arial Bold';font-family:Arial;font-weight:bold;font-style:normal;font-stretch:normal;font-variant:normal">A</tspan></text>
    <text xml:space="preserve" style="font-style:normal;font-variant:normal;font-weight:bold;font-stretch:normal;font-size:38.04166031px;line-height:125%;font-family:sans-serif;-inkscape-font-specification:'sans-serif Bold';letter-spacing:0px;word-spacing:0px;fill:#dedede;fill-opacity:1;stroke:none;stroke-width:1px;stroke-linecap:butt;stroke-linejoin:miter;stroke-opacity:1" x="752.62024" y="473.6539" id="Y Text" sodipodi:linespacing="125%" transform="scale(1.0514789,0.95104144)"><tspan sodipodi:role="line" id="tspan4245-7" x="752.62024" y="473.6539" style="font-style:normal;font-variant:normal;font-weight:bold;font-stretch:normal;font-family:Arial;-inkscape-font-specification:'Arial Bold'">Y</tspan></text>
    <text xml:space="preserve" style="font-style:normal;font-variant:normal;font-weight:bold;font-stretch:normal;font-size:42.33150482px;line-height:125%;font-family:sans-serif;-inkscape-font-specification:'sans-serif Bold';letter-spacing:0px;word-spacing:0px;fill:#dedede;fill-opacity:1;stroke:none;stroke-width:1px;stroke-linecap:butt;stroke-linejoin:miter;stroke-opacity:1" x="765.0094" y="636.43787" id="B Text" sodipodi:linespacing="125%" transform="scale(1.170051,0.85466361)"><tspan sodipodi:role="line" id="tspan4245-9" x="765.0094" y="636.43787" style="font-style:normal;font-variant:normal;font-weight:bold;font-stretch:normal;font-family:Arial;-inkscape-font-specification:'Arial Bold'">B</tspan></text>
    <text xml:space="preserve" style="font-style:normal;font-weight:normal;font-size:29.36332512px;line-height:125%;font-family:sans-serif;letter-spacing:0px;word-spacing:0px;opacity:1;fill:#000000;fill-opacity:1;stroke:none;stroke-width:1px;stroke-linecap:butt;stroke-linejoin:miter;stroke-opacity:1" x="590.6427" y="448.90402" id="Select Text" sodipodi:linespacing="125%" transform="matrix(0.90350267,0,-0.11744035,1.1068036,0,0)"><tspan sodipodi:role="line" x="590.6427" y="448.90402" id="tspan4291"><tspan x="590.6427" y="448.90402" style="font-style:italic;font-variant:normal;font-weight:bold;font-stretch:condensed;font-family:Arial;-inkscape-font-specification:'Arial Bold Italic Condensed'" id="tspan4293">SELECT</tspan></tspan></text>
    <text xml:space="preserve" style="font-style:normal;font-weight:normal;font-size:29.36332512px;line-height:125%;font-family:sans-serif;letter-spacing:0px;word-spacing:0px;opacity:1;fill:#000000;fill-opacity:1;stroke:none;stroke-width:1px;stroke-linecap:butt;stroke-linejoin:miter;stroke-opacity:1" x="744.35431" y="448.90387" id="Start Text" sodipodi:linespacing="125%" transform="matrix(0.90350267,0,-0.11744035,1.1068036,0,0)"><tspan sodipodi:role="line" x="744.35431" y="448.90387" id="tspan4291-6"><tspan x="744.35431" y="448.90387" style="font-style:italic;font-variant:normal;font-weight:bold;font-stretch:condensed;font-family:Arial;-inkscape-font-specification:'Arial Bold Italic Condensed'" id="tspan4293-5">START</tspan></tspan></text>
  </g>
  <g inkscape:groupmode="layer" id="layer2" inkscape:label="Buttons" style="display:inline">
    <circle id="Y" munia:button-id="2" munia:button-state="released" style="fill:#288e40;fill-opacity:1;stroke:#154c22;stroke-width:5;stroke-linecap:round;stroke-miterlimit:4;stroke-dasharray:none;stroke-opacity:1" cx="873.42859" cy="375.71429" r="44.805191"/>
    <circle id="Y Pressed" munia:button-id="2" munia:button-state="pressed" r="44.805191" cy="375.71429" cx="873.42859" style="display:none;fill:#a0e3af;fill-opacity:1;stroke:#a0e3af;stroke-width:5;stroke-linecap:round;stroke-miterlimit:4;stroke-dasharray:none;stroke-opacity:1"/>
    <circle id="X" munia:button-id="6" munia:button-state="released" style="fill:#2a2ad4;fill-opacity:1;stroke:#111155;stroke-width:5;stroke-linecap:round;stroke-miterlimit:4;stroke-dasharray:none;stroke-opacity:1" cx="995.42853" cy="281.42859" r="44.805191"/>
    <circle id="X Pressed" munia:button-id="6" munia:button-state="pressed" r="44.805191" cy="281.42859" cx="995.42853" style="display:none;fill:#7676f1;fill-opacity:1;stroke:#7676f1;stroke-width:5;stroke-linecap:round;stroke-linejoin:miter;stroke-miterlimit:4;stroke-dasharray:none;stroke-opacity:1"/>
    <circle id="B" munia:button-id="3" munia:button-state="released" style="fill:#ea9b03;fill-opacity:1;stroke:#aa7002;stroke-width:5;stroke-linecap:round;stroke-miterlimit:4;stroke-dasharray:none;stroke-opacity:1" cx="989.57147" cy="467.14285" r="44.805191"/>
    <circle id="B Pressed" munia:button-id="3" munia:button-state="pressed" r="44.805191" cy="467.14285" cx="989.57147" style="display:none;fill:#ffdfa1;fill-opacity:1;stroke:#ffdfa1;stroke-width:5;stroke-linecap:round;stroke-miterlimit:4;stroke-dasharray:none;stroke-opacity:1"/>
    <circle id="A" munia:button-id="7" munia:button-state="released" style="fill:#de0c0c;fill-opacity:1;stroke:#6e0707;stroke-width:5;stroke-linecap:round;stroke-miterlimit:4;stroke-dasharray:none;stroke-opacity:1" cx="1111.5714" cy="372.85715" r="44.805191"/>
    <circle id="A Pressed" munia:button-id="7" munia:button-state="pressed" r="44.805191" cy="372.85715" cx="1111.5714" style="display:none;fill:#ffaaaa;fill-opacity:1;stroke:#ffaaaa;stroke-width:5;stroke-linecap:round;stroke-miterlimit:4;stroke-dasharray:none;stroke-opacity:1"/>
    <rect id="Start" munia:button-id="0" munia:button-state="released" style="fill:#484848;fill-opacity:1;stroke:#202020;stroke-width:5;stroke-linecap:round;stroke-miterlimit:4;stroke-dasharray:none;stroke-opacity:1" width="102.85714" height="34.285713" x="221.98645" y="713.05096" ry="17.142857" transform="matrix(0.79335334,-0.60876143,0.60876143,0.79335334,0,0)"/>
    <rect id="Start Pressed" munia:button-id="0" munia:button-state="pressed" transform="matrix(0.79335334,-0.60876143,0.60876143,0.79335334,0,0)" ry="17.142857" y="713.05096" x="221.98645" height="34.285713" width="102.85714" style="display:none;fill:#ffffff;fill-opacity:1;stroke:#ffffff;stroke-width:5;stroke-linecap:round;stroke-miterlimit:4;stroke-dasharray:none;stroke-opacity:1"/>
    <rect id="Select" munia:button-id="1" munia:button-state="released" style="fill:#484848;fill-opacity:1;stroke:#202020;stroke-width:5;stroke-linecap:round;stroke-miterlimit:4;stroke-dasharray:none;stroke-opacity:1" width="102.85714" height="34.285713" x="117.26385" y="632.69446" ry="17.142857" transform="matrix(0.79335334,-0.60876143,0.60876143,0.79335334,0,0)"/>
    <rect id="Select Pressed" munia:button-id="1" munia:button-state="pressed" ry="17.142857" y="632.69446" x="117.26385" height="34.285713" width="102.85714" style="display:none;fill:#ffffff;fill-opacity:1;stroke:#ffffff;stroke-width:5;stroke-linecap:round;stroke-miterlimit:4;stroke-dasharray:none;stroke-opacity:1" transform="matrix(0.79335334,-0.60876143,0.60876143,0.79335334,0,0)"/>
    <g id="D-Pad" clip-path="none">
      <path id="Base" inkscape:connector-curvature="0" d="m 268.57227,270 c -9.49717,0 -17.14454,7.64541 -17.14454,17.14258 l 0,53.57226 -53.57031,0 c -9.49716,0 -17.14258,7.64542 -17.14258,17.14258 l 0,38.57227 c 0,9.49716 7.64542,17.14258 17.14258,17.14258 l 53.57031,0 0,53.57031 c 0,9.49716 7.64737,17.14258 17.14454,17.14258 l 38.57031,0 c 9.49716,0 17.14258,-7.64542 17.14258,-17.14258 l 0,-53.57031 53.57226,0 c 9.49717,0 17.14258,-7.64542 17.14258,-17.14258 l 0,-38.57227 c 0,-9.49716 -7.64541,-17.14258 -17.14258,-17.14258 l -53.57226,0 0,-53.57226 C 324.28516,277.64541 316.63974,270 307.14258,270 l -38.57031,0 z" style="fill:#484848;fill-opacity:1;stroke:#202020;stroke-width:5;stroke-linecap:round;stroke-miterlimit:4;stroke-dasharray:none;stroke-opacity:1"/>
      <circle id="Center" r="26.011427" cy="377.14258" cx="287.85742" style="fill:#383838;fill-opacity:1;stroke:none;stroke-width:5;stroke-linecap:round;stroke-miterlimit:4;stroke-dasharray:none;stroke-opacity:1"/>
      <path id="Left" munia:button-id="10" munia:button-state="released" transform="matrix(0.82582401,0,0,0.77129435,11.435052,85.54445)" inkscape:transform-center-x="5.9446503" d="m 223.23929,378.06336 43.19066,-24.93615 10e-6,49.87229 z" inkscape:randomized="0" inkscape:rounded="0" inkscape:flatsided="true" sodipodi:arg2="-2.0943951" sodipodi:arg1="-3.1415927" sodipodi:r2="14.396889" sodipodi:r1="28.793777" sodipodi:cy="378.06335" sodipodi:cx="252.03307" sodipodi:sides="3" style="fill:#383838;fill-opacity:1;stroke:#383838;stroke-width:12.5298605;stroke-linecap:round;stroke-linejoin:round;stroke-miterlimit:4;stroke-dasharray:none;stroke-opacity:1" sodipodi:type="star"/>
      <g id="Left Pressed" munia:button-id="10" munia:button-state="pressed" transform="matrix(-1,0,0,-1,575.71484,754.28516)" style="display:none">
        <path inkscape:connector-curvature="0" id="path5524" d="m 324.28516,413.57227 53.57226,0 c 9.49717,0 17.14258,-7.64542 17.14258,-17.14258 l 0,-38.57227 c 0,-9.49716 -7.64541,-17.14258 -17.14258,-17.14258 l -53.57226,0 z" style="fill:#ffffff;fill-opacity:1;stroke:#ffffff;stroke-width:5;stroke-linecap:round;stroke-miterlimit:4;stroke-dasharray:none;stroke-opacity:1" sodipodi:nodetypes="csssscc"/>
        <path transform="matrix(-0.82582401,0,0,0.77129435,563.82518,85.544014)" d="m 223.23929,378.06336 21.59533,-12.46808 21.59533,-12.46807 0,24.93614 10e-6,24.93615 -21.59534,-12.46807 z" inkscape:randomized="0" inkscape:rounded="0" sodipodi:arg2="-2.0943951" sodipodi:r2="14.396889" sodipodi:r1="28.793777" sodipodi:cy="378.06335" sodipodi:cx="252.03307" sodipodi:sides="3" id="path5526" style="fill:#dbdbdb;fill-opacity:1;stroke:#dbdbdb;stroke-width:12.5298605;stroke-linecap:round;stroke-linejoin:round;stroke-miterlimit:4;stroke-dasharray:none;stroke-opacity:1" sodipodi:type="star" inkscape:flatsided="false" sodipodi:arg1="-3.1415927"/>
      </g>
      <path id="Right" munia:button-id="11" munia:button-state="released" transform="matrix(-0.82582401,0,0,0.77129435,563.82518,85.544014)" inkscape:transform-center-x="-5.9446474" d="m 223.23929,378.06336 43.19066,-24.93615 10e-6,49.87229 z" inkscape:randomized="0" inkscape:rounded="0" inkscape:flatsided="true" sodipodi:arg2="-2.0943951" sodipodi:arg1="-3.1415927" sodipodi:r2="14.396889" sodipodi:r1="28.793777" sodipodi:cy="378.06335" sodipodi:cx="252.03307" sodipodi:sides="3" style="fill:#383838;fill-opacity:1;stroke:#383838;stroke-width:12.5298605;stroke-linecap:round;stroke-linejoin:round;stroke-miterlimit:4;stroke-dasharray:none;stroke-opacity:1" sodipodi:type="star"/>
      <g id="Right Pressed" munia:button-id="11" munia:button-state="pressed" style="display:none">
        <path inkscape:connector-curvature="0" id="path5498" d="m 324.28516,413.57227 53.57226,0 c 9.49717,0 17.14258,-7.64542 17.14258,-17.14258 l 0,-38.57227 c 0,-9.49716 -7.64541,-17.14258 -17.14258,-17.14258 l -53.57226,0 z" style="fill:#ffffff;fill-opacity:1;stroke:#ffffff;stroke-width:5;stroke-linecap:round;stroke-miterlimit:4;stroke-dasharray:none;stroke-opacity:1" sodipodi:nodetypes="csssscc"/>
        <path transform="matrix(-0.82582401,0,0,0.77129435,563.82518,85.544014)" inkscape:transform-center-x="-5.9446474" d="m 223.23929,378.06336 43.19066,-24.93615 10e-6,49.87229 z" inkscape:randomized="0" inkscape:rounded="0" inkscape:flatsided="true" sodipodi:arg2="-2.0943951" sodipodi:arg1="-3.1415927" sodipodi:r2="14.396889" sodipodi:r1="28.793777" sodipodi:cy="378.06335" sodipodi:cx="252.03307" sodipodi:sides="3" id="path5510" style="fill:#dbdbdb;fill-opacity:1;stroke:#dbdbdb;stroke-width:12.5298605;stroke-linecap:round;stroke-linejoin:round;stroke-miterlimit:4;stroke-dasharray:none;stroke-opacity:1" sodipodi:type="star"/>
      </g>
      <path id="Down" munia:button-id="9" munia:button-state="released" inkscape:transform-center-y="5.9446533" transform="matrix(0,-0.82582401,0.77129435,0,-3.7407087,653.23189)" d="m 223.23929,378.06336 43.19066,-24.93615 10e-6,49.87229 z" inkscape:randomized="0" inkscape:rounded="0" inkscape:flatsided="true" sodipodi:arg2="-2.0943951" sodipodi:arg1="-3.1415927" sodipodi:r2="14.396889" sodipodi:r1="28.793777" sodipodi:cy="378.06335" sodipodi:cx="252.03307" sodipodi:sides="3" style="fill:#383838;fill-opacity:1;stroke:#383838;stroke-width:12.5298605;stroke-linecap:round;stroke-linejoin:round;stroke-miterlimit:4;stroke-dasharray:none;stroke-opacity:1" sodipodi:type="star"/>
      <g id="Down Pressed" munia:button-id="9" munia:button-state="pressed" transform="matrix(0,1,-1,0,665,89.28516)" style="display:none">
        <path style="fill:#ffffff;fill-opacity:1;stroke:#ffffff;stroke-width:5;stroke-linecap:round;stroke-miterlimit:4;stroke-dasharray:none;stroke-opacity:1" d="m 324.28516,413.57227 53.57226,0 c 9.49717,0 17.14258,-7.64542 17.14258,-17.14258 l 0,-38.57227 c 0,-9.49716 -7.64541,-17.14258 -17.14258,-17.14258 l -53.57226,0 z" id="path5530" inkscape:connector-curvature="0" sodipodi:nodetypes="csssscc"/>
        <path sodipodi:type="star" style="fill:#dbdbdb;fill-opacity:1;stroke:#dbdbdb;stroke-width:12.5298605;stroke-linecap:round;stroke-linejoin:round;stroke-miterlimit:4;stroke-dasharray:none;stroke-opacity:1" id="path5532" sodipodi:sides="3" sodipodi:cx="252.03307" sodipodi:cy="378.06335" sodipodi:r1="28.793777" sodipodi:r2="14.396889" sodipodi:arg1="-3.1415927" sodipodi:arg2="-2.0943951" inkscape:flatsided="true" inkscape:rounded="0" inkscape:randomized="0" d="m 223.23929,378.06336 43.19066,-24.93615 10e-6,49.87229 z" inkscape:transform-center-x="-5.9446474" transform="matrix(-0.82582401,0,0,0.77129435,563.82518,85.544014)"/>
      </g>
      <path id="Up" munia:button-id="8" munia:button-state="released" inkscape:transform-center-y="-5.9446435" transform="matrix(0,0.82582401,0.77129435,0,-3.7407087,100.84177)" d="m 223.23929,378.06336 43.19066,-24.93615 10e-6,49.87229 z" inkscape:randomized="0" inkscape:rounded="0" inkscape:flatsided="true" sodipodi:arg2="-2.0943951" sodipodi:arg1="-3.1415927" sodipodi:r2="14.396889" sodipodi:r1="28.793777" sodipodi:cy="378.06335" sodipodi:cx="252.03307" sodipodi:sides="3" style="fill:#383838;fill-opacity:1;stroke:#383838;stroke-width:12.5298605;stroke-linecap:round;stroke-linejoin:round;stroke-miterlimit:4;stroke-dasharray:none;stroke-opacity:1" sodipodi:type="star"/>
      <g id="Up Pressed" munia:button-id="8" munia:button-state="pressed" transform="matrix(0,-1,1,0,-89.28516,665)" style="display:none">
        <path style="fill:#ffffff;fill-opacity:1;stroke:#ffffff;stroke-width:5;stroke-linecap:round;stroke-miterlimit:4;stroke-dasharray:none;stroke-opacity:1" d="m 324.28516,413.57227 53.57226,0 c 9.49717,0 17.14258,-7.64542 17.14258,-17.14258 l 0,-38.57227 c 0,-9.49716 -7.64541,-17.14258 -17.14258,-17.14258 l -53.57226,0 z" id="path5518" inkscape:connector-curvature="0" sodipodi:nodetypes="csssscc"/>
        <path sodipodi:type="star" style="fill:#dbdbdb;fill-opacity:1;stroke:#dbdbdb;stroke-width:12.5298605;stroke-linecap:round;stroke-linejoin:round;stroke-miterlimit:4;stroke-dasharray:none;stroke-opacity:1" id="path5520" sodipodi:sides="3" sodipodi:cx="252.03307" sodipodi:cy="378.06335" sodipodi:r1="28.793777" sodipodi:r2="14.396889" sodipodi:arg1="-3.1415927" sodipodi:arg2="-2.0943951" inkscape:flatsided="true" inkscape:rounded="0" inkscape:randomized="0" d="m 223.23929,378.06336 43.19066,-24.93615 10e-6,49.87229 z" inkscape:transform-center-x="-5.9446474" transform="matrix(-0.82582401,0,0,0.77129435,563.82518,85.544014)"/>
      </g>
    </g>
  </g>
</svg>
