<?xml version="1.0" encoding="UTF-8" standalone="no"?>
<svg xmlns:munia="http://www.munia.io/namespaces/munia" xmlns:dc="http://purl.org/dc/elements/1.1/" xmlns:cc="http://creativecommons.org/ns#" xmlns:rdf="http://www.w3.org/1999/02/22-rdf-syntax-ns#" xmlns:svg="http://www.w3.org/2000/svg" xmlns="http://www.w3.org/2000/svg"
 viewBox="0 0 355 174" version="1.1">
  <munia:info munia:skin-name="SNES light red" munia:device-name="NinHID SNES"/>
  <g id="layer1" transform="translate(-50,-26)">
    <rect id="Left" munia:button-id="10" munia:button-state="released" width="50" height="50" x="50" y="100" ry="1.05" style="fill:#4d4d4d"/>
    <rect id="Up" munia:button-id="8" munia:button-state="released" width="50" height="50" x="100" y="50" ry="1.05" style="fill:#4d4d4d"/>
    <rect id="Down" munia:button-id="9" munia:button-state="released" width="50" height="50" x="100" y="150" ry="1.05" style="fill:#4d4d4d"/>
    <rect id="Right" munia:button-id="11" munia:button-state="released" width="50" height="50" x="150" y="100" ry="1.05" style="fill:#4d4d4d"/>
    <circle id="Y" munia:button-id="1" munia:button-state="released" cx="280" cy="125" r="25" style="fill:#4d4d4d"/>
    <circle id="A" munia:button-id="4" munia:button-state="released" cx="380" cy="125" r="25" style="fill:#4d4d4d"/>
    <circle id="X" munia:button-id="5" munia:button-state="released" cx="330" cy="75" r="25" style="fill:#4d4d4d"/>
    <circle id="B" munia:button-id="0" munia:button-state="released" cx="330" cy="175" r="25" style="fill:#4d4d4d"/>
    <rect id="Start" munia:button-id="2" munia:button-state="released" width="35" height="16" x="185" y="169.50507" ry="1.05" style="fill:#4d4d4d"/>
    <rect id="Select" munia:button-id="3" munia:button-state="released" width="35" height="16" x="235" y="169.3622" ry="1.05" style="fill:#4d4d4d"/>
    <rect id="L" munia:button-id="6" munia:button-state="released" width="56" height="16" x="58" y="26" ry="1.05" style="fill:#4d4d4d"/>
    <rect id="R" munia:button-id="7" munia:button-state="released" width="56" height="16" x="342" y="26" ry="1.05" style="fill:#4d4d4d"/>
    <rect id="Left-pressed" munia:button-id="10" munia:button-state="pressed" width="50" height="50" x="50" y="100" ry="1.05" style="fill:#ff0000"/>
    <rect id="Up-pressed" munia:button-id="8" munia:button-state="pressed" width="50" height="50" x="100" y="50" ry="1.05" style="fill:#ff0000"/>
    <rect id="Down-pressed" munia:button-id="9" munia:button-state="pressed" width="50" height="50" x="100" y="150" ry="1.05" style="fill:#ff0000"/>
    <rect id="Right-pressed" munia:button-id="11" munia:button-state="pressed" width="50" height="50" x="150" y="100" ry="1.05" style="fill:#ff0000"/>
    <circle id="Y-pressed" munia:button-id="1" munia:button-state="pressed" cx="280" cy="125" r="25" style="fill:#ff0000"/>
    <circle id="A-pressed" munia:button-id="4" munia:button-state="pressed" cx="380" cy="125" r="25" style="fill:#ff0000"/>
    <circle id="X-pressed" munia:button-id="5" munia:button-state="pressed" cx="330" cy="75" r="25" style="fill:#ff0000"/>
    <circle id="B-pressed" munia:button-id="0" munia:button-state="pressed" cx="330" cy="175" r="25" style="fill:#ff0000"/>
    <rect id="Start-pressed" munia:button-id="2" munia:button-state="pressed" width="35" height="16" x="185" y="169.50507" ry="1.05" style="fill:#ff0000"/>
    <rect id="Select-pressed" munia:button-id="3" munia:button-state="pressed" width="35" height="16" x="235" y="169.3622" ry="1.05" style="fill:#ff0000"/>
    <rect id="L-pressed" munia:button-id="6" munia:button-state="pressed" width="56" height="16" x="58" y="26" ry="1.05" style="fill:#ff0000"/>
    <rect id="R-pressed" munia:button-id="7" munia:button-state="pressed" width="56" height="16" x="342" y="26" ry="1.05" style="fill:#ff0000"/>
  </g>
</svg>
