<?xml version="1.0" encoding="UTF-8" standalone="no"?>
<svg
   xmlns:osb="http://www.openswatchbook.org/uri/2009/osb"
   xmlns:dc="http://purl.org/dc/elements/1.1/"
   xmlns:cc="http://creativecommons.org/ns#"
   xmlns:rdf="http://www.w3.org/1999/02/22-rdf-syntax-ns#"
   xmlns:svg="http://www.w3.org/2000/svg"
   xmlns="http://www.w3.org/2000/svg"
   xmlns:xlink="http://www.w3.org/1999/xlink"
   xmlns:sodipodi="http://sodipodi.sourceforge.net/DTD/sodipodi-0.dtd"
   xmlns:inkscape="http://www.inkscape.org/namespaces/inkscape"
   version="1.1"
   width="3912.7253"
   height="2771.842"
   viewBox="0 0 3912.7253 2771.842"
   overflow="visible"
   enable-background="new 0 0 6200 3000"
   xml:space="preserve"
   id="svg3336"
   inkscape:version="0.91 r13725"
   sodipodi:docname="munia_simple.svg"
   style="overflow:visible"
   inkscape:export-filename="C:\Users\Marcel\Desktop\padpyght-master\padpyght-master\MUNIA\Controller_Pressed.png"
   inkscape:export-xdpi="24.141798"
   inkscape:export-ydpi="24.141798"><sodipodi:namedview
     pagecolor="#000000"
     bordercolor="#666666"
     borderopacity="1"
     objecttolerance="10"
     gridtolerance="10"
     guidetolerance="10"
     inkscape:pageopacity="0"
     inkscape:pageshadow="2"
     inkscape:window-width="1920"
     inkscape:window-height="1028"
     id="namedview3773"
     showgrid="false"
     inkscape:zoom="0.34785093"
     inkscape:cx="1934.7171"
     inkscape:cy="1239.7253"
     inkscape:window-x="-8"
     inkscape:window-y="-8"
     inkscape:window-maximized="1"
     inkscape:current-layer="Controller"
     showguides="true"
     fit-margin-top="50"
     fit-margin-left="50"
     fit-margin-bottom="50"
     fit-margin-right="50" /><metadata
     id="Metadata"><rdf:RDF><cc:Work
         rdf:about=""><dc:format>image/svg+xml</dc:format><dc:type
           rdf:resource="http://purl.org/dc/dcmitype/StillImage" /><dc:title></dc:title></cc:Work></rdf:RDF></metadata><defs
     id="Definitions"><linearGradient
       id="linearGradient4332"><stop
         style="stop-color:#ffffff;stop-opacity:1;"
         offset="0"
         id="stop4334" /><stop
         id="stop4342"
         offset="0.56493509"
         style="stop-color:#ffffff;stop-opacity:1;" /><stop
         style="stop-color:#ffffff;stop-opacity:0;"
         offset="1"
         id="stop4336" /></linearGradient><linearGradient
       id="linearGradient5389"
       osb:paint="solid"><stop
         style="stop-color:#adadad;stop-opacity:1;"
         offset="0"
         id="stop5391" /></linearGradient><linearGradient
       id="linearGradient5083"><stop
         style="stop-color:#b399f1;stop-opacity:1;"
         offset="0"
         id="stop5085" /><stop
         id="stop5091"
         offset="0.9448052"
         style="stop-color:#60499d;stop-opacity:1;" /><stop
         style="stop-color:#60499d;stop-opacity:1;"
         offset="1"
         id="stop5087" /></linearGradient><linearGradient
       id="linearGradient5053"><stop
         id="stop5067"
         offset="0"
         style="stop-color:#f4e000;stop-opacity:1;" /><stop
         style="stop-color:#f3ce00;stop-opacity:1;"
         offset="0.78400195"
         id="stop5071" /><stop
         style="stop-color:#9f8a00;stop-opacity:1;"
         offset="1"
         id="stop5057" /></linearGradient><linearGradient
       id="linearGradient4983"><stop
         style="stop-color:#bebebe;stop-opacity:1;"
         offset="0"
         id="stop4985" /><stop
         id="stop5073"
         offset="0.84963471"
         style="stop-color:#bebebe;stop-opacity:1;" /><stop
         style="stop-color:#8c8c8c;stop-opacity:1;"
         offset="1"
         id="stop4987" /></linearGradient><clipPath
       clipPathUnits="userSpaceOnUse"
       id="clipPath4642"><rect
         style="fill:#60499d;fill-opacity:1;stroke:#62499d;stroke-opacity:1"
         id="rect4644"
         width="1703.4755"
         height="581.37708"
         x="2638.5574"
         y="349.24591" /></clipPath><clipPath
       clipPathUnits="userSpaceOnUse"
       id="clipPath4650"><rect
         style="fill:#60499d;fill-opacity:1;stroke:#62499d;stroke-opacity:1"
         id="rect4652"
         width="1508.3279"
         height="418.75409"
         x="2626.3606"
         y="442.75412" /></clipPath><clipPath
       clipPathUnits="userSpaceOnUse"
       id="clipPath4932"><rect
         style="fill:#b80707;fill-opacity:1;stroke:none;stroke-width:24;stroke-miterlimit:4;stroke-dasharray:none;stroke-opacity:1"
         id="rect4934"
         width="174.79187"
         height="210.62466"
         x="3675.9626"
         y="1865.5074" /></clipPath><radialGradient
       inkscape:collect="always"
       xlink:href="#linearGradient5053"
       id="radialGradient5069"
       cx="3826.7214"
       cy="1978.5247"
       fx="3826.7214"
       fy="1978.5247"
       r="312.34573"
       gradientUnits="userSpaceOnUse"
       gradientTransform="matrix(0.90274736,-0.00318066,0.00320101,0.90852002,365.82549,193.16689)" /><radialGradient
       inkscape:collect="always"
       xlink:href="#linearGradient4983"
       id="radialGradient5081"
       cx="2055.9646"
       cy="1138.9347"
       fx="2055.9646"
       fy="1138.9347"
       r="335.72256"
       gradientUnits="userSpaceOnUse"
       gradientTransform="matrix(0.89296268,0,0,0.88011773,228.06128,109.58434)" /><clipPath
       clipPathUnits="userSpaceOnUse"
       id="clipPath4407"><rect
         style="fill:#b299fb;fill-opacity:1;stroke:#b299fb;stroke-width:0;stroke-miterlimit:4;stroke-dasharray:none;stroke-opacity:1"
         id="rect4409"
         width="217.50819"
         height="178.88524"
         x="2529.8142"
         y="1719.161"
         ry="20.123501" /></clipPath><clipPath
       clipPathUnits="userSpaceOnUse"
       id="clipPath4281"><rect
         style="fill:#b299fb;fill-opacity:1;stroke:#b299fb;stroke-width:0;stroke-miterlimit:4;stroke-dasharray:none;stroke-opacity:1"
         id="rect4283"
         width="201.2459"
         height="224.62296"
         x="2342.7979"
         y="1867.5544"
         ry="20.123501" /></clipPath><clipPath
       clipPathUnits="userSpaceOnUse"
       id="clipPath4295"><rect
         style="fill:#b299fb;fill-opacity:1;stroke:#b299fb;stroke-width:0;stroke-miterlimit:4;stroke-dasharray:none;stroke-opacity:1"
         id="rect4297"
         width="343.54099"
         height="180.91803"
         x="2471.8799"
         y="2060.6689"
         ry="20.123501" /></clipPath><clipPath
       clipPathUnits="userSpaceOnUse"
       id="clipPath4342"><rect
         style="fill:#e0e0e0;fill-opacity:1;stroke:#7d7d7d;stroke-width:0;stroke-miterlimit:4;stroke-dasharray:none;stroke-opacity:1"
         id="rect4344"
         width="161.34784"
         height="185.42426"
         x="2544.6255"
         y="1729.7528" /></clipPath><radialGradient
       inkscape:collect="always"
       xlink:href="#linearGradient4332"
       id="radialGradient4340"
       cx="3130.4919"
       cy="737.50824"
       fx="3130.4919"
       fy="737.50824"
       r="545.48181"
       gradientTransform="matrix(1,0,0,0.95203092,0,35.377591)"
       gradientUnits="userSpaceOnUse" /><radialGradient
       inkscape:collect="always"
       xlink:href="#linearGradient4332"
       id="radialGradient4340-6"
       cx="3130.4919"
       cy="737.50824"
       fx="3130.4919"
       fy="737.50824"
       r="545.48181"
       gradientTransform="matrix(0.87185404,0,0,0.85369767,-956.74193,32.68609)"
       gradientUnits="userSpaceOnUse" /><radialGradient
       inkscape:collect="always"
       xlink:href="#linearGradient4332"
       id="radialGradient4371"
       gradientUnits="userSpaceOnUse"
       gradientTransform="matrix(1,0,0,0.95203092,0,35.377591)"
       cx="3130.4919"
       cy="737.50824"
       fx="3130.4919"
       fy="737.50824"
       r="545.48181" /></defs><g
     inkscape:groupmode="layer"
     id="Shoulder Buttons"
     inkscape:label="Shoulder Buttons"
     style="display:inline;opacity:0.93000034"
     transform="translate(-1267.9533,-78)"><g
       id="L"
       transform="translate(0,-24)"
       style="display:none"><ellipse
         cx="2016"
         cy="646"
         rx="381.55499"
         ry="410.27399"
         id="ellipse3348"
         style="fill:#c8c8c8;fill-opacity:1;stroke:#969696;stroke-width:16;stroke-miterlimit:4;stroke-dasharray:none;stroke-opacity:1" /><flowRoot
         xml:space="preserve"
         id="flowRoot4826-0-2"
         style="font-style:normal;font-weight:normal;font-size:40px;line-height:125%;font-family:sans-serif;letter-spacing:0px;word-spacing:0px;fill:#969696;fill-opacity:1;stroke:none;stroke-width:1px;stroke-linecap:butt;stroke-linejoin:miter;stroke-opacity:1"
         transform="matrix(1.1985803,0,0,2.1984256,-3399.7906,-2017.9173)"><flowRegion
           id="flowRegion4828-0-3"><rect
             id="rect4830-2-7"
             width="62.920418"
             height="90.074509"
             x="4408"
             y="1032.2623"
             style="fill:#969696;fill-opacity:1" /></flowRegion><flowPara
           id="flowPara4832-9-4"
           style="font-style:normal;font-variant:normal;font-weight:bold;font-stretch:normal;font-size:80px;font-family:'arial black';-inkscape-font-specification:'arial black, Bold';fill:#969696;fill-opacity:1">L</flowPara><flowPara
           id="flowPara5282"
           style="font-style:normal;font-variant:normal;font-weight:bold;font-stretch:normal;font-size:80px;font-family:'arial black';-inkscape-font-specification:'arial black, Bold';fill:#969696;fill-opacity:1" /></flowRoot></g><g
       transform="matrix(0.87185404,0,0,0.89671213,-710.77457,-67.758776)"
       id="L Pressed"
       style="fill:url(#radialGradient4340);fill-opacity:1;stroke:none"><ellipse
         cx="3130.4919"
         cy="737.50824"
         rx="545.48181"
         ry="519.31555"
         id="ellipse3348-1"
         style="display:inline;opacity:0.93000034;fill:url(#radialGradient4371);fill-opacity:1;stroke:none;stroke-width:21.52336884;stroke-miterlimit:4;stroke-dasharray:none;stroke-opacity:1" /></g><g
       id="R"
       transform="translate(0,-24)"
       style="display:none"><ellipse
         cx="4444"
         cy="647"
         rx="381.55499"
         ry="410.27399"
         id="ellipse3363"
         style="fill:#c8c8c8;fill-opacity:1;stroke:#969696;stroke-width:16;stroke-miterlimit:4;stroke-dasharray:none;stroke-opacity:1" /><flowRoot
         xml:space="preserve"
         id="flowRoot4826-0-2-8"
         style="font-style:normal;font-weight:normal;font-size:40px;line-height:125%;font-family:sans-serif;letter-spacing:0px;word-spacing:0px;fill:#969696;fill-opacity:1;stroke:none;stroke-width:1px;stroke-linecap:butt;stroke-linejoin:miter;stroke-opacity:1"
         transform="matrix(1.1985803,0,0,2.1984256,-808.96717,-2035.9173)"><flowRegion
           id="flowRegion4828-0-3-1"><rect
             id="rect4830-2-7-7"
             width="62.920418"
             height="90.074509"
             x="4408"
             y="1032.2623"
             style="fill:#969696;fill-opacity:1" /></flowRegion><flowPara
           id="flowPara5282-6"
           style="font-style:normal;font-variant:normal;font-weight:bold;font-stretch:normal;font-size:80px;font-family:'arial black';-inkscape-font-specification:'arial black, Bold';fill:#969696;fill-opacity:1">R</flowPara><flowPara
           id="flowPara5313"
           style="font-style:normal;font-variant:normal;font-weight:bold;font-stretch:normal;font-size:80px;font-family:'arial black';-inkscape-font-specification:'arial black, Bold';fill:#969696;fill-opacity:1" /></flowRoot></g><g
       id="R Pressed"
       transform="translate(2675.1475,-80.918032)"><ellipse
         cx="1772.5903"
         cy="662.29517"
         rx="475.58054"
         ry="465.67654"
         id="ellipse3348-1-1"
         style="opacity:0.93000034;fill:url(#radialGradient4340-6);fill-opacity:1;stroke:none;stroke-width:21.52336884;stroke-miterlimit:4;stroke-dasharray:none;stroke-opacity:1" /></g></g><g
     inkscape:groupmode="layer"
     id="Z Button"
     inkscape:label="Z Button"
     style="display:inline"
     transform="translate(-1267.9533,-78)"><path
       d="m 4862.77,543.293 c -8.855,-19.636 -136.71,-106.2 -302.801,-151.075 -166.091,-44.875 -431.57,-73.446 -455.203,-64.418 -23.633,9.028 -20.008,92.95 -20.008,92.95 l 730.548,228.689 c 0,0 56.319,-86.51 47.464,-106.146 z"
       id="Z"
       style="fill:#5600ae;stroke:#490094;stroke-width:16;stroke-miterlimit:4;stroke-dasharray:none;stroke-opacity:1"
       inkscape:connector-curvature="0" /><path
       inkscape:connector-curvature="0"
       style="fill:#b299fb;fill-opacity:1;stroke:#b299fb;stroke-width:16;stroke-miterlimit:4;stroke-dasharray:none;stroke-opacity:1"
       id="Z Pressed"
       d="m 4862.77,543.293 c -8.855,-19.636 -136.71,-106.2 -302.801,-151.075 -166.091,-44.875 -431.57,-73.446 -455.203,-64.418 -23.633,9.028 -20.008,92.95 -20.008,92.95 l 730.548,228.689 c 0,0 56.319,-86.51 47.464,-106.146 z" /></g><g
     inkscape:groupmode="layer"
     id="Controller"
     inkscape:label="Controller"
     style="display:inline"
     transform="translate(-1267.9533,-78)"><path
       d="m 3228,136 c -767.991,0 -1504,388 -1504,388 l 460,1390 c 0,0 194.991,-457.373 1044,-457.373 779.869,0 1036,437.373 1036,437.373 L 4700,516 c 0,0 -719.978,-380 -1472,-380 z"
       id="Center"
       style="fill:#62499d;fill-opacity:1;stroke:#000000;stroke-width:16;stroke-miterlimit:4;stroke-dasharray:none;stroke-opacity:1"
       inkscape:connector-curvature="0" /><path
       d="m 1387.867,966.732 c -28.94,121.041 -75.969,769.477 -57.881,1110.986 18.088,341.509 50.646,687.342 267.7,708.957 217.055,21.614 231.525,-259.375 256.849,-363.124 25.322,-103.75 155.556,-695.988 155.556,-695.988 0,0 -593.283,-881.873 -622.224,-760.831 z"
       id="Left Handle"
       style="fill:#60499d;fill-opacity:1;stroke:#000000;stroke-width:16;stroke-miterlimit:4;stroke-dasharray:none;stroke-opacity:1"
       inkscape:connector-curvature="0" /><path
       d="m 5059.25,970.732 c -29.648,-121.042 -637.448,760.831 -637.448,760.831 0,0 133.419,592.238 159.362,695.987 25.942,103.75 40.768,384.739 263.133,363.125 222.365,-21.615 255.721,-367.447 274.25,-708.957 18.531,-341.509 -29.649,-989.945 -59.297,-1110.986 z"
       id="Right Handle"
       style="fill:#60499d;fill-opacity:1;stroke:#000000;stroke-width:16;stroke-miterlimit:4;stroke-dasharray:none;stroke-opacity:1"
       inkscape:connector-curvature="0" /><path
       d="m 3044,1772 c -111.077,-187.172 -185.557,-195.028 -260,-316 -96,-156 -1.5,-502.603 -192,-760 -171.759,-232.075 -571.054,-373.108 -920,-140 -362.301,242.029 -364,668 -172,956 188.323,282.485 434.635,257.503 568,400 108.42,115.844 111.846,264.142 196,356 154.799,168.97 400.249,242.107 644,68 224,-160 208.508,-441.818 136,-564 z"
       id="Left Platform"
       style="fill:#60499d;fill-opacity:1;stroke:#000000;stroke-width:16;stroke-miterlimit:4;stroke-dasharray:none;stroke-opacity:1"
       inkscape:connector-curvature="0" /><path
       d="m 4773,556 c -348.946,-233.108 -748.241,-92.075 -920,140 -190.5,257.397 -96,604 -192,760 -74.444,120.972 -148.924,128.828 -260,316 -72.508,122.182 -88,404 136,564 243.751,174.107 489.201,100.97 644,-68 84.154,-91.858 87.58,-240.156 196,-356 133.365,-142.497 379.676,-117.515 568,-400 192,-288 190.301,-713.971 -172,-956 z"
       id="Right Platform"
       style="fill:#60499d;fill-opacity:1;stroke:#000000;stroke-width:16;stroke-miterlimit:4;stroke-dasharray:none;stroke-opacity:1"
       inkscape:connector-curvature="0" /><ellipse
       style="fill:#674da5;fill-opacity:1;stroke:#543f88;stroke-width:16;stroke-miterlimit:4;stroke-dasharray:none;stroke-opacity:1"
       id="Control Stick Housing"
       ry="458.43701"
       rx="463.164"
       cy="1111.981"
       cx="2063.9609" /><ellipse
       style="fill:#56418c;fill-opacity:1;stroke:#46346f;stroke-width:16;stroke-miterlimit:4;stroke-dasharray:none;stroke-opacity:1"
       id="D-Pad Housing"
       ry="309.061"
       rx="312.24799"
       cy="1976.879"
       cx="2626.458" /><ellipse
       style="fill:#674da5;fill-opacity:1;stroke:#543f88;stroke-width:16;stroke-miterlimit:4;stroke-dasharray:none;stroke-opacity:1"
       id="Button Housing"
       ry="458.43701"
       rx="463.164"
       cy="1111.981"
       cx="4403.4282" /><path
       style="fill:#cccccc"
       d="m 2711.109,578.34775 c -5.2028,-2.5794 -13.6721,-10.6184 -15.8052,-15.00244 -1.3027,-2.67721 -1.3695,-4.58071 -1.3695,-39.04979 l 0,-36.23539 1.9559,-3.98276 c 1.0757,-2.19052 3.194,-5.10139 4.7074,-6.46859 5.2783,-4.76867 4.0072,-4.67605 64.1762,-4.67605 l 54.0495,0 0,11.6094 0,11.60939 -47.493,0 -47.493,0 0,29.1994 0,29.19939 34.4764,0 34.4764,0 0,-8.09139 0,-8.0914 -19.7008,0 -19.7008,0 0,-12.313 0,-12.313 33.421,0 33.421,0 0,23.34846 c 0,22.56001 -0.052,23.45555 -1.5353,26.52005 -2.0129,4.15792 -9.7691,11.97002 -14.6475,14.75282 l -3.8698,2.2074 -42.2795,0.01 -42.2795,0.01 -4.5099,-2.2357 z m 666.3726,0.5742 c -7.0076,-1.5951 -11.0402,-4.3964 -13.8138,-9.596 -1.2393,-2.3235 -1.3246,-5.1552 -1.5084,-50.13153 l -0.1948,-47.66889 14.7945,0 14.7945,0 0,41.16059 0,41.16059 30.6066,0 30.6066,0 0,-41.16059 0,-41.16059 14.79,0 14.7899,0 -0.1902,47.78458 -0.1903,47.78454 -2.1331,3.0505 c -2.6137,3.738 -7.6336,7.2133 -12.1063,8.3814 -4.8968,1.2789 -84.8255,1.6291 -90.2452,0.3954 z m 115.8595,0.4889 c -0.258,-0.258 -0.4691,-24.63773 -0.4691,-54.1772 l 0,-53.70812 52.2929,0 c 58.4441,0 56.9365,-0.11778 60.959,4.76218 2.9976,3.63673 3.5457,7.5038 3.5457,25.01889 0,12.59915 -0.2005,15.926 -1.0311,17.11184 -1.2751,1.82053 -5.2502,3.76628 -7.6943,3.76628 -2.672,0 -2.2834,1.8516 0.5875,2.79908 3.1006,1.02325 7.2278,5.5867 7.797,8.62112 0.2432,1.29654 0.3403,9.31009 0.2156,17.80787 -0.2146,14.63426 -0.3122,15.59916 -1.8491,18.26496 -3.1168,5.406 -9.0538,8.2698 -19.6648,9.4856 -6.7892,0.7779 -93.9312,1.0057 -94.6893,0.2475 z m 88.2468,-27.08774 c 1.1801,-2.20508 0.5011,-15.98187 -0.8292,-16.82402 -0.5457,-0.34541 -13.7361,-0.63288 -29.312,-0.6388 l -28.3199,-0.0108 0,9.4986 0,9.49859 28.8228,0 28.8229,0 0.8154,-1.5236 z m 0,-42.21599 c 0.874,-1.63323 0.6029,-15.12438 -0.3345,-16.64109 -0.3825,-0.61901 -7.902,-0.83251 -29.3205,-0.83251 l -28.8061,0 0,9.4986 0,9.4986 28.8228,0 28.8229,0 z m 38.6357,15.5956 0,-54.17719 53.8254,0 53.8254,0 0,11.6094 0,11.60939 -40.1052,0 -40.1052,0 0,8.4432 0,8.4432 23.2188,0 23.2188,0 0,11.9612 0,11.9612 -23.2188,0 -23.2188,0 0,9.1468 0,9.14679 41.1606,0 41.1606,0 0,13.01664 0,13.0166 -54.8808,0 -54.8808,0 z m -774.4226,-0.35992 31.7729,-53.8335 12.5771,0.18401 12.5771,0.18402 24.0101,40.49303 24.0101,40.49302 0.1816,-40.66892 0.1815,-40.66893 13.8905,0.0118 13.8904,0.0118 21.4598,36.3576 c 11.8029,19.99668 21.7523,36.32973 22.1097,36.29567 0.3575,-0.034 10.2272,-16.32112 21.9326,-36.19345 l 21.2827,-36.13152 13.7751,-0.19078 13.7751,-0.19077 0,53.84026 0,53.84031 -13.712,0 -13.7119,0 -0.1842,-27.04933 -0.1841,-27.04929 -15.7265,27.04929 -15.7265,27.04933 -11.7139,0 -11.7139,0 -15.4792,-26.84177 -15.4792,-26.84172 -0.1843,26.85505 -0.1842,26.85504 -23.6322,-0.1852 -23.6321,-0.1848 -21.214,-36.37879 c -11.6677,-20.00835 -21.3723,-36.38596 -21.5658,-36.39472 -0.3348,-0.0151 -27.536,45.72199 -28.0267,47.12508 -0.1441,0.41195 5.759,0.67063 15.3033,0.67063 l 15.5378,0 0,12.6648 0,12.6648 -38.9848,0 -38.9848,0 31.7729,-53.83351 z m 257.4482,0.18402 0.1803,-53.64949 55.0567,-0.18019 55.0567,-0.18019 0,11.61369 0,11.61368 -40.1052,0 -40.1052,0 0,8.4432 0,8.4432 23.2188,0 23.2188,0 0,11.9612 0,11.9612 -23.2188,0 -23.2188,0 0,9.1468 0,9.14679 40.1052,0 40.1052,0 0,12.66484 0,12.6648 -55.237,0 -55.237,0 z m 144.1797,52.45983 c -3.2861,-1.6192 -8.1425,-6.6578 -9.8837,-10.2544 -0.8064,-1.6659 -1.7875,-4.72332 -2.1803,-6.79426 -0.8643,-4.55731 -0.9225,-76.40753 -0.065,-80.8413 0.7374,-3.8149 3.5013,-6.76691 7.3271,-7.82563 2.1142,-0.58506 16.1555,-0.75278 50.4232,-0.60229 l 47.493,0.20856 3.1389,1.759 c 3.4599,1.93879 5.9684,5.1631 7.052,9.06403 0.3889,1.39995 0.7088,8.95692 0.7109,16.79326 l 0.01,14.2479 -14.7756,0 -14.7756,0 0,-8.4432 0,-8.4432 -29.5512,0 -29.5512,0 0,28.4958 0,28.49579 30.6066,0 30.6066,0 0,-10.55399 0,-10.554 13.7202,0 13.7202,0 -0.01,17.41409 c 0,9.80724 -0.3213,18.55714 -0.7306,20.03074 -0.9315,3.354 -3.8452,6.8094 -6.7737,8.033 -1.8617,0.7779 -10.9994,0.9567 -48.2294,0.9437 -41.19,-0.014 -46.1751,-0.1355 -48.2819,-1.1736 z m 410.3194,-135.18082 c -6.3777,-2.2445 -11.1518,-6.84438 -13.2367,-12.75357 -0.8831,-2.50302 -1.0665,-7.51534 -1.0537,-28.79928 0.017,-29.11124 0.013,-29.08426 5.4613,-33.99633 5.8526,-5.27672 5.0865,-5.1409 28.9996,-5.1409 l 21.4598,0 3.2961,1.93761 c 3.8714,2.27581 6.0007,5.02601 7.3421,9.48277 1.4627,4.86035 1.3959,51.27327 -0.081,56.24654 -1.3945,4.69566 -5.7059,9.49528 -10.7582,11.97626 l -4.0206,1.9744 -16.8864,0.17604 c -14.8157,0.15445 -17.3323,0.0191 -20.5223,-1.10354 z m 31.9981,-14.92153 c 4.0972,-2.49801 4.3552,-4.04293 4.3552,-26.08541 0,-18.7506 -0.078,-19.94178 -1.4427,-22.15053 -0.7934,-1.28386 -2.5301,-3.00637 -3.8592,-3.8278 -2.234,-1.38071 -3.2188,-1.4764 -13.037,-1.26677 l -10.6204,0.22675 -2.4068,2.62817 -2.4067,2.62817 0,22.57965 0,22.57965 2.0567,2.05668 2.0567,2.05668 11.4876,-0.003 c 10.2808,-0.002 11.7322,-0.15179 13.8166,-1.4226 z m -972.9451,-26.03349 0,-40.12352 10.5983,0.19423 10.5982,0.19423 12.4447,23.6959 12.4446,23.69592 0.1852,-23.87182 0.1851,-23.8718 8.434,0 8.4339,0 0,40.12685 0,40.12685 -8.5226,-0.19756 -8.5225,-0.19756 -15.5758,-28.92761 -15.5757,-28.92762 -0.1836,29.10352 -0.1836,29.10351 -7.3801,0 -7.3801,0 z m 149.8668,0.0183 0,-40.10519 8.4432,0 8.4432,0 0,40.10519 0,40.1052 -8.4432,0 -8.4432,0 z m 104.1328,0 0,-40.10519 10.4337,0 10.4337,0 12.6092,24.02926 12.6092,24.0293 0.1851,-24.02926 0.1852,-24.02926 8.4339,0 8.434,0 0,40.12685 0,40.12685 -8.6121,-0.19756 -8.612,-0.19756 -15.4862,-28.78406 -15.4863,-28.78407 -0.1837,28.95997 -0.1837,28.95996 -7.38,0 -7.38,0 0,-40.10519 z m 158.31,6.3324 0,-33.77279 -12.6648,0 -12.6648,0 0,-6.3324 0,-6.3324 33.7728,0 33.7728,0 0,6.3324 0,6.3324 -12.6648,0 -12.6648,0 0,33.77279 0,33.7728 -8.4432,0 -8.4432,0 z m 114.0829,32.25385 c -3.8408,-1.90114 -6.8198,-5.94548 -7.8595,-10.67011 -0.5473,-2.48667 -0.727,-12.23479 -0.5666,-30.73053 0.2265,-26.11412 0.2892,-27.18984 1.7432,-29.903 1.8512,-3.45433 3.4042,-4.9025 6.7622,-6.30556 2.1683,-0.90593 6.7194,-1.0822 27.9424,-1.0822 l 25.3521,0 0,6.3324 0,6.33239 -19.7703,0 c -26.4083,0 -26.6673,0.11765 -26.6673,12.11776 l 0,6.87944 23.2188,0 23.2188,0 0,6.3324 0,6.3324 -23.2188,0 -23.2188,0 0,9.23962 0,9.23962 2.5127,2.36977 2.5127,2.36979 20.7061,0 20.7061,0 0,6.33239 0,6.3324 -25.1537,-5.5e-4 c -24.3475,-5.4e-4 -25.2519,-0.0492 -28.2201,-1.5184 z m 129.3626,-38.58621 0,-40.10519 9.6745,0.0145 9.6745,0.0145 13.3684,23.73199 13.3684,23.73199 0.1853,-23.7465 0.1852,-23.74649 7.3785,0 7.3784,0 0,40.12899 0,40.129 -7.5569,-0.19971 -7.5569,-0.1997 -15.486,-28.78406 -15.486,-28.78407 -0.1837,28.95997 -0.1837,28.95996 -7.38,0 -7.38,0 0,-40.10519 z m 137.202,-0.0336 0,-40.13873 24.8019,0.20944 c 24.1649,0.20406 24.8922,0.25099 28.3199,1.82726 4.1852,1.92467 8.5814,5.94783 9.9323,9.08947 1.4361,3.33999 1.4237,54.27868 -0.014,57.05872 -1.3968,2.70103 -8.0748,8.84746 -11.525,10.60767 -2.7951,1.42596 -3.8753,1.4849 -27.2129,1.4849 l -24.3022,0 z m 42.9182,28.53007 c 1.1217,-0.58006 2.8474,-2.11389 3.8348,-3.40851 l 1.7954,-2.35385 0,-22.49305 0,-22.49304 -1.9349,-1.80467 c -3.4417,-3.20999 -4.3699,-3.38379 -18.0715,-3.38379 l -13.0628,0 0,28.4958 0,28.49579 12.6998,0 c 9.9085,0 13.1479,-0.23179 14.7392,-1.05466 z"
       id="Logo"
       inkscape:connector-curvature="0"
       sodipodi:nodetypes="ccscccscccccccccccccccccscccccccscsccccccccccccccsscscscscscsccscccscccccccccscccccccccccccccccccccccccccccccccccccccccscscccccccccccccccccccsccsccccccccccccccccccccccccccccccccccccssccccccccccccccccccccccsccsscsscscsscsscscsscccccccccccccccccccccccccccccccccccccccccccccccccccccccccccccccccccccccccccccccccsscscccsscccccccccccccccsccccccccccccccccccccccccccssccsscccccccsscccscc" /><text
       xml:space="preserve"
       style="font-style:normal;font-weight:normal;font-size:68.38005829px;line-height:125%;font-family:sans-serif;letter-spacing:0px;word-spacing:0px;fill:#3a2b5c;fill-opacity:1;stroke:none;stroke-width:1px;stroke-linecap:butt;stroke-linejoin:miter;stroke-opacity:1"
       x="3388.123"
       y="848.78369"
       id="text4298"
       sodipodi:linespacing="125%"
       transform="scale(0.85475069,1.1699318)"><tspan
         sodipodi:role="line"
         x="3388.123"
         y="848.78369"
         id="tspan4300"><tspan
           x="3388.123"
           y="848.78369"
           style="font-style:normal;font-variant:normal;font-weight:bold;font-stretch:normal;font-family:sans-serif;-inkscape-font-specification:'sans-serif Bold';fill-opacity:1"
           id="tspan4302">START/PAUSE</tspan></tspan></text>
<flowRoot
       xml:space="preserve"
       id="flowRoot4348"
       style="fill:black;stroke:none;stroke-opacity:1;stroke-width:1px;stroke-linejoin:miter;stroke-linecap:butt;fill-opacity:1;font-family:sans-serif;font-style:normal;font-weight:normal;font-size:40px;line-height:125%;letter-spacing:0px;word-spacing:0px"><flowRegion
         id="flowRegion4350"><rect
           id="rect4352"
           width="106.3674"
           height="54.621098"
           x="1937.6116"
           y="923.34906" /></flowRegion><flowPara
         id="flowPara4354"></flowPara></flowRoot></g><g
     inkscape:groupmode="layer"
     id="Stick Bases"
     inkscape:label="Stick Bases"
     style="display:inline"
     transform="translate(-1267.9533,-78)"><path
       inkscape:transform-center-x="5.3094119e-005"
       inkscape:transform-center-y="-1.9574159"
       d="m 2063.9609,1439.3657 -231.4959,-95.8888 -95.8888,-231.4959 95.8888,-231.49598 231.4959,-95.88877 231.496,95.88876 95.8887,231.49589 -95.8887,231.496 z"
       inkscape:randomized="0"
       inkscape:rounded="0"
       inkscape:flatsided="true"
       sodipodi:arg2="1.9634954"
       sodipodi:arg1="1.5707963"
       sodipodi:r2="294.34732"
       sodipodi:r1="327.3847"
       sodipodi:cy="1111.981"
       sodipodi:cx="2063.9609"
       sodipodi:sides="8"
       id="Control Stick Base"
       style="fill:url(#radialGradient5081);fill-opacity:1;stroke:#655f73;stroke-width:15.40633965;stroke-opacity:1"
       sodipodi:type="star" /><path
       inkscape:transform-center-x="-9.8675896e-005"
       inkscape:transform-center-y="-1.821091"
       d="m 3826.7214,2283.1129 -215.3764,-89.2118 -89.2118,-215.3764 89.2118,-215.3764 215.3764,-89.2119 215.3764,89.2119 89.2119,215.3764 -89.2119,215.3764 z"
       inkscape:randomized="0"
       inkscape:rounded="0"
       inkscape:flatsided="true"
       sodipodi:arg2="1.9634954"
       sodipodi:arg1="1.5707963"
       sodipodi:r2="273.85132"
       sodipodi:r1="304.58823"
       sodipodi:cy="1978.5247"
       sodipodi:cx="3826.7214"
       sodipodi:sides="8"
       id="C-Stick Base"
       style="fill:url(#radialGradient5069);fill-opacity:1;stroke:#543f88;stroke-width:14.33399963;stroke-miterlimit:4;stroke-dasharray:none;stroke-opacity:1"
       sodipodi:type="star" /></g><g
     inkscape:groupmode="layer"
     id="Sticks"
     inkscape:label="Sticks"
     style="display:inline"
     transform="translate(-1267.9533,-78)"><g
       id="Control Stick"
       transform="translate(8.6180222,-28.433458)"><ellipse
         cx="2055.343"
         cy="1140.4144"
         rx="248.07381"
         ry="238.42455"
         id="ellipse3475"
         style="fill:#eeeeee;stroke:#a4a4a4;stroke-width:16.94153214;stroke-miterlimit:4;stroke-dasharray:none;stroke-opacity:1" /><ellipse
         cx="2053.6677"
         cy="1141.4341"
         rx="211.16457"
         ry="199.39655"
         id="ellipse3485"
         style="fill:#eeeeee;stroke:#c9c9c9;stroke-width:16.94153214;stroke-miterlimit:4;stroke-dasharray:none;stroke-opacity:1" /><ellipse
         cx="2053.4849"
         cy="1147.0046"
         rx="131.24287"
         ry="123.92943"
         id="ellipse3495"
         style="fill:#eeeeee;stroke:#c9c9c9;stroke-width:16.94153214;stroke-miterlimit:4;stroke-dasharray:none;stroke-opacity:1" /><ellipse
         cx="2055.7612"
         cy="1146.9158"
         rx="44.596466"
         ry="42.111355"
         id="ellipse3505"
         style="fill:#eeeeee;stroke:#c9c9c9;stroke-width:16.94153214;stroke-miterlimit:4;stroke-dasharray:none;stroke-opacity:1" /></g><g
       id="C-Stick"
       transform="translate(2.7214355,2.5246582)"><circle
         cx="3824"
         cy="1976"
         r="144"
         id="circle3526"
         style="fill:#ffc900;fill-opacity:1;stroke:#caa000;stroke-width:16;stroke-miterlimit:4;stroke-dasharray:none;stroke-opacity:1" /><ellipse
         style="fill:none;fill-opacity:1;stroke:#eba400;stroke-width:22.8156929;stroke-miterlimit:4;stroke-dasharray:none;stroke-opacity:1"
         id="path4902"
         cx="3840.7258"
         cy="1971.5422"
         rx="42.84795"
         ry="47.878845"
         clip-path="url(#clipPath4932)"
         transform="translate(-0.6122751,4.4577637)" /></g></g><g
     inkscape:groupmode="layer"
     id="Face Buttons"
     inkscape:label="Face Buttons"
     style="display:inline"
     transform="translate(-1267.9533,-78)"><g
       id="A"><circle
         cx="4408"
         cy="1104"
         r="224"
         id="A Button"
         style="fill:#00bc8e;stroke:#005741;stroke-width:16;stroke-miterlimit:4;stroke-dasharray:none;stroke-opacity:1" /><text
         xml:space="preserve"
         style="font-style:normal;font-weight:normal;font-size:64.93060303px;line-height:125%;font-family:sans-serif;letter-spacing:0px;word-spacing:0px;fill:#008866;fill-opacity:1;stroke:none;stroke-width:1px;stroke-linecap:butt;stroke-linejoin:miter;stroke-opacity:1"
         x="5919.1294"
         y="861.646"
         id="text4304"
         sodipodi:linespacing="125%"
         transform="scale(0.73837619,1.3543232)"><tspan
           sodipodi:role="line"
           x="5919.1294"
           y="861.646"
           id="tspan4306"><tspan
             x="5919.1294"
             y="861.646"
             style="font-style:normal;font-variant:normal;font-weight:bold;font-stretch:normal;font-size:129.86120605px;font-family:'arial black';-inkscape-font-specification:'arial black, Bold';fill:#008866;fill-opacity:1"
             id="tspan4308">A</tspan></tspan></text>
</g><g
       id="A Pressed"
       transform="translate(378.09835,349.63933)"><circle
         style="fill:#85ffe1;fill-opacity:1;stroke:#85ffe1;stroke-width:16;stroke-miterlimit:4;stroke-dasharray:none;stroke-opacity:1"
         id="circle4282"
         r="224"
         cy="1104"
         cx="4408" /><text
         xml:space="preserve"
         style="font-style:normal;font-weight:normal;font-size:64.93060303px;line-height:125%;font-family:sans-serif;letter-spacing:0px;word-spacing:0px;fill:#00c795;fill-opacity:1;stroke:none;stroke-width:1px;stroke-linecap:butt;stroke-linejoin:miter;stroke-opacity:1"
         x="5919.1294"
         y="861.646"
         id="text4322"
         sodipodi:linespacing="125%"
         transform="scale(0.73837619,1.3543232)"><tspan
           sodipodi:role="line"
           x="5919.1294"
           y="861.646"
           id="tspan4324"><tspan
             x="5919.1294"
             y="861.646"
             style="font-style:normal;font-variant:normal;font-weight:bold;font-stretch:normal;font-size:129.86120605px;font-family:'arial black';-inkscape-font-specification:'arial black, Bold';fill:#00c795;fill-opacity:1"
             id="tspan4326">A</tspan></tspan></text>
</g><g
       id="B"><circle
         cx="3968"
         cy="1336"
         r="130"
         id="B Button"
         style="fill:#e70909;fill-opacity:1;stroke:#7d1010;stroke-width:16;stroke-miterlimit:4;stroke-dasharray:none;stroke-opacity:1" /><text
         xml:space="preserve"
         style="font-style:normal;font-weight:normal;font-size:65.91461182px;line-height:125%;font-family:sans-serif;letter-spacing:0px;word-spacing:0px;fill:#b80707;fill-opacity:1;stroke:none;stroke-width:1px;stroke-linecap:butt;stroke-linejoin:miter;stroke-opacity:1"
         x="5260.8413"
         y="1044.7511"
         id="text4310"
         sodipodi:linespacing="125%"
         transform="scale(0.74668267,1.339257)"><tspan
           sodipodi:role="line"
           x="5260.8413"
           y="1044.7511"
           id="tspan4312"><tspan
             x="5260.8413"
             y="1044.7511"
             style="font-style:normal;font-variant:normal;font-weight:bold;font-stretch:normal;font-size:131.82922363px;font-family:'Arial Black';-inkscape-font-specification:'Arial Black, Bold';fill:#b80707;fill-opacity:1"
             id="tspan4314">B</tspan></tspan></text>
</g><g
       id="B-Pressed"
       transform="translate(304.91802,247.99999)"><circle
         style="fill:#fcadad;fill-opacity:1;stroke:#fcadad;stroke-width:16;stroke-miterlimit:4;stroke-dasharray:none;stroke-opacity:1"
         id="circle4294"
         r="130"
         cy="1336"
         cx="3968" /><text
         xml:space="preserve"
         style="font-style:normal;font-weight:normal;font-size:65.91461182px;line-height:125%;font-family:sans-serif;letter-spacing:0px;word-spacing:0px;fill:#e06565;fill-opacity:1;stroke:none;stroke-width:1px;stroke-linecap:butt;stroke-linejoin:miter;stroke-opacity:1"
         x="5260.8413"
         y="1044.7511"
         id="text4316"
         sodipodi:linespacing="125%"
         transform="scale(0.74668267,1.339257)"><tspan
           sodipodi:role="line"
           x="5260.8413"
           y="1044.7511"
           id="tspan4318"><tspan
             x="5260.8413"
             y="1044.7511"
             style="font-style:normal;font-variant:normal;font-weight:bold;font-stretch:normal;font-size:131.82922363px;font-family:'Arial Black';-inkscape-font-specification:'Arial Black, Bold';fill:#e06565;fill-opacity:1"
             id="tspan4320">B</tspan></tspan></text>
</g><g
       id="Y"><path
         d="m 4487.297,672.681 c -8.889,-112.396 -236.646,-62.308 -273.91,-45.485 -37.264,16.823 -207.073,96.898 -134.669,194.161 83.202,86.025 136.636,-11.178 211.14,-46.641 96.962,-37.559 200.876,15.784 197.439,-102.035 z"
         id="Y Button"
         inkscape:connector-curvature="0"
         style="fill:#c8c8c8;fill-opacity:1;stroke:#969696;stroke-width:16;stroke-miterlimit:4;stroke-dasharray:none;stroke-opacity:1" /><text
         xml:space="preserve"
         style="font-style:normal;font-weight:normal;font-size:64.93060303px;line-height:125%;font-family:sans-serif;letter-spacing:0px;word-spacing:0px;fill:#969696;fill-opacity:1;stroke:none;stroke-width:1px;stroke-linecap:butt;stroke-linejoin:miter;stroke-opacity:1"
         x="5724.7109"
         y="564.57025"
         id="text4328"
         sodipodi:linespacing="125%"
         transform="scale(0.73837619,1.3543232)"><tspan
           sodipodi:role="line"
           x="5724.7109"
           y="564.57025"
           id="tspan4330"><tspan
             x="5724.7109"
             y="564.57025"
             style="font-style:normal;font-variant:normal;font-weight:bold;font-stretch:normal;font-size:129.86120605px;font-family:'arial black';-inkscape-font-specification:'arial black, Bold';fill:#969696;fill-opacity:1"
             id="tspan4332">Y</tspan></tspan></text>
</g><g
       id="Y Pressed"
       style="stroke-width:16;stroke-miterlimit:4;stroke-dasharray:none"
       transform="translate(-532.59015,8.1311473)"><path
         style="fill:#ffffff;fill-opacity:1;stroke:#ffffff;stroke-width:16;stroke-miterlimit:4;stroke-dasharray:none;stroke-opacity:1"
         inkscape:connector-curvature="0"
         id="path4337"
         d="m 4487.297,672.681 c -8.889,-112.396 -236.646,-62.308 -273.91,-45.485 -37.264,16.823 -207.073,96.898 -134.669,194.161 83.202,86.025 136.636,-11.178 211.14,-46.641 96.962,-37.559 200.876,15.784 197.439,-102.035 z" /><text
         xml:space="preserve"
         style="font-style:normal;font-weight:normal;font-size:64.93060303px;line-height:125%;font-family:sans-serif;letter-spacing:0px;word-spacing:0px;fill:#e0e0e0;fill-opacity:1;stroke:none;stroke-width:9.85667706;stroke-linecap:butt;stroke-linejoin:miter;stroke-miterlimit:4;stroke-dasharray:none;stroke-opacity:1"
         x="5724.7109"
         y="564.57025"
         id="text4342"
         sodipodi:linespacing="125%"
         transform="scale(0.73837619,1.3543232)"><tspan
           sodipodi:role="line"
           x="5724.7109"
           y="564.57025"
           id="tspan4344"><tspan
             x="5724.7109"
             y="564.57025"
             style="font-style:normal;font-variant:normal;font-weight:bold;font-stretch:normal;font-size:129.86120605px;font-family:'arial black';-inkscape-font-specification:'arial black, Bold';fill:#e0e0e0;fill-opacity:1;stroke-width:9.85667706;stroke-miterlimit:4;stroke-dasharray:none"
             id="tspan4346">Y</tspan></tspan></text>
</g><g
       id="X"><path
         d="m 4897.257,913.106 c -16.822,-37.264 -96.897,-207.073 -194.161,-134.67 -86.025,83.202 11.178,136.636 46.641,211.141 37.56,96.962 -15.783,200.876 102.035,197.438 112.396,-8.888 62.308,-236.645 45.485,-273.909 z"
         id="X Button"
         inkscape:connector-curvature="0"
         style="fill:#c8c8c8;fill-opacity:1;stroke:#969696;stroke-width:16;stroke-miterlimit:4;stroke-dasharray:none;stroke-opacity:1" /><text
         xml:space="preserve"
         style="font-style:normal;font-weight:normal;font-size:64.93060303px;line-height:125%;font-family:sans-serif;letter-spacing:0px;word-spacing:0px;fill:#969696;fill-opacity:1;stroke:none;stroke-width:1px;stroke-linecap:butt;stroke-linejoin:miter;stroke-opacity:1"
         x="6486.3252"
         y="769.36322"
         id="text4334"
         sodipodi:linespacing="125%"
         transform="scale(0.73837619,1.3543232)"><tspan
           sodipodi:role="line"
           x="6486.3252"
           y="769.36322"
           id="tspan4336"><tspan
             x="6486.3252"
             y="769.36322"
             style="font-style:normal;font-variant:normal;font-weight:bold;font-stretch:normal;font-size:129.86120605px;font-family:'arial black';-inkscape-font-specification:'arial black, Bold';fill:#969696;fill-opacity:1"
             id="tspan4338">X</tspan><tspan
             dx="0"
             x="6587.272"
             y="769.36322"
             style="font-style:normal;font-variant:normal;font-weight:bold;font-stretch:normal;font-size:129.86120605px;font-family:'arial black';-inkscape-font-specification:'arial black, Bold';fill:#969696;fill-opacity:1"
             id="tspan4340" /></tspan></text>
</g><g
       id="X Pressed"
       transform="translate(369.9672,-235.80327)"><path
         style="fill:#ffffff;fill-opacity:1;stroke:#ffffff;stroke-width:16;stroke-miterlimit:4;stroke-dasharray:none;stroke-opacity:1"
         inkscape:connector-curvature="0"
         id="path4349"
         d="m 4897.257,913.106 c -16.822,-37.264 -96.897,-207.073 -194.161,-134.67 -86.025,83.202 11.178,136.636 46.641,211.141 37.56,96.962 -15.783,200.876 102.035,197.438 112.396,-8.888 62.308,-236.645 45.485,-273.909 z" /><flowRoot
         transform="matrix(1.1985803,0,0,2.1984256,-493.99375,-1398.9649)"
         style="font-style:normal;font-weight:normal;font-size:40px;line-height:125%;font-family:sans-serif;letter-spacing:0px;word-spacing:0px;fill:#e0e0e0;fill-opacity:1;stroke:none;stroke-width:1px;stroke-linecap:butt;stroke-linejoin:miter;stroke-opacity:1"
         id="flowRoot4351"
         xml:space="preserve"><flowRegion
           id="flowRegion4353"><rect
             style="fill:#e0e0e0;fill-opacity:1"
             y="1032.2623"
             x="4408"
             height="90.074509"
             width="62.920418"
             id="rect4355" /></flowRegion><flowPara
           style="font-style:normal;font-variant:normal;font-weight:bold;font-stretch:normal;font-size:80px;font-family:'arial black';-inkscape-font-specification:'arial black, Bold';fill:#e0e0e0;fill-opacity:1"
           id="flowPara4357">X</flowPara><flowPara
           id="flowPara4359"
           style="font-style:normal;font-variant:normal;font-weight:bold;font-stretch:normal;font-size:80px;font-family:'arial black';-inkscape-font-specification:'arial black, Bold';fill:#e0e0e0;fill-opacity:1" /></flowRoot></g><g
       id="D-Pad"
       transform="translate(1.0054078,-1.8494717)"><g
         id="Base"><path
           style="fill:#c8c8c8;fill-opacity:1;stroke:#7d7d7d;stroke-width:16.60231781;stroke-miterlimit:4;stroke-dasharray:none;stroke-opacity:1"
           d="m 2573.2885,1738.2656 c -11.1484,0 -20.123,8.9746 -20.123,20.1231 l 0,148.0527 -148.0527,0 c -11.1485,0 -20.1231,8.9746 -20.1231,20.1231 l 0,104.3281 c 0,11.1484 8.9746,20.123 20.1231,20.123 l 148.0527,0 0,148.0528 c 0,11.1484 8.9746,20.123 20.123,20.123 l 104.3282,0 c 11.1484,0 20.123,-8.9746 20.123,-20.123 l 0,-148.0528 148.0527,0 c 11.1485,0 20.1231,-8.9746 20.1231,-20.123 l 0,-104.3281 c 0,-11.1485 -8.9746,-20.1231 -20.1231,-20.1231 l -148.0527,0 0,-148.0527 c 0,-11.1485 -8.9746,-20.1231 -20.123,-20.1231 l -104.3282,0 z"
           id="rect5692"
           inkscape:connector-curvature="0" /><polygon
           style="fill:#969696;fill-opacity:1"
           id="polygon3555"
           points="2627.297,1780.071 2578.651,1862 2674.235,1862 " /><polygon
           style="fill:#969696;fill-opacity:1"
           id="polygon3560"
           points="2627.297,2184.928 2674.235,2103 2578.651,2103 " /><polygon
           style="fill:#969696;fill-opacity:1"
           id="polygon3565"
           points="2505.953,1934.718 2424.024,1981.656 2505.953,2030.302 "
           transform="translate(0,-3.7815)" /><polygon
           style="fill:#969696;fill-opacity:1"
           id="polygon3570"
           points="2746.953,1934.718 2746.953,2030.302 2828.881,1981.656 " /><circle
           style="fill:#969696;fill-opacity:1"
           id="circle3575"
           r="48.646999"
           cy="1979.417"
           cx="2626.9031" /></g><g
         id="Up Pressed"><path
           clip-path="url(#clipPath4342)"
           inkscape:connector-curvature="0"
           id="path4328"
           d="m 2573.2885,1738.2656 c -11.1484,0 -20.123,8.9746 -20.123,20.1231 l 0,148.0527 -148.0527,0 c -11.1485,0 -20.1231,8.9746 -20.1231,20.1231 l 0,104.3281 c 0,11.1484 8.9746,20.123 20.1231,20.123 l 148.0527,0 0,148.0528 c 0,11.1484 8.9746,20.123 20.123,20.123 l 104.3282,0 c 11.1484,0 20.123,-8.9746 20.123,-20.123 l 0,-148.0528 148.0527,0 c 11.1485,0 20.1231,-8.9746 20.1231,-20.123 l 0,-104.3281 c 0,-11.1485 -8.9746,-20.1231 -20.1231,-20.1231 l -148.0527,0 0,-148.0527 c 0,-11.1485 -8.9746,-20.1231 -20.123,-20.1231 l -104.3282,0 z"
           style="fill:#ffffff;fill-opacity:1;stroke:#ffffff;stroke-width:16.60231781;stroke-miterlimit:4;stroke-dasharray:none;stroke-opacity:1" /><polygon
           points="2674.235,1862 2627.297,1780.071 2578.651,1862 "
           id="polygon4352"
           style="fill:#e0e0e0;fill-opacity:1" /></g><g
         id="Down Pressed"><path
           transform="matrix(1,0,0,-1,0,3957.4284)"
           style="fill:#ffffff;fill-opacity:1;stroke:#ffffff;stroke-width:16.60231781;stroke-miterlimit:4;stroke-dasharray:none;stroke-opacity:1"
           d="m 2573.2885,1738.2656 c -11.1484,0 -20.123,8.9746 -20.123,20.1231 l 0,148.0527 -148.0527,0 c -11.1485,0 -20.1231,8.9746 -20.1231,20.1231 l 0,104.3281 c 0,11.1484 8.9746,20.123 20.1231,20.123 l 148.0527,0 0,148.0528 c 0,11.1484 8.9746,20.123 20.123,20.123 l 104.3282,0 c 11.1484,0 20.123,-8.9746 20.123,-20.123 l 0,-148.0528 148.0527,0 c 11.1485,0 20.1231,-8.9746 20.1231,-20.123 l 0,-104.3281 c 0,-11.1485 -8.9746,-20.1231 -20.1231,-20.1231 l -148.0527,0 0,-148.0527 c 0,-11.1485 -8.9746,-20.1231 -20.123,-20.1231 l -104.3282,0 z"
           id="path4346"
           inkscape:connector-curvature="0"
           clip-path="url(#clipPath4342)" /><polygon
           points="2627.297,2184.928 2674.235,2103 2578.651,2103 "
           id="polygon4358"
           style="fill:#e0e0e0;fill-opacity:1" /></g><g
         id="Left Pressed"><path
           clip-path="url(#clipPath4342)"
           inkscape:connector-curvature="0"
           id="path4348"
           d="m 2573.2885,1738.2656 c -11.1484,0 -20.123,8.9746 -20.123,20.1231 l 0,148.0527 -148.0527,0 c -11.1485,0 -20.1231,8.9746 -20.1231,20.1231 l 0,104.3281 c 0,11.1484 8.9746,20.123 20.1231,20.123 l 148.0527,0 0,148.0528 c 0,11.1484 8.9746,20.123 20.123,20.123 l 104.3282,0 c 11.1484,0 20.123,-8.9746 20.123,-20.123 l 0,-148.0528 148.0527,0 c 11.1485,0 20.1231,-8.9746 20.1231,-20.123 l 0,-104.3281 c 0,-11.1485 -8.9746,-20.1231 -20.1231,-20.1231 l -148.0527,0 0,-148.0527 c 0,-11.1485 -8.9746,-20.1231 -20.123,-20.1231 l -104.3282,0 z"
           style="fill:#ffffff;fill-opacity:1;stroke:#ffffff;stroke-width:16.60231781;stroke-miterlimit:4;stroke-dasharray:none;stroke-opacity:1"
           transform="matrix(0,1,1,0,646.7241,-646.7527)" /><polygon
           transform="translate(0,-3.7815)"
           points="2424.024,1981.656 2505.953,2030.302 2505.953,1934.718 "
           id="polygon4368"
           style="fill:#e0e0e0;fill-opacity:1" /></g><g
         id="Right Pressed"><path
           clip-path="url(#clipPath4342)"
           inkscape:connector-curvature="0"
           id="path4350"
           d="m 2573.2885,1738.2656 c -11.1484,0 -20.123,8.9746 -20.123,20.1231 l 0,148.0527 -148.0527,0 c -11.1485,0 -20.1231,8.9746 -20.1231,20.1231 l 0,104.3281 c 0,11.1484 8.9746,20.123 20.1231,20.123 l 148.0527,0 0,148.0528 c 0,11.1484 8.9746,20.123 20.123,20.123 l 104.3282,0 c 11.1484,0 20.123,-8.9746 20.123,-20.123 l 0,-148.0528 148.0527,0 c 11.1485,0 20.1231,-8.9746 20.1231,-20.123 l 0,-104.3281 c 0,-11.1485 -8.9746,-20.1231 -20.1231,-20.1231 l -148.0527,0 0,-148.0527 c 0,-11.1485 -8.9746,-20.1231 -20.123,-20.1231 l -104.3282,0 z"
           style="fill:#ffffff;fill-opacity:1;stroke:#ffffff;stroke-width:16.60231781;stroke-miterlimit:4;stroke-dasharray:none;stroke-opacity:1"
           transform="matrix(0,-1,-1,0,4604.1811,4604.1525)" /><polygon
           points="2746.953,2030.302 2828.881,1981.656 2746.953,1934.718 "
           id="polygon4374"
           style="fill:#e0e0e0;fill-opacity:1" /></g></g><circle
       cx="3211.9597"
       cy="1280"
       r="82"
       id="Start"
       style="fill:#c8c8c8;fill-opacity:1;stroke:#9a9a9a;stroke-width:16;stroke-miterlimit:4;stroke-dasharray:none;stroke-opacity:1" /><circle
       style="fill:#ffffff;fill-opacity:1;stroke:#ffffff;stroke-width:16;stroke-miterlimit:4;stroke-dasharray:none;stroke-opacity:1"
       id="Start Pressed"
       r="82"
       cy="1280"
       cx="3211.9597" /></g></svg>