<svg width="1440" height="900" xmlns="http://www.w3.org/2000/svg" fill-rule="evenodd" clip-rule="evenodd" stroke-linejoin="round" stroke-miterlimit="1.414"><path fill="none" d="M0 0h1440v900H0z"/><clipPath id="a"><path d="M0 0h1440v900H0z"/></clipPath><g clip-path="url(#a)"><path d="M0 0h190l300 900H100L0 600V0z" fill="url(#_Linear2)"/><path d="M550 0H240l300 900h310L550 0z" fill="url(#_Linear3)"/><path d="M820 0H300l300 900h520L820 0z" fill="url(#_Linear4)"/><path d="M1230 0H930l300 900h210V630L1230 0z" fill="url(#_Linear5)"/><path d="M1440 420v480h-90L1050 0h250l140 420z" fill="url(#_Linear6)"/></g><defs><linearGradient id="_Linear2" x2="1" gradientUnits="userSpaceOnUse" gradientTransform="matrix(0 900 -900 0 0 0)"><stop offset="0" stop-opacity=".031"/><stop offset="1" stop-opacity="0"/></linearGradient><linearGradient id="_Linear3" x2="1" gradientUnits="userSpaceOnUse" gradientTransform="matrix(0 900 -900 0 0 0)"><stop offset="0" stop-opacity=".031"/><stop offset="1" stop-opacity="0"/></linearGradient><linearGradient id="_Linear4" x2="1" gradientUnits="userSpaceOnUse" gradientTransform="matrix(0 900 -900 0 0 0)"><stop offset="0" stop-opacity=".031"/><stop offset="1" stop-opacity="0"/></linearGradient><linearGradient id="_Linear5" x2="1" gradientUnits="userSpaceOnUse" gradientTransform="matrix(0 900 -900 0 0 0)"><stop offset="0" stop-opacity=".031"/><stop offset="1" stop-opacity="0"/></linearGradient><linearGradient id="_Linear6" x2="1" gradientUnits="userSpaceOnUse" gradientTransform="matrix(0 900 -900 0 0 0)"><stop offset="0" stop-opacity=".031"/><stop offset="1" stop-opacity="0"/></linearGradient></defs></svg>